<svg width="42" height="42" viewBox="0 0 42 42" fill="none" xmlns="http://www.w3.org/2000/svg">
<rect x="6.25" y="8.25" width="27.5" height="27.5" rx="5.75" stroke="#1279CE" stroke-width="2.5"/>
<path d="M19.6661 27.7168C19.6054 27.7168 19.5522 27.7168 19.4915 27.7168C18.8163 27.6637 18.2093 27.2919 17.8451 26.7229L12.1091 17.6864C11.4718 16.6849 12.185 16.0324 13.1865 15.3951C14.188 14.7577 15.4551 13.9079 16.0924 14.9095L19.4536 21.0931C19.6888 21.5256 20.2882 21.5787 20.5993 21.1993L33.2701 5.61504C34.0591 4.72733 36.1229 4.85631 37.0182 5.64538C37.9059 6.43446 38.3915 7.10973 37.6024 8.00503L21.2822 26.996C20.8724 27.4588 20.2806 27.7244 19.6736 27.7244L19.6661 27.7168Z" fill="#28AF33"/>
</svg>
