<svg width="627" height="609" viewBox="0 0 627 609" fill="none" xmlns="http://www.w3.org/2000/svg">
<path d="M592.042 411.687C586.886 427.941 580.504 442.946 573.053 456.72C571.567 459.473 570.03 462.182 568.454 464.847C565.97 469.049 563.375 473.141 560.675 477.104C526.584 527.309 476.619 558.239 420.6 572.202C420.511 572.224 420.438 572.252 420.36 572.263C390.48 579.682 358.873 582.285 327.049 580.418C272.896 577.252 218.08 561.132 169.979 533.825C143.652 518.881 119.596 499.584 99.0091 477.109C95.3506 473.124 91.8202 469.033 88.3956 464.852C86.2016 462.177 84.0578 459.473 81.964 456.725C53.2752 419.118 33.7355 374.671 27.7828 327.643C16.7794 240.755 57.5128 142.731 127.804 90.4303C162.629 64.5335 202.143 55.6374 243.984 69.2268C288.098 83.552 328.547 104.588 374.047 115.129C397.117 120.48 421.363 122.687 445.118 126.271C479.397 131.444 512.635 139.487 539.865 163.929C598.696 216.731 614.856 339.772 592.036 411.682L592.042 411.687Z" fill="#DCE6F4"/>
<path d="M371.345 203.322C370.983 203.322 370.679 203.045 370.661 202.684C370.632 202.306 370.923 201.981 371.304 201.957C371.72 201.928 413.14 198.932 412.759 173.48C412.658 166.578 410.397 161.095 406.048 157.183C397.154 149.181 382.37 150.322 382.227 150.334C381.81 150.387 381.513 150.086 381.483 149.713C381.453 149.335 381.733 149.004 382.108 148.975C382.75 148.921 397.642 147.781 406.97 156.172C411.617 160.35 414.02 166.165 414.127 173.463C414.526 200.214 371.815 203.299 371.387 203.322C371.369 203.322 371.357 203.322 371.34 203.322H371.345Z" fill="#5C8FCC"/>
<path d="M449.639 395.593L274.305 396.675L319.377 225.288H469.016C484.663 225.288 496.092 239.978 492.135 255.023L449.639 395.599V395.593Z" fill="#0F1217"/>
<path d="M274.305 397.36C274.091 397.36 273.889 397.266 273.764 397.094C273.633 396.929 273.585 396.704 273.639 396.503L318.711 225.116C318.795 224.815 319.068 224.608 319.378 224.608H469.017C476.691 224.608 483.783 228.071 488.471 234.098C493.165 240.132 494.742 247.82 492.802 255.194L450.294 395.794C450.211 396.078 449.943 396.279 449.639 396.279L274.305 397.36V397.36ZM319.913 225.973L275.198 395.989L449.128 394.914L491.481 254.822C493.308 247.885 491.815 240.628 487.388 234.931C482.962 229.235 476.269 225.967 469.022 225.967H319.919L319.913 225.973Z" fill="#0F1217"/>
<path d="M438.901 395.593L263.567 396.675L308.639 225.288H458.278C473.925 225.288 485.354 239.978 481.398 255.023L438.901 395.599V395.593Z" fill="white"/>
<path d="M263.567 397.36C263.353 397.36 263.15 397.266 263.025 397.094C262.895 396.929 262.847 396.704 262.901 396.503L307.979 225.116C308.062 224.815 308.336 224.608 308.645 224.608H458.278C465.953 224.608 473.045 228.071 477.733 234.098C482.427 240.132 483.997 247.82 482.064 255.194L439.562 395.794C439.478 396.078 439.211 396.279 438.907 396.279L263.567 397.36V397.36ZM309.175 225.973L264.459 395.989L438.389 394.914L480.737 254.822C482.564 247.885 481.07 240.628 476.644 234.931C472.218 229.235 465.525 225.967 458.278 225.967H309.175V225.973Z" fill="#0F1217"/>
<path d="M312.06 66.9478C312.06 66.9478 276.857 65.175 283.794 99.8921C283.794 99.8921 248.842 122.418 273.924 148.916C273.924 148.916 261.115 156.072 259.782 174.089C258.45 192.107 283.961 208.93 310.156 201.709C336.351 194.494 356.079 201.709 356.079 201.709C356.079 201.709 407.446 210.674 408.922 173.823C409.677 155.008 393.983 151.031 393.983 151.031C393.983 151.031 414.99 115.41 387.51 97.9184C387.51 97.9184 386.201 71.8407 363.754 61.1567C352.307 55.7142 333.793 53.3978 312.06 66.9419V66.9478Z" fill="#0F1217"/>
<path d="M356.079 187.06C356.079 187.06 425.033 203.47 433.54 214.964C438.318 221.417 382.251 246.815 332.543 249.084C293.676 250.857 258.694 230.966 259.729 226.457C262.085 216.187 310.156 187.06 310.156 187.06V128.044H356.079V187.06V187.06Z" fill="white"/>
<path d="M327.582 249.876C294.711 249.876 265.637 235.434 260.026 228.774C259.217 227.811 258.902 227.001 259.057 226.304C261.371 216.205 304.855 189.477 309.466 186.676V128.044C309.466 127.666 309.775 127.359 310.156 127.359H356.073C356.454 127.359 356.763 127.666 356.763 128.044V186.517C363.653 188.177 425.83 203.4 434.093 214.556C434.462 215.053 434.772 215.898 434.189 217.121C429.893 226.068 377.955 247.696 332.579 249.764C330.907 249.841 329.236 249.876 327.582 249.876ZM310.846 128.724V187.055C310.846 187.291 310.721 187.515 310.513 187.64C310.037 187.929 262.662 216.725 260.401 226.605C260.389 226.641 260.336 227.007 261.079 227.9C266.672 234.536 298.62 249.988 332.508 248.399C378.157 246.319 429.185 224.342 432.939 216.53C433.296 215.791 433.064 215.484 432.981 215.366C424.711 204.203 356.597 187.882 355.907 187.722C355.597 187.645 355.377 187.374 355.377 187.06V128.73H310.834L310.846 128.724Z" fill="#0F1217"/>
<path d="M446.522 355.853C446.522 355.853 432.434 353.442 424.39 345.447C416.341 337.452 437.628 317.662 437.628 317.662C437.628 317.662 446.433 346.464 446.522 355.853Z" fill="#0F1217"/>
<path d="M446.522 356.539C446.486 356.539 446.445 356.539 446.409 356.527C445.826 356.426 432.017 353.986 423.902 345.931C422.528 344.566 421.85 342.811 421.886 340.714C422.04 331.324 436.539 317.732 437.158 317.159C437.33 317 437.574 316.935 437.806 317C438.038 317.059 438.217 317.236 438.288 317.46C438.651 318.642 447.117 346.463 447.212 355.841C447.212 356.042 447.129 356.237 446.968 356.367C446.843 356.474 446.683 356.533 446.522 356.533V356.539ZM437.295 318.938C434.219 321.957 423.391 333.138 423.26 340.737C423.23 342.475 423.76 343.857 424.878 344.962C431.565 351.604 442.691 354.352 445.808 355.014C445.314 346.186 438.829 324.073 437.295 318.932V318.938Z" fill="#0F1217"/>
<path d="M231.172 334.095L195.113 319.47C195.113 319.47 201.627 364.924 246.486 379.963C246.486 379.963 237.032 348.431 231.172 334.101V334.095Z" fill="#0F1217"/>
<path d="M246.492 380.643C246.42 380.643 246.343 380.631 246.272 380.608C201.526 365.604 194.5 320.02 194.435 319.565C194.399 319.322 194.494 319.08 194.69 318.926C194.887 318.773 195.143 318.737 195.375 318.832L231.434 333.457C231.606 333.528 231.737 333.664 231.809 333.836C237.615 348.036 247.051 379.449 247.146 379.763C247.224 380.011 247.146 380.271 246.968 380.448C246.837 380.572 246.664 380.643 246.492 380.643V380.643ZM196.017 320.569C197.445 327.749 206.649 365.131 245.451 378.876C243.624 372.866 235.771 347.226 230.654 334.616L196.023 320.569H196.017Z" fill="#0F1217"/>
<path d="M216.709 304.732L196.743 335.927C191.43 344.224 184.44 351.333 176.212 356.793L101.059 406.685C101.059 406.685 86.2156 396.686 82.176 395.936C78.1363 395.185 56.0165 397.035 50.1921 405.58C44.3676 414.119 51.0369 421.612 51.0369 421.612C48.4727 427.308 52.548 431.652 52.548 431.652C51.495 438.997 56.2842 440.468 56.2842 440.468C54.7969 451.164 76.7085 451.347 83.3896 450.426C90.0767 449.504 108.651 438.181 108.651 438.181C108.651 438.181 219.428 396.633 223.89 390.795C228.358 384.962 275.067 321.432 275.067 321.432L216.709 304.726V304.732Z" fill="white"/>
<path d="M77.1606 451.484C70.4199 451.484 61.6148 450.379 57.6406 446.443C56.0819 444.895 55.3799 443.033 55.5405 440.894C54.2376 440.232 51.0547 437.957 51.8162 431.871C50.9714 430.843 48.1514 426.848 50.2396 421.724C48.9962 420.105 44.2724 413.026 49.6149 405.202C55.5465 396.51 77.696 394.435 82.2949 395.269C86.1084 395.978 98.6378 404.257 101.053 405.87L175.825 356.232C184.023 350.789 190.865 343.84 196.16 335.567L216.126 304.372C216.293 304.112 216.596 303.988 216.9 304.082L275.257 320.794C275.471 320.853 275.644 321.018 275.715 321.231C275.787 321.444 275.751 321.674 275.62 321.857C275.15 322.496 228.852 385.453 224.438 391.227C219.904 397.148 113.416 437.136 108.889 438.838C108.246 439.251 90.2254 450.19 83.4788 451.123C81.9022 451.342 79.6712 451.495 77.1546 451.495L77.1606 451.484ZM79.5939 396.456C72.4724 396.456 55.5524 398.932 50.7572 405.97C45.2957 413.977 51.489 421.098 51.5544 421.163C51.7329 421.364 51.7805 421.654 51.6675 421.896C49.3234 427.09 52.899 431.026 53.0537 431.191C53.1964 431.345 53.2559 431.552 53.2262 431.753C52.2743 438.389 56.3199 439.766 56.4865 439.825C56.8018 439.925 57.01 440.238 56.9624 440.569C56.6947 442.502 57.2361 444.103 58.6163 445.474C63.8042 450.621 78.5289 450.426 83.2944 449.758C89.7614 448.866 108.103 437.721 108.288 437.609C139.165 426.015 219.779 395.05 223.343 390.393C227.484 384.981 268.534 329.167 273.925 321.834L217.007 305.536L197.314 336.3C191.918 344.732 184.946 351.823 176.587 357.366L101.434 407.259C101.202 407.412 100.905 407.412 100.667 407.259C95.5739 403.831 85.1268 397.189 82.045 396.616C81.4917 396.51 80.6529 396.456 79.5939 396.456V396.456Z" fill="#0F1217"/>
<path d="M257.355 220.105C257.355 220.105 322.828 272.101 433.832 210.975C433.832 210.975 483.688 247.093 446.528 355.853C446.528 355.853 441.167 332.819 404.37 310.647V395.599H251.894C251.894 395.599 257.676 377.688 257.337 359.44L246.492 379.963C246.492 379.963 226.079 337.718 195.119 319.47C195.119 319.47 246.73 260.838 257.361 220.105H257.355Z" fill="#0F1217"/>
<path d="M404.365 396.279H251.894C251.674 396.279 251.465 396.172 251.34 396.001C251.21 395.824 251.174 395.599 251.239 395.392C251.293 395.227 256.421 379.153 256.659 362.206L247.105 380.288C246.98 380.518 246.73 380.619 246.48 380.654C246.224 380.654 245.986 380.501 245.873 380.27C245.671 379.851 225.193 338.001 194.768 320.066C194.595 319.96 194.47 319.789 194.441 319.588C194.411 319.387 194.464 319.186 194.601 319.032C195.119 318.447 246.224 260.052 256.695 219.945C256.754 219.721 256.921 219.544 257.141 219.467C257.367 219.396 257.611 219.437 257.79 219.579C257.95 219.709 274.424 232.562 304.177 237.815C331.645 242.667 376.379 241.845 433.499 210.39C433.737 210.266 434.022 210.278 434.236 210.437C434.754 210.81 446.968 219.851 454.768 242.418C467.755 280.001 457.808 324.977 447.176 356.084C447.081 356.373 446.879 356.568 446.492 356.55C446.183 356.533 445.927 356.32 445.856 356.024C445.802 355.8 440.204 333.427 405.055 311.882V395.611C405.055 395.989 404.745 396.296 404.365 396.296V396.279ZM252.816 394.913H403.674V310.647C403.674 310.399 403.811 310.174 404.025 310.05C404.246 309.926 404.507 309.932 404.722 310.062C435.075 328.357 444.249 347.521 446.534 353.673C480.267 252.866 438.032 215.265 433.76 211.796C376.438 243.252 331.485 244.038 303.85 239.139C277.548 234.476 261.484 223.916 257.76 221.257C247.265 259.384 201.657 312.958 196.172 319.304C223.652 335.909 242.91 371.483 246.504 378.468L256.725 359.121C256.873 358.843 257.195 358.701 257.492 358.772C257.802 358.843 258.016 359.109 258.022 359.422C258.313 375.277 253.964 391.049 252.816 394.913V394.913Z" fill="#0F1217"/>
<path d="M276.863 229.956C276.863 229.956 290.41 276.273 313.958 269.394C337.505 262.516 336.47 254.822 350.88 254.26C365.289 253.699 402.133 247.724 401.223 235.002C400.313 222.28 298.787 239.257 276.869 229.956H276.863Z" fill="#5C8FCC"/>
<path d="M388.623 247.235C388.623 247.235 376.636 282.079 363.925 274.24C351.215 266.401 352.372 258.771 344.321 257.612C336.27 256.453 310.272 242.608 317.487 236.313C324.701 230.017 391.081 225.418 388.028 230.393L388.623 247.235Z" fill="#5C8FCC"/>
<path d="M597.6 397.46H123.619C123.238 397.46 122.929 397.153 122.929 396.775C122.929 396.397 123.238 396.089 123.619 396.089H597.6C597.981 396.089 598.29 396.397 598.29 396.775C598.29 397.153 597.981 397.46 597.6 397.46Z" fill="#0F1217"/>
<path d="M290.446 503.846L143.835 498.965L236.854 463.651L383.465 456.761V463.651L290.446 503.846Z" fill="#0F1217"/>
<path d="M290.446 496.956L143.835 492.069L236.854 456.761H383.465L290.446 496.956Z" fill="#5C8FCC"/>
<path d="M310.156 160.965V171.022C310.156 171.022 325.613 169.769 332.544 160.38C332.544 160.38 317.76 159.416 310.156 160.959V160.965Z" fill="#0F1217"/>
<path d="M329.766 69.956C320.496 68.5732 299.578 71.8529 294.188 93.6818C288.257 117.715 282.492 151.699 304.243 159.316C326 166.933 353.664 158.749 358.644 132.21C363.623 105.672 375.094 76.7103 329.76 69.956H329.766Z" fill="white"/>
<path d="M304.07 166.236C304.005 166.236 303.933 166.224 303.868 166.206C303.767 166.177 293.45 163.027 283.146 156.994C269.385 148.939 261.877 139.413 261.431 129.444C260.955 118.95 265.732 109.997 275.233 103.568C282.361 98.7457 289.518 97.0557 289.815 96.9848C290.184 96.8902 290.559 97.1266 290.642 97.493C290.726 97.8593 290.5 98.2257 290.131 98.3143C290.059 98.3321 282.896 100.028 275.977 104.72C266.785 110.954 262.353 119.257 262.811 129.385C263.846 152.408 303.868 164.776 304.278 164.9C304.641 165.012 304.843 165.391 304.736 165.757C304.647 166.053 304.373 166.242 304.076 166.242L304.07 166.236Z" fill="#0F1217"/>
<path d="M307.603 134.988C307.354 134.988 307.104 134.852 306.985 134.604C305.503 131.62 305.319 129.386 306.437 127.956C307.853 126.148 310.882 126.319 312.22 126.496L314.701 116.976C314.796 116.61 315.171 116.397 315.54 116.486C315.909 116.58 316.129 116.953 316.034 117.319L313.392 127.442C313.303 127.796 312.934 128.021 312.583 127.938C311.53 127.719 308.579 127.448 307.52 128.795C306.765 129.764 307.003 131.56 308.216 133.995C308.383 134.332 308.246 134.74 307.901 134.911C307.806 134.958 307.699 134.982 307.598 134.982L307.603 134.988Z" fill="#0F1217"/>
<path d="M326.427 109.217C325.868 110.246 327.07 110.978 327.944 111.286C329.723 111.924 331.728 112.214 333.674 112.107C334.953 112.036 338.368 111.841 338.861 110.417C339.694 108.03 333.442 107.114 331.966 107.126C330.259 107.143 327.308 107.604 326.427 109.217V109.217Z" fill="#0F1217"/>
<path d="M292.593 106.659C292.069 107.687 293.206 108.42 294.027 108.733C295.698 109.377 297.579 109.672 299.405 109.578C300.607 109.513 303.808 109.33 304.272 107.911C305.045 105.53 299.167 104.584 297.781 104.59C296.174 104.596 293.408 105.045 292.593 106.653V106.659Z" fill="#0F1217"/>
<path d="M332.371 127.5C326.166 127.5 320.996 122.082 320.769 121.845C320.549 121.609 320.52 121.248 320.71 120.983C320.906 120.705 325.624 114.187 332.139 113.744C338.653 113.306 344.216 119.127 344.448 119.375C344.668 119.612 344.698 119.972 344.508 120.238C344.311 120.516 339.593 127.034 333.079 127.477C332.841 127.495 332.603 127.5 332.371 127.5ZM322.185 121.319C323.548 122.596 327.998 126.46 332.99 126.118C337.916 125.787 341.86 121.361 343.032 119.907C341.729 118.684 337.517 115.091 332.835 115.091C332.639 115.091 332.436 115.091 332.228 115.109C327.302 115.44 323.357 119.866 322.185 121.319V121.319Z" fill="#0F1217"/>
<path d="M297.93 125.261C297.561 125.261 297.186 125.243 296.811 125.202C290.321 124.511 285.864 117.81 285.674 117.526C285.496 117.254 285.537 116.894 285.769 116.669C286.013 116.433 291.802 110.837 298.293 111.516C304.784 112.208 309.24 118.909 309.43 119.192C309.608 119.464 309.567 119.825 309.335 120.049C309.109 120.274 303.957 125.261 297.936 125.261H297.93ZM287.161 117.248C288.274 118.743 292.058 123.317 296.954 123.837C301.856 124.381 306.527 120.687 307.931 119.464C306.818 117.969 303.034 113.395 298.138 112.875C293.206 112.355 288.565 116.025 287.155 117.248H287.161Z" fill="#0F1217"/>
<path d="M306.955 140.495C306.657 141.281 310.721 147.982 316.176 146.405C321.632 144.827 320.835 137.34 320.145 137.044C319.448 136.749 317.075 139.42 312.993 140.152C309.287 140.82 307.365 139.396 306.955 140.489V140.495Z" fill="#0F1217"/>
<path d="M312.411 146.268C312.411 146.268 314.219 141.074 319.49 143.893C319.49 143.893 318.098 148.437 312.411 146.268Z" fill="white"/>
<path d="M314.499 147.332C311.715 147.332 309.567 145.536 308.425 144.318C307.419 143.243 305.956 141.192 306.307 140.259C306.699 139.201 307.77 139.349 308.811 139.491C309.781 139.626 311.12 139.81 312.869 139.491C315.243 139.059 317.027 137.93 318.211 137.18C319.205 136.548 319.806 136.164 320.413 136.424C321.472 136.873 321.329 139.739 321.305 140.064C321.204 141.772 320.514 145.873 316.373 147.066C315.724 147.255 315.094 147.338 314.505 147.338L314.499 147.332ZM307.663 140.749C307.889 141.452 309.115 143.462 311.036 144.779C312.672 145.902 314.332 146.221 315.986 145.748C317.604 145.282 318.753 144.188 319.407 142.498C320.121 140.643 320.002 138.616 319.794 137.818C319.562 137.942 319.241 138.149 318.961 138.326C317.688 139.13 315.76 140.353 313.125 140.832C311.149 141.192 309.638 140.98 308.633 140.844C308.294 140.797 307.877 140.72 307.669 140.755L307.663 140.749Z" fill="#0F1217"/>
<path d="M332.282 114.424C330.533 118.401 329.95 123.453 332.311 126.798C332.555 126.798 332.793 126.81 333.037 126.798C339.296 126.372 343.948 119.843 343.948 119.843C343.948 119.843 338.505 114.069 332.282 114.424Z" fill="#0F1217"/>
<path d="M297.465 114.394C296.954 116.06 296.65 117.804 296.49 119.535C296.335 121.255 296.454 123.039 297.352 124.54C303.403 124.883 308.841 119.559 308.841 119.559C308.841 119.559 304.504 112.946 298.322 112.208C297.918 112.952 297.632 113.838 297.46 114.388L297.465 114.394Z" fill="#0F1217"/>
<path d="M320.294 162.732C314.862 162.732 309.329 161.822 304.023 159.96C281.831 152.19 287.406 118.318 293.528 93.5163C298.674 72.6802 318.581 67.5982 329.873 69.2823C344.716 71.4924 354.473 76.1903 359.697 83.6478C367.264 94.45 364.082 109.53 361.006 124.115C360.429 126.862 359.846 129.61 359.334 132.334C359.263 132.701 358.917 132.955 358.531 132.884C358.156 132.813 357.912 132.459 357.977 132.086C358.489 129.35 359.072 126.597 359.655 123.837C362.672 109.536 365.789 94.7454 358.566 84.4278C353.575 77.2953 344.121 72.7865 329.67 70.6355C322.394 69.5482 300.387 71.4865 294.866 93.8472C288.869 118.134 283.342 151.274 304.481 158.678C318.051 163.423 333.109 161.822 343.776 154.482C344.098 154.27 344.52 154.341 344.734 154.654C344.954 154.961 344.871 155.392 344.562 155.605C337.726 160.309 329.159 162.738 320.3 162.738L320.294 162.732Z" fill="#0F1217"/>
<path d="M285.115 105.707C285.115 105.707 304.516 102.552 314.547 82.7852C314.547 82.7852 326.291 106.576 361.975 115.859L370.399 99.3253L356.853 76.3086L334.34 68.5024H320.567L298.156 76.1432C298.156 76.1432 281.956 101.506 285.115 105.707Z" fill="#0F1217"/>
<path d="M352.891 123.021C352.891 123.021 362.219 109.105 371.899 114.748C381.585 120.392 375.362 142.368 355.116 141.039C342.979 140.241 352.891 123.021 352.891 123.021Z" fill="white"/>
<path d="M359.233 128.73C359.191 128.73 359.144 128.73 359.102 128.718C358.727 128.647 358.489 128.286 358.56 127.914C358.59 127.749 359.376 123.937 362.38 122.241C364.093 121.272 366.158 121.195 368.502 122.023C368.859 122.147 369.049 122.537 368.918 122.897C368.793 123.252 368.407 123.435 368.038 123.311C366.086 122.625 364.409 122.661 363.058 123.429C360.595 124.818 359.911 128.145 359.905 128.18C359.84 128.505 359.554 128.735 359.233 128.735V128.73Z" fill="#0F1217"/>
<path d="M356.377 141.748C355.955 141.748 355.527 141.736 355.092 141.718C354.712 141.701 354.42 141.382 354.432 141.003C354.45 140.637 354.753 140.348 355.122 140.348H355.152C366.908 140.873 373.226 133.812 375.07 127.601C376.623 122.395 375.207 117.461 371.554 115.334C362.565 110.08 353.557 123.264 353.468 123.394C353.26 123.707 352.832 123.79 352.516 123.583C352.201 123.376 352.118 122.951 352.326 122.637C352.421 122.496 362.124 108.254 372.256 114.152C376.462 116.604 378.128 122.165 376.391 127.985C374.469 134.432 368.098 141.736 356.383 141.736L356.377 141.748Z" fill="#0F1217"/>
<path d="M366.295 130.101C366.11 130.101 365.926 130.024 365.789 129.882C362.915 126.797 363.052 122.537 363.058 122.36C363.076 121.993 363.379 121.704 363.748 121.704H363.772C364.153 121.721 364.444 122.035 364.433 122.413C364.433 122.448 364.319 126.295 366.8 128.954C367.056 129.232 367.044 129.663 366.765 129.923C366.634 130.042 366.461 130.107 366.295 130.107V130.101Z" fill="#0F1217"/>
<path d="M382.863 110.328C382.733 110.328 382.608 110.293 382.495 110.222C382.173 110.021 382.078 109.596 382.286 109.283C382.417 109.082 395.131 88.9368 381.013 70.098C365.622 49.5514 330.152 59.544 329.801 59.6504C329.438 59.7508 329.051 59.5499 328.944 59.1835C328.837 58.8231 329.051 58.439 329.414 58.3326C329.503 58.3031 338.564 55.7207 349.464 55.7207H349.642C364.266 55.7562 375.498 60.4481 382.114 69.2766C396.809 88.8895 383.577 109.808 383.44 110.015C383.31 110.222 383.089 110.328 382.863 110.328V110.328Z" fill="#0F1217"/>
<path d="M257.338 360.12C257.338 360.12 257.302 360.12 257.284 360.12C256.903 360.09 256.624 359.759 256.654 359.387C256.695 358.849 260.8 305.228 259.027 291.631C258.98 291.259 259.247 290.91 259.622 290.863C259.985 290.833 260.342 291.081 260.396 291.454C262.186 305.187 258.194 357.277 258.028 359.493C258.004 359.854 257.701 360.126 257.344 360.126L257.338 360.12Z" fill="white"/>
<path d="M408.945 114.252C401.681 114.276 404.596 138.25 404.596 138.25L415.073 153.425C415.073 153.425 414.116 114.234 408.945 114.252V114.252Z" fill="white"/>
<path d="M415.073 154.104C414.847 154.104 414.639 153.998 414.508 153.809L404.031 138.634C403.972 138.545 403.93 138.439 403.918 138.332C403.829 137.576 401.723 119.824 406.09 114.914C406.881 114.021 407.845 113.566 408.952 113.566C414.365 113.566 415.532 144.058 415.764 153.407C415.77 153.708 415.579 153.98 415.288 154.075C415.216 154.098 415.145 154.104 415.073 154.104V154.104ZM405.263 138.001L414.324 151.12C413.753 133.286 411.611 114.931 408.952 114.931C408.25 114.931 407.649 115.221 407.119 115.818C403.365 120.037 405.055 136.187 405.263 138.001V138.001Z" fill="#0F1217"/>
<path d="M393.56 167.046L362.094 159.683C360.101 159.216 358.864 157.23 359.334 155.251L371.661 103.278C372.131 101.299 374.13 100.07 376.123 100.536L407.589 107.899C409.582 108.366 410.82 110.352 410.35 112.331L398.022 164.304C397.552 166.283 395.553 167.512 393.56 167.046Z" fill="#0F1217"/>
<path d="M394.417 167.826C394.078 167.826 393.739 167.79 393.4 167.708L361.934 160.345C359.572 159.789 358.108 157.437 358.661 155.091L370.982 103.119C371.25 101.984 371.952 101.015 372.952 100.407C373.951 99.7921 375.135 99.5971 376.277 99.8689L407.744 107.232C410.106 107.787 411.569 110.139 411.016 112.485L398.689 164.457C398.421 165.592 397.725 166.555 396.725 167.17C396.023 167.601 395.226 167.826 394.417 167.826V167.826ZM375.26 101.116C374.707 101.116 374.159 101.269 373.678 101.565C372.987 101.99 372.506 102.652 372.321 103.432L360 155.404C359.619 157.012 360.625 158.631 362.249 159.015L393.715 166.378C394.494 166.561 395.304 166.431 396 166.006C396.684 165.586 397.166 164.924 397.35 164.144L409.677 112.166C410.058 110.559 409.053 108.94 407.428 108.556L375.962 101.193C375.73 101.139 375.498 101.11 375.266 101.11L375.26 101.116Z" fill="#0F1217"/>
<path d="M65.3689 424.685C59.1458 424.685 52.8454 424.017 50.5906 422.138C50.2991 421.896 50.2634 421.464 50.5073 421.175C50.7572 420.891 51.1856 420.85 51.4771 421.092C54.9634 424.005 71.8775 423.674 78.0708 422.286C79.4808 421.972 80.4684 421.305 80.992 420.312C82.1283 418.167 80.9265 415.112 80.9146 415.082C80.7778 414.734 80.9444 414.338 81.3013 414.196C81.6523 414.06 82.051 414.225 82.1937 414.58C82.2532 414.728 83.6454 418.244 82.2116 420.95C81.4858 422.315 80.1947 423.219 78.3683 423.627C75.6673 424.236 70.5448 424.697 65.3629 424.697L65.3689 424.685Z" fill="#0F1217"/>
<path d="M66.9335 434.287C59.8894 434.287 52.8453 432.444 52.3634 432.314C51.9946 432.219 51.7804 431.841 51.8756 431.48C51.9708 431.114 52.3575 430.901 52.7145 430.996C52.9048 431.043 71.4848 435.912 77.9636 429.944C79.9091 428.148 80.5576 425.477 79.8912 421.99C79.8198 421.618 80.0638 421.263 80.4386 421.186C80.8074 421.116 81.1704 421.364 81.2477 421.73C82.0033 425.707 81.218 428.809 78.8977 430.943C76.1193 433.501 71.5205 434.287 66.9216 434.287H66.9335Z" fill="#0F1217"/>
<path d="M64.5716 441.751C60.1571 441.751 56.4983 441.195 56.171 441.148C55.7962 441.089 55.5404 440.74 55.5999 440.368C55.6594 439.996 55.9985 439.748 56.3852 439.801C56.5518 439.83 73.3767 442.371 78.2789 436.551C79.7603 434.796 79.9805 432.361 78.9215 429.318C78.7965 428.963 78.9869 428.573 79.3498 428.449C79.6949 428.319 80.0995 428.514 80.2244 428.875C81.45 432.396 81.1466 435.274 79.332 437.425C76.3692 440.935 69.9141 441.751 64.5656 441.751H64.5716Z" fill="#0F1217"/>
<path d="M67.5104 448.091C67.0344 448.091 66.731 448.08 66.6596 448.074C66.2788 448.056 65.9873 447.737 66.0052 447.359C66.029 446.98 66.3562 446.738 66.725 446.709C66.8083 446.72 75.9406 447.081 78.4513 443.228C79.4032 441.774 79.2663 439.824 78.0527 437.419C77.8861 437.082 78.0229 436.669 78.3561 436.503C78.6952 436.344 79.1117 436.474 79.2782 436.811C80.7239 439.677 80.831 442.088 79.5995 443.979C77.1305 447.755 69.9853 448.097 67.5044 448.097L67.5104 448.091Z" fill="#0F1217"/>
<path d="M76.0655 405.373L61.4062 409.817L48.1391 366.602C46.9016 362.584 49.1862 358.329 53.2317 357.1C57.2773 355.871 61.5609 358.14 62.7983 362.159L76.0655 405.373V405.373Z" fill="#0F1217"/>
<path d="M101.059 406.691C101.059 406.691 85.8462 395.014 79.0461 396.881C72.2459 398.743 51.0364 408.866 59.068 416.873C63.8394 421.63 78.231 410.833 78.231 410.833C78.231 410.833 80.4204 422.959 96.2041 422.959L101.065 406.697L101.059 406.691Z" fill="white"/>
<path d="M48.1391 366.602C46.9016 362.584 49.1862 358.329 53.2317 357.1C57.2773 355.871 61.5609 358.14 62.7983 362.159L48.1391 366.602V366.602Z" fill="#FF5C5C"/>
<path d="M431.018 182.244L449.997 102.522C450.687 99.6266 453.287 97.5879 456.279 97.5879H582.763C586.88 97.5879 589.944 101.364 589.069 105.359L578.206 155.038C577.563 157.987 574.934 160.09 571.899 160.09H454.613L431.018 182.244Z" fill="white"/>
<path d="M431.018 182.924C430.899 182.924 430.78 182.894 430.673 182.835C430.411 182.682 430.28 182.38 430.346 182.085L449.324 102.363C450.092 99.1479 452.947 96.9023 456.273 96.9023H582.763C584.935 96.9023 586.963 97.8656 588.326 99.5438C589.688 101.222 590.206 103.397 589.748 105.5L578.884 155.18C578.176 158.418 575.237 160.77 571.905 160.77H454.893L431.494 182.735C431.363 182.859 431.191 182.924 431.018 182.924V182.924ZM456.279 98.2615C453.596 98.2615 451.288 100.076 450.669 102.67L432.22 180.17L454.143 159.588C454.274 159.47 454.441 159.399 454.619 159.399H571.905C574.6 159.399 576.968 157.502 577.539 154.89L588.403 105.211C588.772 103.509 588.355 101.754 587.255 100.395C586.154 99.0356 584.518 98.2615 582.769 98.2615H456.279V98.2615Z" fill="#0F1217"/>
<path d="M292.813 496.955L148.898 498.964L104.849 390.966H251.453L292.813 496.955Z" fill="#0F1217"/>
<path d="M290.446 503.846L143.835 498.964L99.7861 390.966H246.391L290.446 503.846Z" fill="#5C8FCC"/>
<path d="M510.484 461.269L432.648 449.055L494.855 403.329L572.697 415.537L510.484 461.269Z" fill="#0F1217"/>
<path d="M510.49 461.955C510.454 461.955 510.419 461.955 510.383 461.949L432.547 449.74C432.273 449.699 432.053 449.492 431.988 449.226C431.922 448.96 432.024 448.677 432.25 448.511L494.456 402.779C494.605 402.667 494.796 402.626 494.974 402.655L572.81 414.87C573.083 414.911 573.304 415.118 573.369 415.384C573.434 415.65 573.333 415.933 573.107 416.099L510.901 461.831C510.782 461.92 510.639 461.967 510.49 461.967V461.955ZM434.379 448.641L510.311 460.554L570.965 415.969L495.033 404.056L434.379 448.647V448.641Z" fill="#0F1217"/>
<path d="M507.991 452.015L455.012 443.706L497.353 412.582L550.333 420.89L507.991 452.015Z" fill="#FF5C5C"/>
<path d="M432.648 480.303C432.648 483.713 420.315 486.472 405.097 486.472C389.878 486.472 377.545 483.713 377.545 480.303C377.545 476.893 389.878 474.134 405.097 474.134C420.315 474.134 432.648 476.893 432.648 480.303Z" fill="#5C8FCC"/>
<path d="M377.551 480.303L383.459 510.015C383.459 512.692 393.144 514.86 405.097 514.86C417.049 514.86 426.734 512.692 426.734 510.015L432.642 480.303H377.545H377.551Z" fill="#5C8FCC"/>
<path d="M442.03 487.122C438.151 483.382 430.637 483.967 429.798 484.038C428.448 484.162 427.454 485.355 427.579 486.697C427.704 488.038 428.936 489.025 430.256 488.901C432.214 488.712 436.825 488.901 438.603 490.62C438.99 490.993 439.424 491.578 439.347 492.813C439.079 497.02 429.644 502.764 423.034 505.494C421.779 506.014 421.19 507.444 421.707 508.685C422.1 509.625 423.016 510.192 423.974 510.192C424.289 510.192 424.61 510.133 424.92 510.003C428.049 508.709 443.696 501.83 444.255 493.12C444.404 490.745 443.637 488.665 442.03 487.116V487.122Z" fill="#5C8FCC"/>
<path d="M405.102 486.472C414.371 486.472 422.546 485.444 427.543 483.872C427.329 481.136 417.376 478.932 405.102 478.932C392.829 478.932 382.875 481.136 382.661 483.872C387.653 485.444 395.833 486.472 405.102 486.472Z" fill="#0F1217"/>
<path d="M316.439 75.3926C316.111 75.3572 315.79 75.5758 315.743 75.9126C313.988 88.3872 309.698 96.7488 302.987 100.773C295.3 105.382 287.013 102.504 286.936 102.475C286.62 102.363 286.263 102.528 286.15 102.841C286.037 103.16 286.198 103.509 286.519 103.621C286.716 103.692 289.417 104.638 293.177 104.638C296.217 104.638 299.947 104.023 303.618 101.825C310.668 97.6056 315.16 88.9426 316.968 76.0781C317.016 75.7413 316.784 75.434 316.445 75.3867L316.439 75.3926Z" fill="#0F1217"/>
<path d="M389.795 107.805L382.007 117.112H395.369L389.795 107.805Z" fill="white"/>
<path d="M395.369 117.791H382.001C381.733 117.791 381.489 117.638 381.376 117.401C381.263 117.159 381.299 116.876 381.471 116.675L389.259 107.367C389.402 107.202 389.622 107.09 389.842 107.125C390.062 107.143 390.265 107.267 390.378 107.456L395.952 116.763C396.077 116.976 396.083 117.236 395.958 117.455C395.833 117.667 395.607 117.797 395.357 117.797L395.369 117.791ZM383.47 116.426H394.161L389.699 108.981L383.47 116.426Z" fill="#0F1217"/>
<path d="M175.771 403.329L173.362 421.86L192.608 419.408L175.771 403.329Z" fill="white"/>
<path d="M573.268 415.324C573.202 415.147 573.054 415.011 572.869 414.952C572.691 414.899 572.482 414.934 572.334 415.047L510.127 460.773C509.996 460.867 509.913 461.009 509.889 461.163C509.841 461.44 508.747 468.088 509.889 474.831C509.925 475.038 510.068 475.215 510.264 475.298C510.335 475.327 510.418 475.345 510.496 475.345C510.627 475.345 510.758 475.304 510.859 475.227L573.066 429.501C573.185 429.412 573.268 429.288 573.303 429.14C573.381 428.792 575.237 420.477 573.28 415.324H573.268Z" fill="#5C8FCC"/>
<path d="M432.648 449.054C432.648 449.054 439.252 457.008 432.648 462.521L510.484 474.736C510.484 474.736 512.614 468.59 509.36 460.902L432.648 449.06V449.054Z" fill="white"/>
<path d="M510.49 475.416C510.454 475.416 510.419 475.416 510.383 475.41L432.547 463.201C432.279 463.16 432.065 462.965 431.988 462.711C431.916 462.451 432.006 462.179 432.208 462.002C438.205 456.997 432.375 449.799 432.119 449.498C431.94 449.279 431.91 448.972 432.053 448.724C432.196 448.475 432.47 448.339 432.755 448.387L509.467 460.229C509.705 460.264 509.907 460.424 509.996 460.643C513.31 468.484 511.228 474.701 511.138 474.961C511.043 475.239 510.776 475.422 510.49 475.422V475.416ZM434.13 462.061L509.996 473.962C510.389 472.355 511.257 467.409 508.884 461.511L434.13 449.97C435.641 452.417 438.074 457.729 434.13 462.055V462.061Z" fill="#0F1217"/>
<path d="M476.691 461.896L487.793 463.781C487.793 463.781 482.313 469.708 482.653 474.736L472.551 473.135C472.551 473.135 472.449 467.994 476.691 461.896Z" fill="#5C8FCC"/>
<path d="M96.1988 423.633C82.771 423.633 78.7968 414.97 77.8211 411.962C74.6204 414.225 63.0845 421.836 58.5749 417.351C56.8198 415.602 56.2189 413.64 56.7901 411.513C58.6582 404.504 73.3353 397.732 78.8563 396.219C85.9182 394.311 100.839 405.663 101.476 406.147C101.773 406.378 101.833 406.809 101.601 407.11C101.363 407.406 100.934 407.459 100.631 407.234C100.482 407.122 85.6148 395.788 79.2252 397.543C74.0909 398.95 59.8242 405.485 58.1227 411.867C57.6825 413.516 58.1525 414.993 59.5506 416.388C63.1142 419.951 73.9362 413.185 77.8092 410.29C77.9996 410.148 78.2495 410.112 78.4756 410.201C78.6957 410.284 78.8623 410.479 78.9039 410.715C78.9872 411.188 81.2123 422.279 96.2047 422.279C96.5855 422.279 96.8948 422.587 96.8948 422.965C96.8948 423.343 96.5855 423.65 96.2047 423.65L96.1988 423.633Z" fill="#0F1217"/>
<path d="M382.049 193.631C378.253 183.834 386.856 165.556 386.856 165.556C386.856 165.556 374.576 147.852 382.061 143.692C384.464 142.356 388.397 145.352 388.397 145.352C388.397 145.352 378.574 134.314 384.113 130.154C386.915 128.044 389.801 131.607 389.801 131.607C389.801 131.607 386.041 124.386 389.801 120.858C393.561 117.33 411.117 139.124 414.461 150.541C417.805 161.957 413.45 196.208 413.45 196.208L404.371 310.641C404.371 310.641 431.452 325.763 437.628 341.943C437.628 341.943 415.228 386.168 376.379 375.23C317.105 358.542 382.055 193.625 382.055 193.625L382.049 193.631Z" fill="white"/>
<path d="M388.492 377.629C384.428 377.629 380.317 377.05 376.188 375.886C367.728 373.504 361.285 367.997 357.043 359.505C334.834 315.073 378.943 199.736 381.311 193.619C377.92 184.271 384.863 168.275 386.064 165.615C384.69 163.571 377.7 152.757 379.151 146.564C379.514 145.004 380.383 143.834 381.721 143.089C382.953 142.398 384.464 142.646 385.773 143.131C383.875 140.483 381.424 136.37 381.757 133.061C381.9 131.619 382.554 130.455 383.691 129.598C385.231 128.446 386.844 128.688 388.153 129.374C387.32 126.791 386.677 122.826 389.319 120.35C389.729 119.96 390.485 119.576 391.746 119.913C397.904 121.579 412.105 140.064 415.115 150.34C418.459 161.763 414.3 194.884 414.122 196.285L405.079 310.257C408.541 312.237 432.398 326.33 438.258 341.694C438.33 341.872 438.318 342.073 438.235 342.244C438.181 342.356 432.458 353.525 422.034 363.187C411.718 372.748 400.301 377.629 388.486 377.629H388.492ZM383.5 144.029C383.102 144.029 382.721 144.106 382.4 144.283C381.4 144.838 380.775 145.689 380.496 146.877C379.056 153.011 387.343 165.042 387.427 165.166C387.564 165.367 387.587 165.621 387.48 165.84C387.397 166.023 379.044 183.97 382.691 193.383C382.751 193.543 382.751 193.72 382.691 193.88C382.221 195.073 335.84 314.021 358.281 358.908C362.344 367.033 368.496 372.31 376.569 374.58C412.849 384.791 434.921 345.541 436.872 341.907C430.649 326.254 404.299 311.392 404.032 311.244C403.8 311.114 403.663 310.86 403.681 310.594L412.759 196.16C412.807 195.788 417.061 161.887 413.794 150.736C410.725 140.247 396.666 122.673 391.389 121.243C390.598 121.024 390.348 121.278 390.265 121.355C386.921 124.487 390.366 131.223 390.401 131.288C390.568 131.602 390.461 131.98 390.169 132.175C389.872 132.37 389.479 132.305 389.259 132.033C389.158 131.909 386.749 129.013 384.523 130.697C383.691 131.324 383.238 132.145 383.131 133.209C382.667 137.818 388.849 144.826 388.914 144.903C389.146 145.163 389.14 145.565 388.902 145.819C388.658 146.079 388.266 146.115 387.98 145.896C387.183 145.287 385.13 144.035 383.5 144.035V144.029Z" fill="#0F1217"/>
<path d="M395.369 158.454C395.084 158.454 394.81 158.27 394.715 157.987C394.679 157.88 391.127 147.445 386.552 144.998C386.219 144.821 386.094 144.407 386.273 144.076C386.451 143.745 386.874 143.621 387.201 143.799C392.252 146.499 395.863 157.106 396.018 157.555C396.137 157.916 395.941 158.3 395.584 158.418C395.512 158.442 395.441 158.454 395.363 158.454H395.369Z" fill="#0F1217"/>
<path d="M401.699 149.465C401.455 149.465 401.223 149.335 401.098 149.111C398.784 144.962 392.174 133.829 389.437 132.187C389.11 131.992 389.009 131.572 389.205 131.247C389.402 130.922 389.83 130.827 390.151 131.017C393.763 133.185 401.961 147.828 402.306 148.449C402.49 148.78 402.371 149.194 402.038 149.377C401.931 149.436 401.818 149.459 401.705 149.459L401.699 149.465Z" fill="#0F1217"/>
<path d="M357.186 436.414H318.146L345.668 417.026H384.708L357.186 436.414Z" fill="white"/>
<path d="M357.186 437.094H318.146C317.848 437.094 317.581 436.899 317.491 436.621C317.402 436.337 317.503 436.03 317.747 435.853L345.269 416.464C345.382 416.382 345.525 416.34 345.668 416.34H384.708C385.005 416.34 385.273 416.535 385.362 416.813C385.451 417.097 385.35 417.404 385.106 417.581L357.584 436.97C357.471 437.052 357.329 437.094 357.186 437.094V437.094ZM320.306 435.729H356.966L382.548 417.705H345.894L320.306 435.729Z" fill="#0F1217"/>
<path d="M368.413 423.74H343.99C343.61 423.74 343.3 423.432 343.3 423.054C343.3 422.676 343.61 422.369 343.99 422.369H368.413C368.793 422.369 369.103 422.676 369.103 423.054C369.103 423.432 368.793 423.74 368.413 423.74Z" fill="#0F1217"/>
<path d="M360.607 429.678H336.185C335.804 429.678 335.495 429.371 335.495 428.993C335.495 428.614 335.804 428.307 336.185 428.307H360.607C360.988 428.307 361.297 428.614 361.297 428.993C361.297 429.371 360.988 429.678 360.607 429.678Z" fill="#0F1217"/>
<path d="M403.258 318.341C403.222 318.341 403.187 318.341 403.151 318.335C402.776 318.276 402.52 317.927 402.58 317.555L403.692 310.541C403.752 310.168 404.091 309.914 404.478 309.973C404.853 310.032 405.108 310.381 405.049 310.753L403.936 317.768C403.883 318.105 403.591 318.347 403.258 318.347V318.341Z" fill="#0F1217"/>
<path d="M475.621 113.401C475.621 116.497 473.092 119.009 469.975 119.009C466.857 119.009 464.329 116.497 464.329 113.401C464.329 110.304 466.857 107.793 469.975 107.793C473.092 107.793 475.621 110.304 475.621 113.401Z" fill="#5C8FCC"/>
<path d="M468.317 138.994C470.522 136.804 470.522 133.253 468.317 131.063C466.112 128.873 462.537 128.873 460.332 131.063C458.127 133.253 458.127 136.804 460.332 138.994C462.537 141.184 466.112 141.184 468.317 138.994Z" fill="#0F1217"/>
<path d="M569.204 110.446H485.264C484.884 110.446 484.574 110.139 484.574 109.761C484.574 109.382 484.884 109.075 485.264 109.075H569.204C569.585 109.075 569.894 109.382 569.894 109.761C569.894 110.139 569.585 110.446 569.204 110.446Z" fill="#0F1217"/>
<path d="M569.204 116.232H485.264C484.884 116.232 484.574 115.925 484.574 115.546C484.574 115.168 484.884 114.861 485.264 114.861H569.204C569.585 114.861 569.894 115.168 569.894 115.546C569.894 115.925 569.585 116.232 569.204 116.232Z" fill="#0F1217"/>
<path d="M569.204 132.287H485.264C484.884 132.287 484.574 131.98 484.574 131.601C484.574 131.223 484.884 130.916 485.264 130.916H569.204C569.585 130.916 569.894 131.223 569.894 131.601C569.894 131.98 569.585 132.287 569.204 132.287Z" fill="#0F1217"/>
<path d="M569.204 140.596H485.264C484.884 140.596 484.574 140.288 484.574 139.91C484.574 139.532 484.884 139.225 485.264 139.225H569.204C569.585 139.225 569.894 139.532 569.894 139.91C569.894 140.288 569.585 140.596 569.204 140.596Z" fill="#0F1217"/>
<path d="M245.705 69.6842L241.041 30.8011C240.898 29.5956 239.863 28.6855 238.637 28.6855H186.187C184.694 28.6855 183.558 30.0151 183.802 31.4806L187.913 56.0633C188.109 57.2215 189.114 58.0724 190.298 58.0724H232.64L245.699 69.6842H245.705Z" fill="white"/>
<path d="M245.705 70.3637C245.538 70.3637 245.371 70.3046 245.246 70.1923L232.384 58.7519H190.304C188.781 58.7519 187.49 57.6705 187.24 56.1696L183.123 31.5869C182.974 30.6887 183.23 29.7787 183.819 29.0873C184.408 28.3959 185.271 28 186.187 28H238.637C240.207 28 241.534 29.17 241.724 30.7183L246.389 69.6014C246.424 69.8791 246.282 70.1569 246.026 70.2869C245.925 70.3401 245.818 70.3637 245.711 70.3637H245.705ZM186.193 29.365C185.687 29.365 185.205 29.5896 184.878 29.9737C184.545 30.3637 184.408 30.866 184.491 31.3683L188.602 55.9509C188.739 56.7841 189.459 57.3869 190.31 57.3869H232.652C232.818 57.3869 232.985 57.446 233.11 57.5583L244.812 67.9645L240.362 30.8778C240.255 30.0151 239.517 29.365 238.643 29.365H186.193V29.365Z" fill="#0F1217"/>
<path d="M190.988 34.689L191.982 38.0454H234.347L233.55 34.689H190.988Z" fill="#0F1217"/>
<path d="M234.347 38.7313H191.982C191.678 38.7313 191.405 38.5304 191.321 38.2409L190.328 34.8844C190.268 34.6776 190.31 34.453 190.441 34.2816C190.572 34.1103 190.774 34.0039 190.994 34.0039H233.556C233.877 34.0039 234.151 34.2226 234.228 34.5298L235.026 37.8863C235.073 38.0872 235.026 38.3059 234.895 38.4654C234.764 38.6309 234.561 38.7254 234.353 38.7254L234.347 38.7313ZM192.499 37.3663H233.479L233.009 35.3749H191.91L192.499 37.3663V37.3663Z" fill="white"/>
<path d="M191.907 42.4644L192.9 45.8208H235.266L234.469 42.4644H191.907Z" fill="#5C8FCC"/>
<path d="M235.266 46.5067H192.9C192.597 46.5067 192.323 46.3058 192.24 46.0163L191.246 42.6598C191.187 42.453 191.228 42.2284 191.359 42.057C191.49 41.8857 191.692 41.7793 191.913 41.7793H234.475C234.796 41.7793 235.069 41.9979 235.147 42.3052L235.944 45.6617C235.992 45.8626 235.944 46.0813 235.813 46.2408C235.682 46.4063 235.48 46.5008 235.272 46.5008L235.266 46.5067ZM193.418 45.1417H234.397L233.927 43.1503H192.829L193.418 45.1417V45.1417Z" fill="white"/>
</svg>
