<svg width="52" height="52" viewBox="0 0 52 52" fill="none" xmlns="http://www.w3.org/2000/svg">
<path d="M26 0C11.6405 0 0 11.6405 0 26C0 40.3595 11.6405 52 26 52C40.3595 52 52 40.3595 52 26C52 11.6405 40.3595 0 26 0Z" fill="#5C8FCC"/>
<path d="M25.5076 20.6043C22.2428 20.6043 19.6094 23.2377 19.6094 26.5024C19.6094 29.7672 22.2428 32.4006 25.5076 32.4006C28.7723 32.4006 31.4057 29.7672 31.4057 26.5024C31.4057 23.2377 28.7723 20.6043 25.5076 20.6043ZM25.5076 30.337C23.3978 30.337 21.673 28.6173 21.673 26.5024C21.673 24.3875 23.3926 22.6679 25.5076 22.6679C27.6225 22.6679 29.3421 24.3875 29.3421 26.5024C29.3421 28.6173 27.6174 30.337 25.5076 30.337V30.337ZM33.0227 20.363C33.0227 21.1279 32.4067 21.7387 31.647 21.7387C30.8821 21.7387 30.2713 21.1227 30.2713 20.363C30.2713 19.6033 30.8873 18.9873 31.647 18.9873C32.4067 18.9873 33.0227 19.6033 33.0227 20.363ZM36.9292 21.7593C36.8419 19.9164 36.421 18.284 35.0709 16.9391C33.726 15.5942 32.0936 15.1732 30.2507 15.0808C28.3514 14.9731 22.6586 14.9731 20.7593 15.0808C18.9215 15.1681 17.2892 15.589 15.9391 16.934C14.589 18.2789 14.1732 19.9113 14.0808 21.7541C13.9731 23.6535 13.9731 29.3463 14.0808 31.2456C14.1681 33.0884 14.589 34.7208 15.9391 36.0658C17.2892 37.4107 18.9164 37.8316 20.7593 37.924C22.6586 38.0318 28.3514 38.0318 30.2507 37.924C32.0936 37.8367 33.726 37.4158 35.0709 36.0658C36.4158 34.7208 36.8368 33.0884 36.9292 31.2456C37.037 29.3463 37.037 23.6586 36.9292 21.7593V21.7593ZM34.4754 33.2835C34.075 34.2896 33.2999 35.0648 32.2887 35.4703C30.7743 36.0709 27.181 35.9323 25.5076 35.9323C23.8341 35.9323 20.2357 36.0658 18.7265 35.4703C17.7204 35.0699 16.9452 34.2948 16.5397 33.2835C15.9391 31.7692 16.0777 28.1759 16.0777 26.5024C16.0777 24.829 15.9442 21.2305 16.5397 19.7213C16.9401 18.7152 17.7152 17.9401 18.7265 17.5346C20.2408 16.934 23.8341 17.0726 25.5076 17.0726C27.181 17.0726 30.7795 16.9391 32.2887 17.5346C33.2948 17.935 34.0699 18.7101 34.4754 19.7213C35.076 21.2357 34.9374 24.829 34.9374 26.5024C34.9374 28.1759 35.076 31.7743 34.4754 33.2835Z" fill="white"/>
</svg>
