<svg width="140" height="140" viewBox="0 0 140 140" fill="none" xmlns="http://www.w3.org/2000/svg">
<path d="M70 140C108.66 140 140 108.66 140 70C140 31.3401 108.66 0 70 0C31.3401 0 0 31.3401 0 70C0 108.66 31.3401 140 70 140Z" fill="#DCE6F4"/>
<g clip-path="url(#clip0_16_1950)">
<path d="M79.5475 30.0381H56.6658V60.7671H79.5475V30.0381Z" fill="white"/>
<path d="M79.5465 60.8708H56.6648C56.6078 60.8708 56.5623 60.8242 56.5623 60.768V30.0381C56.5623 29.981 56.6078 29.9352 56.6648 29.9352H79.5465C79.6035 29.9352 79.6491 29.9819 79.6491 30.0381V60.767C79.6491 60.8242 79.6035 60.8699 79.5465 60.8699V60.8708ZM56.7674 60.6642H79.443V30.141H56.7674V60.6642Z" fill="#040B33"/>
<path d="M60.0081 59.1651V55.4365H60.3614L61.4176 57.9136V55.4365H61.8488V59.1651H61.5182L60.4488 56.6193V59.1651H60.0081Z" fill="#FF5C5C"/>
<path d="M63.153 57.2175C63.0001 57.2175 62.8756 57.1908 62.7788 57.1365C62.6819 57.0832 62.6116 57.0089 62.5679 56.9156C62.5233 56.8222 62.5014 56.7137 62.5014 56.5908V56.5175H62.8642V56.5356C62.8642 56.6489 62.8889 56.7337 62.9374 56.7889C62.9868 56.8441 63.0618 56.8717 63.1625 56.8717C63.2508 56.8717 63.3163 56.846 63.3572 56.7937C63.399 56.7413 63.4189 56.6679 63.4189 56.5727C63.4189 56.4775 63.3999 56.3994 63.361 56.347C63.323 56.2946 63.2546 56.2689 63.1568 56.2689H63.0371V55.9651H63.1425C63.2223 55.9651 63.284 55.9403 63.3287 55.8908C63.3733 55.8422 63.3952 55.767 63.3952 55.6651C63.3952 55.5794 63.3752 55.5098 63.3353 55.4555C63.2954 55.4022 63.2309 55.3746 63.1425 55.3746C63.0409 55.3746 62.9697 55.4051 62.9269 55.467C62.8842 55.5289 62.8623 55.6098 62.8623 55.7108V55.7289H62.4995V55.6555C62.4995 55.4498 62.5584 55.2946 62.6762 55.1879C62.7939 55.0822 62.9526 55.0289 63.1511 55.0289C63.3496 55.0289 63.4921 55.0774 63.6032 55.1736C63.7153 55.2698 63.7703 55.4089 63.7703 55.5898C63.7703 55.7279 63.7409 55.8403 63.6811 55.9279C63.6212 56.0155 63.55 56.0746 63.4674 56.1051C63.55 56.1327 63.625 56.1832 63.6925 56.2575C63.7599 56.3308 63.7941 56.4489 63.7941 56.6117C63.7941 56.8117 63.7352 56.9613 63.6174 57.0632C63.4997 57.1641 63.3439 57.2146 63.1511 57.2146L63.153 57.2175Z" fill="#FF5C5C"/>
<path d="M65.3204 59.206C65.0573 59.206 64.8531 59.1508 64.7069 59.0403C64.5615 58.9298 64.4609 58.7813 64.4039 58.5937C64.3469 58.406 64.3193 58.1975 64.3193 57.967V56.6508C64.3193 56.3993 64.3469 56.1793 64.4039 55.9927C64.4609 55.805 64.5615 55.6603 64.7069 55.5574C64.8522 55.4546 65.0564 55.4031 65.3204 55.4031C65.5531 55.4031 65.7374 55.446 65.8732 55.5327C66.01 55.6184 66.1078 55.7412 66.1677 55.9012C66.2275 56.0612 66.2569 56.2527 66.2569 56.4765V56.7708H65.7659V56.5089C65.7659 56.3708 65.7592 56.2489 65.745 56.1431C65.7307 56.0374 65.6937 55.9555 65.6329 55.8965C65.5721 55.8384 65.4695 55.8089 65.3252 55.8089C65.1808 55.8089 65.0716 55.8403 65.0041 55.9031C64.9367 55.966 64.893 56.0555 64.8731 56.1698C64.8531 56.2851 64.8436 56.4193 64.8436 56.5727V58.0508C64.8436 58.2375 64.8588 58.386 64.8892 58.4946C64.9196 58.6041 64.97 58.6813 65.0402 58.727C65.1105 58.7727 65.2055 58.7965 65.3252 58.7965C65.4658 58.7965 65.5674 58.7651 65.6282 58.7022C65.689 58.6394 65.7279 58.5527 65.7431 58.4422C65.7583 58.3317 65.7659 58.2032 65.7659 58.0555V57.7794H66.2569V58.0555C66.2569 58.2832 66.2294 58.4832 66.1743 58.6565C66.1192 58.8298 66.0242 58.9651 65.8894 59.0613C65.7545 59.1584 65.5655 59.206 65.3204 59.206Z" fill="#FF5C5C"/>
<path d="M70.4827 59.1651V55.4365H71.0013V57.0479H71.9568V55.4365H72.4754V59.1651H71.9568V57.4203H71.0013V59.1651H70.4827Z" fill="#FF5C5C"/>
<path d="M73.5334 57.1718V56.6794H72.7432V56.4079L73.6198 55.0775H73.8905V56.3984H74.0928V56.6794H73.8905V57.1718H73.5325H73.5334ZM73.106 56.3984H73.5334L73.5287 55.726L73.106 56.3984Z" fill="#FF5C5C"/>
<path d="M75.618 59.206C75.3673 59.206 75.1659 59.1565 75.0168 59.0584C74.8667 58.9603 74.7594 58.8194 74.6958 58.6375C74.6312 58.4546 74.5999 58.2413 74.5999 57.9955V56.5822C74.5999 56.3365 74.6331 56.126 74.6986 55.9489C74.7642 55.7727 74.8715 55.6374 75.0197 55.5441C75.1678 55.4508 75.3682 55.4031 75.619 55.4031C75.8697 55.4031 76.0692 55.4508 76.2155 55.546C76.3627 55.6412 76.4691 55.7765 76.5346 55.9508C76.6001 56.126 76.6334 56.3355 76.6334 56.5812V57.9994C76.6334 58.2422 76.6001 58.4536 76.5346 58.6346C76.4691 58.8156 76.3627 58.9565 76.2155 59.0556C76.0692 59.1556 75.8697 59.2051 75.619 59.2051L75.618 59.206ZM75.618 58.7965C75.7558 58.7965 75.8602 58.7679 75.9296 58.7108C75.9999 58.6536 76.0474 58.5746 76.072 58.4717C76.0967 58.3689 76.1091 58.2489 76.1091 58.1108V56.4765C76.1091 56.3384 76.0967 56.2193 76.072 56.1193C76.0474 56.0193 75.9999 55.9431 75.9296 55.8889C75.8593 55.8355 75.7548 55.8079 75.618 55.8079C75.4813 55.8079 75.3749 55.8346 75.3037 55.8889C75.2315 55.9422 75.183 56.0193 75.1593 56.1193C75.1346 56.2193 75.1222 56.3384 75.1222 56.4765V58.1108C75.1222 58.2489 75.1346 58.3698 75.1593 58.4717C75.184 58.5746 75.2315 58.6546 75.3037 58.7108C75.3758 58.7679 75.4803 58.7965 75.618 58.7965Z" fill="#FF5C5C"/>
<path d="M75.0416 50.0545V48.4155L74.6189 48.5812V48.2631L75.2201 47.9593H75.3987V50.0545H75.0406H75.0416ZM75.184 51.6888L76.887 47.9602H77.3097L75.6067 51.6888H75.184ZM76.906 51.6888V51.4079L77.475 50.786C77.5661 50.6879 77.6393 50.6041 77.6925 50.5355C77.7456 50.466 77.7846 50.404 77.8074 50.3488C77.8302 50.2936 77.8425 50.2383 77.8425 50.1831C77.8425 50.0907 77.8207 50.0193 77.7779 49.9688C77.7352 49.9183 77.6697 49.8926 77.5804 49.8926C77.4645 49.8926 77.3819 49.9307 77.3353 50.005C77.2878 50.0802 77.2641 50.1898 77.2641 50.3345H76.9013V50.2698C76.9013 50.1345 76.9241 50.0126 76.9697 49.904C77.0152 49.7955 77.0884 49.7078 77.1881 49.644C77.2878 49.5793 77.418 49.5469 77.5804 49.5469C77.7798 49.5469 77.9356 49.6012 78.0486 49.7107C78.1617 49.8193 78.2187 49.9688 78.2187 50.1593C78.2187 50.3126 78.1826 50.4469 78.1104 50.5621C78.0382 50.6774 77.9261 50.8136 77.7732 50.9698L77.3923 51.366H78.2424V51.6879H76.906V51.6888Z" fill="#FF5C5C"/>
<path d="M59.7288 49.2374V47.5983L59.3062 47.764V47.4459L59.9074 47.1421H60.0859V49.2374H59.7279H59.7288ZM59.8713 50.8717L61.5743 47.1431H61.9969L60.2939 50.8717H59.8713ZM61.9922 50.8717V50.3793H61.202V50.1079L62.0786 48.7774H62.3493V50.0983H62.5516V50.3793H62.3493V50.8717H61.9912H61.9922ZM61.5648 50.0983H61.9922L61.9874 49.426L61.5648 50.0983Z" fill="#FF5C5C"/>
<path d="M67.5894 51.2993V47.5707H68.1079V49.1821H69.0625V47.5707H69.5811V51.2993H69.0625V49.5545H68.1079V51.2993H67.5894Z" fill="#FF5C5C"/>
<path d="M71.0572 39.9715H68.1062C68.0691 39.9715 68.0359 39.9515 68.0169 39.9201L66.5409 37.3572C66.5228 37.3258 66.5228 37.2858 66.5409 37.2544L68.0169 34.6915C68.0349 34.66 68.0691 34.64 68.1062 34.64H71.0572C71.0942 34.64 71.1275 34.66 71.1465 34.6915L72.6225 37.2544C72.6405 37.2858 72.6405 37.3258 72.6225 37.3572L71.1465 39.9201C71.1284 39.9515 71.0942 39.9715 71.0572 39.9715ZM68.165 39.7649H70.9974L72.4135 37.3048L70.9974 34.8448H68.165L66.7489 37.3048L68.165 39.7649Z" fill="#5C8FCC"/>
<path d="M66.6387 42.5344H63.6877C63.6507 42.5344 63.6174 42.5144 63.5984 42.483L62.1224 39.9201C62.1044 39.8887 62.1044 39.8487 62.1224 39.8173L63.5984 37.2544C63.6165 37.2229 63.6507 37.2029 63.6877 37.2029H66.6387C66.6758 37.2029 66.709 37.2229 66.728 37.2544L68.204 39.8173C68.2221 39.8487 68.2221 39.8887 68.204 39.9201L66.728 42.483C66.71 42.5144 66.6758 42.5344 66.6387 42.5344ZM63.7466 42.3278H66.5789L67.9951 39.8677L66.5789 37.4077H63.7466L62.3304 39.8677L63.7466 42.3278Z" fill="#5C8FCC"/>
<path d="M67.4024 37.4086C67.3853 37.4086 67.3672 37.4039 67.3511 37.3953C67.3017 37.3667 67.2846 37.3039 67.3131 37.2544L68.4035 35.362C68.432 35.3124 68.4947 35.2962 68.5441 35.3239C68.5934 35.3524 68.6105 35.4153 68.582 35.4648L67.4917 37.3572C67.4727 37.3906 67.4385 37.4086 67.4024 37.4086Z" fill="#5C8FCC"/>
<path d="M70.6717 39.301C70.6546 39.301 70.6365 39.2963 70.6204 39.2877C70.571 39.2591 70.5539 39.1963 70.5824 39.1468L71.6728 37.2544C71.7013 37.2048 71.764 37.1886 71.8133 37.2163C71.8627 37.2448 71.8798 37.3077 71.8513 37.3572L70.761 39.2496C70.742 39.2829 70.7078 39.301 70.6717 39.301Z" fill="#5C8FCC"/>
<path d="M63.6878 37.4086C63.6527 37.4086 63.6175 37.3905 63.5986 37.3563L61.4757 33.6286C61.4473 33.5791 61.4653 33.5162 61.5137 33.4876C61.5622 33.4591 61.6258 33.4762 61.6543 33.5257L63.7771 37.2534C63.8056 37.3029 63.7876 37.3658 63.7391 37.3944C63.723 37.4039 63.7059 37.4077 63.6878 37.4077V37.4086Z" fill="#5C8FCC"/>
<path d="M62.5518 44.1849C62.5318 44.1849 62.5109 44.1792 62.4929 44.1668C62.4463 44.1344 62.434 44.0706 62.4663 44.0229L63.6023 42.3735C63.6345 42.3268 63.6982 42.3154 63.7457 42.3468C63.7922 42.3792 63.8046 42.444 63.7713 42.4907L62.6354 44.1402C62.6154 44.1687 62.5831 44.1849 62.5508 44.1849H62.5518Z" fill="#5C8FCC"/>
<path d="M74.619 37.4088H72.5332C72.4763 37.4088 72.4307 37.3621 72.4307 37.3059C72.4307 37.2496 72.4763 37.2029 72.5332 37.2029H74.619C74.676 37.2029 74.7216 37.2496 74.7216 37.3059C74.7216 37.3621 74.676 37.4088 74.619 37.4088Z" fill="#5C8FCC"/>
<path d="M68.1062 34.846C68.0919 34.846 68.0767 34.8432 68.0634 34.8365C68.0121 34.8127 67.9893 34.7517 68.0131 34.7003L68.9002 32.7765C68.9239 32.7241 68.9847 32.7022 69.037 32.726C69.0882 32.7498 69.111 32.8108 69.0873 32.8622L68.2002 34.786C68.1831 34.8241 68.146 34.846 68.1071 34.846H68.1062Z" fill="#5C8FCC"/>
<path d="M72.0461 41.9935C72.0081 41.9935 71.972 41.9725 71.9539 41.9363L70.9652 39.9144C70.9405 39.863 70.9614 39.8011 71.0127 39.7763C71.063 39.7506 71.1257 39.7725 71.1504 39.823L72.1391 41.8449C72.1638 41.8963 72.1429 41.9582 72.0917 41.983C72.0774 41.9906 72.0622 41.9935 72.0461 41.9935Z" fill="#5C8FCC"/>
<path d="M74.6191 37.308C74.6191 37.6215 74.8727 37.8759 75.1852 37.8759C75.4977 37.8759 75.7513 37.6215 75.7513 37.308C75.7513 36.9945 75.4977 36.7401 75.1852 36.7401C74.8727 36.7401 74.6191 36.9945 74.6191 37.308Z" fill="#040B33"/>
<path d="M69.5823 32.7489C69.5823 33.0252 69.3591 33.2482 69.0846 33.2482C68.8101 33.2482 68.5869 33.0242 68.5869 32.7489C68.5869 32.4735 68.8101 32.2495 69.0846 32.2495C69.3591 32.2495 69.5823 32.4735 69.5823 32.7489Z" fill="#040B33"/>
<path d="M61.5973 33.8557C61.8155 33.8557 61.9924 33.6782 61.9924 33.4593C61.9924 33.2404 61.8155 33.0629 61.5973 33.0629C61.379 33.0629 61.2021 33.2404 61.2021 33.4593C61.2021 33.6782 61.379 33.8557 61.5973 33.8557Z" fill="#040B33"/>
<path d="M62.7569 44.1746C62.7569 44.3852 62.5869 44.5558 62.377 44.5558C62.1671 44.5558 61.9971 44.3852 61.9971 44.1746C61.9971 43.9641 62.1671 43.7935 62.377 43.7935C62.5869 43.7935 62.7569 43.9641 62.7569 44.1746Z" fill="#040B33"/>
<path d="M71.761 41.9499C71.761 42.1633 71.9339 42.3367 72.1466 42.3367C72.3594 42.3367 72.5322 42.1633 72.5322 41.9499C72.5322 41.7364 72.3594 41.563 72.1466 41.563C71.9339 41.563 71.761 41.7364 71.761 41.9499Z" fill="#040B33"/>
<path d="M98.7135 82.9169C98.7135 82.9169 91.3544 82.9483 88.4622 82.3045C85.5701 81.6607 92.5901 69.6853 92.5901 69.6853L96.867 70.0901L98.7135 82.9169Z" fill="white"/>
<path d="M98.5778 83.0197C97.5586 83.0197 91.0933 82.9959 88.4396 82.4054C88.1366 82.3378 87.9181 82.1549 87.7918 81.8625C86.7575 79.4787 92.2663 70.0338 92.5019 69.6329C92.5218 69.5986 92.5608 69.5776 92.5997 69.5824L96.8767 69.9872C96.9241 69.9919 96.9621 70.0281 96.9688 70.0748L98.8152 82.9016C98.819 82.9311 98.8105 82.9616 98.7915 82.9835C98.7725 83.0064 98.744 83.0197 98.7136 83.0197H98.5778ZM92.6462 69.7938C92.1818 70.5957 87.0272 79.5835 87.9808 81.7806C88.0815 82.0121 88.2467 82.1511 88.4851 82.2035C91.1171 82.7892 97.5558 82.813 98.5768 82.813H98.5958L96.7779 70.1843L92.6472 69.7938H92.6462Z" fill="#040B33"/>
<path d="M91.7229 100.112L89.7796 106.562L86.48 106.397L87.2246 100.368L91.7229 100.112Z" fill="white"/>
<path d="M89.7797 106.666H89.7749L86.4753 106.501C86.4468 106.499 86.4202 106.486 86.4012 106.465C86.3832 106.443 86.3746 106.414 86.3775 106.386L87.1221 100.356C87.1278 100.307 87.1687 100.268 87.2181 100.266L91.7163 100.009C91.7524 100.009 91.7819 100.023 91.8028 100.048C91.8237 100.074 91.8303 100.109 91.8208 100.142L89.8775 106.591C89.8642 106.635 89.8243 106.665 89.7787 106.665L89.7797 106.666ZM86.595 106.3L89.7046 106.455L91.5815 100.224L87.3159 100.467L86.595 106.301V106.3Z" fill="#040B33"/>
<path d="M94.9751 69.99L91.7229 104.094C91.7229 104.094 88.1241 104.838 85.988 103.637L88.1735 65.6194L94.9751 69.99Z" fill="white"/>
<path d="M93.3111 70.731L89.5356 104.319L90.0789 104.296L93.825 71.0177L93.3111 70.731Z" fill="#5C8FCC"/>
<path d="M89.5356 104.422C89.5071 104.422 89.4795 104.41 89.4605 104.389C89.4396 104.367 89.4301 104.337 89.4339 104.307L93.2094 70.7186C93.2132 70.6843 93.2341 70.6538 93.2645 70.6386C93.2949 70.6234 93.3319 70.6243 93.3614 70.6405L93.8743 70.9281C93.9103 70.9491 93.9312 70.9881 93.9265 71.03L90.1814 104.309C90.1757 104.359 90.1339 104.398 90.0836 104.4L89.5403 104.423H89.5365L89.5356 104.422ZM93.3956 70.8957L89.6505 104.21L89.9858 104.196L93.7137 71.0738L93.3956 70.8957Z" fill="#5C8FCC"/>
<path d="M89.2743 104.429C88.1763 104.429 86.915 104.277 85.9376 103.728C85.9034 103.709 85.8835 103.671 85.8854 103.631L88.0709 65.6138C88.0728 65.5766 88.0946 65.5443 88.1269 65.5281C88.1592 65.5109 88.1981 65.5138 88.2295 65.5328L95.031 69.9043C95.0633 69.9253 95.0814 69.9624 95.0776 70.0015L91.8254 104.106C91.8207 104.15 91.7875 104.188 91.7438 104.197C91.663 104.213 90.586 104.43 89.2752 104.43L89.2743 104.429ZM86.0943 103.578C88.0091 104.611 91.1093 104.103 91.6279 104.008L94.8667 70.0434L88.2656 65.8014L86.0943 103.578Z" fill="#040B33"/>
<path d="M98.9822 100.112L100.925 106.562L104.225 106.397L103.48 100.368L98.9822 100.112Z" fill="white"/>
<path d="M100.925 106.666C100.88 106.666 100.84 106.636 100.827 106.592L98.8834 100.143C98.8739 100.11 98.8805 100.075 98.9014 100.049C98.9223 100.023 98.9575 100.01 98.9879 100.01L103.486 100.267C103.536 100.269 103.576 100.308 103.582 100.357L104.327 106.387C104.331 106.415 104.322 106.444 104.303 106.466C104.285 106.488 104.258 106.501 104.229 106.502L100.929 106.667H100.925L100.925 106.666ZM99.1237 100.224L101.001 106.455L104.109 106.3L103.388 100.466L99.1227 100.223L99.1237 100.224Z" fill="#040B33"/>
<path d="M100.395 105.722H104.386C104.386 105.722 104.392 106.785 104.622 106.94C104.854 107.095 109.068 109.019 109.557 109.552C109.959 109.99 109.891 110.282 109.891 110.282C109.891 110.282 101.669 110.437 101.322 110.282C100.974 110.127 100.394 105.722 100.394 105.722H100.395Z" fill="#040B33"/>
<path d="M103.815 110.455C102.472 110.455 101.413 110.435 101.281 110.377C100.92 110.216 100.47 107.078 100.293 105.736C100.289 105.707 100.298 105.677 100.318 105.654C100.337 105.632 100.365 105.619 100.395 105.619H104.386C104.443 105.619 104.488 105.665 104.488 105.722C104.491 106.209 104.568 106.781 104.679 106.855C104.737 106.894 105.137 107.088 105.601 107.311C107.374 108.169 109.293 109.113 109.633 109.484C110.059 109.948 109.999 110.271 109.992 110.307C109.981 110.352 109.94 110.386 109.894 110.387C109.036 110.403 106.038 110.456 103.815 110.456V110.455ZM100.513 105.826C100.785 107.869 101.175 110.033 101.371 110.192C101.655 110.292 106.524 110.242 109.79 110.182C109.778 110.079 109.719 109.881 109.483 109.623C109.142 109.25 106.781 108.109 105.513 107.497C104.922 107.211 104.634 107.071 104.567 107.027C104.337 106.873 104.294 106.162 104.286 105.826H100.513H100.513Z" fill="#040B33"/>
<path d="M91.6849 69.8214L95.9401 72.2014L98.9813 104.094C98.9813 104.094 102.58 104.838 104.716 103.637L102.133 65.9614L87.2788 65.6194L91.684 69.8214H91.6849Z" fill="white"/>
<path d="M104.133 103.897L103.692 104.049L101.815 82.6635H102.493L104.133 103.897Z" fill="#5C8FCC"/>
<path d="M103.693 104.153C103.673 104.153 103.654 104.148 103.637 104.137C103.611 104.12 103.594 104.091 103.591 104.059L101.713 82.672C101.71 82.6435 101.72 82.6149 101.739 82.5939C101.759 82.573 101.786 82.5606 101.815 82.5606H102.493C102.546 82.5606 102.591 82.6025 102.595 82.6558L104.235 103.889C104.238 103.936 104.21 103.98 104.165 103.995L103.726 104.148C103.715 104.151 103.704 104.153 103.692 104.153H103.693ZM101.928 82.7663L103.784 103.909L104.025 103.826L102.399 82.7663H101.928Z" fill="#5C8FCC"/>
<path d="M90.3096 105.722H86.3186C86.3186 105.722 86.3129 106.785 86.0821 106.94C85.8503 107.095 81.636 109.019 81.1469 109.552C80.7451 109.99 80.8135 110.282 80.8135 110.282C80.8135 110.282 89.035 110.437 89.3826 110.282C89.7302 110.127 90.3106 105.722 90.3106 105.722H90.3096Z" fill="#040B33"/>
<path d="M86.8903 110.455C84.6678 110.455 81.6693 110.402 80.8106 110.386C80.7641 110.386 80.7233 110.351 80.7128 110.306C80.7043 110.27 80.6454 109.948 81.0709 109.483C81.41 109.112 83.3305 108.168 85.1028 107.31C85.5663 107.087 85.9671 106.892 86.0251 106.854C86.1362 106.78 86.2141 106.209 86.216 105.721C86.216 105.664 86.2625 105.618 86.3186 105.618H90.3096C90.3391 105.618 90.3676 105.631 90.3866 105.653C90.4065 105.676 90.4151 105.706 90.4113 105.735C90.2346 107.077 89.7844 110.215 89.4235 110.376C89.2914 110.435 88.2324 110.454 86.8894 110.454L86.8903 110.455ZM80.9151 110.181C84.1815 110.241 89.0502 110.292 89.3418 110.188C89.5289 110.033 89.9193 107.869 90.1928 105.826H86.4202C86.4126 106.163 86.3689 106.873 86.139 107.027C86.0726 107.071 85.7848 107.21 85.1921 107.497C83.9241 108.11 81.5638 109.25 81.2229 109.623C80.9873 109.88 80.9284 110.078 80.9161 110.182L80.9151 110.181Z" fill="#040B33"/>
<path d="M101.43 104.429C100.119 104.429 99.0421 104.212 98.9614 104.196C98.9167 104.187 98.8844 104.149 98.8797 104.105L95.8432 72.2662L91.6346 69.9128C91.5852 69.8852 91.5671 69.8224 91.5947 69.7719C91.6222 69.7224 91.6849 69.7043 91.7343 69.7319L95.9904 72.1119C96.0198 72.1281 96.0398 72.1586 96.0426 72.1929L99.0772 104.008C99.5949 104.104 102.695 104.612 104.61 103.58L102.031 65.9699C102.027 65.9128 102.07 65.8633 102.127 65.8604C102.192 65.8499 102.232 65.8995 102.236 65.9557L104.82 103.631C104.823 103.671 104.802 103.709 104.768 103.728C103.79 104.278 102.529 104.43 101.431 104.43L101.43 104.429Z" fill="#040B33"/>
<path d="M98.2044 44.8926C98.2044 44.8926 96.0769 49.2727 95.1328 48.7993C94.1887 48.326 94.3938 44.8926 94.3938 44.8926V38.563H98.2044V44.8926Z" fill="white"/>
<path d="M95.2866 48.9383C95.2154 48.9383 95.1489 48.9231 95.0872 48.8917C94.0937 48.3936 94.2827 45.0297 94.2912 44.8869V38.563C94.2912 38.5058 94.3368 38.4601 94.3938 38.4601H98.2044C98.2614 38.4601 98.307 38.5068 98.307 38.563V44.8926C98.307 44.9088 98.3032 44.924 98.2965 44.9373C98.2253 45.084 96.5347 48.544 95.4737 48.904C95.4082 48.9259 95.3455 48.9374 95.2866 48.9374V48.9383ZM94.4964 38.6668V44.8926C94.4403 45.8345 94.4546 48.344 95.1783 48.7069C95.2429 48.7393 95.318 48.7393 95.4072 48.7098C96.3475 48.3898 97.9556 45.163 98.1009 44.8688V38.6668H94.4964Z" fill="#040B33"/>
<path d="M94.3938 41.8719V42.8982C94.3938 42.8982 96.0664 42.7448 96.9193 41.244L94.3938 41.8729V41.8719Z" fill="#040B33"/>
<path d="M97.2309 33.8781C96.3219 33.4915 94.3672 33.5096 93.255 34.9686C92.2368 36.3039 91.3041 41.2125 93.7052 41.9649C96.1063 42.7173 98.3099 40.3077 98.9197 38.5039C99.3252 37.3067 99.6501 34.9048 97.2319 33.8772L97.2309 33.8781Z" fill="white"/>
<path d="M95.8925 39.2361C95.24 39.2361 94.7176 38.6006 94.6958 38.5729C94.6664 38.5367 94.6645 38.4843 94.6929 38.4471C94.7138 38.4186 95.2182 37.7439 95.8811 37.7296C95.8887 37.7296 95.8963 37.7296 95.9039 37.7296C96.5565 37.7296 97.0788 38.3661 97.1007 38.3928C97.1301 38.429 97.132 38.4814 97.1035 38.5186C97.0826 38.5472 96.5783 39.2209 95.9153 39.2361C95.9077 39.2361 95.9001 39.2361 95.8925 39.2361ZM94.9104 38.5043C95.052 38.6549 95.448 39.0294 95.8925 39.0294C95.8982 39.0294 95.9049 39.0294 95.9106 39.0294C96.3627 39.0189 96.7493 38.6196 96.886 38.4605C96.7445 38.309 96.3485 37.9354 95.9039 37.9354C95.8982 37.9354 95.8916 37.9354 95.8859 37.9354C95.4328 37.9459 95.0463 38.3452 94.9104 38.5043Z" fill="#040B33"/>
<path d="M95.146 37.4946C95.146 37.4946 96.4919 37.5279 96.6172 37.4946C96.7417 37.4612 95.9229 37.0363 95.6969 37.0525C95.4708 37.0696 95.1545 37.3612 95.1469 37.4946H95.146Z" fill="#040B33"/>
<path d="M93.5466 37.3727C93.5466 37.3727 92.2111 37.1964 92.0934 37.145C91.9756 37.0926 92.8504 36.8 93.0707 36.8515C93.292 36.903 93.5589 37.2403 93.5466 37.3737V37.3727Z" fill="#040B33"/>
<path d="M96.299 39.0426C96.186 39.1084 96.0492 39.1284 95.9134 39.1322C95.7975 39.1351 95.6883 39.1008 95.5781 39.0798C95.2428 39.0169 95.221 38.0802 95.5221 37.9106C95.6284 37.8506 95.7567 37.8344 95.8839 37.8315C95.9742 37.8296 96.0615 37.8496 96.148 37.863C96.6305 37.9363 96.5934 38.8721 96.2999 39.0426H96.299Z" fill="#040B33"/>
<path d="M92.7858 38.9999C92.7392 38.9999 92.6908 38.9971 92.6433 38.9904C91.987 38.8989 91.5634 38.17 91.5453 38.1395C91.5216 38.0985 91.5292 38.047 91.5624 38.0146C91.5881 37.9899 92.1931 37.4096 92.8503 37.4972C93.5067 37.5897 93.9303 38.3177 93.9483 38.3482C93.9721 38.3891 93.9645 38.4406 93.9312 38.473C93.9075 38.4968 93.3851 38.9999 92.7858 38.9999ZM91.7685 38.1071C91.8853 38.2815 92.2244 38.7236 92.6718 38.7855C93.1182 38.8513 93.5655 38.5159 93.7251 38.3806C93.6083 38.2062 93.2692 37.764 92.8218 37.7021C92.3773 37.6354 91.929 37.9718 91.7685 38.1071Z" fill="#040B33"/>
<path d="M93.1846 38.8646C93.0706 38.9122 92.9424 38.9122 92.817 38.8941C92.7106 38.8789 92.6451 38.9027 92.5473 38.8656C92.2509 38.7522 92.4096 37.683 92.7116 37.562C92.818 37.5191 92.8788 37.5896 92.9956 37.6058C93.0792 37.6173 93.1381 37.6973 93.215 37.723C93.6453 37.8688 93.48 38.7398 93.1836 38.8636L93.1846 38.8646Z" fill="#040B33"/>
<path d="M94.2931 40.0378C94.2855 40.0378 94.277 40.0378 94.2685 40.035C94.2542 40.0312 93.9227 39.9483 93.7252 39.7586C93.6881 39.7234 93.6691 39.6767 93.671 39.6224C93.6767 39.4127 94.0434 39.084 94.1554 38.9877C94.1991 38.9506 94.2637 38.9563 94.3007 38.9992C94.3378 39.043 94.3321 39.1078 94.2894 39.145C94.0718 39.3308 93.8762 39.5604 93.8771 39.6281C94.0263 39.7605 94.3159 39.8339 94.3188 39.8349C94.3739 39.8482 94.4071 39.9044 94.3938 39.9597C94.3824 40.0064 94.3406 40.0378 94.2941 40.0378H94.2931Z" fill="#040B33"/>
<path d="M94.3483 40.5719C94.2562 40.5719 94.1887 40.5557 94.183 40.5538C94.1279 40.5395 94.0956 40.4832 94.1089 40.4289C94.1222 40.3737 94.1783 40.3403 94.2334 40.3536C94.2353 40.3536 94.4252 40.3994 94.5601 40.3108C94.6332 40.2622 94.6798 40.1783 94.6997 40.0611C94.7083 40.0039 94.7634 39.9668 94.8175 39.9753C94.8735 39.9849 94.9115 40.0382 94.902 40.0935C94.8735 40.2707 94.7957 40.4013 94.6712 40.4823C94.5639 40.5528 94.4433 40.5709 94.3483 40.5709V40.5719Z" fill="#040B33"/>
<path d="M94.6143 42.2078C94.297 42.2078 93.9826 42.1601 93.674 42.064C93.0157 41.8573 92.5532 41.3487 92.3005 40.5516C91.7259 38.7382 92.4335 35.8772 93.1725 34.9077C94.297 33.4305 96.2831 33.3648 97.2709 33.7839C99.9911 34.9401 99.2949 37.7153 99.0156 38.5392C98.9976 38.5934 98.9397 38.623 98.8855 38.6039C98.8314 38.5858 98.8029 38.5277 98.8209 38.4734C99.085 37.6925 99.7479 35.061 97.1901 33.9743C96.2622 33.58 94.3949 33.6429 93.3358 35.0324C92.6225 35.9696 91.9406 38.7344 92.4962 40.4897C92.727 41.2192 93.144 41.683 93.7347 41.8687C94.8242 42.2097 96.0114 41.8954 97.079 40.982C97.1217 40.9458 97.1873 40.9497 97.2234 40.9935C97.2604 41.0363 97.2547 41.102 97.212 41.1392C96.3875 41.8449 95.4909 42.2097 94.6133 42.2097L94.6143 42.2078Z" fill="#040B33"/>
<path d="M93.1602 35.5268C92.9389 35.5268 92.6207 36.3144 92.6207 36.3144C92.6207 36.3144 92.1315 32.9963 95.2858 32.8173C95.2858 32.8173 97.5492 31.9649 99.2769 33.7249C101.006 35.4859 100.713 38.8364 98.9635 39.0697C97.2139 39.303 98.1656 36.104 97.5891 35.8154C97.0126 35.5268 95.6553 36.4944 94.5573 36.1687C93.4603 35.843 93.5562 35.5268 93.1583 35.5268H93.1602Z" fill="#040B33"/>
<path d="M98.7915 39.1849C98.5521 39.1849 98.3517 39.1163 98.1931 38.9792C97.7391 38.5868 97.7258 37.7334 97.7135 36.9811C97.7059 36.5134 97.6983 35.9849 97.5444 35.9077C97.3174 35.7925 96.8928 35.923 96.4426 36.061C95.8395 36.2449 95.1556 36.4534 94.5297 36.2677C93.8924 36.0791 93.6416 35.8887 93.4764 35.7639C93.3548 35.6725 93.2988 35.6296 93.1601 35.6296C93.0765 35.6401 92.8647 35.9839 92.7156 36.3525C92.6985 36.3963 92.6567 36.423 92.6083 36.4163C92.5627 36.4106 92.5256 36.3753 92.519 36.3287C92.5095 36.2649 92.2967 34.741 93.1582 33.6801C93.6341 33.0953 94.3426 32.7705 95.2649 32.7153C95.4729 32.6429 97.6707 31.942 99.35 33.6524C100.529 34.8525 100.746 36.7239 100.352 37.8744C100.095 38.6277 99.6064 39.0887 98.9767 39.1725C98.9121 39.1811 98.8494 39.1858 98.7896 39.1858L98.7915 39.1849ZM97.3221 35.6572C97.439 35.6572 97.5444 35.6763 97.6365 35.7229C97.9015 35.8563 97.9091 36.3506 97.9196 36.9772C97.93 37.6515 97.9433 38.4906 98.327 38.823C98.4809 38.9563 98.6861 39.003 98.951 38.9668C99.4991 38.8935 99.9274 38.4811 100.158 37.8068C100.532 36.7144 100.324 34.9382 99.2037 33.7972C97.5444 32.1067 95.3437 32.9048 95.3218 32.9134C95.3124 32.9172 95.3019 32.9191 95.2915 32.9201C94.4224 32.9696 93.7585 33.2686 93.3187 33.8096C92.7697 34.4848 92.6909 35.3906 92.6975 35.903C92.8258 35.6629 92.9939 35.4239 93.1601 35.4239C93.3681 35.4239 93.4707 35.502 93.5999 35.5991C93.7537 35.7153 93.9864 35.8915 94.5877 36.0706C95.1547 36.2372 95.8063 36.0391 96.3818 35.8639C96.7361 35.7563 97.0581 35.6572 97.3212 35.6572H97.3221Z" fill="#040B33"/>
<path d="M99.7954 39.2926C99.539 39.8773 98.7402 40.2421 98.2036 40.005C97.6669 39.7688 97.5957 39.0202 97.8521 38.4364C98.1086 37.8516 98.7506 37.5697 99.2873 37.8059C99.8239 38.0421 100.051 38.7078 99.7954 39.2926Z" fill="white"/>
<path d="M98.3878 39.0034C98.3688 39.0034 98.3498 38.9976 98.3327 38.9872C98.2842 38.9567 98.27 38.8928 98.3004 38.8452C98.4713 38.5707 98.9311 38.1219 99.443 38.3954C99.4933 38.4221 99.5123 38.484 99.4857 38.5345C99.4591 38.5841 99.3965 38.6031 99.3471 38.5774C98.8741 38.3278 98.4789 38.9481 98.4751 38.9548C98.4552 38.9862 98.422 39.0034 98.3878 39.0034Z" fill="#040B33"/>
<path d="M98.572 40.1811C98.4257 40.1811 98.287 40.1535 98.1626 40.0992C98.0325 40.042 97.9213 39.9554 97.833 39.843C97.7979 39.7982 97.8055 39.7335 97.8501 39.6982C97.8948 39.663 97.9593 39.6706 97.9945 39.7154C98.061 39.8011 98.1455 39.8658 98.2443 39.9097C98.4722 40.0097 98.7705 39.9925 99.0621 39.862C99.3556 39.7297 99.5883 39.5068 99.7003 39.2506C99.8143 38.9916 99.8286 38.7077 99.7412 38.4515C99.6547 38.1982 99.479 38.002 99.2463 37.9001C99.0136 37.7982 98.7505 37.8011 98.5055 37.9077C98.2576 38.0163 98.0591 38.2192 97.946 38.4782C97.9232 38.5306 97.8625 38.5544 97.8102 38.5306C97.758 38.5077 97.7352 38.4468 97.757 38.3944C97.891 38.0877 98.1275 37.8477 98.4228 37.7182C98.7211 37.5877 99.0421 37.5849 99.328 37.7115C99.6139 37.8373 99.8295 38.0773 99.9349 38.3858C100.039 38.6915 100.022 39.0277 99.8884 39.3344C99.7554 39.6373 99.4847 39.8982 99.1456 40.0516C98.9528 40.1382 98.7562 40.182 98.5701 40.182L98.572 40.1811Z" fill="#040B33"/>
<path d="M84.7961 40.2669L83.5984 38.0335C83.5984 38.0335 85.4182 37.344 87.9038 38.9878C87.9038 38.9878 87.0053 40.4126 84.7961 40.2669Z" fill="#040B33"/>
<path d="M85.1143 40.3801C85.0089 40.3801 84.9006 40.3773 84.7895 40.3697C84.7543 40.3678 84.723 40.3468 84.7059 40.3154L83.5082 38.082C83.4939 38.0563 83.492 38.0249 83.5025 37.9972C83.5129 37.9696 83.5348 37.9477 83.5623 37.9372C83.6383 37.9077 85.46 37.2477 87.9609 38.902C88.0074 38.9334 88.0207 38.9963 87.9912 39.043C87.9552 39.1001 87.1231 40.3801 85.1143 40.3801ZM84.8598 40.1668C86.6302 40.2601 87.5277 39.3049 87.7576 39.0144C85.7402 37.7191 84.174 37.9858 83.7494 38.0953L84.8598 40.1668Z" fill="#040B33"/>
<path d="M93.0954 44.6126L84.6849 46.0079L87.9047 38.9868C87.9047 38.9868 85.4713 39.5592 83.5993 38.0325C83.5993 38.0325 77.9233 47.5965 79.1172 50.4308C80.2398 53.0965 92.0972 50.3736 92.0972 50.3736L93.0964 44.6126H93.0954Z" fill="white"/>
<path d="M82.9411 51.7041C80.9978 51.7041 79.4116 51.3955 79.0222 50.4717C77.8217 47.6221 83.2783 38.3725 83.511 37.9801C83.5262 37.9544 83.5518 37.9363 83.5813 37.9315C83.6117 37.9258 83.6411 37.9344 83.6639 37.9525C85.4742 39.4277 87.8582 38.8925 87.881 38.8868C87.919 38.8773 87.9589 38.8915 87.9845 38.922C88.0092 38.9525 88.0149 38.9944 87.9978 39.0306L84.8587 45.8754L93.0783 44.5116C93.1116 44.5078 93.1448 44.5173 93.1686 44.5411C93.1923 44.5649 93.2028 44.5983 93.1971 44.6316L92.1979 50.3926C92.1912 50.4336 92.1599 50.466 92.12 50.4755C91.798 50.5488 86.7033 51.7041 82.9411 51.7041ZM83.6278 38.1877C83.0256 39.2211 78.1161 47.7926 79.2112 50.3917C79.65 51.4355 82.0036 51.7498 86.0147 51.3003C88.8232 50.986 91.5501 50.3917 92.007 50.2898L92.9691 44.7392L84.7011 46.1107C84.6631 46.1145 84.6251 46.1012 84.6023 46.0716C84.5795 46.0412 84.5748 46.0012 84.5909 45.9659L87.7281 39.1249C87.1126 39.2211 85.1893 39.3935 83.6268 38.1877H83.6278Z" fill="#040B33"/>
<path d="M46.5408 83.0711H48.1992L49.1091 75.5139L45.6414 75.993L46.5408 83.0711Z" fill="white"/>
<path d="M48.1992 83.174H46.5409C46.4887 83.174 46.4459 83.1349 46.4393 83.0835L45.5398 76.0053C45.5332 75.9491 45.5721 75.8977 45.6281 75.8901L49.0959 75.411C49.1272 75.4082 49.1595 75.4177 49.1823 75.4396C49.2051 75.4624 49.2165 75.4939 49.2117 75.5263L48.3018 83.0835C48.2952 83.1349 48.2515 83.174 48.2002 83.174H48.1992ZM46.6311 82.9673H48.1081L48.9914 75.6339L45.7564 76.0805L46.6311 82.9673Z" fill="#112047"/>
<path d="M48.6636 100.112L50.6059 106.562L53.9065 106.397L53.1618 100.368L48.6636 100.112Z" fill="white"/>
<path d="M50.6059 106.666C50.5603 106.666 50.5204 106.636 50.5071 106.592L48.5638 100.143C48.5543 100.11 48.561 100.075 48.5819 100.049C48.6028 100.023 48.6369 100.01 48.6683 100.01L53.1666 100.267C53.2159 100.269 53.2568 100.307 53.2625 100.357L54.0071 106.387C54.0109 106.415 54.0024 106.444 53.9834 106.466C53.9653 106.488 53.9387 106.501 53.9093 106.502L50.6097 106.667H50.6049L50.6059 106.666ZM48.8041 100.224L50.6819 106.455L53.7906 106.3L53.0697 100.466L48.8041 100.223V100.224Z" fill="#040B33"/>
<path d="M50.0759 105.722H54.067C54.067 105.722 54.0727 106.785 54.3035 106.94C54.5352 107.095 58.7495 109.019 59.2386 109.552C59.6404 109.99 59.572 110.282 59.572 110.282C59.572 110.282 51.3505 110.437 51.0029 110.282C50.6553 110.127 50.075 105.722 50.075 105.722H50.0759Z" fill="white"/>
<path d="M53.4961 110.455C52.1531 110.455 51.0941 110.435 50.9621 110.377C50.6011 110.216 50.1509 107.078 49.9743 105.736C49.9705 105.707 49.979 105.677 49.999 105.654C50.018 105.632 50.0465 105.619 50.0759 105.619H54.067C54.124 105.619 54.1695 105.665 54.1695 105.722C54.1724 106.208 54.2493 106.781 54.3605 106.855C54.4184 106.894 54.8192 107.088 55.2827 107.311C57.055 108.168 58.9746 109.113 59.3146 109.484C59.7401 109.948 59.6813 110.27 59.6727 110.307C59.6623 110.352 59.6214 110.386 59.5749 110.387C58.7172 110.403 55.7177 110.456 53.4961 110.456V110.455ZM50.1937 105.826C50.4663 107.869 50.8566 110.033 51.0513 110.192C51.3353 110.293 56.204 110.242 59.4704 110.182C59.4571 110.079 59.3992 109.881 59.1627 109.623C58.8217 109.251 56.4614 108.11 55.1934 107.497C54.6008 107.21 54.313 107.071 54.2465 107.027C54.0166 106.873 53.9729 106.162 53.9653 105.826H50.1937Z" fill="#040B33"/>
<path d="M39.7629 99.7285L40.3062 106.397H43.3589L44.1729 100.149L39.7629 99.7285Z" fill="white"/>
<path d="M43.3588 106.501H40.3052C40.252 106.501 40.2074 106.46 40.2027 106.407L39.6594 99.737C39.6565 99.7066 39.6679 99.677 39.6898 99.6551C39.7116 99.6332 39.7401 99.6218 39.7714 99.6256L44.1814 100.047C44.2089 100.049 44.2346 100.063 44.2517 100.085C44.2688 100.107 44.2773 100.134 44.2735 100.163L43.4595 106.411C43.4529 106.463 43.4092 106.501 43.3579 106.501H43.3588ZM40.4002 106.294H43.2686L44.057 100.242L39.875 99.8427L40.4002 106.294Z" fill="#040B33"/>
<path d="M40.009 105.722H43.7398L43.6657 107.027C43.6657 107.027 44.6858 110.208 44.5452 110.596C44.4047 110.984 38.7258 111.019 38.3734 110.596C38.022 110.173 39.9719 107.168 39.9719 107.168L40.008 105.722H40.009Z" fill="white"/>
<path d="M41.3938 111C39.9491 111 38.495 110.905 38.2946 110.663C37.927 110.221 39.3859 107.885 39.8703 107.137L39.9054 105.72C39.9064 105.664 39.952 105.619 40.008 105.619H43.7388C43.7673 105.619 43.7939 105.63 43.8139 105.651C43.8338 105.672 43.8433 105.7 43.8414 105.728L43.7683 107.014C43.9525 107.591 44.7846 110.235 44.6402 110.632C44.6098 110.717 44.5139 110.787 44.1454 110.851C43.6258 110.943 42.5117 111 41.3928 111H41.3938ZM40.1087 105.826L40.0745 107.171C40.0745 107.19 40.0678 107.209 40.0574 107.226C39.1389 108.64 38.2642 110.307 38.4513 110.531C38.5045 110.595 38.9281 110.717 40.1847 110.772C42.1812 110.861 44.284 110.721 44.455 110.549C44.531 110.331 44.0561 108.586 43.5669 107.06C43.5631 107.048 43.5612 107.035 43.5622 107.023L43.6306 105.827H40.1087V105.826Z" fill="#040B33"/>
<path d="M46.5588 69.99L48.6636 104.094C48.6636 104.094 52.2624 104.838 54.3985 103.637L53.1068 65.6194L46.5598 69.99H46.5588Z" fill="#040B33"/>
<path d="M48.4366 69.4167L46.4468 72.0415L44.5586 104.008C44.5586 104.008 41.865 104.318 39.3252 103.759C39.3252 103.759 39.1067 67.2957 39.1685 66.4881L53.1059 65.6185V68.289L48.4366 69.4157V69.4167Z" fill="#040B33"/>
<path d="M42.5306 107.771H41.1031C41.0461 107.771 41.0005 107.724 41.0005 107.668C41.0005 107.611 41.0461 107.565 41.1031 107.565H42.5306C42.5876 107.565 42.6332 107.611 42.6332 107.668C42.6332 107.724 42.5876 107.771 42.5306 107.771Z" fill="#040B33"/>
<path d="M42.5306 108.495H41.1031C41.0461 108.495 41.0005 108.449 41.0005 108.392C41.0005 108.336 41.0461 108.289 41.1031 108.289H42.5306C42.5876 108.289 42.6332 108.336 42.6332 108.392C42.6332 108.449 42.5876 108.495 42.5306 108.495Z" fill="#040B33"/>
<path d="M54.9893 107.387H53.9065C53.8495 107.387 53.804 107.34 53.804 107.284C53.804 107.228 53.8495 107.181 53.9065 107.181H54.9893C55.0463 107.181 55.0919 107.228 55.0919 107.284C55.0919 107.34 55.0463 107.387 54.9893 107.387Z" fill="#040B33"/>
<path d="M55.7823 107.771H54.6995C54.6425 107.771 54.5969 107.724 54.5969 107.668C54.5969 107.611 54.6425 107.565 54.6995 107.565H55.7823C55.8393 107.565 55.8849 107.611 55.8849 107.668C55.8849 107.724 55.8393 107.771 55.7823 107.771Z" fill="#040B33"/>
<path d="M39.763 103.95H39.7611C39.7041 103.949 39.6595 103.902 39.6604 103.846L40.0964 83.1416C40.0973 83.0854 40.1429 83.0406 40.199 83.0406H40.2009C40.2578 83.0416 40.3025 83.0892 40.3015 83.1454L39.8656 103.849C39.8646 103.906 39.819 103.95 39.763 103.95Z" fill="white"/>
<path d="M49.2905 104.198C49.2364 104.198 49.1908 104.156 49.1879 104.101L47.6692 78.2968C47.6654 78.2396 47.7091 78.1911 47.7661 78.1873C47.8221 78.1892 47.8715 78.2273 47.8743 78.2844L49.3931 104.089C49.3969 104.146 49.3532 104.194 49.2962 104.198H49.2905Z" fill="white"/>
<path d="M72.4981 85.3055V71.4672H63.7143V85.3055C58.6376 87.116 55.0027 91.9751 55.0027 97.6866C55.0027 104.944 60.8696 110.826 68.1062 110.826C75.3427 110.826 81.2096 104.943 81.2096 97.6866C81.2096 91.9751 77.5738 87.1169 72.4981 85.3055Z" fill="white"/>
<path d="M68.1062 110.929C60.824 110.929 54.8992 104.988 54.8992 97.6865C54.8992 92.1207 58.3973 87.1254 63.6117 85.233V71.4681C63.6117 71.411 63.6573 71.3652 63.7143 71.3652H72.4981C72.5551 71.3652 72.6006 71.4119 72.6006 71.4681V85.233C77.8151 87.1254 81.3122 92.1207 81.3122 97.6865C81.3122 104.988 75.3874 110.929 68.1052 110.929H68.1062ZM63.8169 71.57V85.3044C63.8169 85.3483 63.7893 85.3873 63.7485 85.4016C58.5787 87.2454 55.1043 92.1826 55.1043 97.6855C55.1043 104.874 60.9371 110.722 68.1052 110.722C75.2734 110.722 81.1061 104.874 81.1061 97.6855C81.1061 92.1826 77.6327 87.2454 72.462 85.4016C72.4211 85.3873 72.3936 85.3483 72.3936 85.3044V71.57H63.8159H63.8169Z" fill="#040B33"/>
<path d="M55.0093 97.9684C55.1603 105.094 60.9636 110.825 68.1061 110.825C75.2486 110.825 81.0519 105.093 81.2029 97.9684H55.0093Z" fill="#5C8FCC"/>
<path d="M68.1062 99.8818C75.343 99.8818 81.2096 98.8985 81.2096 97.6856C81.2096 96.4727 75.343 95.4894 68.1062 95.4894C60.8693 95.4894 55.0027 96.4727 55.0027 97.6856C55.0027 98.8985 60.8693 99.8818 68.1062 99.8818Z" fill="#FF5C5C"/>
<path d="M68.1062 99.9856C61.6143 99.9856 54.8992 99.1256 54.8992 97.6856C54.8992 96.2456 61.6143 95.3856 68.1062 95.3856C74.5981 95.3856 81.3132 96.2456 81.3132 97.6856C81.3132 99.1256 74.5981 99.9856 68.1062 99.9856ZM68.1062 95.5922C60.3292 95.5922 55.1053 96.6751 55.1053 97.6856C55.1053 98.6961 60.3292 99.7789 68.1062 99.7789C75.8832 99.7789 81.1071 98.6961 81.1071 97.6856C81.1071 96.6751 75.8832 95.5922 68.1062 95.5922Z" fill="white"/>
<path d="M68.1062 110.929C60.824 110.929 54.8992 104.988 54.8992 97.6865C54.8992 92.1207 58.3973 87.1254 63.6117 85.233V71.4681C63.6117 71.411 63.6573 71.3652 63.7143 71.3652H72.4981C72.5551 71.3652 72.6006 71.4119 72.6006 71.4681V85.233C77.8151 87.1254 81.3122 92.1207 81.3122 97.6865C81.3122 104.988 75.3874 110.929 68.1052 110.929H68.1062ZM63.8169 71.57V85.3044C63.8169 85.3483 63.7893 85.3873 63.7485 85.4016C58.5787 87.2454 55.1043 92.1826 55.1043 97.6855C55.1043 104.874 60.9371 110.722 68.1052 110.722C75.2734 110.722 81.1061 104.874 81.1061 97.6855C81.1061 92.1826 77.6327 87.2454 72.462 85.4016C72.4211 85.3873 72.3936 85.3483 72.3936 85.3044V71.57H63.8159H63.8169Z" fill="#040B33"/>
<path d="M68.1062 72.2042C70.5318 72.2042 72.4981 71.8744 72.4981 71.4676C72.4981 71.0608 70.5318 70.731 68.1062 70.731C65.6807 70.731 63.7144 71.0608 63.7144 71.4676C63.7144 71.8744 65.6807 72.2042 68.1062 72.2042Z" fill="white"/>
<path d="M68.1063 72.3071C66.2998 72.3071 63.6118 72.0832 63.6118 71.4676C63.6118 70.8034 66.5515 70.6281 68.1063 70.6281C69.6611 70.6281 72.6007 70.8034 72.6007 71.4676C72.6007 72.0841 69.9128 72.3071 68.1063 72.3071ZM68.1063 70.8339C65.2901 70.8339 63.817 71.2465 63.817 71.4676C63.817 71.6887 65.2901 72.1013 68.1063 72.1013C70.9225 72.1013 72.3956 71.6887 72.3956 71.4676C72.3956 71.2465 70.9225 70.8339 68.1063 70.8339Z" fill="#040B33"/>
<path d="M57.9821 61.4461L53.9787 58.7461C53.9787 58.7461 52.7905 51.1269 52.6964 50.7907C52.0164 48.3679 51.2717 45.2926 46.575 44.6812L46.8893 46.9136C46.8893 46.9136 49.2933 46.6059 48.9181 49.0298C48.5429 51.4536 49.9752 60.9147 51.1274 62.3585C52.8531 64.5214 58.5767 65.4243 58.5767 65.4243C58.5767 65.4243 57.5385 64.1052 57.983 61.4461H57.9821Z" fill="white"/>
<path d="M58.6564 65.3613C58.646 65.348 57.6525 64.0404 58.0837 61.4632C58.0904 61.4232 58.0733 61.3832 58.04 61.3613L54.0736 58.686C53.9663 57.9994 52.8883 51.0917 52.7962 50.7631L52.7458 50.5821C52.0734 48.1773 51.2375 45.184 46.5892 44.5783C46.5579 44.5754 46.5256 44.5849 46.5028 44.6078C46.48 44.6306 46.4695 44.663 46.4743 44.6944L46.7887 46.9268C46.7963 46.9821 46.8485 47.0202 46.9036 47.0145C46.914 47.0126 47.9237 46.8935 48.4822 47.4697C48.8108 47.8097 48.9248 48.3288 48.8184 49.0135C48.4451 51.4269 49.8746 60.9508 51.0485 62.4223C52.7791 64.5918 58.3269 65.489 58.5624 65.5261C58.5681 65.5261 58.5729 65.5271 58.5786 65.5271C58.6146 65.5271 58.6488 65.508 58.6669 65.4766C58.6887 65.4404 58.6849 65.3937 58.6593 65.3604L58.6564 65.3613ZM51.2071 62.2946C50.2431 61.0861 48.5762 51.9098 49.0197 49.0459C49.1366 48.2935 49.0045 47.7154 48.6265 47.3269C48.182 46.8688 47.5162 46.7973 47.1467 46.7973C47.0793 46.7973 47.0214 46.8002 46.9767 46.803L46.6956 44.8021C51.0913 45.4297 51.8976 48.3154 52.5473 50.6383L52.5976 50.8193C52.6708 51.0812 53.4667 56.1298 53.877 58.7632C53.8818 58.7917 53.8979 58.8165 53.9217 58.8327L57.871 61.4965C57.5404 63.567 58.0913 64.8185 58.3611 65.2842C57.2764 65.0871 52.6936 64.1575 51.2081 62.2956L51.2071 62.2946Z" fill="#040B33"/>
<path d="M39.1276 41.6773C39.347 41.9145 39.6661 42.0821 39.9748 42.1916C40.0042 42.2021 40.0337 42.2107 40.0641 42.2192C40.0935 42.4288 40.2407 42.6373 40.4402 42.7259C41.0015 42.9735 41.6427 42.5554 42.1764 42.884C42.601 43.145 42.8499 43.5831 43.3248 43.7859C43.8149 43.9954 44.2898 43.9488 44.7894 43.8059C45.0847 43.7212 45.325 43.7307 45.6005 43.8669C45.8351 43.9831 46.0478 44.1326 46.2986 44.2173C46.7877 44.3821 47.4108 44.3364 47.9038 44.204C48.3454 44.0859 48.7814 43.7726 48.8498 43.3145C48.883 43.0897 48.7624 42.864 48.8023 42.6459C48.8469 42.4021 49.2601 42.4983 49.45 42.4716C49.9002 42.4078 50.2754 42.144 50.3087 41.6868C50.3372 41.2849 50.1785 40.7583 49.8679 40.4649C49.677 40.2325 49.4738 39.9868 49.4025 39.6944C49.3684 39.5525 49.3665 39.3982 49.4187 39.2601C49.4719 39.1201 49.584 39.0173 49.6761 38.9011C50.0294 38.4563 49.8176 37.9963 49.5802 37.5525C49.4386 37.2868 49.2933 37.023 49.1546 36.7563C49.0834 36.6192 49.0264 36.4954 49.1271 36.3573C49.1869 36.2753 49.2525 36.2001 49.2924 36.1068C49.4567 35.7201 49.2762 35.2725 48.9761 34.9953C48.6598 34.702 48.2134 34.5925 47.7831 34.522C47.653 34.2582 47.4355 34.0163 47.236 33.8325C46.8324 33.4601 46.3214 33.1972 45.779 33.0629C44.8976 32.8448 43.5784 32.9363 43.1671 33.8458C43.1035 33.9858 43.0455 34.121 42.8897 34.1877C42.7767 34.2363 42.6494 34.2515 42.5298 34.2782C42.298 34.3287 42.0796 34.422 41.8858 34.5534C41.5116 34.8096 41.2371 35.1915 41.125 35.6172C41.0652 35.8449 41.0652 36.0734 41.0956 36.3049C41.1355 36.6144 41.1877 36.9182 40.9056 37.1382C40.7052 37.2944 40.4734 37.3954 40.3196 37.602C40.1724 37.7992 40.1068 38.0373 40.0983 38.2754C40.0926 38.4201 40.1173 38.5601 40.1382 38.703C40.1562 38.8278 40.1838 38.984 40.1011 39.0935C39.9729 39.263 39.6661 39.2487 39.4942 39.3792C39.2634 39.5554 39.2036 39.864 39.3004 40.1173C39.2843 40.2573 39.2007 40.3649 39.1152 40.4754C39.025 40.5925 38.9357 40.7106 38.893 40.8516C38.8037 41.144 38.9253 41.4592 39.1304 41.6802L39.1276 41.6773Z" fill="#040B33"/>
<path d="M47.0233 44.4249C46.7459 44.4249 46.4857 44.3887 46.2663 44.3145C46.0934 44.2564 45.9386 44.1687 45.7885 44.0849C45.7116 44.0411 45.6347 43.9983 45.5549 43.9592C45.3136 43.8402 45.0999 43.823 44.8178 43.9049C44.4066 44.023 43.8595 44.1268 43.2849 43.8811C42.998 43.7583 42.791 43.5573 42.5896 43.363C42.4386 43.2173 42.2961 43.0792 42.1223 42.9716C41.8706 42.8163 41.5838 42.8478 41.2798 42.8821C40.9892 42.9154 40.6881 42.9478 40.3984 42.8192C40.1923 42.7278 40.0289 42.5249 39.9748 42.2992C39.9634 42.2963 39.9529 42.2916 39.9415 42.2887C39.6775 42.1944 39.3099 42.0249 39.0525 41.7468C38.7999 41.4744 38.7002 41.1182 38.7923 40.8173C38.8398 40.663 38.9291 40.5411 39.0316 40.4087C39.1086 40.3096 39.1741 40.2249 39.1931 40.1249C39.0896 39.8201 39.1846 39.482 39.4306 39.2944C39.5208 39.2258 39.6329 39.1925 39.7411 39.1611C39.857 39.1277 39.9653 39.0953 40.0175 39.0277C40.0707 38.9582 40.0527 38.8382 40.0375 38.7325L40.0261 38.6553C40.008 38.5306 39.989 38.402 39.9938 38.2677C40.0042 37.9868 40.0878 37.7344 40.236 37.5363C40.3509 37.3829 40.501 37.2839 40.6463 37.1887C40.7118 37.1458 40.7783 37.102 40.841 37.0534C41.0652 36.8782 41.0338 36.6353 40.9968 36.3525L40.992 36.3144C40.9569 36.0363 40.9673 35.8048 41.0243 35.5877C41.144 35.1362 41.4289 34.7372 41.8269 34.4648C42.0302 34.3258 42.2591 34.2277 42.507 34.1734L42.6038 34.1534C42.6922 34.1362 42.7758 34.12 42.8489 34.0886C42.9648 34.0391 43.0104 33.9372 43.0692 33.8077C43.5261 32.7991 44.9546 32.7496 45.8037 32.9591C46.3784 33.101 46.897 33.3753 47.3063 33.7534C47.5514 33.9791 47.7347 34.2048 47.8515 34.4248C48.2818 34.4991 48.7196 34.6134 49.0464 34.9162C49.355 35.202 49.5801 35.6924 49.3873 36.1439C49.3503 36.2296 49.299 36.2982 49.2477 36.3648L49.2097 36.4144C49.1518 36.4934 49.1679 36.5563 49.2458 36.7048C49.3408 36.8867 49.4386 37.0677 49.5365 37.2487L49.6713 37.4991C49.8717 37.8725 50.1738 38.4372 49.7568 38.9611C49.7331 38.9915 49.7074 39.0201 49.6827 39.0496C49.6143 39.1296 49.5488 39.2049 49.5156 39.2925C49.4643 39.4287 49.4804 39.5696 49.5032 39.6658C49.5678 39.9315 49.7568 40.162 49.9392 40.3849C50.3029 40.7306 50.4388 41.3039 50.4112 41.6906C50.378 42.1554 50.0152 42.4925 49.4643 42.5706C49.4101 42.5782 49.3389 42.5782 49.262 42.5763C49.0749 42.5706 48.9181 42.5763 48.9029 42.662C48.8858 42.7544 48.9048 42.8554 48.9248 42.9621C48.9466 43.0792 48.9694 43.1992 48.9504 43.3268C48.8706 43.8659 48.3511 44.1887 47.9294 44.3011C47.6255 44.3821 47.3139 44.423 47.0214 44.423L47.0233 44.4249ZM45.1398 43.6478C45.3127 43.6478 45.4751 43.6897 45.6461 43.7735C45.7287 43.8144 45.8094 43.8602 45.8892 43.9049C46.0374 43.9887 46.177 44.0668 46.3318 44.1192C46.745 44.2592 47.3234 44.2525 47.8781 44.104C48.239 44.0068 48.6835 43.7383 48.7491 43.2982C48.7624 43.2049 48.7443 43.1068 48.7244 43.0021C48.7016 42.8811 48.6778 42.7563 48.7016 42.6259C48.751 42.3592 49.0635 42.3687 49.2677 42.3706C49.3313 42.3716 49.3911 42.3735 49.4358 42.3678C49.8917 42.303 50.1795 42.0449 50.2061 41.6773C50.2317 41.3268 50.0987 40.823 49.7977 40.5373C49.7948 40.5344 49.7825 40.5211 49.7796 40.5173C49.582 40.2763 49.3788 40.0268 49.3028 39.7163C49.2601 39.5392 49.2667 39.3677 49.3228 39.2211C49.3693 39.0992 49.4491 39.0068 49.526 38.9172C49.5498 38.8896 49.5735 38.863 49.5953 38.8344C49.9021 38.4487 49.7283 38.0468 49.489 37.5991L49.3541 37.3487C49.2563 37.1667 49.1575 36.9848 49.0625 36.802C48.9941 36.6706 48.9001 36.4905 49.0426 36.2944L49.0825 36.241C49.1271 36.182 49.1698 36.1258 49.1964 36.0639C49.3493 35.7039 49.1603 35.3048 48.9048 35.0686C48.6056 34.7915 48.1801 34.6896 47.7651 34.621C47.7328 34.6153 47.7043 34.5943 47.6891 34.5648C47.5865 34.3553 47.4051 34.1286 47.1638 33.9058C46.7811 33.5515 46.2919 33.2943 45.7515 33.161C44.9689 32.9657 43.6581 33 43.2573 33.8858C43.1889 34.0372 43.1167 34.1991 42.9268 34.28C42.8327 34.32 42.7349 34.34 42.6399 34.3581L42.5488 34.3762C42.3265 34.4248 42.1213 34.5124 41.9409 34.6362C41.5838 34.8801 41.3283 35.2372 41.2209 35.642C41.1706 35.8324 41.162 36.0391 41.1934 36.2896L41.1981 36.3267C41.2371 36.6277 41.2817 36.9696 40.9645 37.2172C40.897 37.2696 40.8268 37.3163 40.7555 37.3629C40.6188 37.4525 40.4905 37.5372 40.3975 37.661C40.2749 37.8258 40.2056 38.0382 40.1961 38.2772C40.1913 38.3925 40.2084 38.5058 40.2265 38.6268L40.235 38.6868C40.2569 38.8363 40.2835 39.0153 40.178 39.1544C40.085 39.2772 39.9311 39.322 39.7953 39.3611C39.7012 39.3887 39.612 39.4144 39.5521 39.4601C39.3717 39.5982 39.3052 39.8525 39.3916 40.0792C39.3973 40.0944 39.3992 40.1106 39.3983 40.1277C39.3793 40.2954 39.2843 40.4173 39.1931 40.5354C39.101 40.6535 39.0231 40.7601 38.986 40.8801C38.9015 41.1563 39.0411 41.4373 39.2007 41.6087C39.4296 41.8563 39.7658 42.0106 40.0071 42.0963C40.0337 42.1049 40.0612 42.1135 40.0897 42.122C40.1287 42.1325 40.1581 42.1668 40.1638 42.2068C40.1885 42.3868 40.3186 42.562 40.4791 42.6325C40.7185 42.7382 40.9787 42.7097 41.2551 42.6782C41.58 42.6411 41.9162 42.6049 42.2277 42.7973C42.4205 42.9163 42.5782 43.0687 42.7302 43.2154C42.9258 43.4049 43.111 43.584 43.3627 43.6916C43.7712 43.8659 44.1891 43.8706 44.7589 43.7068C44.8948 43.6678 45.0182 43.6487 45.1379 43.6487L45.1398 43.6478Z" fill="#040B33"/>
<path d="M42.7636 45.4344H46.5742V39.1049H42.7636V45.4344Z" fill="white"/>
<path d="M46.5751 45.5383H42.7644C42.7075 45.5383 42.6619 45.4916 42.6619 45.4354V39.1058C42.6619 39.0487 42.7075 39.003 42.7644 39.003H46.5751C46.632 39.003 46.6776 39.0496 46.6776 39.1058V45.4354C46.6776 45.4926 46.632 45.5383 46.5751 45.5383ZM42.867 45.3316H46.4715V39.2087H42.867V45.3316Z" fill="#040B33"/>
<path d="M46.5751 42.4135L46.6482 43.9345C46.6482 43.9345 44.9025 43.2849 44.0496 41.7849L46.5751 42.4135Z" fill="#040B33"/>
<path d="M44.7363 34.3019C45.7022 34.0972 47.618 34.4905 48.43 36.1363C49.1737 37.6429 49.1519 42.6392 46.652 42.9163C44.1521 43.1935 42.4501 40.4049 42.1955 38.5182C42.0265 37.2648 42.1661 34.8458 44.7363 34.3019Z" fill="white"/>
<path d="M45.2302 39.838C45.1552 39.838 45.0802 39.8304 45.0042 39.8142C44.3564 39.6722 43.9898 38.9137 43.9746 38.8813C43.9546 38.8394 43.9651 38.7879 44.0012 38.7584C44.0287 38.7346 44.6765 38.201 45.3243 38.342C45.972 38.484 46.3386 39.2425 46.3538 39.2749C46.3738 39.3177 46.3633 39.3682 46.3273 39.3978C46.3035 39.4188 45.7944 39.838 45.2302 39.838ZM44.1997 38.8661C44.3032 39.049 44.6072 39.5159 45.0479 39.6122C45.4895 39.7094 45.9597 39.4121 46.1297 39.2892C46.0262 39.1062 45.7222 38.6393 45.2815 38.543C44.8389 38.4459 44.3697 38.7432 44.1997 38.8661Z" fill="#040B33"/>
<path d="M46.0916 38.2528C46.0916 38.2528 44.7637 38.0269 44.6479 37.9698C44.532 37.9126 45.4172 37.6534 45.6357 37.7134C45.8541 37.7735 46.1087 38.1203 46.0916 38.2528Z" fill="#040B33"/>
<path d="M47.6843 38.4403C47.6843 38.4403 49.0283 38.5242 49.1546 38.4956C49.28 38.467 48.4784 38.0115 48.2514 38.0191C48.0244 38.0277 47.6986 38.3069 47.6853 38.4403H47.6843Z" fill="#040B33"/>
<path d="M48.3171 40.2028C48.299 40.2028 48.281 40.2028 48.2629 40.2018C47.6009 40.1656 47.1175 39.4767 47.0975 39.4472C47.0709 39.4081 47.0738 39.3566 47.1042 39.3204C47.1279 39.2937 47.6826 38.6725 48.3437 38.6963C49.0057 38.7325 49.4882 39.4214 49.5091 39.451C49.5357 39.49 49.5328 39.5415 49.5024 39.5777C49.4796 39.6034 48.9544 40.2028 48.3171 40.2028ZM47.3169 39.3957C47.448 39.5596 47.8232 39.9712 48.2743 39.996C48.7198 40.0218 49.1415 39.6511 49.2906 39.5034C49.1586 39.3395 48.7844 38.9278 48.3332 38.904C47.8773 38.8773 47.4661 39.248 47.3169 39.3967V39.3957Z" fill="#040B33"/>
<path d="M46.7414 40.7024C46.7062 40.7024 46.672 40.6843 46.653 40.6519C46.6236 40.6024 46.6398 40.5395 46.6891 40.5109C46.8145 40.4366 46.8858 40.3613 46.8801 40.3098C46.8715 40.2307 46.7005 40.1345 46.5809 40.0954C46.5267 40.0773 46.4973 40.0192 46.5144 39.9649C46.5315 39.9106 46.5904 39.882 46.6435 39.8982C46.7119 39.9211 47.0567 40.044 47.0843 40.286C47.1004 40.428 47.0026 40.5633 46.7936 40.6872C46.7775 40.6967 46.7594 40.7015 46.7414 40.7015V40.7024Z" fill="#040B33"/>
<path d="M46.4459 41.2728C45.9748 41.2728 45.7991 40.8907 45.7915 40.8745C45.7677 40.8221 45.7915 40.7611 45.8437 40.7382C45.895 40.7153 45.9558 40.7382 45.9795 40.7897C45.9852 40.8011 46.1144 41.0765 46.4639 41.0669H46.4668C46.5228 41.0669 46.5684 41.1117 46.5693 41.167C46.5703 41.2242 46.5257 41.2718 46.4696 41.2728C46.462 41.2728 46.4544 41.2728 46.4468 41.2728H46.4459Z" fill="#040B33"/>
<path d="M47.4927 39.7308C47.4927 39.7308 48.4539 38.5302 49.0912 40.0091C49.0912 40.0091 48.0797 40.2073 47.4927 39.7308Z" fill="#040B33"/>
<path d="M44.4827 39.4451C44.4827 39.4451 45.4192 38.2798 46.0812 39.4699C46.0812 39.4699 45.2321 40.0588 44.4827 39.4451Z" fill="#040B33"/>
<path d="M46.3137 43.0392C45.2281 43.0392 44.19 42.4744 43.3598 41.423C43.3247 41.3782 43.3323 41.3135 43.3769 41.2782C43.4216 41.243 43.4862 41.2506 43.5213 41.2954C44.3951 42.4021 45.5035 42.943 46.6405 42.8154C47.255 42.7468 47.7527 42.3716 48.1193 41.7001C49.0007 40.0839 48.8592 37.2401 48.3378 36.1839C47.5637 34.6172 45.7448 34.1972 44.757 34.4039C42.0387 34.9791 42.1868 37.6887 42.297 38.5058C42.3046 38.562 42.2657 38.6144 42.2087 38.622C42.1498 38.6249 42.1004 38.5906 42.0928 38.5334C41.9769 37.6725 41.8221 34.8143 44.7143 34.2029C45.7638 33.9772 47.7004 34.4277 48.522 36.0925C49.0625 37.1868 49.2097 40.1296 48.2998 41.8001C47.899 42.5344 47.349 42.9449 46.6633 43.0211C46.5464 43.0344 46.4306 43.0411 46.3147 43.0411L46.3137 43.0392Z" fill="#040B33"/>
<path d="M41.9134 36.9344C41.8935 37.3068 41.9922 37.6811 42.2164 37.982C42.2952 38.0878 42.3921 38.2078 42.5165 38.2659C42.5099 38.3173 42.5298 38.3706 42.5935 38.3982C42.8005 38.4887 43.0057 38.4087 43.1415 38.2354C43.3049 38.0268 43.2868 37.7773 43.2574 37.5278C43.2479 37.4487 43.2327 37.3639 43.2403 37.2839C43.2479 37.2039 43.2574 37.2163 43.3324 37.2316C43.4749 37.262 43.6183 37.2897 43.7627 37.3106C43.9935 37.3439 44.3268 37.422 44.5538 37.3401C44.7438 37.2716 44.8027 37.0878 44.8226 36.903C44.8331 36.8058 44.8245 36.6677 44.8825 36.5839C44.9452 36.4925 45.0705 36.4868 45.1684 36.5135C45.3118 36.5516 45.4334 36.6573 45.554 36.7392C45.6651 36.8135 45.7791 36.8792 45.9026 36.9306C46.1277 37.0249 46.3784 37.0925 46.6244 37.0782C46.8951 37.063 47.143 36.8944 47.2237 36.6639C47.3548 36.7687 47.4868 36.8706 47.6265 36.963C47.9722 37.1935 48.3588 37.3258 48.7776 37.2801C48.827 37.2744 48.8593 37.2497 48.8793 37.2163C48.9049 37.2049 48.9267 37.1849 48.941 37.1506C49.1205 36.7182 48.7976 36.3449 48.5421 36.0277C48.2058 35.6115 47.8725 35.1934 47.5334 34.7792C47.2617 34.4468 46.9825 34.2172 46.5674 34.0896C46.16 33.9649 45.7183 33.8715 45.2909 33.8925C44.8701 33.9134 44.495 34.0877 44.1388 34.302C43.7807 34.5182 43.4226 34.7439 43.0921 35.0011C42.4823 35.4763 41.9571 36.1268 41.9134 36.9306V36.9344Z" fill="#040B33"/>
<path d="M42.7672 38.5391C42.6959 38.5391 42.6228 38.5239 42.5516 38.4934C42.4775 38.461 42.4291 38.401 42.4158 38.3287C42.3027 38.2591 42.2135 38.1515 42.1337 38.0429C41.9038 37.7334 41.7889 37.3382 41.8107 36.9286C41.8497 36.2067 42.2704 35.5134 43.0284 34.9229C43.3713 34.6562 43.7388 34.4258 44.0855 34.2162C44.3923 34.0305 44.8055 33.8153 45.2851 33.7915C45.6669 33.7734 46.0953 33.8391 46.5968 33.9924C46.9938 34.1143 47.2977 34.3305 47.6112 34.7153C47.842 34.9981 48.0709 35.282 48.2998 35.5667L48.6474 35.9982C48.9077 36.3191 49.2315 36.7191 49.0349 37.1925C49.0169 37.2372 48.9874 37.2715 48.9485 37.2963C48.9096 37.3467 48.8526 37.3772 48.787 37.3848C48.3758 37.4267 47.9664 37.3163 47.5684 37.0506C47.4583 36.9772 47.3538 36.8991 47.2588 36.8248C47.1325 37.0258 46.8912 37.1677 46.63 37.1829C46.3983 37.1944 46.1409 37.1439 45.8626 37.0267C45.741 36.9763 45.6213 36.9106 45.496 36.8258C45.4675 36.8077 45.4399 36.7867 45.4105 36.7658C45.3231 36.7029 45.2338 36.6391 45.1417 36.6144C45.0819 36.5982 44.9992 36.5963 44.966 36.6439C44.9384 36.6829 44.9337 36.7667 44.9299 36.8344C44.928 36.8629 44.927 36.8896 44.9242 36.9144C44.9128 37.0172 44.8795 37.3315 44.588 37.4372C44.3733 37.5153 44.0922 37.4687 43.8671 37.4315L43.7474 37.4125C43.6116 37.3925 43.4767 37.3667 43.3418 37.3391C43.3418 37.3839 43.3475 37.4248 43.3532 37.4648L43.3599 37.5153C43.3922 37.7944 43.4064 38.0649 43.2221 38.2991C43.0996 38.4563 42.9362 38.5391 42.7681 38.5391H42.7672ZM45.4105 33.9953C45.3715 33.9953 45.3326 33.9953 45.2946 33.9981C44.8606 34.0191 44.4768 34.22 44.1909 34.3924C43.85 34.5991 43.4881 34.8248 43.1547 35.0848C42.6599 35.4705 42.0605 36.1048 42.0159 36.9391C41.9969 37.3001 42.0966 37.6487 42.2989 37.9191C42.3759 38.0229 42.4613 38.1258 42.5601 38.1715C42.601 38.1906 42.6247 38.2344 42.619 38.2782C42.6171 38.2896 42.619 38.2953 42.6342 38.302C42.7852 38.3677 42.9438 38.3182 43.0607 38.1706C43.1965 37.9972 43.1851 37.7906 43.1557 37.5382L43.15 37.4906C43.1414 37.4239 43.131 37.3477 43.1386 37.2725C43.1424 37.2334 43.1481 37.1753 43.1974 37.1391C43.244 37.1039 43.2934 37.1153 43.3333 37.1248C43.4947 37.1591 43.6353 37.1867 43.7778 37.2077L43.9012 37.2267C44.1036 37.2601 44.3543 37.302 44.5186 37.242C44.6364 37.1991 44.6981 37.0906 44.72 36.8906C44.7228 36.8696 44.7238 36.8458 44.7247 36.821C44.7304 36.7277 44.7361 36.6115 44.7969 36.5239C44.8748 36.4105 45.0277 36.3677 45.1939 36.4125C45.3231 36.4467 45.4333 36.5248 45.5302 36.5953C45.5568 36.6144 45.5834 36.6334 45.6099 36.6515C45.7239 36.7286 45.8322 36.7886 45.9405 36.8344C46.1893 36.9391 46.4154 36.9858 46.6167 36.9744C46.8494 36.961 47.0584 36.8191 47.1249 36.6286C47.1363 36.5972 47.1619 36.5734 47.1933 36.5639C47.2256 36.5544 47.2598 36.561 47.2854 36.582C47.4003 36.6734 47.5371 36.7801 47.6805 36.8763C48.0376 37.1144 48.4014 37.2172 48.7633 37.1763C48.7775 37.1753 48.7832 37.1696 48.7889 37.162C48.7994 37.1448 48.8146 37.1315 48.8317 37.1229C48.9931 36.7506 48.7234 36.4191 48.4869 36.1258L48.1393 35.6943C47.9113 35.4096 47.6824 35.1258 47.4516 34.8439C47.161 34.4886 46.896 34.2981 46.536 34.1886C46.1086 34.0572 45.7391 33.9934 45.4105 33.9934V33.9953Z" fill="#040B33"/>
<path d="M41.1849 39.124C41.3245 39.7468 42.0388 40.2583 42.6106 40.1287C43.1824 40.0002 43.3951 39.2792 43.2555 38.6563C43.1159 38.0335 42.5384 37.6325 41.9666 37.762C41.3948 37.8906 41.0444 38.5011 41.184 39.124H41.1849Z" fill="white"/>
<path d="M42.6409 39.1129C42.6001 39.1129 42.5612 39.0881 42.545 39.0472C42.5336 39.0186 42.2696 38.3535 41.7605 38.5088C41.7073 38.5259 41.6484 38.4945 41.6323 38.4402C41.6161 38.3859 41.6465 38.3277 41.7006 38.3115C42.2534 38.1438 42.6201 38.6708 42.7359 38.9728C42.7559 39.0262 42.7302 39.0853 42.677 39.1063C42.6647 39.111 42.6523 39.1129 42.64 39.1129H42.6409Z" fill="#040B33"/>
<path d="M42.4245 40.2525C41.846 40.2525 41.222 39.7601 41.0843 39.1468C41.0112 38.8201 41.0596 38.4868 41.2201 38.2068C41.3825 37.9248 41.6399 37.7315 41.9448 37.662C42.2497 37.5934 42.565 37.6572 42.8319 37.8429C43.0969 38.0268 43.2831 38.3077 43.3562 38.6344C43.3686 38.6896 43.3334 38.7449 43.2783 38.7572C43.2242 38.7696 43.1682 38.7344 43.1558 38.6791C43.0941 38.4029 42.9374 38.1668 42.7151 38.0125C42.4957 37.8601 42.2373 37.8077 41.9904 37.8639C41.7415 37.9201 41.5316 38.0782 41.3987 38.3106C41.2638 38.5458 41.2239 38.8268 41.2856 39.102C41.4148 39.6772 42.073 40.1449 42.5888 40.0287C42.6942 40.0049 42.7892 39.9573 42.8718 39.8858C42.9155 39.8487 42.9801 39.8534 43.0171 39.8963C43.0542 39.9392 43.0494 40.0049 43.0067 40.042C42.8984 40.1353 42.774 40.1982 42.6344 40.2296C42.566 40.2449 42.4957 40.2525 42.4254 40.2525H42.4245Z" fill="#040B33"/>
<path d="M49.8699 45.8878C49.8633 45.8516 49.8395 45.8221 49.8053 45.8087L46.6121 44.584C46.5846 44.5735 46.5551 44.5764 46.5295 44.5897C46.5038 44.603 46.4839 44.6268 46.4763 44.6544C46.4753 44.6592 46.3234 45.1345 45.062 45.1345H45.0183C43.4996 45.1211 42.8471 44.4325 42.8404 44.4259C42.8053 44.3878 42.7473 44.3821 42.7056 44.4106L39.7336 46.5021C39.7089 46.5202 39.6928 46.5478 39.6899 46.5783L37.9214 67.3128C37.9185 67.3404 37.928 67.368 37.9451 67.389C37.9632 67.41 37.9879 67.4233 38.0154 67.4252C38.2415 67.4423 40.9361 67.6414 44.0923 67.6414C47.4489 67.6414 51.3269 67.4157 53.3035 66.5071C53.3452 66.4871 53.3699 66.4414 53.3623 66.3957L49.8709 45.8878H49.8699Z" fill="#040B33"/>
<path d="M42.7645 44.4954C42.7645 44.4954 45.0754 48.4907 46.2883 52.0879C46.2883 52.0879 46.0033 45.5316 46.5751 44.6802C46.5751 44.6802 48.6248 44.8802 50.3126 46.1297L57.0058 82.4063C57.0058 82.4063 48.6476 83.0711 48.1993 83.0711L47.4081 77.5662L46.54 83.0711C46.54 83.0711 40.1734 83.5987 36.3296 82.6092C36.3296 82.6092 39.2768 47.8259 39.3433 47.0297L42.7636 44.4954H42.7645Z" fill="white"/>
<path d="M42.6865 83.3121C40.6387 83.3121 38.1673 83.1892 36.3038 82.7092C36.2554 82.6968 36.2231 82.6511 36.2269 82.6006C36.2563 82.253 39.1751 47.8088 39.2406 47.0212C39.2434 46.9916 39.2577 46.964 39.2824 46.9469L42.7026 44.4126C42.7264 44.3945 42.7558 44.3887 42.7843 44.3945C42.8128 44.4002 42.8375 44.4183 42.8527 44.444C42.8745 44.4811 44.9166 48.0278 46.1599 51.4164C46.1039 49.706 46.0117 45.3345 46.4895 44.623C46.5094 44.5935 46.5408 44.5764 46.5788 44.5773C46.6016 44.5773 48.92 44.6821 50.6306 46.3192C50.6715 46.3583 50.6734 46.424 50.6335 46.465C50.5945 46.5059 50.5299 46.5069 50.4882 46.4678C48.9856 45.0297 47.0014 44.8145 46.632 44.7859C46.2112 45.6192 46.3138 50.3069 46.3907 52.0822C46.3926 52.1336 46.3575 52.1784 46.3071 52.1879C46.2549 52.1965 46.2074 52.1679 46.1912 52.1193C45.1018 48.8869 43.0968 45.2859 42.733 44.6449L39.4429 47.0831C39.3099 48.6602 36.603 80.6111 36.4406 82.5292C39.9985 83.4159 45.7087 83.0282 46.4524 82.973L47.3082 77.5491C47.3158 77.4996 47.3595 77.4625 47.4098 77.4625C47.4488 77.4596 47.5048 77.4996 47.5115 77.551L48.2884 82.9644C49.2183 82.9197 55.9239 82.3882 56.8841 82.312L51.702 54.2251C51.6916 54.1689 51.7286 54.1155 51.7846 54.1051C51.8388 54.0946 51.8939 54.1317 51.9043 54.1879L57.1073 82.3882C57.113 82.4168 57.1054 82.4463 57.0883 82.4701C57.0703 82.493 57.0437 82.5073 57.0152 82.5101C56.6742 82.5378 48.6484 83.1749 48.201 83.1749C48.1497 83.1749 48.107 83.1368 48.0994 83.0863L47.406 78.2577L46.6443 83.0882C46.6367 83.1359 46.5987 83.1711 46.5512 83.1749C46.5189 83.1778 44.8359 83.313 42.6884 83.313L42.6865 83.3121Z" fill="#040B33"/>
<path d="M47.409 77.6691H47.4042C47.3472 77.6663 47.3036 77.6186 47.3055 77.5615C47.6113 70.5586 46.1989 52.2803 46.1847 52.0964C46.1799 52.0393 46.2227 51.9898 46.2787 51.986C46.3338 51.9784 46.3851 52.0241 46.3889 52.0803C46.4031 52.2641 47.8164 70.5548 47.5106 77.5701C47.5078 77.6253 47.4622 77.6691 47.408 77.6691H47.409Z" fill="#040B33"/>
<path d="M65.4952 68.67L32.7346 60.2051C30.8596 59.7204 29.7313 57.8032 30.2138 55.9232C30.6972 54.0432 32.6092 52.9117 34.4841 53.3955L67.2447 61.8604L65.4952 68.67Z" fill="#5C8FCC"/>
<path d="M65.4951 68.7738C65.4865 68.7738 65.478 68.7728 65.4694 68.7709L32.7088 60.3051C30.7817 59.807 29.6182 57.8298 30.1149 55.8974C30.6117 53.965 32.5835 52.7983 34.5106 53.2964L67.2712 61.7613C67.3263 61.7756 67.3595 61.8318 67.3453 61.887L65.5957 68.6966C65.5891 68.7233 65.572 68.7461 65.5483 68.7595C65.5321 68.769 65.5141 68.7738 65.496 68.7738H65.4951ZM33.6102 53.3869C32.0953 53.3869 30.7095 54.4107 30.3144 55.9489C29.8461 57.7717 30.9431 59.6356 32.7611 60.1051L65.4219 68.5442L67.1202 61.9346L34.4584 53.4955C34.1744 53.4222 33.8894 53.3869 33.6092 53.3869H33.6102Z" fill="#5C8FCC"/>
<path d="M64.6812 64.829C64.1977 66.709 64.5625 68.429 65.4952 68.67C66.4279 68.9109 67.5762 67.5823 68.0596 65.7014C68.5431 63.8213 68.1784 62.1013 67.2457 61.8604C66.313 61.6194 65.1646 62.948 64.6812 64.829Z" fill="white"/>
<path d="M65.7231 68.8023C65.6376 68.8023 65.5531 68.7919 65.4695 68.7699C64.4665 68.5109 64.0762 66.768 64.5815 64.8032C64.8189 63.8785 65.2226 63.0546 65.7165 62.4823C66.2284 61.8899 66.7793 61.6337 67.2704 61.7613C67.7614 61.888 68.1214 62.3794 68.2838 63.1451C68.4405 63.8861 68.3968 64.8032 68.1584 65.728C67.6959 67.529 66.6644 68.8023 65.7231 68.8023ZM64.78 64.8547C64.3117 66.6775 64.6441 68.3433 65.5208 68.5709C66.3984 68.7976 67.4917 67.4985 67.9599 65.6766C68.1898 64.7823 68.2335 63.8985 68.0834 63.188C67.9381 62.5032 67.6313 62.067 67.22 61.9603C66.8087 61.8537 66.33 62.087 65.8722 62.6165C65.3983 63.1651 65.0108 63.9604 64.7809 64.8547H64.78Z" fill="#040B33"/>
<path d="M44.0933 63.0004L44.8996 66.0138C44.8996 66.0138 46.3566 64.3833 46.3927 62.2804L44.0933 63.0004Z" fill="#040B33"/>
<path d="M44.9006 66.1166C44.893 66.1166 44.8844 66.1166 44.8768 66.1137C44.8398 66.1052 44.8113 66.0766 44.8018 66.0404L43.9945 63.027C43.9802 62.9737 44.0106 62.9185 44.0629 62.9023L46.3623 62.1823C46.3946 62.1727 46.4288 62.1784 46.4545 62.1975C46.4811 62.2175 46.4963 62.2489 46.4953 62.2813C46.4592 64.3985 45.0364 66.0147 44.9756 66.0823C44.9557 66.1042 44.9281 66.1166 44.8987 66.1166H44.9006ZM44.2186 63.0689L44.9481 65.7928C45.2872 65.3575 46.2075 64.0347 46.2864 62.4213L44.2186 63.0689Z" fill="#040B33"/>
<path d="M45.3328 62.3928C46.066 62.7014 46.6131 62.8681 46.7907 62.7738C47.6968 62.2966 48.7492 62.1357 48.9648 62.3776C49.3647 62.8262 48.1708 63.2614 47.9476 63.5224C47.7567 63.7452 50.9632 63.7671 50.9414 64.5214C50.93 64.9138 49.151 64.7633 49.151 64.7633C49.151 64.7633 51.3897 65.1081 51.1959 65.8348C51.0943 66.2167 49.0047 65.5624 49.0047 65.5624C49.0047 65.5624 50.9024 66.1957 50.8597 66.5814C50.7998 67.13 48.7255 66.3786 48.7255 66.3786C48.7255 66.3786 49.7085 66.9081 49.6021 67.1424C49.416 67.5567 48.5859 67.1472 47.712 66.8462C47.0272 66.61 45.2331 65.3786 45.2331 65.3786L43.947 64.8786L45.3309 62.3919L45.3328 62.3928Z" fill="white"/>
<path d="M49.2773 67.4214C48.9809 67.4214 48.5716 67.27 48.1271 67.1052C47.9808 67.0509 47.8307 66.9957 47.6797 66.9433C46.9902 66.7052 45.2501 65.5147 45.177 65.4633L43.9128 64.9747C43.8852 64.9642 43.8634 64.9414 43.853 64.9137C43.8425 64.8852 43.8454 64.8547 43.8596 64.828L45.2435 62.3423C45.2691 62.2966 45.3252 62.2766 45.3726 62.2975C46.4269 62.7413 46.6834 62.7147 46.7432 62.6823C47.5885 62.2375 48.7501 61.9823 49.0417 62.3089C49.1263 62.4042 49.1614 62.508 49.1453 62.6175C49.1035 62.8994 48.7245 63.1318 48.3902 63.3356C48.2838 63.4004 48.1822 63.4632 48.109 63.5166C48.2543 63.5528 48.5345 63.5928 48.7881 63.629C50.0314 63.8061 51.0591 63.9966 51.0439 64.5242C51.043 64.5699 51.0268 64.6375 50.9575 64.6994C50.8198 64.8233 50.4959 64.8737 50.1568 64.8899C50.5975 65.0261 51.0563 65.2242 51.231 65.4909C51.308 65.609 51.3298 65.7337 51.2956 65.8604C51.2852 65.9004 51.2567 65.9576 51.1826 65.9985C51.0325 66.0814 50.7134 66.0633 50.361 66.0052C50.7162 66.1937 50.9841 66.4014 50.9632 66.5918C50.9537 66.6823 50.9062 66.7557 50.8264 66.8052C50.57 66.9652 49.9393 66.8452 49.4264 66.7061C49.6268 66.8699 49.7607 67.0433 49.6971 67.1842C49.6202 67.3547 49.4729 67.4204 49.2782 67.4204L49.2773 67.4214ZM44.0961 64.8261L45.271 65.2833C45.31 65.3071 47.0823 66.5204 47.7462 66.749C47.8991 66.8014 48.0511 66.8576 48.1983 66.9128C48.8138 67.1404 49.3951 67.3547 49.509 67.1014C49.509 67.008 49.1139 66.7052 48.677 66.4699C48.6295 66.4442 48.6096 66.3861 48.6314 66.3376C48.6533 66.288 48.7093 66.2642 48.7606 66.2823C49.3761 66.5052 50.4522 66.7976 50.7172 66.6319C50.7428 66.6157 50.7552 66.5976 50.758 66.5709C50.7761 66.4099 49.9412 65.9842 48.9724 65.6614C48.9192 65.6433 48.8898 65.5861 48.9069 65.5318C48.924 65.4785 48.98 65.448 49.0351 65.4652C50.1416 65.8118 51.0363 65.9337 51.0962 65.809C51.1151 65.7385 51.1028 65.6737 51.0582 65.6052C50.7951 65.2014 49.5803 64.9347 49.1348 64.8661C49.0797 64.8575 49.0417 64.8071 49.0484 64.7518C49.055 64.6966 49.1025 64.6566 49.1586 64.6614C49.6999 64.7061 50.6298 64.7166 50.8198 64.5461C50.8369 64.5309 50.8369 64.5223 50.8369 64.5194C50.8483 64.1328 49.4881 63.9385 48.7577 63.8337C48.0435 63.7318 47.8858 63.6994 47.8431 63.5852C47.8269 63.5413 47.8364 63.4928 47.8678 63.4547C47.9447 63.3651 48.1005 63.2699 48.2819 63.1594C48.5478 62.9966 48.9126 62.7747 48.9401 62.588C48.9448 62.5585 48.9439 62.5109 48.8869 62.447C48.7292 62.2689 47.7481 62.387 46.8372 62.8661C46.7062 62.9347 46.4222 62.9566 45.3764 62.5242L44.0942 64.8271L44.0961 64.8261Z" fill="#112047"/>
<path d="M42.7645 44.4954C42.7645 44.4954 39.7232 45.3554 38.1779 47.2564C36.6325 49.1574 33.1002 58.0479 33.3671 59.8775C33.766 62.6185 44.9015 66.0137 44.9015 66.0137C44.9015 66.0137 44.6707 64.3499 46.3946 62.2804L38.4001 58.5108L40.9579 51.865L42.7654 44.4963L42.7645 44.4954Z" fill="white"/>
<path d="M46.3935 62.2804L45.2651 61.748C44.8102 62.0804 43.7046 64.6937 43.4111 65.528C44.5452 65.9204 44.8995 66.0138 44.8995 66.0138C44.8995 66.0138 44.6687 64.3499 46.3926 62.2804H46.3935Z" fill="#FF5C5C"/>
<path d="M44.8995 66.1166C44.89 66.1166 44.8796 66.1147 44.8701 66.1119C44.4132 65.9728 33.6672 62.6661 33.2644 59.8918C32.9928 58.027 36.5593 49.0831 38.098 47.1907C39.6462 45.2869 42.6115 44.4307 42.7368 44.3954C42.791 44.3802 42.8489 44.4116 42.8641 44.4659C42.8793 44.5211 42.848 44.5783 42.7929 44.5935C42.7625 44.6021 39.7639 45.4678 38.2576 47.3212C36.432 49.5669 33.2455 58.3308 33.4687 59.8623C33.8296 62.3423 43.4891 65.4614 44.7884 65.87C44.7742 65.4109 44.8625 64.0109 46.2312 62.3166L38.3563 58.6032C38.3079 58.5803 38.2851 58.5232 38.3041 58.4727L40.8619 51.8269C40.8819 51.7736 40.9417 51.746 40.9949 51.7679C41.0481 51.7888 41.0747 51.8479 41.0538 51.9012L38.5302 58.4584L46.4382 62.187C46.4667 62.2004 46.4876 62.2271 46.4952 62.2585C46.5018 62.2899 46.4943 62.3223 46.4734 62.3471C44.8036 64.3528 45.0012 65.9842 45.0031 66.0004C45.0078 66.0357 44.9945 66.07 44.9679 66.0928C44.9489 66.109 44.9252 66.1176 44.9014 66.1176L44.8995 66.1166Z" fill="#040B33"/>
<path d="M46.5873 44.5783C46.5322 44.5735 46.479 44.6106 46.4724 44.6668C46.4648 44.723 46.5047 44.7754 46.5607 44.7821C50.3086 45.2697 51.4911 47.3497 52.1531 49.3212C52.1674 49.364 52.2073 49.3916 52.251 49.3916C52.2614 49.3916 52.2728 49.3897 52.2842 49.3859C52.3374 49.3678 52.3668 49.3088 52.3488 49.2555C51.6659 47.224 50.4473 45.0802 46.5873 44.5783Z" fill="#040B33"/>
<path d="M38.2689 72.9681C38.2357 72.9681 38.2025 72.9519 38.1825 72.9215C38.1512 72.8739 38.1645 72.81 38.212 72.7786C40.4478 71.3005 40.634 69.7624 40.6349 69.7462C40.6406 69.689 40.69 69.6481 40.7479 69.6548C40.804 69.6605 40.8458 69.711 40.8401 69.7671C40.8334 69.8338 40.6511 71.4148 38.3259 72.951C38.3088 72.9624 38.2889 72.9681 38.2689 72.9681Z" fill="#040B33"/>
<path d="M54.9579 71.4147C54.9389 71.4147 54.9199 71.409 54.9028 71.3985C54.1762 70.9364 53.0801 69.8758 53.0336 69.831C52.9927 69.7919 52.9918 69.7262 53.0307 69.6852C53.0697 69.6442 53.1352 69.6433 53.176 69.6824C53.1874 69.6928 54.3034 70.7734 55.012 71.2241C55.0604 71.2546 55.0747 71.3185 55.0433 71.3661C55.0234 71.3975 54.9902 71.4137 54.9569 71.4137L54.9579 71.4147Z" fill="#040B33"/>
<path d="M47.8773 54.7917C47.8241 54.7917 47.7794 54.7508 47.7747 54.6965L47.5933 52.4031C47.5914 52.3764 47.5999 52.3488 47.617 52.3279C47.6351 52.3069 47.6598 52.2936 47.6873 52.2917L50.8786 52.0374C50.9366 52.0298 50.985 52.0755 50.9898 52.1317L51.1712 54.425C51.1731 54.4517 51.1645 54.4793 51.1474 54.5003C51.1294 54.5212 51.1047 54.5346 51.0772 54.5365L47.8858 54.7908C47.8858 54.7908 47.8801 54.7908 47.8773 54.7908V54.7917ZM47.806 52.4898L47.9713 54.5784L50.9575 54.3403L50.7922 52.2517L47.806 52.4898Z" fill="#040B33"/>
<path d="M48.278 53.9862C48.2258 53.9862 48.1802 53.9462 48.1754 53.8919C48.1707 53.8347 48.2125 53.7842 48.2685 53.7794L50.5015 53.5803C50.5518 53.5717 50.6079 53.6174 50.6126 53.6736C50.6174 53.7308 50.5756 53.7804 50.5195 53.7861L48.2865 53.9843C48.2865 53.9843 48.2808 53.9843 48.277 53.9843L48.278 53.9862Z" fill="#040B33"/>
<path d="M48.2961 54.3948C48.2438 54.3948 48.1982 54.3547 48.1935 54.3004C48.1887 54.2433 48.2305 54.1937 48.2866 54.188L50.5195 53.9888C50.5718 53.9803 50.6259 54.026 50.6307 54.0822C50.6354 54.1394 50.5936 54.1889 50.5376 54.1947L48.3046 54.3929C48.3046 54.3929 48.2989 54.3929 48.2951 54.3929L48.2961 54.3948Z" fill="#040B33"/>
<path d="M49.785 52.6562L48.8638 52.7296L48.9162 53.3917L49.8375 53.3183L49.785 52.6562Z" fill="#FF5C5C"/>
<path d="M38.3982 58.614C38.3801 58.614 38.3621 58.6092 38.3459 58.5997L37.7513 58.2442C37.7029 58.2147 37.6867 58.1518 37.7152 58.1032C37.7447 58.0537 37.8074 58.0394 37.8558 58.067L38.4504 58.4224C38.4988 58.452 38.515 58.5149 38.4865 58.5635C38.4675 58.5959 38.4333 58.614 38.3982 58.614Z" fill="#040B33"/>
<path d="M53.9787 58.8491C53.9692 58.8491 53.9587 58.8472 53.9492 58.8444L53.367 58.6671C53.3129 58.6509 53.2815 58.5928 53.2986 58.5385C53.3148 58.4842 53.3718 58.4546 53.4268 58.4699L54.0091 58.6471C54.0632 58.6633 54.0936 58.7214 54.0775 58.7758C54.0642 58.8205 54.0233 58.8491 53.9787 58.8491Z" fill="#040B33"/>
<path d="M68.4206 70.7358C67.1155 66.5929 64.7087 67.5319 64.7087 67.5319C65.6063 69.1453 65.2796 69.7843 65.1722 70.9196C65.1684 71.0082 65.157 71.0958 65.1419 71.1843C65.0963 71.4491 65.0383 71.7139 64.9661 71.9786C65.7659 72.1167 66.8752 72.2015 68.1071 72.2015C68.337 72.2015 68.5621 72.1977 68.7843 72.1901C68.6808 71.6453 68.5583 71.1653 68.4206 70.7358Z" fill="#FF5C5C"/>
<path d="M68.107 72.3043C66.9074 72.3043 65.7857 72.2243 64.948 72.0795C64.9195 72.0748 64.8938 72.0576 64.8786 72.0329C64.8634 72.0081 64.8587 71.9786 64.8663 71.95C64.9356 71.6986 64.9926 71.4414 65.0401 71.1662C65.0563 71.0719 65.0658 70.99 65.0696 70.9148C65.0885 70.709 65.1142 70.5243 65.1389 70.3471C65.2519 69.529 65.3421 68.8833 64.6184 67.5814C64.6041 67.5557 64.6013 67.5242 64.6117 67.4957C64.6222 67.468 64.6431 67.4452 64.6716 67.4347C64.702 67.4223 65.4362 67.1452 66.3252 67.5728C67.2702 68.0271 68.0082 69.0795 68.5192 70.7033C68.6646 71.1576 68.7852 71.6367 68.8859 72.169C68.8916 72.1986 68.884 72.2291 68.865 72.2529C68.846 72.2767 68.8184 72.29 68.788 72.2919C68.5648 72.2995 68.3378 72.3033 68.107 72.3033V72.3043ZM65.0942 71.8957C65.9073 72.0262 66.9711 72.0986 68.107 72.0986C68.2941 72.0986 68.4784 72.0957 68.6598 72.091C68.5648 71.6138 68.4546 71.1795 68.3226 70.7671C67.8306 69.2033 67.1297 68.1928 66.2407 67.7623C65.6271 67.4661 65.0876 67.5404 64.8606 67.5947C65.5502 68.8823 65.4542 69.5766 65.3431 70.3757C65.3184 70.5509 65.2937 70.7328 65.2747 70.929C65.2709 71.0081 65.2605 71.0995 65.2424 71.2024C65.2006 71.4443 65.1522 71.6719 65.0942 71.8957Z" fill="#FF5C5C"/>
<path d="M64.4758 67.3776L64.6382 67.3461C64.6382 67.3461 64.8045 67.8626 64.8206 67.9579C64.8368 68.0532 64.6306 67.8588 64.6306 67.8588L64.4758 67.3785V67.3776Z" fill="#040B33"/>
<path d="M32.7346 60.2051C30.8596 59.7204 29.7313 57.8032 30.2138 55.9232C30.6972 54.0432 32.6092 52.9117 34.4841 53.3955L32.7346 60.2051Z" fill="#040B33"/>
<path d="M32.7345 60.308C32.7259 60.308 32.7174 60.307 32.7088 60.3051C30.7817 59.807 29.6182 57.8298 30.1149 55.8974C30.6117 53.965 32.5835 52.7983 34.5106 53.2964C34.5657 53.3107 34.5989 53.3669 34.5847 53.4222L32.8351 60.2318C32.8285 60.2584 32.8114 60.2813 32.7877 60.2946C32.7715 60.3041 32.7535 60.3089 32.7354 60.3089L32.7345 60.308ZM33.6102 53.3869C32.0953 53.3869 30.7095 54.4107 30.3144 55.9489C29.8547 57.7374 30.9042 59.5679 32.6613 60.0784L34.3596 53.4717C34.1088 53.4145 33.8581 53.3879 33.6111 53.3879L33.6102 53.3869Z" fill="#040B33"/>
<path d="M43.8005 82.483C40.4715 82.483 36.4433 81.8217 36.3892 81.8121C36.3332 81.8026 36.2952 81.7493 36.3047 81.693C36.3142 81.6368 36.3664 81.5996 36.4234 81.6082C36.4946 81.6206 43.5422 82.7793 46.6442 82.0208C46.7003 82.0075 46.7554 82.0418 46.7687 82.0971C46.782 82.1523 46.7487 82.2085 46.6927 82.2219C45.9148 82.4115 44.8956 82.483 43.8005 82.483Z" fill="#040B33"/>
<path d="M48.1603 82.1507C48.1052 82.1507 48.0596 82.1068 48.0577 82.0516C48.0558 81.9944 48.0995 81.9467 48.1565 81.9448C48.2258 81.942 55.1271 81.6647 56.7474 81.0929C56.8016 81.0748 56.8595 81.1025 56.8785 81.1558C56.8975 81.2092 56.869 81.2683 56.8158 81.2873C55.166 81.8705 48.4499 82.1402 48.1641 82.1516H48.1603V82.1507Z" fill="#040B33"/>
<path d="M45.8569 53.6045C45.8085 53.6045 45.7648 53.5693 45.7562 53.5197L45.6384 52.8613C45.628 52.8051 45.666 52.7517 45.722 52.7412C45.7771 52.7307 45.8313 52.7679 45.8417 52.8251L45.9595 53.4835C45.9699 53.5397 45.9319 53.5931 45.8759 53.6036C45.8702 53.6045 45.8636 53.6055 45.8579 53.6055L45.8569 53.6045Z" fill="#040B33"/>
<path d="M46.0459 55.156C45.9974 55.156 45.9537 55.1207 45.9452 55.0712L45.8274 54.4128C45.817 54.3565 45.855 54.3032 45.911 54.2927C45.9661 54.2822 46.0202 54.3203 46.0307 54.3765L46.1484 55.035C46.1589 55.0912 46.1209 55.1446 46.0649 55.1551C46.0592 55.156 46.0525 55.157 46.0468 55.157L46.0459 55.156Z" fill="#040B33"/>
<path d="M48.0596 40.7944H48.0492C47.5182 40.7887 46.954 40.343 46.8296 39.3858C46.4516 40.3535 45.6272 40.7525 44.9537 40.6268C44.2044 40.4858 43.549 39.6877 43.775 38.2239C43.7836 38.1696 43.8339 38.1306 43.8871 38.1372L47.4565 38.5001L49.3542 38.6934C49.4074 38.6992 49.4473 38.7439 49.4463 38.7973C49.4311 40.1106 48.7378 40.7944 48.0587 40.7944H48.0596ZM46.8562 38.8401C46.8562 38.8401 46.8628 38.8401 46.8666 38.8401L46.9179 38.8458C46.9711 38.8515 47.011 38.8963 47.0101 38.9496C47.0006 40.0687 47.5439 40.5839 48.052 40.5887H48.0605C48.6228 40.5887 49.1965 40.0077 49.2402 38.8896L43.9659 38.3525C43.7893 39.703 44.4029 40.3125 44.9936 40.4239C45.6775 40.5535 46.5019 40.0773 46.7574 38.9211C46.7679 38.8734 46.8097 38.8401 46.8581 38.8401H46.8562Z" fill="#5C8FCC"/>
<path d="M68.106 72.3067C66.2995 72.3067 63.6116 72.0827 63.6116 71.4672C63.6116 71.41 63.6572 71.3643 63.7141 71.3643C63.7711 71.3643 63.8167 71.4109 63.8167 71.4672C63.8167 71.6882 65.2899 72.1008 68.106 72.1008C70.9222 72.1008 72.3953 71.6882 72.3953 71.4672C72.3953 71.41 72.4409 71.3643 72.4979 71.3643C72.5549 71.3643 72.6005 71.4109 72.6005 71.4672C72.6005 72.0837 69.9126 72.3067 68.106 72.3067Z" fill="#040B33"/>
<path d="M98.2044 44.4364L101.089 46.1221L102.897 67.3214C102.897 67.3214 91.5149 68.1853 87.6606 66.4119L91.3022 45.7774L94.3938 44.4954C94.3938 44.4954 94.6075 47.9879 95.279 47.9879C95.9505 47.9879 98.2044 44.4364 98.2044 44.4364Z" fill="#5C8FCC"/>
<path d="M96.8283 67.6404C93.4716 67.6404 89.5946 67.4157 87.618 66.5061C87.5753 66.4861 87.5515 66.4404 87.5601 66.3938L91.2016 45.7583C91.2073 45.724 91.2311 45.6945 91.2634 45.6811L94.355 44.3992C94.3854 44.3859 94.4205 44.3897 94.449 44.4068C94.4775 44.4249 94.4955 44.4545 94.4974 44.4878C94.5972 46.1211 94.9248 47.884 95.2801 47.884C95.7284 47.884 97.2595 45.7345 98.119 44.3802C98.1485 44.3335 98.2102 44.3183 98.2577 44.3459L101.142 46.0326C101.171 46.0497 101.19 46.0792 101.193 46.1126L103.001 67.3119C103.004 67.3395 102.994 67.3671 102.977 67.3881C102.959 67.409 102.935 67.4223 102.907 67.4242C102.681 67.4414 99.9854 67.6404 96.8302 67.6404H96.8283ZM87.7757 66.3509C91.4315 67.9623 101.643 67.3052 102.785 67.2261L100.991 46.185L98.2378 44.5754C97.7562 45.3287 95.944 48.0907 95.2791 48.0907C94.6143 48.0907 94.3673 45.6173 94.3008 44.6449L91.3944 45.8507L87.7766 66.3509H87.7757Z" fill="#5C8FCC"/>
<path d="M93.0953 44.6125C93.0953 44.6125 88.5819 68.9062 88.4622 82.3044C88.4622 82.3044 87.0878 82.3644 86.0972 81.9444C86.0972 81.9444 88.6198 52.8441 90.472 45.9849L93.0953 44.6135V44.6125Z" fill="white"/>
<path d="M99.2169 44.7393C99.2169 44.7393 97.2052 71.1291 98.7145 82.9168C98.7145 82.9168 102.12 83.4568 105.479 82.0949L101.737 46.6698C101.737 46.6698 99.7194 44.9316 99.2169 44.7402V44.7393Z" fill="white"/>
<path d="M100.402 83.1225C99.3774 83.1225 98.7125 83.0206 98.6973 83.0187C98.6518 83.0111 98.6176 82.9749 98.6119 82.9301C97.1188 71.2671 99.0944 44.9954 99.1143 44.7316C99.1172 44.6992 99.1342 44.6697 99.1618 44.6526C99.1893 44.6354 99.2235 44.6306 99.2539 44.643C99.7678 44.8383 101.722 46.5192 101.804 46.5907C101.824 46.6078 101.836 46.6316 101.839 46.6583L105.582 82.0835C105.586 82.1292 105.561 82.172 105.518 82.1901C103.634 82.9539 101.722 83.1225 100.403 83.1225H100.402ZM98.8056 82.8254C99.3223 82.893 102.372 83.2187 105.368 82.0282L101.638 46.7211C100.999 46.1716 99.8048 45.183 99.3071 44.8992C99.1475 47.0688 97.3923 71.6091 98.8047 82.8254H98.8056Z" fill="#040B33"/>
<path d="M103.388 72.7176C103.378 72.7176 103.367 72.7157 103.358 72.7129C100.623 71.8529 99.3327 69.4938 99.3194 69.47C99.2928 69.4204 99.3118 69.3576 99.3612 69.3309C99.4115 69.3043 99.4733 69.3233 99.5008 69.3728C99.5132 69.3957 100.767 71.6824 103.42 72.5167C103.474 72.5338 103.504 72.5919 103.487 72.6462C103.473 72.69 103.433 72.7186 103.389 72.7186L103.388 72.7176Z" fill="#040B33"/>
<path d="M87.9398 39.6983L89.0026 31.8849L87.2996 31.682L86.2368 39.4955C85.211 39.7288 84.3942 40.5869 84.2631 41.6936C84.0959 43.1003 85.098 44.3765 86.5008 44.5441C87.9037 44.7117 89.1764 43.7069 89.3436 42.3003C89.4747 41.1926 88.882 40.1669 87.9398 39.6983Z" fill="white"/>
<path d="M86.8086 44.665C86.7022 44.665 86.5959 44.6583 86.4885 44.6459C85.0315 44.4716 83.9877 43.1421 84.1606 41.6811C84.2907 40.5868 85.0838 39.683 86.1438 39.4106L87.1971 31.6677C87.2047 31.6115 87.2579 31.5734 87.3111 31.5791L89.0141 31.782C89.0416 31.7848 89.0663 31.7991 89.0834 31.821C89.1005 31.8429 89.1081 31.8706 89.1043 31.8982L88.051 39.6392C89.0169 40.1535 89.5754 41.2173 89.4453 42.3116C89.3617 43.0193 89.0074 43.6516 88.4489 44.0926C87.975 44.4659 87.4022 44.664 86.8086 44.664V44.665ZM87.388 31.7963L86.3385 39.5087C86.3328 39.5506 86.3014 39.5859 86.2596 39.5954C85.249 39.8249 84.4873 40.6735 84.3648 41.7059C84.2052 43.0535 85.1683 44.2812 86.5132 44.4421C87.1629 44.5193 87.8069 44.3383 88.3226 43.9316C88.8383 43.525 89.1641 42.9412 89.242 42.2888C89.3645 41.2564 88.8231 40.2526 87.8942 39.7916C87.8543 39.7725 87.8316 39.7287 87.8382 39.6849L88.8868 31.9753L87.388 31.7972V31.7963Z" fill="#040B33"/>
<path d="M84.2574 41.7487C84.1225 43.1335 85.116 44.3792 86.5008 44.544C87.8856 44.7097 89.1422 43.7326 89.336 42.3544L84.2583 41.7487H84.2574Z" fill="#5C8FCC"/>
<path d="M89.3437 42.3006C89.3162 42.536 88.1555 42.5912 86.7527 42.4235C85.3498 42.2558 84.2347 41.929 84.2632 41.6936C84.2908 41.4582 85.4514 41.403 86.8543 41.5707C88.2572 41.7384 89.3722 42.0652 89.3437 42.3006Z" fill="#5C8FCC"/>
<path d="M88.2324 42.6237C87.7955 42.6237 87.2788 42.5903 86.7402 42.5255C86.4695 42.4931 84.0998 42.1949 84.1606 41.6813C84.2214 41.1667 86.5949 41.4354 86.8656 41.4678C87.1363 41.5002 89.5061 41.7985 89.4453 42.3121C89.431 42.435 89.318 42.5798 88.5686 42.6151C88.4632 42.6199 88.3511 42.6227 88.2324 42.6227V42.6237ZM85.3811 41.5765C84.7466 41.5765 84.4075 41.6498 84.3619 41.7156C84.4104 41.8156 85.1845 42.132 86.7649 42.3207C88.2998 42.5046 89.1242 42.3912 89.2363 42.2873C89.1518 42.1606 88.3768 41.8566 86.8409 41.6727C86.2482 41.6022 85.761 41.5755 85.3801 41.5755L85.3811 41.5765Z" fill="#5C8FCC"/>
<path d="M86.8086 44.665C86.7022 44.665 86.5959 44.6583 86.4885 44.6459C85.0315 44.4716 83.9877 43.1421 84.1606 41.6811C84.2907 40.5868 85.0838 39.683 86.1438 39.4106L87.1971 31.6677C87.2047 31.6115 87.2579 31.5734 87.3111 31.5791L89.0141 31.782C89.0416 31.7848 89.0663 31.7991 89.0834 31.821C89.1005 31.8429 89.1081 31.8706 89.1043 31.8982L88.051 39.6392C89.0169 40.1535 89.5754 41.2173 89.4453 42.3116C89.3617 43.0193 89.0074 43.6516 88.4489 44.0926C87.975 44.4659 87.4022 44.664 86.8086 44.664V44.665ZM87.388 31.7963L86.3385 39.5087C86.3328 39.5506 86.3014 39.5859 86.2596 39.5954C85.249 39.8249 84.4873 40.6735 84.3648 41.7059C84.2052 43.0535 85.1683 44.2812 86.5132 44.4421C87.1629 44.5193 87.8069 44.3383 88.3226 43.9316C88.8383 43.525 89.1641 42.9412 89.242 42.2888C89.3645 41.2564 88.8231 40.2526 87.8942 39.7916C87.8543 39.7725 87.8316 39.7287 87.8382 39.6849L88.8868 31.9753L87.388 31.7972V31.7963Z" fill="#040B33"/>
<path d="M89.0027 31.885C88.9932 31.9641 88.6047 31.9822 88.1346 31.926C87.6644 31.8698 87.2912 31.7602 87.2997 31.6811C87.3092 31.602 87.6977 31.5839 88.1678 31.6401C88.638 31.6963 89.0112 31.8059 89.0027 31.885Z" fill="white"/>
<path d="M88.6323 32.0651C88.4927 32.0651 88.3227 32.0527 88.1222 32.0289C87.4897 31.9536 87.1791 31.8326 87.1981 31.6706C87.2171 31.5076 87.5486 31.4629 88.1802 31.5391C88.4129 31.5667 88.6313 31.6087 88.7938 31.6563C88.9638 31.7059 89.1195 31.7697 89.1043 31.8983C89.091 32.0098 88.9324 32.066 88.6313 32.066L88.6323 32.0651ZM87.5676 31.7144C87.6967 31.7516 87.8914 31.7935 88.1469 31.824C88.4034 31.8545 88.6019 31.8602 88.7368 31.8535C88.6076 31.8164 88.4129 31.7735 88.1574 31.743C87.9019 31.7125 87.7034 31.7078 87.5685 31.7144H87.5676Z" fill="#040B33"/>
<path d="M83.9888 38.1973L84.2395 37.6868C84.2395 37.6868 84.2794 35.6935 84.6413 35.1296C85.0032 34.5658 87.2485 32.8944 87.5116 33.2572C87.7737 33.6201 87.1222 34.1039 87.1222 34.1039C87.1222 34.1039 87.7101 33.8239 87.8716 34.0154C88.033 34.2068 87.1953 34.8554 87.1953 34.8554C87.1953 34.8554 87.9048 34.4611 88.033 34.6935C88.2106 35.0154 87.2836 35.5039 87.2836 35.5039C87.2836 35.5039 87.7984 35.2535 87.9447 35.5039C88.0919 35.7544 86.7688 36.5211 86.7688 36.5211C86.7688 36.5211 87.0538 37.4782 86.3433 38.1249L86.2313 39.0678C86.2313 39.0678 84.4513 38.783 83.9888 38.1983V38.1973Z" fill="white"/>
<path d="M86.2313 39.1696C86.2256 39.1696 86.2208 39.1696 86.2151 39.1687C86.141 39.1563 84.3896 38.8706 83.908 38.262C83.8833 38.2306 83.8786 38.1887 83.8966 38.1525L84.1369 37.662C84.1426 37.4258 84.1987 35.6286 84.5539 35.0744C84.8863 34.5553 86.7688 33.121 87.3701 33.1029C87.4954 33.1029 87.561 33.1515 87.5933 33.1962C87.7576 33.422 87.6522 33.6715 87.5068 33.8639C87.6769 33.8315 87.8526 33.8343 87.9494 33.9486C87.9741 33.9772 88.0007 34.0267 87.9931 34.101C87.9798 34.2248 87.8545 34.3877 87.7092 34.5372C87.9181 34.4915 88.0577 34.5258 88.1223 34.6429C88.1603 34.7124 88.1679 34.7934 88.1432 34.8753C88.0995 35.022 87.9523 35.1705 87.7946 35.2944C87.8906 35.3105 87.977 35.3553 88.033 35.4506C88.0511 35.482 88.0691 35.5344 88.0511 35.6048C87.9732 35.9029 87.1725 36.401 86.8876 36.5696C86.9408 36.8191 87.0452 37.5963 86.4412 38.1734L86.3338 39.0782C86.331 39.1058 86.3158 39.1315 86.2939 39.1487C86.2759 39.162 86.254 39.1696 86.2322 39.1696H86.2313ZM84.1113 38.1811C84.5292 38.6201 85.7716 38.8773 86.142 38.9458L86.2408 38.1115C86.2436 38.0868 86.255 38.0639 86.274 38.0468C86.9265 37.4534 86.6815 36.5858 86.6701 36.5496C86.6568 36.5039 86.6758 36.4553 86.7176 36.4306C87.3216 36.0801 87.8526 35.6667 87.8535 35.5467C87.7813 35.4286 87.4679 35.5277 87.3283 35.5963C87.277 35.622 87.2172 35.6001 87.1915 35.5496C87.1659 35.4991 87.1858 35.4382 87.2352 35.4115C87.4802 35.2829 87.8896 35.0067 87.9466 34.8163C87.958 34.7782 87.9504 34.7572 87.9428 34.7429C87.9077 34.6801 87.579 34.7601 87.2447 34.9448C87.1982 34.9715 87.1383 34.9563 87.1089 34.9115C87.0794 34.8667 87.0899 34.8058 87.1317 34.7734C87.4878 34.4982 87.8003 34.1648 87.788 34.0743C87.7272 34.0039 87.409 34.0801 87.1649 34.1963C87.1174 34.2191 87.0604 34.202 87.0329 34.1563C87.0053 34.1105 87.0177 34.0515 87.0595 34.0201C87.0652 34.0162 87.6237 33.5886 87.4271 33.3172C87.4252 33.3153 87.409 33.3086 87.3758 33.3096C86.8847 33.3239 85.0582 34.6677 84.7268 35.1858C84.3848 35.7191 84.3421 37.6696 84.3411 37.6896C84.3411 37.7049 84.3374 37.7191 84.3307 37.7334L84.1103 38.183L84.1113 38.1811Z" fill="#040B33"/>
<path d="M100.844 68.6672C100.844 68.6672 100.033 69.3729 99.7185 69.8996C99.7185 69.8996 101.207 71.9996 102.815 72.4044L103.539 70.2129C103.539 70.2129 101.506 68.1805 100.845 68.6672H100.844Z" fill="white"/>
<path d="M102.814 72.5072C102.805 72.5072 102.797 72.5072 102.789 72.5043C101.163 72.0948 99.6957 70.0462 99.634 69.9595C99.6102 69.9262 99.6083 69.8824 99.6292 69.8471C99.9483 69.3138 100.742 68.6195 100.776 68.59C100.778 68.5881 100.78 68.5862 100.782 68.5843C101.493 68.0595 103.395 69.9262 103.61 70.1405C103.637 70.1681 103.647 70.2081 103.635 70.2452L102.911 72.4357C102.897 72.4786 102.857 72.5062 102.813 72.5062L102.814 72.5072ZM99.842 69.8948C100.084 70.2195 101.372 71.8757 102.747 72.2795L103.42 70.2424C102.652 69.4852 101.331 68.4433 100.908 68.749C100.853 68.7966 100.155 69.4138 99.842 69.8957V69.8948Z" fill="#040B33"/>
<path d="M99.2168 44.7392C99.2168 44.7392 101.464 45.6592 103.348 48.4955C104.814 50.7012 106.149 54.9641 106.905 57.5203C108.184 61.8575 103.873 70.6538 103.873 70.6538C103.873 70.6538 101.557 69.8548 100.49 68.1957L102.897 59.2042L100.304 52.8365L99.2168 44.7392Z" fill="white"/>
<path d="M103.873 70.7567C103.861 70.7567 103.85 70.7548 103.84 70.751C103.744 70.7176 101.478 69.9205 100.404 68.2519C100.388 68.2271 100.383 68.1966 100.391 68.169L102.789 59.2108L100.209 52.8755C100.188 52.8231 100.213 52.7622 100.265 52.7412C100.318 52.7203 100.378 52.745 100.399 52.7974L102.992 59.1642C103.001 59.1851 103.002 59.208 102.996 59.2299L100.601 68.1776C101.53 69.5843 103.399 70.3624 103.821 70.5243C104.254 69.6138 107.993 61.5747 106.806 57.5499C106.324 55.9184 104.86 50.9545 103.263 48.5526C101.675 46.1631 99.8124 45.1402 99.3081 44.8954L99.252 45.6716C99.2482 45.7288 99.1912 45.7735 99.1419 45.7669C99.0849 45.7631 99.0431 45.7135 99.0469 45.6564L99.1143 44.7316C99.1172 44.6992 99.1352 44.6688 99.1627 44.6516C99.1912 44.6345 99.2254 44.6316 99.2558 44.644C99.2786 44.6535 101.553 45.6097 103.434 48.4383C105.048 50.866 106.519 55.8527 107.002 57.4908C107.539 59.3099 107.19 62.088 105.965 65.7461C105.056 68.4624 103.975 70.6767 103.965 70.6995C103.947 70.7357 103.911 70.7567 103.873 70.7567Z" fill="#040B33"/>
<path d="M88.2667 82.4111C87.844 82.4111 86.842 82.3721 86.0574 82.0397C86.0166 82.0216 85.991 81.9797 85.9948 81.9359C86.0147 81.7044 88.0188 58.708 89.7465 48.9307C89.7569 48.8745 89.8111 48.8364 89.8652 48.8469C89.9212 48.8574 89.9583 48.9098 89.9488 48.9669C88.2724 58.4527 86.3348 80.4082 86.2066 81.8778C87.0063 82.194 88.0425 82.2035 88.3607 82.2044C88.4946 69.4672 92.5959 46.7707 92.9682 44.7392L91.6271 44.9621C91.5701 44.9697 91.5179 44.9335 91.5084 44.8773C91.4989 44.8212 91.5369 44.7678 91.5929 44.7583L93.0784 44.5116C93.1126 44.5069 93.1458 44.5173 93.1686 44.5411C93.1924 44.565 93.2019 44.5992 93.1962 44.6326C93.1515 44.8754 88.6827 69.071 88.5649 82.3064C88.5649 82.3616 88.5212 82.4064 88.4661 82.4083C88.4538 82.4083 88.3816 82.4111 88.2657 82.4111H88.2667Z" fill="#040B33"/>
<path d="M87.2797 69.9784C87.2484 69.9784 87.218 69.9641 87.1971 69.9374C87.1629 69.8917 87.1724 69.8269 87.218 69.7926C87.4925 69.5858 88.2172 68.9655 88.2751 68.5796C88.2836 68.5233 88.3359 68.4824 88.3919 68.4929C88.448 68.5014 88.4869 68.5538 88.4783 68.6101C88.3976 69.1484 87.4497 69.8764 87.3414 69.9574C87.3234 69.9708 87.3015 69.9784 87.2797 69.9784Z" fill="#040B33"/>
<path d="M86.181 81.0016L86.0974 81.9449C86.0974 81.9449 87.298 82.4242 88.4624 82.3051V81.1807C88.4624 81.1807 87.0662 81.2217 86.181 81.0016Z" fill="#040B33"/>
<path d="M88.0748 82.4271C87.0433 82.4271 86.104 82.0583 86.0593 82.0402C86.0166 82.0231 85.991 81.9802 85.9948 81.9354L86.0783 80.9921C86.0812 80.9625 86.0964 80.9349 86.1211 80.9177C86.1458 80.8996 86.1762 80.8939 86.2056 80.9015C87.0671 81.1159 88.4452 81.0778 88.4595 81.0778C88.4861 81.0797 88.5146 81.0874 88.5345 81.1064C88.5545 81.1264 88.5659 81.1531 88.5659 81.1807V82.3061C88.5659 82.3585 88.526 82.4033 88.4737 82.409C88.3408 82.4224 88.2069 82.4281 88.0758 82.4281L88.0748 82.4271ZM86.2066 81.8754C86.4706 81.9697 87.4223 82.2842 88.3598 82.2108V81.2856C88.0311 81.2922 87.0224 81.2894 86.273 81.1283L86.2075 81.8754H86.2066Z" fill="#040B33"/>
<path d="M98.5615 81.5616L98.7135 82.9169C98.7135 82.9169 102.96 83.4093 105.478 82.095L105.35 80.8835C105.35 80.8835 100.805 81.8817 98.5605 81.5626L98.5615 81.5616Z" fill="#040B33"/>
<path d="M100.6 83.113C99.5446 83.113 98.7753 83.0263 98.7021 83.0187C98.6547 83.013 98.6176 82.9759 98.6119 82.9283L98.4599 81.573C98.4561 81.5416 98.4675 81.5101 98.4903 81.4873C98.5131 81.4654 98.5445 81.4549 98.5768 81.4597C100.777 81.7701 105.284 80.792 105.329 80.7825C105.357 80.7758 105.388 80.7825 105.412 80.7997C105.435 80.8168 105.45 80.8435 105.453 80.873L105.582 82.0844C105.586 82.1263 105.564 82.1673 105.526 82.1863C104.066 82.9492 102.06 83.114 100.6 83.114V83.113ZM98.8066 82.8216C99.3993 82.8797 103.091 83.1825 105.369 82.034L105.261 81.0073C104.546 81.1587 100.775 81.9235 98.6784 81.6806L98.8066 82.8216Z" fill="#040B33"/>
<path d="M104.319 69.7881H104.316C103.01 69.7414 100.697 67.6966 100.599 67.609C100.556 67.5709 100.552 67.5061 100.59 67.4633C100.628 67.4204 100.693 67.4166 100.736 67.4547C100.759 67.4757 103.091 69.5376 104.323 69.5824C104.38 69.5843 104.425 69.6319 104.422 69.689C104.42 69.7443 104.374 69.7881 104.319 69.7881Z" fill="#040B33"/>
<path d="M85.5159 39.8665C84.5775 39.8665 83.206 38.8355 83.148 38.7916C83.1024 38.7573 83.0939 38.6925 83.1281 38.6478C83.1623 38.602 83.2269 38.5934 83.2724 38.6277C83.2857 38.6382 84.6468 39.6607 85.5159 39.6607C85.5273 39.6607 85.5368 39.6588 85.5482 39.6607C85.6033 39.6607 85.6498 39.7055 85.6507 39.7607C85.6526 39.8179 85.608 39.8655 85.551 39.8665C85.5396 39.8665 85.5282 39.8665 85.5168 39.8665H85.5159Z" fill="#040B33"/>
<path d="M84.2451 47.3467C84.2337 47.3467 84.2223 47.3448 84.2109 47.341C84.1577 47.3219 84.1292 47.2628 84.1482 47.2095L84.588 45.9736C84.607 45.9192 84.6659 45.8926 84.7191 45.9107C84.7723 45.9297 84.8007 45.9888 84.7818 46.0422L84.342 47.2781C84.3268 47.32 84.2879 47.3467 84.2451 47.3467Z" fill="#040B33"/>
<path d="M94.6009 54.006C94.5516 54.006 94.4803 53.9898 94.4091 53.9203C93.615 53.1441 93.6929 45.5954 93.7043 44.7373C93.7043 44.6802 93.7509 44.6354 93.8069 44.6354H93.8079C93.8648 44.6354 93.9104 44.683 93.9095 44.7402C93.8791 47.0478 93.9342 53.1679 94.5525 53.7736C94.5715 53.7917 94.5924 53.8041 94.6019 53.8003C95.1547 53.7793 96.9754 49.0345 98.4078 44.5811C98.4258 44.5268 98.4837 44.4983 98.5369 44.5145C98.5911 44.5326 98.6205 44.5907 98.6034 44.6449C98.1029 46.2011 95.5564 53.9698 94.6095 54.007H94.6009V54.006Z" fill="white"/>
<path d="M95.8189 53.6535L93.4248 53.4061L93.0978 56.5912L95.492 56.8386L95.8189 53.6535Z" fill="#040B33"/>
<path d="M95.4908 56.9432C95.4908 56.9432 95.4841 56.9432 95.4803 56.9432L93.0868 56.6956C93.0298 56.6898 92.989 56.6384 92.9947 56.5822L93.3214 53.3974C93.3243 53.3698 93.3376 53.345 93.3584 53.3279C93.3793 53.3108 93.4069 53.3022 93.4335 53.305L95.827 53.5527C95.884 53.5584 95.9248 53.6098 95.9191 53.666L95.5924 56.8508C95.5895 56.8784 95.5762 56.9032 95.5553 56.9203C95.5373 56.9356 95.5136 56.9432 95.4908 56.9432ZM93.2103 56.5013L95.3996 56.727L95.7054 53.747L93.5161 53.5212L93.2103 56.5013Z" fill="#040B33"/>
<path d="M95.0519 53.9359L94.1174 53.8394L93.9897 55.083L94.9241 55.1795L95.0519 53.9359Z" fill="#FF5C5C"/>
<path d="M94.9236 55.2851C94.9236 55.2851 94.917 55.2851 94.9132 55.2851L93.9786 55.1889C93.9226 55.1832 93.8808 55.1317 93.8874 55.0755L94.0147 53.832C94.0175 53.8044 94.0308 53.7796 94.0517 53.7624C94.0726 53.7453 94.0983 53.7367 94.1277 53.7396L95.0623 53.8367C95.1184 53.8425 95.1601 53.8939 95.1535 53.9501L95.0262 55.1937C95.0234 55.2213 95.0101 55.2461 94.9892 55.2632C94.9711 55.2785 94.9474 55.2861 94.9246 55.2861L94.9236 55.2851ZM94.1021 54.9936L94.8315 55.0688L94.9379 54.0302L94.2084 53.9549L94.1021 54.9936Z" fill="#040B33"/>
<path d="M95.356 55.7386C95.356 55.7386 95.3484 55.7386 95.3446 55.7386L93.5409 55.5432C93.4849 55.5366 93.4441 55.4861 93.4497 55.4299C93.4554 55.3727 93.5086 55.3327 93.5628 55.3384L95.3665 55.5337C95.4225 55.5404 95.4633 55.5909 95.4576 55.6471C95.4519 55.7005 95.4073 55.7395 95.356 55.7395V55.7386Z" fill="white"/>
<path d="M95.2515 56.3777C95.2515 56.3777 95.2439 56.3777 95.2401 56.3777L93.4364 56.1823C93.3804 56.1756 93.3396 56.1251 93.3453 56.0689C93.351 56.0117 93.4032 55.9727 93.4583 55.9774L95.262 56.1728C95.318 56.1795 95.3588 56.23 95.3531 56.2862C95.3474 56.3395 95.3028 56.3786 95.2515 56.3786V56.3777Z" fill="white"/>
<path d="M95.8727 39.8125C95.2088 39.8125 94.486 39.3077 94.2467 38.3335C93.9969 39.2658 93.3804 39.6344 92.8533 39.5687C92.1751 39.4849 91.572 38.7154 91.7297 37.4049C91.7363 37.3515 91.7705 37.3058 91.8351 37.3144L97.3278 37.4839C97.3829 37.4858 97.4266 37.5296 97.4275 37.5849C97.4598 39.0658 96.7057 39.7706 95.9439 39.8116C95.9202 39.8125 95.8974 39.8135 95.8737 39.8135L95.8727 39.8125ZM94.2267 37.7858H94.2799C94.3321 37.7887 94.3758 37.8287 94.3796 37.8811C94.4775 39.0258 95.1908 39.6058 95.867 39.6058C95.8879 39.6058 95.9098 39.6058 95.9307 39.6039C96.5309 39.5716 97.2186 39.0477 97.2205 37.6858L93.7328 37.5792L91.9215 37.523C91.8171 38.642 92.3148 39.2944 92.8761 39.3639C93.3804 39.4211 93.9855 38.9868 94.1232 37.8763C94.1298 37.8249 94.1735 37.7858 94.2248 37.7858H94.2267Z" fill="#5C8FCC"/>
<path d="M78.1302 67.0718C78.5834 67.0718 78.9508 66.7032 78.9508 66.2485C78.9508 65.7938 78.5834 65.4252 78.1302 65.4252C77.677 65.4252 77.3096 65.7938 77.3096 66.2485C77.3096 66.7032 77.677 67.0718 78.1302 67.0718Z" fill="#FF5C5C"/>
<path d="M75.6161 78.0771C75.6161 78.3591 75.3882 78.5869 75.108 78.5869C74.8278 78.5869 74.5999 78.3582 74.5999 78.0771C74.5999 77.796 74.8278 77.5673 75.108 77.5673C75.3882 77.5673 75.6161 77.796 75.6161 78.0771Z" fill="#5C8FCC"/>
<path d="M53.7831 43.1559C54.0721 43.1559 54.3064 42.9209 54.3064 42.6309C54.3064 42.3409 54.0721 42.1059 53.7831 42.1059C53.4941 42.1059 53.2598 42.3409 53.2598 42.6309C53.2598 42.9209 53.4941 43.1559 53.7831 43.1559Z" fill="#5C8FCC"/>
<path d="M36.7095 44.2291C36.7095 44.635 36.3818 44.9638 35.9772 44.9638C35.5726 44.9638 35.2449 44.635 35.2449 44.2291C35.2449 43.8232 35.5726 43.4944 35.9772 43.4944C36.3818 43.4944 36.7095 43.8232 36.7095 44.2291Z" fill="#5C8FCC"/>
<path d="M85.0431 29.7242C85.0431 30.1244 84.7201 30.4484 84.3212 30.4484C83.9223 30.4484 83.5994 30.1244 83.5994 29.7242C83.5994 29.324 83.9223 29 84.3212 29C84.7201 29 85.0431 29.324 85.0431 29.7242Z" fill="#5C8FCC"/>
<path d="M106.018 43.2834C106.018 43.6436 105.726 43.9361 105.367 43.9361C105.008 43.9361 104.716 43.6436 104.716 43.2834C104.716 42.9232 105.008 42.6306 105.367 42.6306C105.726 42.6306 106.018 42.9232 106.018 43.2834Z" fill="#FF5C5C"/>
</g>
<defs>
<clipPath id="clip0_16_1950">
<rect width="80" height="82" fill="white" transform="translate(30 29)"/>
</clipPath>
</defs>
</svg>
