<svg width="140" height="140" viewBox="0 0 140 140" fill="none" xmlns="http://www.w3.org/2000/svg">
<path d="M70 140C108.66 140 140 108.66 140 70C140 31.3401 108.66 0 70 0C31.3401 0 0 31.3401 0 70C0 108.66 31.3401 140 70 140Z" fill="#DCE6F4"/>
<g clip-path="url(#clip0_16_1796)">
<path d="M65.5857 98.8665C65.4435 98.8665 65.3254 98.7548 65.3182 98.6103C65.3097 98.4609 65.423 98.3334 65.5713 98.3249C65.8786 98.3079 66.0811 98.2812 66.0859 98.28C66.2426 98.2606 66.3679 98.3638 66.3884 98.5119C66.4089 98.6601 66.3053 98.7961 66.1582 98.8167C66.1582 98.8167 65.9389 98.8471 65.6014 98.8653C65.5966 98.8653 65.5917 98.8653 65.5869 98.8653L65.5857 98.8665ZM62.9582 98.4719C62.9149 98.4719 62.8715 98.4609 62.8305 98.4391C62.6364 98.3334 62.4689 98.2059 62.3351 98.0614C62.2339 97.9521 62.2399 97.7809 62.3484 97.6789C62.4581 97.5769 62.6268 97.583 62.728 97.6923C62.8208 97.7943 62.9426 97.8854 63.086 97.9631C63.2162 98.0347 63.2644 98.1986 63.1945 98.3298C63.1451 98.4196 63.0535 98.4719 62.9582 98.4719ZM62.6702 95.6183C62.6268 95.6183 62.5822 95.6074 62.5412 95.5855C62.4111 95.5139 62.3628 95.3499 62.434 95.2188C62.5316 95.0367 62.6376 94.8764 62.7582 94.7282C62.8534 94.6116 63.0221 94.5947 63.1366 94.6894C63.2511 94.7841 63.268 94.9541 63.1752 95.0694C63.0764 95.1921 62.9884 95.3244 62.9064 95.4762C62.857 95.5661 62.7654 95.6171 62.6702 95.6171V95.6183ZM64.4709 93.078C64.4648 93.078 64.4588 93.078 64.4516 93.078C64.3033 93.0683 64.1924 92.9384 64.2021 92.789C64.2081 92.7028 64.2105 92.6093 64.2105 92.5097L64.2081 92.2705C64.2057 92.1212 64.3238 91.9985 64.4721 91.9961C64.5962 91.99 64.7432 92.1127 64.7444 92.262L64.7469 92.4697C64.7469 92.6227 64.7432 92.7271 64.7372 92.8254C64.7276 92.9687 64.6095 93.078 64.4696 93.078H64.4709ZM64.6818 89.8808C64.6215 89.8808 64.56 89.8602 64.5094 89.8177C64.3961 89.7217 64.3805 89.5517 64.4757 89.4364C64.6287 89.2518 64.8433 89.1401 65.1145 89.1037C65.2591 89.083 65.3965 89.1875 65.4158 89.3368C65.4351 89.485 65.3314 89.621 65.1844 89.6404C65.0048 89.6647 64.9288 89.7339 64.8879 89.7837C64.8348 89.848 64.7589 89.8808 64.6818 89.8808Z" fill="#5C8FCC"/>
<path d="M94.2891 114.822C94.1542 114.822 94.0372 114.719 94.0228 114.58C94.0071 114.432 94.1132 114.299 94.2614 114.283C94.4338 114.265 94.6085 114.242 94.7809 114.214C94.9279 114.188 95.0653 114.29 95.0882 114.438C95.1111 114.585 95.0111 114.725 94.8653 114.748C94.6833 114.777 94.4989 114.801 94.3181 114.821C94.3084 114.821 94.2988 114.822 94.2891 114.822ZM96.6237 113.343C96.5273 113.343 96.4321 113.29 96.3851 113.196C96.3405 113.11 96.2754 113.016 96.1898 112.918L96.1019 112.817C96.0042 112.704 96.0163 112.533 96.1284 112.436C96.2405 112.338 96.4104 112.35 96.5068 112.463L96.5659 112.53C96.7081 112.695 96.7985 112.825 96.8624 112.95C96.9311 113.082 96.8781 113.246 96.7467 113.314C96.7069 113.335 96.6659 113.344 96.6237 113.344V113.343ZM92.057 111.239C91.9172 111.239 91.7991 111.129 91.7894 110.986L91.7533 110.446C91.7436 110.296 91.8545 110.168 92.0028 110.157C92.1474 110.147 92.2788 110.259 92.2896 110.408L92.3258 110.949C92.3354 111.098 92.2245 111.227 92.0763 111.238C92.0703 111.238 92.0642 111.238 92.057 111.238V111.239ZM95.1521 110.599C95.0051 110.599 94.8845 110.48 94.8833 110.331L94.8797 109.79C94.8797 109.641 94.9978 109.518 95.1461 109.517C95.3124 109.523 95.4161 109.636 95.4173 109.785L95.4209 110.324C95.4221 110.474 95.304 110.596 95.1545 110.598H95.1521V110.599ZM91.8376 108C91.6978 108 91.5797 107.891 91.5701 107.748L91.5339 107.207C91.5243 107.058 91.6352 106.929 91.7834 106.918C91.9292 106.91 92.0594 107.02 92.0703 107.17L92.1064 107.71C92.1161 107.859 92.0052 107.988 91.8569 107.999C91.8509 107.999 91.8449 107.999 91.8376 107.999V108ZM95.0388 107.362C94.9026 107.362 94.7857 107.257 94.7713 107.118C94.7544 106.937 94.7303 106.765 94.7026 106.603C94.6772 106.456 94.7749 106.315 94.9207 106.289C95.0617 106.265 95.2063 106.362 95.2317 106.509C95.2618 106.685 95.2871 106.87 95.3064 107.065C95.3209 107.213 95.2136 107.347 95.0653 107.36C95.0569 107.36 95.0473 107.362 95.0388 107.362ZM91.6183 104.762C91.4785 104.762 91.3604 104.653 91.3507 104.509L91.3145 103.969C91.3049 103.82 91.4158 103.691 91.564 103.68C91.7099 103.673 91.84 103.782 91.8509 103.931L91.887 104.472C91.8967 104.621 91.7858 104.75 91.6376 104.761C91.6315 104.761 91.6255 104.761 91.6183 104.761V104.762ZM93.8384 104.423C93.7697 104.423 93.7022 104.396 93.6492 104.345C93.5334 104.23 93.4069 104.124 93.2731 104.032C93.1502 103.947 93.1188 103.779 93.2032 103.656C93.2876 103.532 93.4551 103.501 93.5756 103.585C93.7359 103.696 93.8878 103.822 94.0252 103.96C94.1301 104.066 94.1313 104.237 94.0276 104.343C93.9746 104.396 93.9059 104.423 93.8372 104.423H93.8384Z" fill="#5C8FCC"/>
<path d="M103.63 60.874C103.595 60.874 103.56 60.8667 103.525 60.8522C103.389 60.7939 103.325 60.6348 103.383 60.4976C103.453 60.3313 103.506 60.1734 103.54 60.0289C103.573 59.8832 103.718 59.7945 103.863 59.8285C104.007 59.8625 104.096 60.0095 104.061 60.154C104.02 60.3288 103.958 60.5146 103.876 60.7089C103.832 60.8121 103.734 60.874 103.629 60.874H103.63ZM102.543 58.2305C102.493 58.2305 102.443 58.2172 102.398 58.188L101.945 57.9003C101.82 57.8201 101.782 57.6538 101.862 57.5275C101.943 57.4012 102.109 57.3648 102.233 57.4437L102.687 57.7327C102.813 57.8128 102.849 57.9804 102.769 58.1055C102.718 58.1868 102.632 58.2305 102.543 58.2305ZM96.3489 56.8001C96.3308 56.8001 96.3128 56.7977 96.2935 56.7941C96.1488 56.7637 96.0548 56.6204 96.085 56.4747C96.085 56.4747 96.1308 56.2488 96.2368 55.9222C96.2826 55.7801 96.4357 55.7024 96.5767 55.7498C96.7177 55.7959 96.7949 55.9489 96.7479 56.091C96.6539 56.3788 96.6117 56.5779 96.6105 56.5852C96.5839 56.7127 96.4731 56.8001 96.3477 56.8001H96.3489ZM100.516 55.9283C100.367 55.9283 100.247 55.8068 100.248 55.6575C100.248 55.5591 100.253 55.462 100.258 55.3673C100.262 55.2835 100.266 55.2009 100.266 55.1208C100.266 54.9714 100.387 54.8488 100.535 54.8488C100.683 54.8488 100.804 54.969 100.804 55.1183V55.1208C100.804 55.2106 100.799 55.3017 100.794 55.3964C100.789 55.4826 100.784 55.5701 100.784 55.6599C100.784 55.8093 100.664 55.9295 100.516 55.9295V55.9283ZM98.0363 54.1481C97.9338 54.1481 97.8362 54.0886 97.7916 53.9878C97.7314 53.8518 97.7916 53.6916 97.9266 53.6309C98.1183 53.5446 98.3207 53.4912 98.5293 53.473C98.6823 53.456 98.8077 53.5701 98.8209 53.7195C98.8342 53.8676 98.7245 54 98.5775 54.0121C98.4292 54.0255 98.2846 54.0631 98.1472 54.1251C98.111 54.1408 98.0737 54.1481 98.0375 54.1481H98.0363Z" fill="#FF5C5C"/>
<path d="M66.2052 87.4329C66.1883 87.4329 66.1726 87.4316 66.157 87.428C66.157 87.428 65.9509 87.3891 65.6158 87.3102C65.4712 87.2762 65.382 87.1305 65.4157 86.9848C65.4495 86.8403 65.5941 86.7492 65.7387 86.7832C66.0545 86.8585 66.2522 86.8949 66.2558 86.8961C66.4016 86.9241 66.498 87.0649 66.4703 87.2119C66.4462 87.3418 66.3329 87.4329 66.2064 87.4329H66.2052ZM63.1112 86.5051C63.0763 86.5051 63.0413 86.4991 63.0076 86.4845C62.8377 86.4129 62.6689 86.3376 62.5026 86.2574C62.3688 86.1931 62.3122 86.0316 62.376 85.8968C62.4399 85.762 62.599 85.7049 62.734 85.7693C62.8919 85.8446 63.0522 85.9174 63.2137 85.9854C63.3511 86.0425 63.415 86.2016 63.3583 86.34C63.3149 86.4444 63.2161 86.5064 63.1112 86.5064V86.5051ZM60.6501 84.5404C60.5392 84.5404 60.4344 84.47 60.3958 84.3583C60.3343 84.1786 60.303 83.9952 60.303 83.8107L60.3054 83.7281C60.3114 83.5787 60.4175 83.4561 60.585 83.4694C60.7333 83.4755 60.8478 83.603 60.8405 83.7524V83.8107C60.8405 83.9345 60.861 84.0596 60.902 84.181C60.9502 84.3219 60.8755 84.4761 60.7357 84.5247C60.7067 84.5344 60.6766 84.5392 60.6477 84.5392L60.6501 84.5404ZM62.0241 81.8229C61.9385 81.8229 61.8542 81.7816 61.8023 81.7051C61.7192 81.5812 61.7505 81.4137 61.8734 81.3299C62.0265 81.2242 62.1904 81.1307 62.3748 81.0421C62.5074 80.9765 62.6677 81.0348 62.7328 81.1696C62.7967 81.3044 62.74 81.4659 62.6062 81.5302C62.4471 81.6067 62.3061 81.6869 62.176 81.7767C62.1302 81.8083 62.0771 81.8241 62.0253 81.8241L62.0241 81.8229ZM63.3487 79.5291C63.2342 79.5291 63.1281 79.455 63.092 79.3397C63.0341 79.1515 62.9907 78.9584 62.9654 78.769C62.9449 78.6208 63.0474 78.4848 63.1956 78.4642C63.3378 78.4448 63.4776 78.548 63.4981 78.6961C63.5198 78.8564 63.556 79.0191 63.6066 79.1794C63.6512 79.3215 63.5717 79.4732 63.4306 79.5182C63.4041 79.5267 63.3764 79.5303 63.3499 79.5303L63.3487 79.5291ZM67.7527 76.9318C67.7069 76.9318 67.6599 76.9196 67.6177 76.8953C67.4635 76.8043 67.3116 76.7241 67.1633 76.6537C67.0296 76.5893 66.9717 76.4278 67.0356 76.293C67.0995 76.157 67.2598 76.1 67.3936 76.1643C67.5551 76.242 67.7214 76.3295 67.8889 76.4278C68.0167 76.5031 68.0601 76.6683 67.9853 76.7982C67.9359 76.8844 67.8455 76.933 67.7539 76.933L67.7527 76.9318ZM64.1972 76.6306C64.1104 76.6306 64.0248 76.5881 63.973 76.5092C63.8911 76.3841 63.9248 76.2165 64.0489 76.134C64.2153 76.0235 64.3949 75.9324 64.5865 75.8644C64.7275 75.8146 64.8806 75.8875 64.93 76.0283C64.9794 76.1692 64.9071 76.3234 64.7685 76.3744C64.6178 76.429 64.4768 76.4995 64.3466 76.5869C64.3008 76.6173 64.2502 76.6318 64.1984 76.6318L64.1972 76.6306Z" fill="#FF5C5C"/>
<path d="M63.033 61.8649C62.9088 61.8649 62.7979 61.7787 62.7702 61.6512C62.7389 61.5055 62.8305 61.361 62.9763 61.3295C63.1426 61.293 63.3066 61.2481 63.4669 61.1947C63.6079 61.1473 63.7585 61.225 63.8055 61.3671C63.8526 61.5092 63.7754 61.6622 63.6344 61.7083C63.456 61.7678 63.274 61.8164 63.0896 61.8577C63.0703 61.8613 63.051 61.8637 63.033 61.8637V61.8649ZM60.3814 61.7375C60.3549 61.7375 60.3271 61.7338 60.3006 61.7253C60.1198 61.667 59.9439 61.6002 59.7715 61.5237C59.6353 61.4642 59.5739 61.304 59.6329 61.168C59.6932 61.0307 59.8511 60.9688 59.9861 61.0283C60.1415 61.0963 60.2994 61.157 60.4621 61.2092C60.6044 61.2542 60.6815 61.4072 60.6369 61.5492C60.6007 61.6646 60.4947 61.7375 60.3814 61.7375ZM65.7725 60.2597C65.7087 60.2597 65.6448 60.2366 65.5942 60.1905C65.4833 60.0909 65.4736 59.9197 65.5725 59.808C65.6858 59.6805 65.793 59.5469 65.8931 59.4085C65.9798 59.287 66.1486 59.2615 66.2679 59.349C66.3884 59.4364 66.4137 59.6064 66.327 59.7266C66.2161 59.8796 66.098 60.0277 65.9726 60.1686C65.9196 60.2281 65.8461 60.2585 65.7725 60.2585V60.2597ZM57.8057 59.876C57.7238 59.876 57.6418 59.8383 57.59 59.7655C57.4791 59.6137 57.3755 59.4546 57.279 59.2919C57.2031 59.1632 57.2465 58.9968 57.3742 58.9215C57.4996 58.8462 57.6659 58.8875 57.7419 59.0175C57.8286 59.1656 57.9214 59.3077 58.0227 59.4449C58.1107 59.5651 58.0854 59.7351 57.966 59.8237C57.9178 59.859 57.8624 59.8772 57.8069 59.8772L57.8057 59.876ZM67.0598 57.3405C67.0501 57.3405 67.0417 57.3405 67.032 57.3393C66.885 57.3248 66.7777 57.1912 66.7922 57.043C66.8091 56.8743 66.8175 56.703 66.8175 56.5306V56.442C66.8139 56.2926 66.9332 56.17 67.0802 56.1663C67.208 56.1748 67.3514 56.2829 67.3538 56.4323V56.5343C67.3538 56.7213 67.3442 56.9107 67.3249 57.0965C67.3117 57.2361 67.1947 57.3393 67.0586 57.3393L67.0598 57.3405ZM56.803 56.8245C56.6547 56.8245 56.5342 56.7261 56.5342 56.5768V56.5294C56.5342 56.3545 56.5426 56.1809 56.5583 56.0109C56.5727 55.8615 56.715 55.7498 56.8512 55.7668C56.9994 55.7814 57.1067 55.9125 57.0934 56.0619C57.079 56.2161 57.0717 56.3715 57.0717 56.5306C57.0717 56.68 56.9512 56.8245 56.803 56.8245ZM66.3547 54.1373C66.2643 54.1373 66.1751 54.0899 66.1245 54.0061C66.0365 53.8592 65.9425 53.7171 65.84 53.5811C65.7508 53.4621 65.7749 53.2921 65.8931 53.2023C66.01 53.1124 66.1799 53.1355 66.2691 53.2557C66.3824 53.4063 66.4873 53.5641 66.5849 53.7281C66.662 53.8568 66.6198 54.0219 66.4921 54.0996C66.4487 54.1263 66.4017 54.1385 66.3547 54.1385V54.1373ZM57.7515 53.8009C57.6973 53.8009 57.643 53.7851 57.596 53.7511C57.4755 53.6649 57.4466 53.4961 57.5333 53.3735C57.643 53.2181 57.7599 53.0699 57.8841 52.9266C57.9829 52.8149 58.1516 52.804 58.2637 52.9023C58.3746 53.0019 58.3855 53.1719 58.2878 53.2848C58.1758 53.4136 58.0697 53.5471 57.9721 53.6868C57.919 53.7608 57.8371 53.8009 57.7539 53.8009H57.7515ZM63.9658 52.0366C63.9309 52.0366 63.8947 52.0293 63.861 52.0147C63.7055 51.9479 63.5464 51.8884 63.3837 51.8386C63.2415 51.7949 63.1619 51.6431 63.2065 51.4998C63.2499 51.3566 63.397 51.2752 63.5428 51.3201C63.7236 51.376 63.9008 51.4416 64.0731 51.5168C64.2093 51.5751 64.2732 51.7342 64.2153 51.8714C64.1719 51.9734 64.0731 52.0353 63.9683 52.0353L63.9658 52.0366ZM60.2934 51.8933C60.1813 51.8933 60.0777 51.8228 60.0391 51.7099C59.9909 51.5691 60.0668 51.4148 60.2066 51.3663C60.3838 51.3056 60.5658 51.2546 60.7502 51.2121C60.8972 51.1793 61.0395 51.2716 61.0708 51.4161C61.1033 51.5618 61.0129 51.7063 60.8683 51.7391C60.702 51.7767 60.5381 51.8228 60.379 51.8775C60.35 51.8872 60.3211 51.8921 60.2922 51.8921L60.2934 51.8933Z" fill="#FF5C5C"/>
<path d="M95.2544 90.964C95.2544 90.964 97.6517 90.2318 98.029 90.5524C98.6569 91.0879 96.5212 92.3629 96.5212 92.3629C96.5212 92.3629 95.1387 92.0447 95.2544 90.964Z" fill="white"/>
<path d="M96.5212 92.4988C96.5115 92.4988 96.5007 92.4988 96.491 92.4952C95.9728 92.3762 95.0182 91.899 95.1207 90.9494C95.1267 90.896 95.1641 90.8498 95.2159 90.834C95.7944 90.658 97.7144 90.1067 98.1158 90.4491C98.2339 90.5499 98.2893 90.6823 98.2773 90.8304C98.223 91.4861 96.7574 92.3798 96.5899 92.4794C96.5694 92.4915 96.5453 92.4988 96.5212 92.4988ZM95.3822 91.0672C95.3641 91.8504 96.2693 92.154 96.4995 92.2183C97.0865 91.8601 97.9759 91.1874 98.0085 90.8085C98.0133 90.7466 97.9928 90.7005 97.941 90.6555C97.7469 90.4904 96.4802 90.7381 95.381 91.066L95.3822 91.0672Z" fill="#14172E"/>
<path d="M89.2017 55.7304C89.092 55.7304 89.0028 55.6429 89.0004 55.5324C88.998 55.4183 88.8112 44.0563 94.5494 38.9793C94.6338 38.9053 94.7604 38.9138 94.8339 38.9976C94.9062 39.0813 94.899 39.2101 94.8146 39.2841C89.2161 44.2372 89.4005 55.411 89.403 55.5239C89.4054 55.6356 89.3174 55.7291 89.2065 55.7316H89.2017V55.7304Z" fill="#FF5C5C"/>
<path d="M93.5707 40.479C93.5201 40.479 93.4707 40.4596 93.4333 40.4244C93.3803 40.3746 93.3586 40.3005 93.3755 40.2301C93.4044 40.1038 94.1071 37.1446 95.4895 36.6649C95.9367 36.5095 96.3947 36.6188 96.8527 36.9904C97.2613 37.3207 97.43 37.6849 97.3541 38.0735C97.1022 39.3813 93.9841 40.3636 93.6298 40.4705C93.6105 40.4766 93.5912 40.479 93.5719 40.479H93.5707ZM95.8836 37.0025C95.7945 37.0025 95.7065 37.0171 95.6197 37.0474C94.7664 37.3437 94.1288 39.0206 93.86 39.9678C94.9086 39.6071 96.8033 38.7996 96.9587 37.9946C97.0033 37.7627 96.8864 37.5368 96.5996 37.3061C96.3489 37.1033 96.1138 37.0025 95.8836 37.0025Z" fill="#FF5C5C"/>
<path d="M91.7218 43.3593C91.688 43.3593 91.6531 43.3508 91.6217 43.3326C91.5121 43.2694 88.928 41.7722 88.7978 40.2313C88.7556 39.7335 88.9641 39.2902 89.4173 38.915C89.809 38.5908 90.1802 38.5046 90.5201 38.6576C91.7182 39.1967 91.905 42.7449 91.9219 43.1468C91.9255 43.2209 91.8881 43.2901 91.8254 43.3289C91.7929 43.3484 91.7567 43.3593 91.7206 43.3593H91.7218ZM90.1887 38.9903C90.0742 38.9903 89.9042 39.0377 89.674 39.2283C89.3245 39.5185 89.169 39.8342 89.1992 40.1961C89.2871 41.2331 90.8154 42.3357 91.4976 42.7777C91.3927 41.3448 91.0263 39.3279 90.3562 39.0267C90.3261 39.0134 90.2718 38.9891 90.1887 38.9891V38.9903Z" fill="#FF5C5C"/>
<path d="M92.0483 46.1934C91.3445 46.1934 90.7587 46.1339 90.6153 46.1181C90.5442 46.1109 90.4815 46.0647 90.4538 45.9979C90.4249 45.9312 90.4333 45.8547 90.4755 45.7964C90.5514 45.6919 92.3581 43.2549 93.8044 43.3472C94.2757 43.3799 94.6553 43.6617 94.9325 44.1826C95.1796 44.6477 95.1941 45.0496 94.9747 45.3774C94.5252 46.0489 93.1451 46.1922 92.0495 46.1922L92.0483 46.1934ZM91.0215 45.7478C92.1267 45.8292 94.1829 45.8316 94.6397 45.1516C94.771 44.9561 94.7505 44.7023 94.577 44.3757C94.3661 43.9798 94.1033 43.7758 93.7755 43.7527C92.8583 43.6884 91.6373 44.9828 91.0215 45.7478Z" fill="#FF5C5C"/>
<path d="M91.7217 43.358C91.653 43.358 91.5843 43.3216 91.5481 43.2573L90.6201 41.641C90.5634 41.5439 90.5972 41.42 90.6936 41.3642C90.7876 41.3083 90.9117 41.3411 90.9684 41.4383L91.8964 43.0545C91.9531 43.1516 91.9193 43.2755 91.8229 43.3313C91.7916 43.3495 91.7566 43.358 91.7217 43.358Z" fill="#FF5C5C"/>
<path d="M90.6371 46.1193C90.5552 46.1193 90.478 46.0683 90.4479 45.987C90.4093 45.8813 90.4624 45.7648 90.5672 45.7259L92.122 45.1467C92.2269 45.1078 92.3426 45.1613 92.3811 45.2669C92.4197 45.3726 92.3667 45.4891 92.2618 45.528L90.707 46.1072C90.6841 46.1157 90.66 46.1193 90.6371 46.1193Z" fill="#FF5C5C"/>
<path d="M69.1869 51.9188C69.0893 51.9188 69.0025 51.8471 68.9881 51.7463C68.976 51.665 67.7057 43.539 63.2848 41.2562C63.1859 41.2052 63.1474 41.0825 63.1968 40.9829C63.2474 40.8834 63.3691 40.8433 63.468 40.8955C68.0733 43.2731 69.3352 51.3432 69.387 51.6856C69.4027 51.7961 69.3279 51.8993 69.2183 51.9163C69.2074 51.9175 69.1978 51.9188 69.1881 51.9188H69.1869Z" fill="#14172E"/>
<path d="M63.8116 42.0782C62.6425 42.0782 60.4742 41.8645 60.2512 40.3054C60.1813 39.8172 60.3669 39.5598 60.5345 39.4311C61.0841 39.0061 62.0905 39.3728 62.4978 39.5501C63.5042 39.9872 64.6312 40.8858 64.7276 41.8256C64.7336 41.8791 64.7167 41.9337 64.683 41.975C64.6492 42.0163 64.5998 42.043 64.5456 42.0479C64.5034 42.0515 64.2177 42.0782 63.8104 42.0782H63.8116ZM61.2142 39.6399C61.0274 39.6399 60.878 39.6764 60.7803 39.7516C60.7357 39.7856 60.5995 39.8913 60.6514 40.2459C60.8623 41.7115 63.4886 41.6969 64.2852 41.6581C64.0707 40.9781 63.1848 40.2871 62.3399 39.9216C61.9133 39.7359 61.5167 39.6399 61.2154 39.6399H61.2142Z" fill="#14172E"/>
<path d="M66.2811 44.0429C66.2437 44.0429 66.2064 44.032 66.1726 44.0113C66.116 43.9749 66.081 43.913 66.0798 43.8462C66.0762 43.7114 66.0003 40.5227 67.0693 39.5343C67.3261 39.2975 67.6298 39.1955 67.9637 39.2368C68.3855 39.2854 68.6494 39.527 68.7073 39.9168C68.8845 41.1177 66.9271 43.7794 66.3631 44.0259C66.3378 44.0368 66.31 44.0429 66.2823 44.0429H66.2811ZM67.825 39.6339C67.6455 39.6339 67.4864 39.6994 67.3417 39.833C66.6704 40.4535 66.4993 42.3478 66.4812 43.4091C67.1212 42.723 68.4325 40.8214 68.3072 39.9763C68.2855 39.8294 68.2228 39.6751 67.9166 39.6399C67.8853 39.6363 67.8552 39.6339 67.825 39.6339Z" fill="#14172E"/>
<path d="M65.6184 46.4168C64.8096 46.4168 64.0118 46.2456 63.6032 45.9129C63.3175 45.681 63.2139 45.3762 63.3091 45.052C63.3681 44.8528 63.5031 44.7035 63.7008 44.6197C64.6819 44.2032 67.2057 45.5183 67.4914 45.6701C67.5564 45.7041 67.5986 45.7733 67.5986 45.8473C67.5986 45.9214 67.5588 45.9906 67.4938 46.0271C67.0213 46.2893 66.315 46.4168 65.6172 46.4168H65.6184ZM64.1865 44.9391C64.0576 44.9391 63.9467 44.9561 63.8575 44.9937C63.7695 45.0301 63.7201 45.0848 63.696 45.1673C63.6658 45.2706 63.649 45.4284 63.8563 45.5972C64.4119 46.0489 65.9498 46.1388 66.9164 45.8328C66.1547 45.4636 64.9049 44.9391 64.1865 44.9391Z" fill="#14172E"/>
<path d="M66.2811 44.0429C66.2582 44.0429 66.2341 44.0393 66.2112 44.0308C66.1064 43.9919 66.0534 43.8754 66.0919 43.7697L66.897 41.5658C66.9356 41.4602 67.0513 41.4067 67.1562 41.4456C67.261 41.4845 67.3141 41.601 67.2755 41.7067L66.4704 43.9106C66.4402 43.9932 66.3631 44.0429 66.2811 44.0429Z" fill="#14172E"/>
<path d="M67.3972 46.0513C67.3888 46.0513 67.3804 46.0513 67.3719 46.0501L64.5022 45.6785C64.3925 45.664 64.3142 45.5632 64.3286 45.4515C64.3431 45.341 64.4371 45.2596 64.554 45.2766L67.4237 45.6482C67.5334 45.6627 67.6118 45.7647 67.5973 45.8752C67.584 45.9772 67.4973 46.0525 67.3972 46.0525V46.0513Z" fill="#14172E"/>
<path d="M88.892 82.4214C88.8752 82.4214 88.8583 82.4202 88.8414 82.4166C88.6956 82.3887 88.6004 82.2466 88.6281 82.0997C88.6859 81.7961 90.0828 74.6185 94.018 71.8742C94.1398 71.7904 94.3073 71.8196 94.3917 71.9422C94.476 72.0648 94.4459 72.2336 94.323 72.3186C90.5686 74.9366 89.168 82.1276 89.1548 82.2004C89.1307 82.3304 89.0174 82.4202 88.892 82.4202V82.4214Z" fill="#FF5C5C"/>
<path d="M92.9887 73.5924C92.8621 73.5924 92.7006 73.5645 92.6175 73.4163C92.5825 73.3556 92.5729 73.284 92.591 73.2148C92.6548 72.9646 93.2466 70.7571 94.4471 70.3928C94.9087 70.2543 95.3775 70.3964 95.8404 70.8202C96.2622 71.2051 96.2526 71.5864 96.1706 71.839C95.8379 72.8602 93.7167 73.5232 93.1189 73.5839C93.0863 73.5875 93.0405 73.5924 92.9887 73.5924ZM94.7858 70.8846C94.7231 70.8846 94.6616 70.8943 94.6013 70.9125C93.9421 71.1116 93.4334 72.3113 93.2032 73.0302C93.8408 72.91 95.3438 72.3405 95.6367 71.7309C95.6969 71.6058 95.7259 71.4468 95.48 71.2221C95.2317 70.9963 95.0027 70.8846 94.7858 70.8846Z" fill="#FF5C5C"/>
<path d="M92.2161 76.826C91.5002 76.826 90.8698 76.7228 90.6734 76.5382C90.5649 76.4374 90.5576 76.2674 90.6565 76.1581C90.7264 76.0804 92.3752 74.2711 93.7191 74.3974C94.1686 74.4424 94.5314 74.6864 94.7929 75.1248C95.0521 75.5583 94.9918 75.9784 94.6278 76.2783C94.1638 76.6596 93.1225 76.826 92.2161 76.826ZM91.3423 76.2261C92.0883 76.3463 93.8251 76.3051 94.3217 75.8303C94.4036 75.7513 94.4796 75.6469 94.3337 75.4053C94.1614 75.1175 93.9432 74.9645 93.6672 74.9366C92.9296 74.8637 91.9112 75.6773 91.3423 76.2261Z" fill="#FF5C5C"/>
<path d="M90.8554 76.6099C90.7457 76.6099 90.6432 76.5419 90.6035 76.4314C90.5528 76.2905 90.6239 76.1363 90.7638 76.0853L92.7597 75.3531C92.8995 75.3021 93.0526 75.3737 93.1032 75.5146C93.1538 75.6554 93.0827 75.8097 92.9429 75.8607L90.947 76.5929C90.9168 76.6038 90.8855 76.6087 90.8554 76.6087V76.6099Z" fill="#FF5C5C"/>
<path d="M90.6674 114.844C90.6529 114.844 90.6372 114.843 90.6216 114.839C90.5131 114.814 90.4456 114.704 90.4709 114.596C90.5155 114.401 95.1304 95.0488 110.148 90.4758C110.254 90.443 110.366 90.5037 110.399 90.6118C110.431 90.7187 110.37 90.8316 110.264 90.8644C95.4727 95.3694 90.9072 114.495 90.8626 114.689C90.8409 114.782 90.7578 114.845 90.6662 114.845L90.6674 114.844Z" fill="#14172E"/>
<path d="M107.498 92.3944C107.008 92.3944 106.646 92.3774 106.523 92.3713C106.445 92.3677 106.378 92.3191 106.348 92.2487C106.318 92.177 106.331 92.0957 106.38 92.0362C106.489 91.9099 109.049 88.9385 110.929 89.0964C111.453 89.1413 111.872 89.4194 112.175 89.9233C112.46 90.3981 112.495 90.8231 112.278 91.1886C111.652 92.2426 108.989 92.3956 107.499 92.3956L107.498 92.3944ZM106.976 91.9815C108.485 92.0155 111.391 91.8905 111.932 90.9797C112.068 90.7502 112.034 90.4734 111.831 90.1334C111.596 89.7412 111.289 89.5335 110.895 89.5008C109.563 89.3818 107.69 91.2238 106.977 91.9827L106.976 91.9815Z" fill="#14172E"/>
<path d="M101.069 96.2899C101.058 96.2899 101.047 96.2898 101.036 96.2874C100.956 96.2741 100.889 96.2121 100.872 96.1308C100.839 95.9741 100.055 92.2791 101.147 90.7309C101.423 90.3387 101.796 90.1116 102.255 90.0557C102.772 89.9902 103.026 90.2027 103.148 90.3897C103.92 91.5833 101.52 95.7228 101.242 96.1903C101.206 96.2522 101.14 96.2899 101.069 96.2899ZM102.437 90.4492C102.396 90.4492 102.352 90.4516 102.302 90.4577C101.956 90.5002 101.686 90.6653 101.475 90.9652C100.716 92.0411 100.993 94.4356 101.168 95.5079C102.122 93.7933 103.246 91.2858 102.809 90.6119C102.781 90.5694 102.704 90.4504 102.437 90.4504V90.4492Z" fill="#14172E"/>
<path d="M103.73 99.5926C101.691 99.5926 98.9933 99.0122 98.5643 98.9175C98.4811 98.8992 98.4184 98.8288 98.4076 98.7426C98.3967 98.6576 98.4425 98.5738 98.5197 98.5362C98.7065 98.4451 103.1 96.3128 105.122 97.2065C105.592 97.4154 105.904 97.7687 106.049 98.2581C106.168 98.66 106.027 98.9247 105.887 99.0753C105.534 99.459 104.708 99.5914 103.73 99.5914V99.5926ZM99.2549 98.6467C101.207 99.0316 104.882 99.5695 105.592 98.7997C105.656 98.7305 105.732 98.6115 105.662 98.3747C105.551 97.9995 105.321 97.7396 104.959 97.5793C103.509 96.937 100.501 98.1051 99.2549 98.6479V98.6467Z" fill="#14172E"/>
<path d="M95.2631 103.735C95.1788 103.735 95.104 103.682 95.0739 103.602C95.0064 103.42 93.4372 99.124 94.1471 97.645C94.27 97.3887 94.4532 97.2187 94.6918 97.141C95.2125 96.971 95.5283 97.1374 95.7043 97.3062C96.8276 98.3857 95.5994 103.056 95.456 103.585C95.4331 103.67 95.3584 103.73 95.2704 103.735C95.2668 103.735 95.2643 103.735 95.2619 103.735H95.2631ZM95.1028 97.475C95.0257 97.475 94.9305 97.4895 94.8172 97.526C94.6846 97.5697 94.5846 97.6656 94.5099 97.821C94.0579 98.7633 94.7485 101.352 95.2318 102.828C95.6199 101.176 96.1261 98.2715 95.4259 97.6C95.3885 97.5636 95.2969 97.4762 95.1016 97.4762L95.1028 97.475Z" fill="#14172E"/>
<path d="M98.2954 107.444C96.4068 107.444 93.9745 106.911 93.578 106.821C93.4973 106.803 93.4358 106.737 93.4237 106.655C93.4105 106.572 93.449 106.491 93.5214 106.448C93.672 106.359 97.2444 104.265 99.2982 104.878C99.8225 105.035 100.208 105.354 100.442 105.828C100.702 106.351 100.579 106.69 100.431 106.881C100.103 107.302 99.2729 107.445 98.2954 107.445V107.444ZM94.1963 106.54C96.3887 106.986 99.5549 107.348 100.113 106.631C100.154 106.577 100.28 106.414 100.08 106.01C99.8948 105.636 99.6007 105.395 99.1825 105.268C97.7109 104.83 95.2292 105.997 94.1963 106.54Z" fill="#14172E"/>
<path d="M95.263 103.735C95.157 103.735 95.0678 103.651 95.0618 103.543L94.8665 99.81C94.8605 99.6983 94.9461 99.6024 95.0569 99.5963C95.1895 99.5963 95.263 99.6765 95.2679 99.7882L95.4631 103.521C95.4691 103.633 95.3836 103.729 95.2727 103.735C95.2691 103.735 95.2654 103.735 95.2618 103.735H95.263Z" fill="#14172E"/>
<path d="M101.069 96.2898C101.059 96.2898 101.048 96.2898 101.037 96.2874C100.928 96.2704 100.853 96.1659 100.87 96.0554L101.452 92.3324C101.469 92.2219 101.571 92.1467 101.682 92.1637C101.792 92.1807 101.867 92.2851 101.85 92.3956L101.268 96.1186C101.252 96.2181 101.166 96.2898 101.069 96.2898Z" fill="#14172E"/>
<path d="M98.6077 98.9224C98.5005 98.9224 98.4113 98.8374 98.4064 98.7281C98.4016 98.6164 98.4872 98.5217 98.5993 98.5168L102.725 98.331C102.838 98.3189 102.93 98.4124 102.936 98.5241C102.941 98.6358 102.855 98.7305 102.743 98.7354L98.6174 98.9212C98.6174 98.9212 98.6113 98.9212 98.6089 98.9212L98.6077 98.9224Z" fill="#14172E"/>
<path d="M93.6226 106.826C93.525 106.826 93.4382 106.755 93.4237 106.654C93.4069 106.543 93.4828 106.44 93.5925 106.423L96.9781 105.906C97.0914 105.888 97.1914 105.965 97.2083 106.076C97.2251 106.186 97.1492 106.289 97.0395 106.306L93.6539 106.824C93.6431 106.825 93.6335 106.826 93.6238 106.826H93.6226Z" fill="#14172E"/>
<path d="M66.3282 115.63C66.2318 115.63 66.1463 115.561 66.1306 115.461C66.0932 115.244 62.2798 93.6488 48.7929 84.5927C48.7 84.5308 48.6747 84.4045 48.7362 84.311C48.7977 84.2175 48.9242 84.1932 49.0158 84.2551C62.6486 93.4096 66.4898 115.174 66.5259 115.393C66.5452 115.503 66.4717 115.608 66.362 115.627C66.3499 115.63 66.3391 115.63 66.3282 115.63Z" fill="#FF5C5C"/>
<path d="M52.9992 88.0012C52.9787 88.0012 52.9582 87.9975 52.9377 87.9914C52.7232 87.921 47.6623 86.2587 46.95 84.4312C46.8138 84.0815 46.8343 83.7439 47.0102 83.4282C47.3224 82.8672 47.9106 82.6595 48.6602 82.8441C50.4428 83.2812 53.1402 85.9624 53.2005 87.7923C53.2029 87.8579 53.1728 87.921 53.1197 87.9611C53.0848 87.9878 53.0414 88.0024 52.998 88.0024L52.9992 88.0012ZM48.1492 83.1829C47.7888 83.1829 47.5261 83.331 47.361 83.6261C47.2453 83.8337 47.2332 84.0487 47.3248 84.283C47.8756 85.6964 51.6589 87.1159 52.7606 87.5021C52.4448 85.9539 50.2223 83.6443 48.565 83.2375C48.4144 83.2011 48.2758 83.1829 48.1492 83.1829Z" fill="#FF5C5C"/>
<path d="M54.2311 92.7781C52.9788 92.7781 51.6349 92.5777 50.9949 92.1078C50.6153 91.8285 50.4791 91.4557 50.6129 91.0562C50.7009 90.7915 50.8853 90.5996 51.1589 90.4867C52.6462 89.8759 56.6368 91.8953 56.8055 91.9815C56.8682 92.0131 56.9104 92.075 56.9152 92.1454C56.9212 92.2159 56.8899 92.2839 56.8345 92.3251C56.4524 92.6093 55.3797 92.7781 54.2311 92.7781ZM51.8664 90.7721C51.6506 90.7721 51.4614 90.8 51.3119 90.8619C51.148 90.9299 51.0444 91.0356 50.9949 91.1861C50.9467 91.3306 50.919 91.5504 51.2324 91.7799C52.1882 92.4818 55.1085 92.5073 56.2463 92.1576C55.129 91.6245 53.0692 90.7721 51.8676 90.7721H51.8664Z" fill="#FF5C5C"/>
<path d="M58.5482 95.1108C58.512 95.1108 58.4746 95.101 58.4421 95.0804C58.377 95.0391 58.3408 94.965 58.3481 94.8885C58.3686 94.6736 58.8772 89.6174 60.1741 88.6253C60.3814 88.4662 60.6007 88.4067 60.8321 88.4468C61.078 88.4905 61.3914 88.6484 61.489 89.1523C61.7686 90.6058 59.8462 94.3348 58.6554 95.0816C58.6229 95.1023 58.5855 95.112 58.5494 95.112L58.5482 95.1108ZM60.6971 88.839C60.6043 88.839 60.5115 88.8742 60.4175 88.9471C59.5533 89.6089 59.0062 92.7696 58.8037 94.4296C59.8667 93.3367 61.313 90.369 61.0925 89.2288C61.0346 88.9301 60.8864 88.8669 60.7622 88.8451C60.7405 88.8414 60.7188 88.839 60.6971 88.839Z" fill="#FF5C5C"/>
<path d="M57.4972 99.2818C56.2413 99.2818 54.9601 99.1009 54.4599 98.5885C54.2333 98.3566 54.1683 98.07 54.2695 97.7604C54.3611 97.4811 54.5539 97.2734 54.8444 97.1423C56.3847 96.4501 60.4621 98.2303 60.6345 98.3056C60.7189 98.3432 60.7683 98.4343 60.7514 98.5266C60.7189 98.7172 60.5248 98.8629 60.1428 98.9819C59.604 99.1507 58.559 99.2806 57.4972 99.2806V99.2818ZM55.764 97.3864C55.4651 97.3864 55.2072 97.4252 55.0095 97.5138C54.8239 97.5976 54.7082 97.7191 54.6528 97.8879C54.5985 98.0554 54.5901 98.274 55.0156 98.4901C56.2208 99.1033 59.3473 98.8799 60.1753 98.5509C59.1062 98.1089 57.0597 97.3851 55.764 97.3851V97.3864Z" fill="#FF5C5C"/>
<path d="M62.8232 103.741C62.7882 103.741 62.7521 103.731 62.7207 103.713C62.6472 103.668 62.6087 103.582 62.6267 103.497C62.7304 103.006 63.6657 98.6819 64.7938 97.9861C64.9637 97.8817 65.1337 97.8513 65.3036 97.8987C65.5387 97.9618 65.6929 98.1306 65.7496 98.3856C66.0292 99.6278 63.8633 102.905 62.9546 103.693C62.9172 103.726 62.8702 103.742 62.8232 103.742V103.741ZM65.1494 98.2824C65.1132 98.2824 65.065 98.2933 65.0035 98.331C64.2984 98.7657 63.5548 101.319 63.1824 102.868C64.196 101.65 65.5362 99.2708 65.3567 98.4743C65.3277 98.3419 65.2626 98.3067 65.1988 98.2885C65.1855 98.2848 65.1698 98.2824 65.1506 98.2824H65.1494Z" fill="#FF5C5C"/>
<path d="M61.9471 107.79C61.2902 107.79 60.6128 107.73 60.0765 107.615C58.6073 107.306 57.901 106.633 58.0902 105.722C58.1698 105.339 58.3879 105.063 58.7194 104.926C60.2561 104.293 64.0731 106.827 64.2346 106.935C64.3033 106.982 64.3371 107.065 64.3202 107.146C64.2274 107.592 63.121 107.789 61.9458 107.789L61.9471 107.79ZM59.322 105.225C59.152 105.225 59.0002 105.249 58.8724 105.301C58.6615 105.388 58.5386 105.549 58.4843 105.805C58.447 105.987 58.3313 106.541 59.3304 106.967C60.7478 107.572 63.1909 107.416 63.8044 107.137C62.7558 106.464 60.5501 105.225 59.3208 105.225H59.322Z" fill="#FF5C5C"/>
<path d="M56.715 92.3641C56.715 92.3641 56.7053 92.3641 56.7005 92.3641C56.5474 92.3531 52.9353 92.0908 51.9313 91.5129C51.8337 91.457 51.8011 91.3331 51.8566 91.236C51.912 91.1376 52.0349 91.1049 52.1314 91.1607C53.0558 91.6926 56.6921 91.9573 56.7294 91.9597C56.8403 91.9682 56.9235 92.0641 56.9163 92.1759C56.909 92.2827 56.8198 92.3641 56.715 92.3641Z" fill="#FF5C5C"/>
<path d="M58.5482 95.1108C58.5156 95.1108 58.4831 95.1035 58.453 95.0865C58.3553 95.0331 58.318 94.9105 58.3698 94.8121C58.383 94.7878 59.6932 92.3095 60.0077 90.4965C60.027 90.386 60.1331 90.3132 60.2404 90.3314C60.35 90.3508 60.4236 90.4553 60.4043 90.5658C60.0776 92.4442 58.7808 94.8995 58.7253 95.004C58.6892 95.072 58.6205 95.1108 58.5482 95.1108Z" fill="#FF5C5C"/>
<path d="M60.0825 98.6989C59.0556 98.6989 56.6752 98.654 55.9304 98.246C55.8328 98.1926 55.7966 98.0699 55.8496 97.9704C55.9027 97.872 56.0256 97.8356 56.1232 97.889C56.8247 98.2727 59.5558 98.3067 60.5502 98.2885C60.6803 98.2861 60.7526 98.3759 60.7551 98.4876C60.7575 98.5994 60.6683 98.6916 60.5574 98.6941C60.5261 98.6941 60.3513 98.6977 60.0837 98.6977L60.0825 98.6989Z" fill="#FF5C5C"/>
<path d="M62.8233 103.741C62.7955 103.741 62.7666 103.735 62.7401 103.722C62.6389 103.676 62.5943 103.556 62.6401 103.454L64.1985 100.008C64.2443 99.906 64.3648 99.861 64.4648 99.9072C64.5661 99.9533 64.6107 100.074 64.5649 100.176L63.0065 103.622C62.9727 103.697 62.9004 103.741 62.8233 103.741Z" fill="#FF5C5C"/>
<path d="M64.125 107.308C64.125 107.308 64.1166 107.308 64.113 107.308C63.9913 107.301 61.1022 107.118 59.6849 106.395C59.5848 106.344 59.5462 106.223 59.5957 106.122C59.6463 106.021 59.7692 105.982 59.8668 106.032C61.2095 106.717 64.1082 106.9 64.1371 106.903C64.248 106.91 64.3324 107.006 64.3263 107.118C64.3203 107.226 64.2311 107.308 64.125 107.308Z" fill="#FF5C5C"/>
<path d="M31.4817 47.2207C33.1028 46.6901 33.809 48.4398 33.9211 48.7859C34.0332 49.132 33.3402 49.6687 32.3736 49.9844C31.4069 50.3013 30.5331 50.277 30.4222 49.931C30.3102 49.5849 29.8618 47.7501 31.4829 47.2195L31.4817 47.2207Z" fill="#14172E"/>
<path d="M31.1321 50.3438C30.7042 50.3438 30.3776 50.2345 30.2932 49.9723C30.022 49.1308 29.9593 47.5753 31.4394 47.0908C33.2931 46.4812 34.0175 48.6499 34.0476 48.7434C34.2067 49.2388 33.3461 49.8071 32.4132 50.1131C31.9733 50.2576 31.5117 50.3438 31.1308 50.3438H31.1321ZM32.0589 47.2583C31.8938 47.2583 31.7154 47.2863 31.5238 47.3494C29.9485 47.8655 30.4836 49.6845 30.5499 49.8897C30.615 50.0925 31.343 50.1799 32.3325 49.8557C33.322 49.5315 33.8596 49.03 33.7933 48.8272C33.7704 48.7556 33.2714 47.2583 32.0589 47.2583Z" fill="#14172E"/>
<path d="M31.9686 48.7325C32.9353 48.4155 33.8091 48.4398 33.92 48.7859C34.032 49.132 33.339 49.6687 32.3724 49.9844C31.4058 50.3013 30.532 50.277 30.4211 49.931C30.309 49.5849 31.002 49.0482 31.9686 48.7325Z" fill="#5C8FCC"/>
<path d="M31.1321 50.3438C30.7043 50.3438 30.3776 50.2346 30.2933 49.9723C30.1342 49.4769 30.9947 48.9086 31.9276 48.6026C32.8605 48.2966 33.8886 48.2468 34.0477 48.7434C34.2068 49.2389 33.3462 49.8071 32.4133 50.1131C31.9734 50.2576 31.5118 50.3438 31.1309 50.3438H31.1321ZM33.2004 48.6451C32.8918 48.6451 32.4808 48.7058 32.0108 48.86C31.02 49.1842 30.4837 49.6857 30.5488 49.8885C30.6139 50.0913 31.3418 50.1787 32.3314 49.8545C33.3209 49.5303 33.8584 49.0288 33.7921 48.826C33.7584 48.7191 33.5415 48.6439 33.1992 48.6439L33.2004 48.6451Z" fill="#14172E"/>
<path d="M64.2444 87.802C64.2444 87.802 67.1684 90.1929 69.5331 90.2318C71.8978 90.2706 72.0605 86.6521 72.0605 86.6521C72.0605 86.6521 65.5244 84.2745 64.2444 87.802Z" fill="#14172E"/>
<path d="M69.5704 90.3678C69.5571 90.3678 69.5439 90.3678 69.5306 90.3678C67.1466 90.3289 64.2805 88.0072 64.16 87.9076C64.1154 87.8712 64.0985 87.8105 64.119 87.7558C64.665 86.2501 66.2354 85.5628 68.6448 85.7693C70.4358 85.9223 72.0906 86.5185 72.1075 86.5246C72.1629 86.5452 72.1991 86.5986 72.1967 86.6581C72.1955 86.6958 72.0014 90.3678 69.5728 90.3678H69.5704ZM64.4046 87.7583C64.8783 88.1286 67.4515 90.063 69.5342 90.097C69.5463 90.097 69.5571 90.097 69.5692 90.097C71.5314 90.097 71.87 87.3151 71.9183 86.7468C71.1216 86.4784 65.6171 84.7505 64.4046 87.7583Z" fill="#14172E"/>
<path d="M65.6786 82.1508L65.1531 115.865H93.6226L90.0309 84.0924L65.6786 82.1508Z" fill="white"/>
<path d="M79.8705 116C79.7969 116 79.7367 115.94 79.7367 115.866C79.7367 115.774 79.6451 106.667 79.2558 104.059C78.8761 101.506 74.8505 99.1482 74.8096 99.1251C74.7457 99.0875 74.724 99.0049 74.7601 98.9406C74.7963 98.875 74.8783 98.8544 74.9433 98.8908C75.1133 98.9891 79.122 101.338 79.5197 104.019C79.9114 106.645 80.0018 115.772 80.003 115.864C80.003 115.939 79.944 116 79.8693 116H79.8705Z" fill="#14172E"/>
<path d="M65.1531 115.865L65.5412 87.0782H66.6934L66.333 115.865H65.1531Z" fill="#14172E"/>
<path d="M88.8918 86.7151L92.2786 115.865H93.6225L90.0308 84.0923L88.8918 86.7151Z" fill="#14172E"/>
<path d="M95.7173 91.5189C95.7173 91.5189 98.1146 90.7867 98.4918 91.1073C99.1198 91.6428 96.9841 92.9178 96.9841 92.9178C96.9841 92.9178 95.6016 92.5997 95.7173 91.5189Z" fill="white"/>
<path d="M96.9841 93.0538C96.9744 93.0538 96.9636 93.0538 96.9539 93.0501C96.4357 92.9311 95.4811 92.4539 95.5836 91.5043C95.5896 91.4509 95.6269 91.4048 95.6788 91.389C96.2573 91.2129 98.1773 90.6616 98.5786 91.0041C98.6967 91.1048 98.7522 91.236 98.7401 91.3853C98.6859 92.0398 97.2203 92.9335 97.0528 93.0331C97.0323 93.0453 97.0082 93.0525 96.9841 93.0525V93.0538ZM95.8451 91.6221C95.827 92.4053 96.7322 92.7089 96.9624 92.7733C97.5493 92.415 98.44 91.7423 98.4714 91.3635C98.4762 91.3016 98.4557 91.2554 98.4039 91.2105C98.2098 91.0453 96.9431 91.2918 95.8439 91.6209L95.8451 91.6221Z" fill="#14172E"/>
<path d="M93.919 85.1852C93.919 85.1852 93.4935 85.8664 92.7294 86.3873C90.4647 87.9282 88.2868 91.2566 90.0416 93.6596C92.8632 97.5235 98.9606 93.7811 98.8919 92.7319C98.822 91.6828 96.3934 92.1029 96.3934 92.1029C96.3934 92.1029 97.9482 90.3847 97.8072 89.2931L99.4017 87.3539L93.9202 85.1852H93.919Z" fill="white"/>
<path d="M93.5117 95.4993C92.2895 95.4993 90.9336 95.1083 89.9332 93.7386C89.3547 92.9469 89.1522 92.0192 89.3294 90.9822C89.6572 89.0685 91.2349 87.2386 92.6535 86.2732C93.3851 85.7754 93.8009 85.1184 93.8045 85.1111C93.8395 85.0565 93.907 85.0334 93.9672 85.0577L99.4488 87.2264C99.4886 87.2422 99.5187 87.2762 99.5295 87.3187C99.5404 87.3612 99.5295 87.4049 99.503 87.4389L97.9446 89.3344C98.0133 90.2136 97.1492 91.3938 96.7213 91.9208C97.2588 91.8638 98.2676 91.8188 98.7461 92.1989C98.9161 92.3337 99.0101 92.5098 99.0245 92.7211C99.0655 93.3294 97.6216 94.4283 95.9969 95.027C95.4461 95.2298 94.5241 95.4981 93.5105 95.4981L93.5117 95.4993ZM93.9697 85.3504C93.8226 85.5592 93.4225 86.0777 92.8042 86.4991C91.4338 87.4316 89.9103 89.1948 89.5946 91.0296C89.4294 91.9913 89.6162 92.8486 90.1502 93.5795C91.8713 95.9365 94.7495 95.1994 95.9065 94.7744C97.5698 94.1624 98.7835 93.1193 98.7594 92.7417C98.7509 92.6081 98.6931 92.5 98.5834 92.4138C98.1158 92.0435 96.8611 92.1601 96.4176 92.2366C96.3633 92.2463 96.3043 92.2183 96.2765 92.1686C96.2488 92.1176 96.256 92.0556 96.2958 92.0119C96.3115 91.9949 97.8072 90.3277 97.6758 89.3101C97.671 89.2725 97.6819 89.2348 97.706 89.2057L99.1812 87.411L93.9721 85.3504H93.9697Z" fill="#14172E"/>
<path d="M32.2398 63.0719C32.2398 63.0719 31.6998 58.4249 30.3017 58.8232C30.0474 58.896 30.1161 61.9232 31.5817 62.8339C32.4218 63.3561 32.6869 63.1399 32.2398 63.0719Z" fill="white"/>
<path d="M32.394 63.3087C32.1722 63.3087 31.8034 63.1302 31.5105 62.9492C30.2329 62.1551 29.9654 59.8358 30.0738 59.0465C30.0955 58.8923 30.1341 58.7296 30.2631 58.6932C30.4836 58.6313 30.6958 58.6677 30.8958 58.8025C31.8625 59.4533 32.2843 62.3712 32.359 62.959C32.5326 63.0015 32.57 63.0695 32.5832 63.1192C32.5965 63.1727 32.57 63.2419 32.5266 63.2747C32.494 63.299 32.4482 63.3099 32.3928 63.3099L32.394 63.3087ZM30.3691 58.9458C30.3101 59.0951 30.2715 59.7885 30.4583 60.6397C30.5849 61.2177 30.9067 62.2559 31.6515 62.7185C31.8275 62.8278 31.9733 62.9007 32.0891 62.9492C32.0011 62.3032 31.5889 59.5918 30.7488 59.0259C30.6259 58.9433 30.5029 58.9154 30.3715 58.9445L30.3691 58.9458Z" fill="#14172E"/>
<path d="M33.6836 61.9719C33.5788 62.0119 33.4763 62.0508 33.3751 62.0896C33.3751 62.0896 30.9862 61.8711 30.4776 61.8711C30.4776 61.8711 29.3181 58.0886 27.8284 58.7649C27.5572 58.8876 28.1322 62.2414 29.9111 63.0101C30.9308 63.4496 32.5157 63.9439 33.6824 64.3179V61.9731L33.6836 61.9719Z" fill="white"/>
<path d="M33.6836 64.4526C33.6703 64.4526 33.6558 64.4502 33.6426 64.4465L33.2665 64.3263C32.1577 63.9718 30.7777 63.531 29.8593 63.1339C28.3141 62.4673 27.6404 59.9428 27.6319 59.0503C27.6295 58.8099 27.6729 58.6872 27.7742 58.6411C28.0502 58.5148 28.3358 58.5172 28.6202 58.6459C29.67 59.1231 30.4197 61.2554 30.5776 61.7375C31.1959 61.7569 33.0797 61.9269 33.3569 61.9524L33.6366 61.8456C33.6775 61.831 33.7245 61.8358 33.7607 61.8613C33.7969 61.8868 33.8186 61.9281 33.8186 61.9731V64.319C33.8186 64.3615 33.7981 64.4028 33.7631 64.4283C33.7402 64.4453 33.7125 64.455 33.6836 64.455V64.4526ZM27.9128 58.8754C27.8682 59.0284 27.9236 59.7473 28.2478 60.6519C28.4841 61.3101 29.0216 62.477 29.9653 62.8838C30.8729 63.276 32.2457 63.7143 33.3485 64.0677L33.5498 64.132V62.1673L33.4244 62.2159C33.4051 62.2232 33.3847 62.2244 33.3642 62.2244C33.3401 62.222 30.9753 62.0058 30.4788 62.0058C30.4197 62.0058 30.3679 61.967 30.3498 61.9099C30.3426 61.8844 29.5604 59.3696 28.5094 58.8912C28.3045 58.7977 28.1092 58.7929 27.9128 58.8742V58.8754Z" fill="#14172E"/>
<path d="M41.302 56.6241C42.1047 53.6612 40.4716 50.6316 37.6549 49.8581L35.4456 49.251L34.4103 50.0524C32.8591 50.6729 31.5888 52.0268 31.103 53.8215C30.6173 55.6175 31.0295 57.434 32.0528 58.7612L32.5409 59.9804L35.1069 60.6859L35.1118 60.6664C37.814 61.2019 40.5354 59.4607 41.3032 56.6241H41.302Z" fill="#FF5C5C"/>
<path d="M36.0856 60.8984C35.7723 60.8984 35.4565 60.8705 35.1407 60.811C35.1178 60.8195 35.0925 60.8231 35.0708 60.8171L32.5048 60.1116C32.4638 60.1006 32.4313 60.0703 32.4156 60.0314L31.9347 58.8293C30.8584 57.4231 30.498 55.5386 30.9729 53.7864C31.4478 52.0329 32.7073 50.594 34.3428 49.9335L35.3625 49.1442C35.395 49.1175 35.4396 49.1102 35.4794 49.1211L37.6886 49.7282C40.5716 50.5212 42.2506 53.6309 41.4298 56.6606C40.7452 59.1875 38.5058 60.8984 36.0844 60.8984H36.0856ZM35.1166 60.5329C35.1238 60.5329 35.1299 60.5329 35.1371 60.5353C37.7863 61.0599 40.4318 59.3259 41.1731 56.5901C41.9541 53.7038 40.3607 50.7434 37.6211 49.9893L35.4758 49.4004L34.4935 50.1605C34.4838 50.1678 34.473 50.1739 34.4609 50.1787C32.8953 50.8053 31.6876 52.1811 31.2332 53.858C30.7788 55.5349 31.1248 57.3381 32.1589 58.6787C32.1673 58.6884 32.1733 58.6993 32.177 58.7115L32.6398 59.8687L35.0792 60.539C35.0913 60.5353 35.1033 60.5329 35.1154 60.5329H35.1166Z" fill="#FF5C5C"/>
<path d="M36.9822 68.745C36.9822 68.745 37.9355 63.4338 42.8169 60.9081L43.1399 68.1161L36.9834 68.745H36.9822Z" fill="#14172E"/>
<path d="M36.9823 68.8799C36.9449 68.8799 36.9088 68.8641 36.8835 68.8361C36.8545 68.8046 36.8425 68.7621 36.8497 68.7208C36.8593 68.6674 37.8718 63.3148 42.7543 60.7879C42.7953 60.7672 42.8435 60.7672 42.8833 60.7915C42.923 60.8146 42.9483 60.8571 42.9508 60.902L43.2738 68.11C43.2774 68.1816 43.2244 68.2436 43.1532 68.2509L36.9967 68.8799C36.9967 68.8799 36.9883 68.8799 36.9835 68.8799H36.9823ZM42.6916 61.1267C38.5781 63.3634 37.3704 67.6656 37.1522 68.5909L42.999 67.9934L42.6916 61.1267Z" fill="#14172E"/>
<path d="M28.3261 58.5037C28.0549 58.6264 29.0433 62.5777 30.8222 63.3451C32.6012 64.1125 36.0989 65.1617 36.0989 65.1617L39.2748 67.5939L42.2988 63.7616C42.2988 63.7616 41.3165 63.0974 40.5668 62.4744C40.5668 62.4744 39.9461 61.7872 38.8553 61.5054C36.5991 60.9238 35.3492 61.4545 34.2813 61.8637C34.2813 61.8637 31.8925 61.6451 31.3839 61.6451C31.3839 61.6451 29.8146 57.8262 28.3261 58.5025V58.5037Z" fill="white"/>
<path d="M39.2747 67.7298C39.247 67.7298 39.2181 67.7213 39.194 67.7019L36.0374 65.2843C35.7264 65.1908 32.4577 64.1987 30.7692 63.4701C29.1288 62.761 28.1561 59.5687 28.1477 58.6847C28.1477 58.5693 28.1598 58.4309 28.2718 58.3799C28.5382 58.2585 28.8227 58.256 29.1179 58.3738C30.2726 58.8352 31.2754 61.0464 31.4754 61.5115C32.0865 61.5297 33.986 61.7009 34.2644 61.7264L34.3404 61.6973C35.3769 61.2978 36.6665 60.8012 38.8902 61.3743C40.0075 61.6621 40.6427 62.3542 40.668 62.3834C41.3887 62.9808 42.365 63.6414 42.3759 63.6486C42.4072 63.6693 42.4277 63.7033 42.4337 63.7397C42.4397 63.7774 42.4301 63.815 42.406 63.8454L39.3832 67.6776C39.3567 67.7116 39.3181 67.7286 39.2783 67.7286L39.2747 67.7298ZM28.4177 58.6118C28.3345 59.0635 29.2433 62.5169 30.8752 63.2212C32.6265 63.9777 36.1025 65.022 36.1374 65.0329C36.1531 65.0378 36.1675 65.0451 36.1808 65.0548L39.2518 67.4068L42.1035 63.7919C41.8166 63.594 41.073 63.0719 40.4812 62.5801C40.4607 62.5606 39.8581 61.9049 38.8215 61.6378C36.681 61.0865 35.4866 61.5455 34.4332 61.9511L34.3283 61.9911C34.309 61.9984 34.2885 62.0009 34.268 61.9997C34.2439 61.9972 31.8792 61.7811 31.3826 61.7811C31.3284 61.7811 31.279 61.7483 31.2585 61.6973C31.2476 61.6706 30.175 59.089 29.0155 58.6264C28.801 58.5414 28.6045 58.5365 28.4153 58.6118H28.4177Z" fill="#14172E"/>
<path d="M39.0928 56.0169C38.2901 58.9798 35.3565 60.7551 32.541 59.9803C29.7243 59.2068 28.0924 56.1772 28.8939 53.2144C29.6966 50.2515 32.6302 48.4762 35.4457 49.251C38.2624 50.0244 39.8944 53.0541 39.0928 56.0169Z" fill="white"/>
<path d="M33.8861 60.2985C33.4245 60.2985 32.9616 60.2366 32.506 60.1115C29.6231 59.3198 27.9441 56.21 28.7649 53.1792C29.1614 51.7123 30.0786 50.4823 31.3466 49.7161C32.6157 48.9486 34.0837 48.7373 35.4818 49.1211C36.88 49.5048 38.0382 50.4386 38.7445 51.7488C39.4496 53.0578 39.6195 54.5865 39.2218 56.0534C38.8252 57.5202 37.908 58.7503 36.6401 59.5165C35.7856 60.0338 34.8394 60.2985 33.8849 60.2985H33.8861ZM34.1006 49.2036C33.1943 49.2036 32.2963 49.455 31.4828 49.9468C30.2751 50.6778 29.4013 51.8508 29.0228 53.2496C28.2418 56.136 29.8352 59.0964 32.576 59.8504C33.9017 60.2147 35.2962 60.0144 36.5027 59.2846C37.7104 58.5536 38.5842 57.3806 38.9627 55.9817C39.3423 54.5829 39.1808 53.1258 38.5083 51.8775C37.8369 50.6316 36.7365 49.7452 35.4107 49.3809C34.978 49.2619 34.5393 49.2036 34.1006 49.2036Z" fill="#14172E"/>
<path d="M42.2878 51.28C42.8615 52.8962 41.1452 53.66 40.8053 53.7826C40.4654 53.9053 39.9122 53.2228 39.5699 52.2587C39.2276 51.2946 39.2264 50.4142 39.5663 50.2916C39.9062 50.1689 41.7128 49.6638 42.2866 51.28H42.2878Z" fill="#14172E"/>
<path d="M40.721 53.932C40.5643 53.932 40.351 53.841 40.0858 53.5131C39.8436 53.2132 39.6158 52.7845 39.4458 52.3037C39.2759 51.8228 39.1807 51.3456 39.1807 50.9595C39.1795 50.4045 39.3663 50.22 39.523 50.1641C39.6326 50.124 40.2148 49.9322 40.8548 49.999C41.6177 50.0803 42.1577 50.5078 42.4156 51.2351C42.6735 51.9625 42.5253 52.6364 41.9865 53.1877C41.5333 53.6503 40.9633 53.8713 40.8524 53.9102C40.815 53.9235 40.7716 53.932 40.7222 53.932H40.721ZM40.5776 50.2552C40.0822 50.2552 39.6652 50.3997 39.6122 50.4191C39.5362 50.447 39.447 50.6049 39.447 50.9595C39.447 51.3165 39.5362 51.7609 39.6977 52.2138C39.858 52.6655 40.0702 53.0675 40.2931 53.3431C40.5161 53.6187 40.6848 53.6819 40.7608 53.6552C40.8222 53.6333 41.373 53.4269 41.7937 52.997C42.2613 52.5198 42.3843 51.9576 42.1613 51.3262C41.9371 50.6948 41.4875 50.339 40.8259 50.2685C40.7415 50.26 40.6583 50.2552 40.5776 50.2552Z" fill="#14172E"/>
<path d="M34.5148 51.2024L34.2473 51.1289L33.3236 54.5402L33.591 54.6137L34.5148 51.2024Z" fill="#5C8FCC"/>
<path d="M33.592 54.748C33.5799 54.748 33.5679 54.7468 33.557 54.7432L33.2894 54.6703C33.2171 54.6509 33.1761 54.5768 33.1954 54.5039L34.1187 51.093C34.1379 51.0214 34.2127 50.9801 34.2838 50.9983L34.5501 51.0712C34.5851 51.0809 34.614 51.104 34.6309 51.1343C34.649 51.1659 34.6538 51.2023 34.6442 51.2375L33.7209 54.6484C33.7113 54.6837 33.6884 54.7128 33.6582 54.7298C33.6378 54.7419 33.6149 54.748 33.592 54.748ZM33.4895 54.4444L33.4979 54.4469L34.3513 51.297L34.3428 51.2946L33.4895 54.4444Z" fill="#5C8FCC"/>
<path d="M35.7222 55.2277L35.7927 54.9586L33.3847 54.3176L33.3141 54.5867L35.7222 55.2277Z" fill="#5C8FCC"/>
<path d="M35.7229 55.3649C35.712 55.3649 35.7 55.3636 35.6891 55.36L33.281 54.7189C33.246 54.7091 33.2171 54.6873 33.199 54.6557C33.181 54.6254 33.1761 54.5877 33.1858 54.5537L33.2569 54.2841C33.2762 54.2125 33.3473 54.1688 33.4208 54.1882L35.8289 54.8294C35.8639 54.8391 35.8928 54.8609 35.9109 54.8925C35.929 54.9229 35.9338 54.9605 35.9241 54.9945L35.853 55.2641C35.8374 55.3248 35.7831 55.3649 35.7241 55.3649H35.7229ZM33.4787 54.4918L35.6276 55.0637L35.6301 55.0552L33.4811 54.4833L33.4787 54.4918Z" fill="#5C8FCC"/>
<path d="M33.8993 54.5902C33.8246 54.867 33.5775 55.0407 33.3497 54.9775C33.1207 54.9144 32.9966 54.6387 33.0713 54.3619C33.146 54.085 33.3931 53.9114 33.6209 53.9745C33.8499 54.0377 33.974 54.3133 33.8993 54.5902Z" fill="#14172E"/>
<path d="M33.446 55.1257C33.4014 55.1257 33.3568 55.1196 33.3147 55.1075C33.0146 55.0249 32.847 54.674 32.9422 54.3255C32.9868 54.1616 33.0833 54.0207 33.2122 53.9284C33.3496 53.8325 33.5087 53.8009 33.657 53.8422C33.7883 53.8786 33.9004 53.9685 33.9727 54.0948C34.0583 54.2478 34.08 54.4408 34.0294 54.6242C33.9848 54.7881 33.8884 54.929 33.7594 55.0201C33.6618 55.0893 33.5545 55.1245 33.446 55.1245V55.1257ZM33.5256 54.096C33.4726 54.096 33.4159 54.1142 33.3653 54.1506C33.2869 54.2053 33.2279 54.2939 33.2002 54.3971C33.1447 54.6011 33.2279 54.8039 33.3846 54.8464C33.4569 54.8658 33.534 54.8501 33.6051 54.7991C33.6835 54.7444 33.7425 54.657 33.7703 54.5526C33.8016 54.4372 33.7907 54.3194 33.7389 54.2283C33.7136 54.1834 33.6666 54.1251 33.5871 54.1033C33.5666 54.0984 33.5473 54.0948 33.5268 54.0948L33.5256 54.096Z" fill="#14172E"/>
<path d="M75.4978 44.2336C75.4978 44.2336 68.4362 47.1211 65.2519 51.1562C62.4328 54.7298 56.7777 69.5611 56.7777 69.5611L42.8159 60.9081C42.8159 60.9081 40.8706 65.9158 36.9812 68.7451C36.9812 68.7451 52.458 80.9996 57.9383 80.6365C63.4187 80.2734 66.1872 72.1572 66.1872 72.1572L64.2419 87.8032C64.2419 87.8032 70.4357 88.2391 77.4227 89.9075C84.4096 91.5772 91.0361 86.2793 91.0361 86.2793L88.5376 64.0142L99.6465 70.2811L92.4041 85.0456C92.4041 85.0456 97.1782 89.0891 100.636 89.0891C100.636 89.0891 110.999 72.3612 109.186 67.8465C107.24 62.9954 87.7614 44.7618 81.3904 44.7667L75.4954 44.2336H75.4978Z" fill="#5C8FCC"/>
<path d="M80.2141 90.3629C79.2897 90.3629 78.3448 90.2646 77.3938 90.0375C70.4973 88.3897 64.2962 87.9404 64.2347 87.9368C64.1986 87.9343 64.1636 87.9161 64.1407 87.8882C64.1178 87.8591 64.107 87.8226 64.1118 87.785L65.9281 73.1723C64.9796 75.3568 62.2991 80.4835 57.9505 80.7713C57.8685 80.7774 57.7829 80.7798 57.6962 80.7798C52.0338 80.7798 37.5261 69.3461 36.9017 68.8519C36.8692 68.8252 36.8487 68.7851 36.8499 68.7426C36.8499 68.7001 36.8716 68.6601 36.9053 68.6358C40.7188 65.8611 42.6737 60.9093 42.693 60.8595C42.7075 60.8219 42.7376 60.794 42.775 60.7806C42.8123 60.7685 42.8545 60.7733 42.8883 60.794L56.7127 69.3607C57.3503 67.6984 62.469 54.4688 65.1483 51.0724C68.317 47.0556 75.3774 44.1377 75.4485 44.1085C75.4678 44.1 75.4895 44.0976 75.5112 44.0988L81.4061 44.6307H81.4085C87.8941 44.6307 107.43 63.1011 109.314 67.7955C111.13 72.3223 101.177 88.4747 100.753 89.1596C100.729 89.1996 100.686 89.2227 100.64 89.2227C97.1734 89.2227 92.5187 85.3139 92.321 85.1476C92.274 85.1075 92.2595 85.0395 92.2873 84.9836L99.473 70.3346L88.7028 64.2595L91.1724 86.2623C91.1772 86.3084 91.1591 86.3546 91.123 86.3837C91.0651 86.4299 86.0669 90.3629 80.2153 90.3629H80.2141ZM64.395 87.6769C65.3604 87.7546 71.1168 88.2598 77.4565 89.774C83.9541 91.3246 90.2263 86.7274 90.8964 86.2161L88.4063 64.0276C88.4003 63.9766 88.4232 63.928 88.4654 63.9001C88.5076 63.8722 88.5618 63.8709 88.6052 63.894L99.7153 70.1609C99.778 70.1961 99.8021 70.2751 99.7708 70.3394L92.5753 85.0079C93.2117 85.5301 97.447 88.8985 100.565 88.9519C101.263 87.8129 110.776 72.156 109.066 67.8963C107.195 63.2371 87.8302 44.9002 81.3965 44.9002H81.3941L75.5208 44.3708C75.0182 44.5809 68.3796 47.4114 65.3592 51.24C62.5859 54.7553 56.9634 69.4603 56.9067 69.6084C56.8923 69.6461 56.8621 69.6752 56.8248 69.6873C56.7874 69.7007 56.7452 69.6958 56.7115 69.674L42.8835 61.1048C42.5267 61.9499 40.6176 66.1866 37.2079 68.7463C38.7422 69.9448 52.4147 80.5078 57.695 80.5078C57.7769 80.5078 57.8565 80.5054 57.9336 80.5005C63.2621 80.1472 66.0366 72.1924 66.0643 72.1123C66.086 72.0467 66.1523 72.0091 66.2222 72.0248C66.2897 72.0406 66.3331 72.105 66.3247 72.173L64.3974 87.6769H64.395Z" fill="#5C8FCC"/>
<path d="M84.5157 43.3459C84.3288 43.4297 84.1348 43.5111 83.9371 43.5803C83.9299 42.8165 83.8479 42.2166 83.8479 42.2166L83.2803 43.7867C80.3033 44.6063 76.479 44.134 74.0262 43.6568L73.7888 42.0126L73.7032 43.5936C73.2175 43.4953 72.7981 43.4006 72.463 43.3204L72.1135 42.2166L72.0315 43.2123C71.7362 43.1383 71.5735 43.0897 71.5735 43.0897C71.5735 43.0897 69.615 30.4952 71.3602 26.8438C73.2995 22.7966 78.0759 24.4675 78.0759 24.4675C80.6371 24.2465 82.9066 24.9022 83.9878 26.6435C87.213 31.837 84.5169 43.3459 84.5169 43.3459H84.5157Z" fill="#14172E"/>
<path d="M79.4873 44.372C77.5276 44.372 75.563 44.0939 74.001 43.7903C73.9455 43.7794 73.9021 43.7333 73.8937 43.6774L73.8503 43.3763L73.8383 43.6021C73.8358 43.641 73.8178 43.6774 73.7864 43.7017C73.7551 43.726 73.7141 43.7357 73.6779 43.7272C73.2428 43.6398 72.8246 43.5475 72.4329 43.4528C72.3871 43.4418 72.351 43.4078 72.3365 43.3629L72.1931 42.9088L72.1665 43.2245C72.1629 43.2646 72.1424 43.2998 72.1111 43.3228C72.0786 43.3471 72.04 43.3544 72.0002 43.3447C71.7013 43.2694 71.5362 43.2208 71.5362 43.2208C71.4868 43.2063 71.4494 43.1638 71.4422 43.1116C71.3614 42.5955 69.4969 30.4332 71.2397 26.7855C73.1296 22.8403 77.6903 24.2016 78.0928 24.3315C80.8866 24.0947 83.073 24.9143 84.1023 26.573C85.4558 28.7515 85.9584 32.2437 85.5956 36.9539C85.3268 40.4499 84.6543 43.3483 84.6471 43.3775C84.6374 43.4188 84.6097 43.4528 84.5711 43.4698C84.3602 43.5657 84.1662 43.6434 83.9818 43.709C83.9408 43.7248 83.8962 43.7175 83.86 43.692C83.8239 43.6665 83.8034 43.6264 83.8034 43.5827C83.801 43.301 83.7877 43.0399 83.772 42.825L83.4068 43.8353C83.3912 43.8766 83.3586 43.9081 83.3165 43.9191C82.1244 44.2469 80.8071 44.3732 79.4885 44.3732L79.4873 44.372ZM74.1456 43.5426C76.2705 43.9494 80.1659 44.4801 83.1778 43.675L83.7214 42.1705C83.7431 42.1122 83.8022 42.0746 83.8624 42.0818C83.9239 42.0879 83.9733 42.1365 83.9818 42.1984C83.9854 42.2215 84.0517 42.7181 84.0685 43.3872C84.1746 43.3459 84.2855 43.2998 84.4012 43.2488C84.6109 42.3101 86.9093 31.6002 83.8745 26.7151C82.897 25.139 80.7878 24.3679 78.088 24.6011C78.0687 24.6023 78.0507 24.6011 78.0326 24.5938C78.0205 24.5901 76.8418 24.1846 75.4461 24.272C73.596 24.3886 72.2618 25.2726 71.482 26.9009C69.8488 30.3167 71.5278 41.8706 71.6941 42.9816C71.7447 42.9962 71.8182 43.0156 71.9122 43.0399L71.9809 42.2033C71.9858 42.1389 72.0364 42.0879 72.0991 42.0794C72.169 42.0709 72.2232 42.111 72.2425 42.1729L72.5691 43.2038C72.8897 43.2803 73.2284 43.3556 73.5779 43.4273L73.6551 42.0029C73.6587 41.9337 73.7141 41.8778 73.784 41.8754C73.7852 41.8754 73.7876 41.8754 73.79 41.8754C73.8563 41.8754 73.913 41.924 73.9226 41.9908L74.1456 43.539V43.5426Z" fill="#14172E"/>
<path d="M81.9966 34.9892H74.354V47.1211H81.9966V34.9892Z" fill="white"/>
<path d="M81.9966 47.2559H74.354C74.2805 47.2559 74.2202 47.1952 74.2202 47.1211V34.9892C74.2202 34.9139 74.2805 34.8544 74.354 34.8544H81.9966C82.0701 34.8544 82.1304 34.9151 82.1304 34.9892V47.1211C82.1304 47.1964 82.0701 47.2559 81.9966 47.2559ZM74.489 46.9851H81.8628V35.124H74.489V46.9851Z" fill="#14172E"/>
<path d="M74.8782 39.2598C74.8782 39.2598 75.4639 42.0721 78.1396 42.0757C81.3926 42.0794 81.3926 38.4742 81.3926 38.4742L74.8782 39.2598Z" fill="#14172E"/>
<path d="M78.1445 42.2118H78.1397C75.388 42.2093 74.7529 39.3181 74.7468 39.289C74.7396 39.2526 74.7468 39.2137 74.7697 39.1821C74.7914 39.1518 74.8252 39.1311 74.8637 39.1263L81.3782 38.3406C81.4156 38.3346 81.4541 38.3479 81.4831 38.3734C81.512 38.3989 81.5277 38.4366 81.5277 38.4742C81.5277 38.5458 81.5156 40.2458 80.4309 41.3375C79.8547 41.9167 79.0858 42.2105 78.1445 42.2105V42.2118ZM75.0445 39.3764C75.2024 39.9423 75.9183 41.9385 78.1384 41.941H78.1433C80.8804 41.941 81.2119 39.3072 81.2516 38.6284L75.0433 39.3764H75.0445Z" fill="#14172E"/>
<path d="M77.8758 40.9417C74.395 40.9417 71.5723 38.0978 71.5723 34.591V32.0507C71.5723 28.5439 74.3938 25.7 77.8758 25.7C81.3566 25.7 84.1793 28.5426 84.1793 32.0507V34.591C84.1793 38.0978 81.3578 40.9417 77.8758 40.9417Z" fill="white"/>
<path d="M81.0843 35.9413C79.9537 35.9413 78.9341 34.9905 78.8871 34.9456C78.8437 34.9043 78.8316 34.8399 78.8594 34.7865C78.8907 34.7221 79.6452 33.2213 80.9047 32.993C82.1606 32.7659 83.3887 33.9098 83.4406 33.9583C83.484 33.9996 83.496 34.064 83.4683 34.1174C83.4369 34.1818 82.6825 35.6826 81.4229 35.9109C81.3097 35.9315 81.1964 35.9413 81.0843 35.9413ZM79.1486 34.8168C79.4282 35.0536 80.4141 35.8198 81.3759 35.645C82.3341 35.4713 82.9982 34.4088 83.179 34.0883C82.8994 33.8515 81.9099 33.0853 80.9517 33.2601C79.9935 33.4338 79.3294 34.4963 79.1486 34.8168Z" fill="#14172E"/>
<path d="M79.6983 33.8503C79.6983 33.8503 79.5271 35.101 80.1912 35.6147C80.1912 35.6147 81.0361 36.2922 82.3161 35.3402C82.3161 35.3402 82.6162 33.4569 81.7544 33.1654C81.7544 33.1654 80.5709 32.8777 79.6983 33.8503Z" fill="#14172E"/>
<path d="M74.7782 35.9413C74.6661 35.9413 74.5528 35.9315 74.4395 35.9109C73.1812 35.6838 72.4255 34.1818 72.3942 34.1174C72.3676 34.064 72.3785 33.9996 72.4231 33.9583C72.4749 33.9098 73.7103 32.7659 74.959 32.993C76.2173 33.2201 76.973 34.7221 77.0043 34.7865C77.0308 34.8399 77.02 34.9043 76.9754 34.9456C76.9284 34.9905 75.9087 35.9413 74.7782 35.9413ZM72.6834 34.0883C72.863 34.4088 73.5283 35.4713 74.4865 35.645C75.4411 35.8174 76.4342 35.0536 76.7138 34.8168C76.5342 34.4975 75.8689 33.4338 74.9108 33.2601C73.9514 33.0853 72.9618 33.8515 72.6834 34.0883Z" fill="#14172E"/>
<path d="M76.1643 33.8503C76.1643 33.8503 76.3354 35.101 75.6713 35.6147C75.6713 35.6147 74.8264 36.2922 73.5464 35.3402C73.5464 35.3402 73.2463 33.4569 74.1081 33.1654C74.1081 33.1654 75.2917 32.8777 76.1643 33.8503Z" fill="#14172E"/>
<path d="M82.4076 32.3603C82.4245 32.5777 79.5222 32.3118 79.4933 32.1685C79.4656 32.024 80.3707 31.3756 80.9505 31.4715C81.5302 31.5674 82.3787 31.9997 82.4076 32.3603Z" fill="#14172E"/>
<path d="M73.0101 32.3603C72.9932 32.5777 75.8955 32.3118 75.9244 32.1685C75.9521 32.024 75.047 31.3756 74.4672 31.4715C73.8875 31.5674 73.039 31.9997 73.0101 32.3603Z" fill="#14172E"/>
<path d="M86.0438 32.2717C85.2881 31.5832 84.5227 31.7264 83.9442 32.0446L83.5332 35.8319C85.2302 36.1974 87.3768 33.4871 86.0438 32.2717Z" fill="white"/>
<path d="M83.832 36.0007C83.7922 36.0007 83.7524 35.9995 83.7139 35.9971C83.6404 35.9922 83.5837 35.9291 83.5873 35.8538C83.5921 35.7797 83.6536 35.719 83.7295 35.7275C84.8685 35.8052 86.0268 34.6844 86.263 33.6814C86.3932 33.1277 86.2172 32.5947 85.793 32.2559C85.3289 31.8867 84.6721 31.8272 84.1176 32.1065C84.0538 32.1405 83.9718 32.1126 83.9381 32.0458C83.9055 31.979 83.932 31.8977 83.9983 31.8637C84.6455 31.5382 85.4145 31.6087 85.9605 32.0434C86.4691 32.4489 86.68 33.0852 86.5258 33.7434C86.269 34.8362 85.0794 35.9995 83.8344 36.0007H83.832Z" fill="#14172E"/>
<path d="M84.5215 34.4234C84.4564 34.4234 84.4009 34.3772 84.3889 34.3104C84.3841 34.2813 84.272 33.594 84.6577 33.1374C84.877 32.8776 85.2 32.744 85.6375 32.7537C85.7111 32.7537 85.7713 32.8157 85.7701 32.8897C85.7701 32.9638 85.7099 33.0233 85.6363 33.0233C85.6279 33.0221 85.6231 33.0233 85.6158 33.0233C85.2796 33.0233 85.0253 33.1204 84.8638 33.3111C84.5588 33.6705 84.6528 34.2582 84.6528 34.2643C84.6649 34.3384 84.6167 34.4076 84.5432 34.4197C84.5347 34.4209 84.5275 34.4222 84.5203 34.4222L84.5215 34.4234Z" fill="#14172E"/>
<path d="M78.135 36.5362H78.1314C77.6902 36.5229 77.4154 36.3954 77.3142 36.1574C77.1479 35.7676 77.536 35.2515 77.6637 35.0961V33.4131C77.6637 33.3378 77.724 33.2783 77.7975 33.2783C77.871 33.2783 77.9313 33.339 77.9313 33.4131V35.1459C77.9313 35.1787 77.9192 35.2115 77.8975 35.2357C77.7782 35.3717 77.4588 35.8125 77.5601 36.0493C77.6312 36.2145 77.9144 36.257 78.1386 36.2642C78.2121 36.2667 78.2712 36.3286 78.2688 36.4039C78.2664 36.478 78.2073 36.535 78.135 36.535V36.5362Z" fill="#14172E"/>
<path d="M77.7686 37.5477C77.4504 37.5477 77.1949 37.4761 77.172 37.47C77.1009 37.4494 77.0587 37.3753 77.0792 37.3024C77.0996 37.2308 77.1744 37.1883 77.2455 37.2089C77.2551 37.2114 78.3194 37.5052 78.6822 36.8204C78.7171 36.7536 78.7991 36.7293 78.8642 36.7645C78.9292 36.7997 78.9546 36.8811 78.9196 36.9479C78.6617 37.436 78.1663 37.5477 77.7698 37.5477H77.7686Z" fill="#14172E"/>
<path d="M71.5735 32.0507C71.5735 32.0507 78.2507 29.5396 79.4933 27.2154C79.4933 27.2154 81.5676 31.9281 84.1806 32.0507C84.1806 32.0507 84.506 29.2154 83.5345 26.8912C83.1223 25.9028 78.2953 25.2155 78.2953 25.2155L73.4983 26.3242C73.4983 26.3242 70.5683 29.5408 71.5747 32.0519L71.5735 32.0507Z" fill="#14172E"/>
<path d="M84.3554 32.2328C83.2526 32.2328 82.292 31.8989 81.4917 31.2371C79.3716 29.4849 79.1041 26.0801 79.0932 25.9368C79.0872 25.8627 79.1426 25.7971 79.2174 25.7923C79.2981 25.7826 79.356 25.8433 79.3608 25.9174C79.3632 25.9514 79.632 29.3513 81.6628 31.0295C82.5776 31.786 83.7214 32.0859 85.0641 31.9171C85.1424 31.9074 85.2051 31.9608 85.2136 32.0349C85.2232 32.109 85.1702 32.177 85.0966 32.1855C84.8423 32.217 84.5953 32.2328 84.3542 32.2328H84.3554Z" fill="#14172E"/>
<path d="M70.878 31.9159C70.8057 31.9159 70.7466 31.8588 70.7442 31.7859C70.7418 31.7107 70.7997 31.6487 70.8732 31.6451C75.0024 31.4824 77.2996 29.8334 78.5001 28.4782C79.8018 27.009 80.132 25.5579 80.1356 25.5433C80.1525 25.4705 80.2248 25.4255 80.2959 25.4401C80.3683 25.4559 80.4141 25.5288 80.3984 25.6016C80.3851 25.6611 78.9943 31.5965 70.884 31.9159H70.8792H70.878Z" fill="#14172E"/>
<path d="M69.6029 32.2717C70.3586 31.5832 71.124 31.7264 71.7025 32.0446L72.1135 35.8319C70.4165 36.1974 68.2699 33.4871 69.6029 32.2717Z" fill="white"/>
<path d="M71.8146 36.0007C70.5696 36.0007 69.38 34.8362 69.1233 33.7434C68.969 33.0852 69.1799 32.4502 69.6885 32.0434C70.2333 31.6099 71.0047 31.5382 71.6507 31.8637C71.717 31.8977 71.7435 31.9778 71.711 32.0458C71.6784 32.1126 71.5953 32.1405 71.5314 32.1065C70.977 31.8272 70.3189 31.8855 69.8561 32.2559C69.4318 32.5947 69.2558 33.1277 69.386 33.6814C69.615 34.6541 70.713 35.7299 71.8182 35.7299C71.852 35.7299 71.8857 35.7299 71.9195 35.7275C71.9882 35.7202 72.0569 35.7797 72.0617 35.8538C72.0653 35.9291 72.0087 35.9922 71.9351 35.9971C71.8954 35.9995 71.8556 36.0007 71.817 36.0007H71.8146Z" fill="#14172E"/>
<path d="M71.1251 34.4234C71.1179 34.4234 71.1106 34.4234 71.1022 34.4209C71.0287 34.4088 70.9805 34.3384 70.9925 34.2655C70.9925 34.2594 71.0877 33.6717 70.7816 33.3123C70.6165 33.118 70.3453 33.0233 70.0102 33.0245H70.009C69.9355 33.0245 69.8752 32.965 69.8752 32.8909C69.8752 32.8169 69.9343 32.7549 70.0078 32.7549C70.4369 32.7574 70.7683 32.88 70.9877 33.1387C71.3734 33.5952 71.2625 34.2825 71.2565 34.3117C71.2456 34.3772 71.189 34.4246 71.1239 34.4246L71.1251 34.4234Z" fill="#14172E"/>
<path d="M77.8735 47.1467C77.8735 47.1467 76.4042 50.5734 73.6647 49.1138C72.2099 48.3391 71.5735 45.8097 74.3288 44.7667C74.3288 44.7667 74.1793 46.7107 77.8735 47.1479V47.1467Z" fill="white"/>
<path d="M74.9892 49.6104C74.5384 49.6104 74.0744 49.4841 73.6007 49.2328C72.7691 48.7896 72.2291 47.8339 72.2869 46.9086C72.3231 46.3294 72.6317 45.2633 74.2805 44.6392C74.3226 44.6222 74.3721 44.6294 74.4082 44.6574C74.4444 44.6853 74.4649 44.7302 74.4612 44.7764C74.4564 44.8504 74.3817 46.5978 77.8878 47.0119C77.93 47.0167 77.9674 47.0422 77.9891 47.0786C78.0095 47.1151 78.0132 47.16 77.9963 47.2001C77.965 47.2717 77.2261 48.9632 75.7955 49.4708C75.5327 49.5643 75.2627 49.6104 74.9879 49.6104H74.9892ZM74.2033 44.9609C73.1921 45.392 72.6088 46.0841 72.5557 46.9256C72.5039 47.7477 72.986 48.5977 73.7272 48.9936C74.4191 49.3627 75.0844 49.4368 75.7075 49.2158C76.779 48.8357 77.4515 47.687 77.6709 47.2571C74.73 46.8564 74.2696 45.4879 74.2033 44.9609Z" fill="#14172E"/>
<path d="M77.771 47.1466C77.771 47.1466 79.5741 50.9351 82.3136 49.4756C83.7684 48.7009 84.0817 45.8352 81.9954 44.7654C81.9954 44.7654 81.4639 46.7094 77.7698 47.1466H77.771Z" fill="white"/>
<path d="M81.0637 49.9455C80.7973 49.9455 80.5322 49.9018 80.2694 49.8144C78.652 49.2777 77.6914 47.2899 77.6504 47.2049C77.6311 47.166 77.6335 47.1199 77.654 47.081C77.6745 47.0422 77.7131 47.0167 77.7553 47.0118C81.3011 46.5929 81.8616 44.7472 81.8664 44.729C81.8773 44.6901 81.905 44.6573 81.9423 44.6415C81.9785 44.6258 82.0219 44.6258 82.0568 44.6452C83.0391 45.1491 83.608 46.0829 83.6165 47.2085C83.6249 48.2528 83.138 49.1902 82.3762 49.5958C81.9387 49.829 81.4988 49.9455 81.0625 49.9455H81.0637ZM77.9806 47.2571C78.2482 47.744 79.1088 49.1453 80.3538 49.5582C80.9757 49.7646 81.6145 49.6966 82.2521 49.3566C82.915 49.0032 83.3561 48.1411 83.3489 47.211C83.3417 46.242 82.8764 45.4296 82.0677 44.9585C81.858 45.4357 80.9926 46.8467 77.9806 47.2559V47.2571Z" fill="#14172E"/>
<path d="M94.7543 93.367C94.6941 93.367 94.6386 93.3245 94.6242 93.2625C94.6073 93.1897 94.6519 93.1168 94.7242 93.0998C94.9809 93.0391 95.8318 92.3919 96.3091 91.9972C96.3658 91.9499 96.4501 91.9584 96.4984 92.0155C96.5454 92.0737 96.5369 92.1587 96.4791 92.2061C96.3489 92.3142 95.187 93.2674 94.7869 93.3621C94.776 93.3645 94.7664 93.3657 94.7555 93.3657L94.7543 93.367Z" fill="#14172E"/>
<path d="M59.4098 80.3028C58.3552 80.6938 56.9422 80.8886 55.4549 80.1444C55.4649 80.1333 55.4758 80.1213 55.4876 80.1085C55.563 80.0267 55.675 79.9119 55.8199 79.7815C56.11 79.5204 56.5305 79.1982 57.053 78.9511C58.0705 78.4699 59.4795 78.2702 61.0859 79.3802C61.0786 79.3858 61.071 79.3917 61.063 79.3979C60.9812 79.4605 60.8604 79.5485 60.7056 79.6492C60.3957 79.8507 59.9506 80.1024 59.4098 80.3028Z" fill="#417CC3" stroke="#0F1217" stroke-width="0.2"/>
<path d="M55.1915 80.0913L55.2692 80.1542C55.2789 80.1422 55.9432 79.3282 57.0247 78.8247C58.0993 78.3244 59.5878 78.1284 61.2713 79.3466L61.2715 79.3468C61.2794 79.3525 61.2855 79.3625 61.2866 79.3744C61.2865 79.3863 61.2815 79.3961 61.2747 79.402C61.2366 79.4341 59.6388 80.7806 57.5478 80.7806C56.8361 80.7806 56.0666 80.625 55.2806 80.207L55.2806 80.207L55.2786 80.206C55.2725 80.2029 55.2657 80.196 55.2628 80.1824C55.2607 80.1726 55.2635 80.1614 55.2698 80.1535L55.1915 80.0913ZM55.1915 80.0913C55.218 80.0585 57.8949 76.78 61.3299 79.2656L55.2336 80.2953C55.1975 80.2771 55.1734 80.2431 55.1649 80.203C55.1565 80.163 55.1674 80.1217 55.1915 80.0913ZM55.4368 80.0666L55.3474 80.1652L55.4669 80.2237C58.0844 81.5031 60.4966 79.9049 61.0862 79.4621L61.1982 79.378L61.0823 79.2994C59.6468 78.326 58.3616 78.3714 57.3706 78.7375C56.3855 79.1015 55.697 79.7798 55.4368 80.0666Z" fill="#417CC3" stroke="#0F1217" stroke-width="0.2"/>
<path d="M109.03 71.3471C109.022 71.3683 109.014 71.3875 109.007 71.4046C107.573 70.6006 107.29 69.2146 107.377 67.9964C107.421 67.3742 107.562 66.8012 107.692 66.383C107.758 66.1742 107.82 66.0045 107.866 65.8874C107.875 65.8646 107.883 65.8438 107.89 65.8251C109.21 66.8895 109.49 68.2809 109.434 69.4257C109.405 70.0131 109.288 70.5337 109.178 70.9076C109.122 71.0945 109.069 71.2443 109.03 71.3471Z" fill="#417CC3" stroke="#0F1217" stroke-width="0.2"/>
<path d="M107.862 65.717L107.968 65.8046C109.138 66.7686 109.48 68.0029 109.498 69.074C109.516 70.1425 109.212 71.0538 109.083 71.3892L109.041 71.4981L108.94 71.4401C108.345 71.0992 107.908 70.6373 107.635 70.0582C107.362 69.48 107.255 68.7909 107.311 67.9986L107.862 65.717ZM107.862 65.717L107.812 65.8452M107.862 65.717L107.812 65.8452M107.812 65.8452C107.676 66.1893 107.378 67.038 107.311 67.9985L107.812 65.8452ZM107.819 65.6494L107.819 65.6493C107.824 65.6387 107.832 65.6325 107.841 65.6304L107.841 65.6304L107.841 65.6303C107.848 65.6285 107.86 65.6297 107.871 65.6372C109.303 66.7312 109.613 68.1952 109.561 69.3998C109.51 70.5971 109.101 71.5286 109.088 71.5583C109.084 71.5667 109.076 71.5736 109.068 71.577C109.063 71.5783 109.06 71.5788 109.057 71.5788H109.048C109.047 71.5783 109.046 71.5778 109.045 71.5772L109.045 71.5771L109.042 71.5756C107.485 70.7601 107.168 69.3062 107.249 68.028C107.33 66.7557 107.805 65.681 107.819 65.6494Z" fill="#417CC3" stroke="#0F1217" stroke-width="0.2"/>
<path d="M66.1654 67.9197C66.1714 67.9206 66.1776 67.9215 66.184 67.9225C66.2726 67.9359 66.4037 67.9552 66.5744 67.9786C66.9158 68.0255 67.4158 68.089 68.0504 68.1557C69.3198 68.2891 71.1284 68.4354 73.2865 68.487C77.5725 68.5895 83.2412 68.3187 88.8036 66.83L89.0664 69.588L89.0008 69.5962C88.8945 69.6092 88.7373 69.6282 88.534 69.6519C88.1275 69.6993 87.5368 69.7656 86.8002 69.8408C85.3269 69.9914 83.2703 70.1782 80.937 70.3231C76.2983 70.6111 70.5736 70.7327 66.1654 70.0772V67.9197Z" fill="#417CC3" stroke="#0F1217" stroke-width="0.2"/>
<path d="M73.9457 70.6875L73.9454 70.6863C71.1734 70.6863 68.4189 70.5552 66.0599 70.1981L66.0597 70.198C66.0438 70.1957 66.0304 70.1808 66.0304 70.1634V67.8028C66.0304 67.7909 66.0353 67.7816 66.042 67.7759C66.0447 67.7737 66.0496 67.7708 66.0561 67.7691C66.0628 67.7673 66.0675 67.7675 66.0688 67.7678L66.0695 67.7679C66.1893 67.7878 77.8464 69.6562 88.8819 66.6693L88.8819 66.6693L88.8847 66.6685C88.8906 66.6667 88.9013 66.6682 88.9074 66.6727L88.9073 66.6727L88.9088 66.6737C88.9177 66.68 88.9227 66.6888 88.9237 66.6995L88.9237 66.7L89.207 69.6726L89.207 69.673C89.209 69.6927 89.1949 69.7087 89.1779 69.7107L89.1768 69.7108C89.0743 69.724 81.4603 70.6873 73.9457 70.6875ZM66.199 70.048L66.1846 70.1457C74.5009 71.3745 87.6014 69.8324 89.0402 69.6567L89.1369 69.6449L89.1277 69.548L88.8722 66.8656L88.861 66.7481L88.7469 66.7785C78.4359 69.5257 67.6308 68.0714 66.2138 67.8617L66.0992 67.8448V67.9607V69.9309V70.0468V70.048H66.199Z" fill="#417CC3" stroke="#0F1217" stroke-width="0.2"/>
<path d="M65.6472 76.6512C65.6472 76.6512 65.6399 76.6512 65.6363 76.6512C65.5628 76.6451 65.5074 76.5796 65.5134 76.5055C66.2402 67.7117 65.7942 61.1728 65.7894 61.1084C65.7846 61.0343 65.84 60.9688 65.9135 60.9639C65.9859 60.9542 66.0509 61.0149 66.057 61.089C66.0618 61.1546 66.5101 67.7117 65.781 76.5274C65.7749 76.5978 65.7159 76.6512 65.6472 76.6512Z" fill="#14172E"/>
<path d="M90.1984 65.0852C90.1755 65.0852 90.1538 65.0791 90.1333 65.0682L86.1065 62.7938C86.0415 62.7574 86.0186 62.6748 86.0547 62.6093C86.0909 62.5437 86.174 62.5206 86.2367 62.557L90.2623 64.8314C90.3274 64.8678 90.3503 64.9504 90.3141 65.016C90.29 65.0609 90.2442 65.0852 90.1972 65.0852H90.1984Z" fill="#14172E"/>
<path d="M99.15 71.4335C99.1295 71.4335 99.1103 71.4287 99.091 71.4202C99.0247 71.3874 98.997 71.306 99.0295 71.2392L100.07 69.0802C100.102 69.0122 100.183 68.9855 100.249 69.0171C100.316 69.0499 100.343 69.1312 100.311 69.198L99.2706 71.357C99.2477 71.4056 99.1995 71.4335 99.15 71.4335Z" fill="#14172E"/>
<path d="M28.5371 50.5441C28.5371 50.5441 27.1631 49.8763 27.3391 49.3578C27.515 48.8393 28.5371 50.5441 28.5371 50.5441Z" fill="#FF5C5C"/>
<path d="M28.537 50.679C28.5166 50.679 28.4973 50.6741 28.4792 50.6656C28.2321 50.5454 27.0076 49.9152 27.2125 49.3141C27.2631 49.1648 27.3655 49.132 27.4234 49.1259C27.7717 49.087 28.3418 49.954 28.6527 50.4737C28.6841 50.5247 28.6769 50.5903 28.6371 50.6352C28.6118 50.6644 28.5744 50.679 28.5382 50.679H28.537ZM27.4487 49.3955C27.3945 49.597 27.7404 49.9067 28.1297 50.158C27.8332 49.727 27.5511 49.404 27.4487 49.3955Z" fill="#FF5C5C"/>
<path d="M27.8188 52.0729C27.8188 52.0729 26.3339 52.4226 26.1471 51.9078C25.9615 51.3929 27.8188 52.0729 27.8188 52.0729Z" fill="#5C8FCC"/>
<path d="M26.886 52.3279C26.5003 52.3279 26.1266 52.2465 26.0218 51.9551C25.9687 51.807 26.0278 51.7159 26.0688 51.6758C26.3134 51.4293 27.2994 51.7402 27.8646 51.9466C27.9213 51.9673 27.9562 52.0219 27.9538 52.0814C27.9502 52.1409 27.908 52.1919 27.8502 52.2053C27.7128 52.238 27.2933 52.3279 26.8872 52.3279H26.886ZM26.3677 51.8495C26.3147 51.8495 26.2761 51.8555 26.2568 51.8689C26.34 52.0595 26.8028 52.0802 27.2608 52.0316C26.8787 51.9187 26.5412 51.8495 26.3677 51.8495Z" fill="#5C8FCC"/>
<path d="M27.7043 53.3491C27.7043 53.3491 26.7497 54.5476 26.2881 54.2586C25.8265 53.9696 27.7043 53.3491 27.7043 53.3491Z" fill="#FF5C5C"/>
<path d="M26.4496 54.4396C26.3677 54.4396 26.2881 54.4201 26.217 54.374C26.0832 54.2902 26.076 54.1821 26.082 54.1251C26.123 53.779 27.0896 53.4098 27.6621 53.2204C27.7188 53.2022 27.7802 53.2228 27.814 53.2714C27.8477 53.3212 27.8465 53.3868 27.8092 53.4329C27.6597 53.6199 26.9787 54.4383 26.4496 54.4383V54.4396ZM27.2391 53.6636C26.7558 53.8579 26.3797 54.0619 26.3484 54.1603C26.534 54.2574 26.9076 53.9878 27.2391 53.6636Z" fill="#FF5C5C"/>
<path d="M42.5435 57.7412C42.5435 57.7412 43.9777 58.2634 43.856 58.7964C43.7331 59.3295 42.5435 57.7412 42.5435 57.7412Z" fill="#FF5C5C"/>
<path d="M43.7512 59.0405C43.4017 59.0405 42.7834 58.2864 42.4363 57.8226C42.4001 57.7752 42.4001 57.7084 42.4363 57.6611C42.4713 57.6125 42.5327 57.5943 42.5894 57.6137C42.8485 57.7072 44.1297 58.2087 43.9863 58.8268C43.9513 58.981 43.8525 59.0235 43.7958 59.0357C43.7814 59.0393 43.7669 59.0405 43.7512 59.0405ZM42.9883 58.0837C43.3258 58.4795 43.6379 58.7709 43.7416 58.7709C43.7753 58.5645 43.3993 58.2925 42.9871 58.0837H42.9883Z" fill="#FF5C5C"/>
<path d="M43.1013 56.1457C43.1013 56.1457 44.5428 55.6442 44.7803 56.136C45.0177 56.6278 43.1013 56.1457 43.1013 56.1457Z" fill="#5C8FCC"/>
<path d="M44.4079 56.4917C44.003 56.4917 43.4461 56.3715 43.0689 56.2768C43.011 56.2622 42.9701 56.2112 42.9676 56.1517C42.9652 56.0922 43.0014 56.0376 43.058 56.0182C43.3172 55.9283 44.6273 55.5057 44.9021 56.0777C44.9708 56.2197 44.9202 56.3157 44.884 56.3606C44.8069 56.4565 44.6297 56.493 44.4079 56.493V56.4917ZM43.6619 56.1299C44.1741 56.2258 44.6008 56.2537 44.6779 56.187C44.5767 56.006 44.1138 56.0315 43.6619 56.1299Z" fill="#5C8FCC"/>
<path d="M43.0857 54.8634C43.0857 54.8634 43.9125 53.5714 44.4018 53.8118C44.89 54.0522 43.0857 54.8634 43.0857 54.8634Z" fill="#FF5C5C"/>
<path d="M43.0858 54.9994C43.0472 54.9994 43.0099 54.9824 42.9846 54.952C42.946 54.9071 42.9412 54.8415 42.9737 54.7905C43.122 54.5586 43.8933 53.4111 44.461 53.6904C44.602 53.7596 44.6213 53.8664 44.6201 53.9235C44.6141 54.272 43.6908 54.7395 43.14 54.9872C43.1232 54.9957 43.1039 54.9994 43.0858 54.9994ZM44.285 53.9041C44.0862 53.9041 43.78 54.1834 43.5161 54.5027C43.9765 54.2599 44.3296 54.017 44.3501 53.9162C44.3296 53.9077 44.3079 53.9041 44.2838 53.9041H44.285Z" fill="#FF5C5C"/>
<path d="M108.625 55.4244C108.39 55.4244 108.191 55.2957 108.063 55.0601C107.936 54.8269 107.93 54.5282 108.047 54.2417C108.239 53.7742 108.593 53.4002 109.027 53.127C108.936 52.9788 108.819 52.8465 108.679 52.742C108.123 52.3243 107.259 52.3717 106.75 52.8477C106.67 52.9242 106.542 52.9193 106.466 52.838C106.39 52.7554 106.395 52.6279 106.476 52.5514C107.13 51.9382 108.204 51.8787 108.92 52.4178C109.108 52.5587 109.263 52.736 109.384 52.9339C110.047 52.6242 110.823 52.521 111.481 52.6473C112.642 52.8707 113.626 53.7475 113.99 54.8792C114.025 54.986 113.966 55.1002 113.861 55.1342C113.754 55.1694 113.641 55.1111 113.607 55.0042C113.291 54.0255 112.407 53.2387 111.405 53.0456C110.837 52.9363 110.144 53.0298 109.557 53.3018C109.731 53.79 109.719 54.3461 109.486 54.8172C109.343 55.1074 108.996 55.4195 108.637 55.4268H108.625V55.4244ZM109.197 53.4997C108.851 53.7268 108.572 54.028 108.42 54.3959C108.35 54.5659 108.349 54.7407 108.416 54.8646C108.492 55.0042 108.564 55.0176 108.629 55.0188C108.797 55.0152 109.025 54.8391 109.126 54.6339C109.297 54.2878 109.313 53.8725 109.197 53.4997Z" fill="#14172E"/>
<path d="M51.2924 62.1819C51.1489 62.1819 50.9995 62.1296 50.8765 62.0301C50.7331 61.9111 50.6295 61.7411 50.5608 61.5079C50.4318 61.0696 50.4752 60.5851 50.6656 60.1686C50.5752 60.1249 50.48 60.0921 50.3812 60.0727C49.7737 59.9476 49.0843 60.3179 48.8433 60.8935C48.7999 60.9967 48.6806 61.0453 48.5805 61.0016C48.4781 60.9579 48.4299 60.8389 48.472 60.7357C48.7866 59.9779 49.6604 59.5129 50.4607 59.6732C50.6042 59.7023 50.7428 59.7509 50.8729 59.8164C50.926 59.746 50.9826 59.6792 51.0453 59.6185C51.5286 59.1425 52.2843 58.9616 52.9291 59.1704C53.034 59.2044 53.093 59.3186 53.0593 59.4254C53.0243 59.5323 52.9134 59.5918 52.805 59.5566C52.3 59.3927 51.7058 59.5347 51.3273 59.9087C51.2863 59.95 51.2466 59.9925 51.2104 60.0387C51.619 60.3762 51.8854 60.8923 51.8854 61.429C51.8854 61.7496 51.7721 61.9924 51.566 62.1102C51.4828 62.1576 51.3888 62.1819 51.2924 62.1819ZM51.0043 60.3969C50.8766 60.7102 50.8512 61.0672 50.9477 61.3902C50.9923 61.5407 51.0537 61.65 51.1321 61.7144C51.2044 61.7739 51.3068 61.7921 51.3671 61.7581C51.4394 61.7168 51.4828 61.5929 51.4828 61.429C51.4828 61.0416 51.2936 60.6604 51.0043 60.3981V60.3969Z" fill="#14172E"/>
<path d="M110.63 86.8985H110.623C110.407 86.8985 110.194 86.8706 109.987 86.8159C109.843 86.7783 109.758 86.6302 109.796 86.4857C109.833 86.3412 109.979 86.2549 110.124 86.2926C110.285 86.3351 110.453 86.3569 110.623 86.3569C110.771 86.3569 110.895 86.4784 110.895 86.6277C110.895 86.7771 110.778 86.8985 110.63 86.8985ZM112.771 85.2386C112.748 85.2386 112.725 85.2362 112.702 85.2289C112.559 85.19 112.473 85.0419 112.512 84.8974C112.556 84.7322 112.578 84.561 112.578 84.3886C112.578 84.2392 112.698 84.1044 112.847 84.1044C112.995 84.1044 113.115 84.2125 113.115 84.3619V84.3886C113.115 84.6072 113.088 84.8257 113.031 85.037C112.998 85.1584 112.89 85.2374 112.772 85.2374L112.771 85.2386ZM108.403 84.6667C108.255 84.6667 108.134 84.5525 108.134 84.4032C108.134 84.3922 108.134 84.3692 108.136 84.3582C108.134 84.1749 108.161 83.9624 108.214 83.7559C108.251 83.6114 108.397 83.524 108.541 83.5629C108.685 83.6005 108.772 83.7487 108.734 83.8932C108.692 84.0547 108.672 84.2222 108.672 84.391C108.672 84.5404 108.551 84.6679 108.403 84.6679V84.6667ZM111.179 82.4919C111.157 82.4919 111.134 82.4895 111.111 82.4834C110.953 82.4421 110.788 82.4215 110.623 82.4215C110.475 82.4215 110.344 82.3 110.344 82.1507C110.344 82.0013 110.455 81.8799 110.604 81.8799V82.1507L110.612 81.8799H110.614C110.834 81.8799 111.042 81.9066 111.245 81.9588C111.388 81.9965 111.475 82.1434 111.438 82.2879C111.406 82.4105 111.297 82.4907 111.177 82.4907L111.179 82.4919Z" fill="#FF5C5C"/>
<path d="M100.726 49.3882C100.591 49.3882 100.475 49.285 100.46 49.1465C100.444 48.9984 100.551 48.8648 100.699 48.849C100.869 48.8308 101.036 48.7944 101.198 48.741C101.339 48.6936 101.489 48.7713 101.536 48.9146C101.582 49.0567 101.505 49.2097 101.364 49.2558C101.166 49.3214 100.962 49.3651 100.754 49.387C100.745 49.387 100.735 49.3882 100.725 49.3882H100.726ZM98.2448 48.2856C98.1629 48.2856 98.0809 48.248 98.0291 48.1751C97.9062 48.0075 97.8001 47.8242 97.7145 47.6336C97.6531 47.4976 97.7133 47.3373 97.8483 47.2753C97.9821 47.2134 98.1424 47.2729 98.2039 47.4101C98.275 47.5668 98.3618 47.7173 98.4618 47.8546C98.5498 47.9748 98.5245 48.1448 98.4051 48.2334C98.3569 48.2686 98.3015 48.2856 98.246 48.2856H98.2448ZM103.095 47.2341C103.077 47.2341 103.057 47.2316 103.039 47.228C102.894 47.1976 102.801 47.0543 102.832 46.9074C102.867 46.7386 102.885 46.5662 102.885 46.395C102.885 46.2456 103.006 46.1084 103.154 46.1084C103.302 46.1084 103.423 46.2128 103.423 46.3622V46.395C103.423 46.6038 103.401 46.8139 103.358 47.0191C103.331 47.1466 103.22 47.2341 103.095 47.2341ZM98.2256 45.0726C98.1713 45.0726 98.1159 45.0556 98.0689 45.0216C97.9483 44.9342 97.9206 44.7654 98.0074 44.644C98.1291 44.474 98.2677 44.3161 98.4208 44.1753C98.5305 44.0745 98.7004 44.0818 98.8005 44.1923C98.9005 44.3028 98.8933 44.474 98.7836 44.5748C98.657 44.6913 98.5425 44.8213 98.4437 44.9597C98.3919 45.0338 98.3087 45.0726 98.2256 45.0726ZM101.771 44.2821C101.727 44.2821 101.681 44.2712 101.64 44.2469C101.491 44.1619 101.333 44.0927 101.17 44.0417C101.029 43.9968 100.951 43.845 100.995 43.7029C101.04 43.5596 101.192 43.4819 101.332 43.5256C101.529 43.5888 101.721 43.6726 101.903 43.7758C102.032 43.8499 102.078 44.0138 102.005 44.1449C101.956 44.2336 101.865 44.2833 101.771 44.2833V44.2821Z" fill="#5C8FCC"/>
<path d="M44.49 93.4193H44.4852C44.3068 93.4193 44.1297 93.3962 43.9573 93.35C43.8139 93.3124 43.7283 93.1643 43.7657 93.0198C43.803 92.8753 43.9525 92.789 44.0935 92.8267C44.2213 92.8607 44.3526 92.8777 44.4852 92.8777C44.6335 92.8777 44.7564 92.9991 44.7564 93.1485C44.7564 93.2978 44.6395 93.4193 44.49 93.4193ZM46.222 92.0763C46.1991 92.0763 46.1762 92.0738 46.1521 92.0665C46.0087 92.0277 45.9243 91.8796 45.9629 91.7351C45.9966 91.6063 46.0147 91.4728 46.0147 91.3368C46.0147 91.1874 46.1352 91.0551 46.2835 91.0551C46.4317 91.0551 46.551 91.1656 46.551 91.3149H46.2823L46.551 91.3198C46.551 91.5189 46.5281 91.6998 46.4811 91.8735C46.4486 91.9937 46.3401 92.0738 46.222 92.0738V92.0763ZM42.6858 91.6136C42.5375 91.6136 42.417 91.4983 42.417 91.3489V91.3392C42.417 91.1607 42.4399 90.9834 42.4833 90.8134C42.5206 90.6689 42.6653 90.5803 42.8111 90.6191C42.9545 90.6568 43.0413 90.8049 43.004 90.9494C42.9714 91.0757 42.9545 91.2068 42.9545 91.3392C42.9545 91.4886 42.834 91.6148 42.6858 91.6148V91.6136ZM44.9336 89.8541C44.9119 89.8541 44.889 89.8517 44.8661 89.8456C44.7419 89.8128 44.613 89.7971 44.484 89.7971C44.3358 89.7971 44.208 89.6756 44.208 89.5263C44.208 89.3769 44.3201 89.2555 44.4684 89.2555H44.484C44.6588 89.2555 44.8323 89.2773 45.0011 89.3211C45.1445 89.3587 45.2313 89.5056 45.1939 89.6501C45.1626 89.7728 45.0529 89.8529 44.9336 89.8529V89.8541Z" fill="#5C8FCC"/>
<path d="M54.273 49.3348C54.1248 49.3348 54.0055 49.2146 54.0043 49.0652C54.0043 48.9158 54.1236 48.7944 54.2718 48.7944C54.4309 48.7944 54.59 48.7762 54.7443 48.7398C54.8913 48.707 55.0324 48.7968 55.0661 48.9426C55.0986 49.0883 55.0095 49.234 54.8648 49.2668C54.6708 49.3117 54.4719 49.3348 54.273 49.3348ZM52.1108 47.9808C52.012 47.9808 51.9167 47.925 51.8697 47.8291C51.7818 47.6481 51.7143 47.4575 51.6697 47.262C51.6359 47.1163 51.7263 46.9706 51.8709 46.9378C52.0168 46.905 52.1602 46.9948 52.194 47.1406C52.2301 47.2948 52.2831 47.4466 52.353 47.5911C52.4181 47.7246 52.3627 47.8873 52.2301 47.9529C52.1915 47.9711 52.1518 47.9808 52.112 47.9808H52.1108ZM56.604 47.4563C56.5847 47.4563 56.5642 47.4538 56.545 47.4502C56.4003 47.4174 56.3099 47.2717 56.3425 47.126C56.3774 46.9706 56.3943 46.8103 56.3943 46.65C56.3943 46.5006 56.5148 46.3792 56.6631 46.3792C56.8113 46.3792 56.9319 46.5006 56.9319 46.65C56.9319 46.8516 56.9102 47.0519 56.8656 47.2462C56.8366 47.3713 56.727 47.4563 56.604 47.4563ZM56.1219 45.3908C56.0448 45.3908 55.9676 45.3568 55.9146 45.2924C55.8134 45.1686 55.6989 45.0556 55.5735 44.9573C55.4566 44.865 55.4361 44.695 55.5265 44.5772C55.6181 44.4582 55.7856 44.4388 55.9038 44.5299C56.0592 44.6525 56.2027 44.7934 56.3292 44.9488C56.4232 45.0641 56.4064 45.2341 56.2919 45.3301C56.2424 45.3714 56.1822 45.392 56.1219 45.392V45.3908ZM52.7544 45.0447C52.6761 45.0447 52.5989 45.0107 52.5459 44.9451C52.4519 44.8286 52.47 44.6586 52.5845 44.5639C52.7387 44.4376 52.9075 44.3283 53.0859 44.2396C53.2196 44.1741 53.3799 44.2287 53.4462 44.3623C53.5113 44.4959 53.4571 44.6586 53.3245 44.7241C53.1823 44.7946 53.0485 44.882 52.9243 44.9828C52.8749 45.0241 52.8147 45.0435 52.7544 45.0435V45.0447Z" fill="#5C8FCC"/>
</g>
<defs>
<clipPath id="clip0_16_1796">
<rect width="88" height="92" fill="white" transform="translate(26 24)"/>
</clipPath>
</defs>
</svg>
