<svg width="140" height="140" viewBox="0 0 140 140" fill="none" xmlns="http://www.w3.org/2000/svg">
<path d="M70 140C108.66 140 140 108.66 140 70C140 31.3401 108.66 0 70 0C31.3401 0 0 31.3401 0 70C0 108.66 31.3401 140 70 140Z" fill="#DCE6F4"/>
<path d="M71.6843 105.907L74.9499 109.473L79.3415 112.154L80.1054 105.93L79.3415 99.8461L74.8658 102.201L71.6843 105.907Z" fill="#00832D"/>
<path d="M54 111.561V116.624C54 117.779 54.963 118.718 56.1495 118.718H61.3452L62.4211 114.893L61.3452 111.561L57.7806 110.513L54.0001 111.561H54Z" fill="#0066DA"/>
<path d="M61.3623 93.282L54 100.441L57.7897 101.487L61.3623 100.441L62.4211 97.1536L61.3623 93.282Z" fill="#E94235"/>
<path d="M54 111.333H61.5789V100.667H54V111.333Z" fill="#2684FC"/>
<path d="M84.1651 95.9933L79.2632 99.8932V112.108L84.1853 116.023C84.9221 116.583 86 116.073 86 115.164V96.8347C86 95.9163 84.8964 95.4086 84.165 95.9934" fill="#00AC47"/>
<path d="M72.0443 105.59V111.241H61.5789V118.718H77.0978C78.2931 118.718 79.2631 117.737 79.2631 116.53V111.819L72.0443 105.59Z" fill="#00AC47"/>
<path d="M77.0977 93.282H61.5789V100.292H72.0442V105.59L79.2631 99.9233V95.3335C79.2631 94.2011 78.293 93.2822 77.0977 93.2822" fill="#FFBA00"/>
<rect x="59.4856" y="23.4857" width="19.2" height="21.0286" fill="white"/>
<path d="M84.8674 36.6263C84.8573 36.6825 84.8501 36.7394 84.8395 36.7956L84.7847 36.4733C84.8148 36.5235 84.8395 36.5758 84.8674 36.6264C85.034 35.7228 85.1183 34.806 85.1192 33.8873C85.1192 31.8475 84.7199 29.8685 83.9309 28.0056C83.1696 26.2061 82.0806 24.59 80.6921 23.2025C79.3056 21.815 77.6884 20.7259 75.8899 19.9648C74.0275 19.1768 72.0486 18.7774 70.0089 18.7774C69.0476 18.7774 68.0846 18.8676 67.1476 19.0475C67.1456 19.048 67.1431 19.048 67.1405 19.0485C67.1932 19.0764 67.2465 19.1013 67.2981 19.1301L66.9804 19.0804C67.0336 19.0704 67.0874 19.0591 67.1405 19.0485C65.855 18.365 64.409 18 62.9455 18C60.5563 18 58.3096 18.9304 56.62 20.6205C54.9309 22.3101 54 24.5566 54 26.946C54.0008 28.4638 54.3882 29.9564 55.1255 31.283C55.1351 31.2283 55.1417 31.173 55.1524 31.1183L55.2071 31.435C55.1787 31.3854 55.1539 31.3336 55.1255 31.283C54.9751 32.143 54.899 33.0143 54.898 33.8873C54.898 35.9275 55.2974 37.906 56.0864 39.7694C56.8465 41.5694 57.9361 43.1844 59.3231 44.5719C60.7116 45.9595 62.3267 47.0501 64.1272 47.8093C65.9897 48.5988 67.9691 48.9986 70.0089 48.9986C70.8967 48.9986 71.7866 48.9175 72.6551 48.7635C72.6045 48.7351 72.5529 48.7093 72.5011 48.6794L72.824 48.7361C72.7682 48.7468 72.712 48.7534 72.6553 48.7635C73.9976 49.5232 75.5136 49.9227 77.056 49.923C79.4449 49.923 81.6904 48.994 83.38 47.3035C85.07 45.6149 86 43.3679 86 40.9785C85.9992 39.455 85.6093 37.957 84.8674 36.6264V36.6263ZM70.0691 43.1414C64.701 43.1414 62.2994 40.5021 62.2994 38.5243C62.2994 37.5096 63.0484 36.7986 64.0806 36.7986C66.3779 36.7986 65.7829 40.0973 70.0691 40.0973C72.2635 40.0973 73.4751 38.9058 73.4751 37.6865C73.4751 36.9533 73.1134 36.1403 71.6685 35.784L66.8938 34.5921C63.0484 33.6278 62.3505 31.549 62.3505 29.5949C62.3505 25.5378 66.1705 24.0144 69.758 24.0144C73.0626 24.0144 76.9583 25.8408 76.9583 28.2748C76.9583 29.3178 76.0551 29.9243 75.0233 29.9243C73.0626 29.9243 73.4235 27.2105 69.4742 27.2105C67.5145 27.2105 66.429 28.098 66.429 29.3679C66.429 30.6354 67.9768 31.0403 69.3206 31.3463L72.8549 32.1308C76.7261 32.9933 77.7078 35.2535 77.7078 37.3824C77.7078 40.6795 75.1769 43.1414 70.0691 43.1414ZM72.5011 48.6794C72.5529 48.7094 72.6045 48.7351 72.6553 48.7635C72.712 48.7534 72.7682 48.7468 72.824 48.736L72.5011 48.6794ZM84.8395 36.7956C84.8501 36.7394 84.8573 36.6826 84.8674 36.6264C84.8395 36.5756 84.8146 36.5235 84.7849 36.4733L84.8395 36.7956ZM55.1524 31.1183C55.1417 31.173 55.1351 31.2283 55.1255 31.283C55.1539 31.3336 55.1787 31.3854 55.2071 31.435L55.1524 31.1183ZM67.2981 19.1301C67.2465 19.1013 67.1932 19.0764 67.1406 19.0485C67.0874 19.0591 67.0336 19.0703 66.9804 19.0804L67.2981 19.1301Z" fill="#5C8FCC"/>
<path d="M106 86C114.837 86 122 78.8366 122 70C122 61.1634 114.837 54 106 54C97.1634 54 90 61.1634 90 70C90 78.8366 97.1634 86 106 86Z" fill="#5C8FCC"/>
<path d="M110 75.6H97.9996C96.674 75.6 95.5996 74.5256 95.5996 73.2V64.4H107.6C108.925 64.4 110 65.4744 110 66.8V75.6Z" fill="white"/>
<path d="M116.4 75.6L111.6 72.4V67.6L116.4 64.4V75.6Z" fill="white"/>
<path d="M34 54C25.1634 54 18 61.1634 18 70C18 78.8366 25.1634 86 34 86C42.8366 86 50 78.8366 50 70C50 61.1634 42.8366 54 34 54Z" fill="#5C8FCC"/>
<path d="M41.7853 63.2037L38.9274 77.6124C38.9274 77.6124 38.5278 78.6116 37.4287 78.132L30.8339 73.076L28.4359 71.917L24.3992 70.558C24.3992 70.558 23.7797 70.3382 23.7197 69.8586C23.6597 69.379 24.4192 69.1192 24.4192 69.1192L40.4662 62.8242C40.4662 62.8242 41.7852 62.2447 41.7852 63.204" fill="white"/>
<path d="M30.3273 77.4504C30.3273 77.4504 30.1348 77.4324 29.8948 76.6729C29.6552 75.9135 28.436 71.9168 28.436 71.9168L38.1283 65.7618C38.1283 65.7618 38.6879 65.422 38.6679 65.7618C38.6679 65.7618 38.7678 65.8218 38.4679 66.1015C38.1683 66.3814 30.8542 72.956 30.8542 72.956" fill="#D2E5F1"/>
<path d="M33.3625 75.0144L30.7541 77.3926C30.7541 77.3926 30.5501 77.5474 30.3271 77.4504L30.8266 73.0329" fill="#B5CFE4"/>
</svg>
