<svg width="212" height="40" viewBox="0 0 212 40" fill="none" xmlns="http://www.w3.org/2000/svg">
<path d="M31.534 29.4894C31.318 29.7275 31.0479 29.92 30.7366 30.0504L7.04913 39.833C6.3089 40.1396 5.49242 40.0189 4.86656 39.5133C4.24069 39.0077 3.93253 38.2216 4.04372 37.4126L6.89028 16.8559C7.08725 15.437 6.9157 13.9887 6.39468 12.6578L3.75462 5.92188L2.96991 6.24481C2.58867 6.40139 2.1725 6.39486 1.79444 6.22198C1.41955 6.0491 1.13363 5.73921 0.990664 5.34126C0.711092 4.56492 1.11774 3.67115 1.89292 3.35148L9.74002 0.112373C10.1213 -0.0441997 10.5374 -0.0376734 10.9155 0.135209C11.2904 0.308092 11.5763 0.617975 11.7193 1.01593C11.9988 1.79227 11.5922 2.68604 10.817 3.00571L10.2483 3.24057L12.8884 9.97647C13.4094 11.3041 14.264 12.4751 15.3601 13.3558L31.2767 26.1655C31.9025 26.6711 32.2107 27.4572 32.0995 28.2661C32.0328 28.7359 31.8358 29.1567 31.5372 29.4894H31.534ZM1.67371 4.09193C1.41002 4.38225 1.30836 4.79651 1.44179 5.17163C1.54027 5.44238 1.73407 5.6544 1.98823 5.77183C2.24556 5.88926 2.52831 5.89253 2.78882 5.78815L4.01831 5.27928L6.83628 12.4718C7.38907 13.881 7.57016 15.4206 7.36048 16.9211L4.51392 37.4779C4.42496 38.1107 4.66641 38.7272 5.15884 39.1219C5.64809 39.5166 6.28667 39.6112 6.86805 39.3698L30.5555 29.5872C31.1337 29.3491 31.5308 28.8272 31.6198 28.1944C31.7087 27.5616 31.4673 26.9451 30.9749 26.5504L15.0583 13.7407C13.8955 12.8046 12.9869 11.565 12.4373 10.1559L9.61929 2.96331L10.6327 2.54578C11.1697 2.32397 11.4524 1.71398 11.2618 1.18229C11.1633 0.911547 10.9695 0.699523 10.7154 0.582093C10.458 0.464663 10.1753 0.4614 9.91476 0.565782L2.06765 3.80489C1.91198 3.87013 1.77537 3.96798 1.66735 4.08541L1.67371 4.09193Z" fill="#0F1217"/>
<path d="M28.3824 26.2666L21.733 20.917L18.9818 22.0522C19.0421 21.7782 19.0231 21.4846 18.9151 21.2073C18.626 20.4734 17.8158 20.1179 17.0978 20.4114C16.383 20.7083 16.0367 21.5401 16.3226 22.2773C16.4307 22.5578 16.6181 22.7796 16.8437 22.9362L13.743 24.2148C13.7398 23.8821 13.6794 23.5462 13.5492 23.22C12.9996 21.8141 11.4428 21.1356 10.0767 21.6999C8.70746 22.2642 8.04666 23.8626 8.59628 25.2652C8.72336 25.5914 8.90762 25.8784 9.12683 26.1198L7.31913 26.8668L6.13095 35.4522C5.95304 36.7276 7.18888 37.7193 8.35165 37.2398L18.1685 33.1852L27.9853 29.1306C29.1481 28.6511 29.3705 27.056 28.3824 26.2633V26.2666ZM20.0429 28.5989C19.452 28.8435 18.7816 28.55 18.5434 27.9432C18.3051 27.3365 18.591 26.6482 19.1819 26.4036C19.7728 26.159 20.4432 26.4525 20.6814 27.0593C20.9197 27.666 20.6338 28.3542 20.0429 28.5989Z" fill="#72B3E9"/>
<path d="M15.5634 18.4967C15.9065 18.3564 16.0717 17.9552 15.9351 17.6061C15.7985 17.2538 15.4078 17.0842 15.0678 17.2245C14.7247 17.3648 14.5595 17.766 14.6961 18.115C14.8327 18.4673 15.2235 18.6369 15.5634 18.4967Z" fill="#72B3E9"/>
<path d="M10.8679 15.8675C11.3349 15.6751 11.5605 15.1303 11.3731 14.6508C11.1856 14.1713 10.6551 13.9397 10.188 14.1322C9.72103 14.3246 9.49547 14.8694 9.68291 15.3489C9.87035 15.8284 10.4009 16.06 10.8679 15.8675Z" fill="#72B3E9"/>
<path d="M53.074 27.18C51.85 27.18 50.776 26.91 49.852 26.37C48.94 25.83 48.232 25.074 47.728 24.102C47.224 23.118 46.972 21.966 46.972 20.646C46.972 19.65 47.116 18.756 47.404 17.964C47.692 17.16 48.1 16.476 48.628 15.912C49.168 15.336 49.81 14.898 50.554 14.598C51.31 14.286 52.15 14.13 53.074 14.13C54.31 14.13 55.384 14.4 56.296 14.94C57.208 15.468 57.916 16.218 58.42 17.19C58.924 18.162 59.176 19.308 59.176 20.628C59.176 21.624 59.032 22.524 58.744 23.328C58.456 24.132 58.042 24.822 57.502 25.398C56.974 25.974 56.332 26.418 55.576 26.73C54.832 27.03 53.998 27.18 53.074 27.18ZM53.074 25.2C53.854 25.2 54.514 25.02 55.054 24.66C55.606 24.3 56.026 23.778 56.314 23.094C56.614 22.41 56.764 21.594 56.764 20.646C56.764 19.206 56.44 18.09 55.792 17.298C55.156 16.506 54.25 16.11 53.074 16.11C52.306 16.11 51.646 16.29 51.094 16.65C50.542 16.998 50.116 17.514 49.816 18.198C49.528 18.87 49.384 19.686 49.384 20.646C49.384 22.074 49.708 23.19 50.356 23.994C51.004 24.798 51.91 25.2 53.074 25.2ZM62.5448 27.144C62.1848 27.144 61.9028 27.048 61.6988 26.856C61.5068 26.652 61.4108 26.364 61.4108 25.992V19.224C61.4108 18.852 61.5068 18.57 61.6988 18.378C61.9028 18.174 62.1848 18.072 62.5448 18.072C62.9048 18.072 63.1808 18.174 63.3728 18.378C63.5648 18.57 63.6608 18.852 63.6608 19.224V21.618H64.9388L67.1888 18.594C67.3568 18.366 67.5488 18.222 67.7648 18.162C67.9808 18.09 68.1848 18.084 68.3768 18.144C68.5808 18.204 68.7428 18.312 68.8628 18.468C68.9948 18.624 69.0608 18.81 69.0608 19.026C69.0728 19.23 68.9948 19.446 68.8268 19.674L66.6848 22.608L66.1988 21.888C66.5228 21.924 66.8108 22.014 67.0628 22.158C67.3268 22.302 67.5668 22.506 67.7828 22.77C68.0108 23.022 68.2328 23.34 68.4488 23.724L69.5108 25.614C69.6548 25.866 69.7028 26.1 69.6548 26.316C69.6188 26.52 69.5168 26.694 69.3488 26.838C69.1928 26.982 69.0068 27.072 68.7908 27.108C68.5748 27.144 68.3588 27.114 68.1428 27.018C67.9388 26.934 67.7648 26.766 67.6208 26.514L66.4148 24.408C66.2588 24.132 66.1028 23.922 65.9468 23.778C65.8028 23.622 65.6348 23.514 65.4428 23.454C65.2628 23.394 65.0408 23.364 64.7768 23.364H63.6608V25.992C63.6608 26.364 63.5648 26.652 63.3728 26.856C63.1808 27.048 62.9048 27.144 62.5448 27.144ZM75.5515 27.18C74.6275 27.18 73.8235 26.994 73.1395 26.622C72.4555 26.238 71.9275 25.698 71.5555 25.002C71.1835 24.306 70.9975 23.49 70.9975 22.554C70.9975 21.846 71.0995 21.216 71.3035 20.664C71.5195 20.1 71.8255 19.626 72.2215 19.242C72.6175 18.846 73.0975 18.546 73.6615 18.342C74.2255 18.126 74.8555 18.018 75.5515 18.018C75.9475 18.018 76.3735 18.072 76.8295 18.18C77.2975 18.288 77.7355 18.468 78.1435 18.72C78.3355 18.84 78.4615 18.984 78.5215 19.152C78.5815 19.32 78.5935 19.494 78.5575 19.674C78.5215 19.842 78.4435 19.992 78.3235 20.124C78.2155 20.244 78.0775 20.322 77.9095 20.358C77.7415 20.382 77.5555 20.34 77.3515 20.232C77.0875 20.076 76.8175 19.962 76.5415 19.89C76.2655 19.806 76.0015 19.764 75.7495 19.764C75.3535 19.764 75.0055 19.83 74.7055 19.962C74.4055 20.082 74.1475 20.262 73.9315 20.502C73.7275 20.73 73.5715 21.018 73.4635 21.366C73.3555 21.714 73.3015 22.116 73.3015 22.572C73.3015 23.46 73.5115 24.162 73.9315 24.678C74.3635 25.182 74.9695 25.434 75.7495 25.434C76.0015 25.434 76.2595 25.398 76.5235 25.326C76.7995 25.254 77.0755 25.14 77.3515 24.984C77.5555 24.876 77.7355 24.84 77.8915 24.876C78.0595 24.912 78.1975 24.996 78.3055 25.128C78.4135 25.248 78.4795 25.398 78.5035 25.578C78.5275 25.746 78.5035 25.914 78.4315 26.082C78.3715 26.25 78.2515 26.388 78.0715 26.496C77.6755 26.736 77.2555 26.91 76.8115 27.018C76.3675 27.126 75.9475 27.18 75.5515 27.18ZM83.1354 27.18C82.4994 27.18 81.9294 27.06 81.4254 26.82C80.9334 26.568 80.5434 26.232 80.2554 25.812C79.9794 25.392 79.8414 24.918 79.8414 24.39C79.8414 23.742 80.0094 23.232 80.3454 22.86C80.6814 22.476 81.2274 22.2 81.9834 22.032C82.7394 21.864 83.7534 21.78 85.0254 21.78H85.9254V23.076H85.0434C84.2994 23.076 83.7054 23.112 83.2614 23.184C82.8174 23.256 82.4994 23.382 82.3074 23.562C82.1274 23.73 82.0374 23.97 82.0374 24.282C82.0374 24.678 82.1754 25.002 82.4514 25.254C82.7274 25.506 83.1114 25.632 83.6034 25.632C83.9994 25.632 84.3474 25.542 84.6474 25.362C84.9594 25.17 85.2054 24.912 85.3854 24.588C85.5654 24.264 85.6554 23.892 85.6554 23.472V21.402C85.6554 20.802 85.5234 20.37 85.2594 20.106C84.9954 19.842 84.5514 19.71 83.9274 19.71C83.5794 19.71 83.2014 19.752 82.7934 19.836C82.3974 19.92 81.9774 20.064 81.5334 20.268C81.3054 20.376 81.1014 20.406 80.9214 20.358C80.7534 20.31 80.6214 20.214 80.5254 20.07C80.4294 19.914 80.3814 19.746 80.3814 19.566C80.3814 19.386 80.4294 19.212 80.5254 19.044C80.6214 18.864 80.7834 18.732 81.0114 18.648C81.5634 18.42 82.0914 18.258 82.5954 18.162C83.1114 18.066 83.5794 18.018 83.9994 18.018C84.8634 18.018 85.5714 18.15 86.1234 18.414C86.6874 18.678 87.1074 19.08 87.3834 19.62C87.6594 20.148 87.7974 20.832 87.7974 21.672V25.992C87.7974 26.364 87.7074 26.652 87.5274 26.856C87.3474 27.048 87.0894 27.144 86.7534 27.144C86.4174 27.144 86.1534 27.048 85.9614 26.856C85.7814 26.652 85.6914 26.364 85.6914 25.992V25.128H85.8354C85.7514 25.548 85.5834 25.914 85.3314 26.226C85.0914 26.526 84.7854 26.76 84.4134 26.928C84.0414 27.096 83.6154 27.18 83.1354 27.18ZM91.4433 27.144C91.0833 27.144 90.8013 27.048 90.5973 26.856C90.4053 26.652 90.3093 26.364 90.3093 25.992V19.188C90.3093 18.804 90.4053 18.522 90.5973 18.342C90.8013 18.15 91.0833 18.054 91.4433 18.054C91.8033 18.054 92.0793 18.15 92.2713 18.342C92.4633 18.522 92.5593 18.804 92.5593 19.188V21.6H96.4473V19.188C96.4473 18.804 96.5433 18.522 96.7353 18.342C96.9273 18.15 97.2033 18.054 97.5633 18.054C97.9233 18.054 98.1993 18.15 98.3913 18.342C98.5953 18.522 98.6973 18.804 98.6973 19.188V25.992C98.6973 26.364 98.5953 26.652 98.3913 26.856C98.1993 27.048 97.9233 27.144 97.5633 27.144C97.2033 27.144 96.9273 27.048 96.7353 26.856C96.5433 26.652 96.4473 26.364 96.4473 25.992V23.364H92.5593V25.992C92.5593 26.364 92.4633 26.652 92.2713 26.856C92.0913 27.048 91.8153 27.144 91.4433 27.144ZM104.176 27.18C103.54 27.18 102.97 27.06 102.466 26.82C101.974 26.568 101.584 26.232 101.296 25.812C101.02 25.392 100.882 24.918 100.882 24.39C100.882 23.742 101.05 23.232 101.386 22.86C101.722 22.476 102.268 22.2 103.024 22.032C103.78 21.864 104.794 21.78 106.066 21.78H106.966V23.076H106.084C105.34 23.076 104.746 23.112 104.302 23.184C103.858 23.256 103.54 23.382 103.348 23.562C103.168 23.73 103.078 23.97 103.078 24.282C103.078 24.678 103.216 25.002 103.492 25.254C103.768 25.506 104.152 25.632 104.644 25.632C105.04 25.632 105.388 25.542 105.688 25.362C106 25.17 106.246 24.912 106.426 24.588C106.606 24.264 106.696 23.892 106.696 23.472V21.402C106.696 20.802 106.564 20.37 106.3 20.106C106.036 19.842 105.592 19.71 104.968 19.71C104.62 19.71 104.242 19.752 103.834 19.836C103.438 19.92 103.018 20.064 102.574 20.268C102.346 20.376 102.142 20.406 101.962 20.358C101.794 20.31 101.662 20.214 101.566 20.07C101.47 19.914 101.422 19.746 101.422 19.566C101.422 19.386 101.47 19.212 101.566 19.044C101.662 18.864 101.824 18.732 102.052 18.648C102.604 18.42 103.132 18.258 103.636 18.162C104.152 18.066 104.62 18.018 105.04 18.018C105.904 18.018 106.612 18.15 107.164 18.414C107.728 18.678 108.148 19.08 108.424 19.62C108.7 20.148 108.838 20.832 108.838 21.672V25.992C108.838 26.364 108.748 26.652 108.568 26.856C108.388 27.048 108.13 27.144 107.794 27.144C107.458 27.144 107.194 27.048 107.002 26.856C106.822 26.652 106.732 26.364 106.732 25.992V25.128H106.876C106.792 25.548 106.624 25.914 106.372 26.226C106.132 26.526 105.826 26.76 105.454 26.928C105.082 27.096 104.656 27.18 104.176 27.18ZM116.471 27.144C116.183 27.144 115.949 27.078 115.769 26.946C115.601 26.814 115.499 26.64 115.463 26.424C115.427 26.196 115.469 25.944 115.589 25.668L120.341 15.138C120.497 14.79 120.683 14.544 120.899 14.4C121.127 14.244 121.385 14.166 121.673 14.166C121.949 14.166 122.195 14.244 122.411 14.4C122.639 14.544 122.831 14.79 122.987 15.138L127.757 25.668C127.889 25.944 127.937 26.196 127.901 26.424C127.865 26.652 127.763 26.832 127.595 26.964C127.427 27.084 127.205 27.144 126.929 27.144C126.593 27.144 126.329 27.066 126.137 26.91C125.957 26.742 125.795 26.49 125.651 26.154L124.481 23.436L125.453 24.066H117.857L118.829 23.436L117.677 26.154C117.521 26.502 117.359 26.754 117.191 26.91C117.023 27.066 116.783 27.144 116.471 27.144ZM121.637 16.812L119.117 22.806L118.649 22.23H124.661L124.211 22.806L121.673 16.812H121.637ZM130.766 30.384C130.406 30.384 130.13 30.288 129.938 30.096C129.746 29.904 129.65 29.622 129.65 29.25V19.188C129.65 18.816 129.746 18.534 129.938 18.342C130.13 18.15 130.4 18.054 130.748 18.054C131.108 18.054 131.384 18.15 131.576 18.342C131.768 18.534 131.864 18.816 131.864 19.188V20.592L131.666 20.052C131.846 19.44 132.212 18.948 132.764 18.576C133.328 18.204 133.982 18.018 134.726 18.018C135.494 18.018 136.166 18.204 136.742 18.576C137.33 18.948 137.786 19.476 138.11 20.16C138.434 20.832 138.596 21.642 138.596 22.59C138.596 23.526 138.434 24.342 138.11 25.038C137.786 25.722 137.336 26.25 136.76 26.622C136.184 26.994 135.506 27.18 134.726 27.18C133.994 27.18 133.352 27 132.8 26.64C132.248 26.268 131.876 25.788 131.684 25.2H131.9V29.25C131.9 29.622 131.798 29.904 131.594 30.096C131.402 30.288 131.126 30.384 130.766 30.384ZM134.096 25.47C134.54 25.47 134.93 25.362 135.266 25.146C135.602 24.93 135.86 24.612 136.04 24.192C136.232 23.76 136.328 23.226 136.328 22.59C136.328 21.63 136.124 20.916 135.716 20.448C135.308 19.968 134.768 19.728 134.096 19.728C133.652 19.728 133.262 19.836 132.926 20.052C132.59 20.256 132.326 20.574 132.134 21.006C131.954 21.426 131.864 21.954 131.864 22.59C131.864 23.538 132.068 24.258 132.476 24.75C132.884 25.23 133.424 25.47 134.096 25.47ZM141.822 27.144C141.462 27.144 141.18 27.048 140.976 26.856C140.784 26.652 140.688 26.364 140.688 25.992V19.224C140.688 18.852 140.784 18.57 140.976 18.378C141.18 18.174 141.462 18.072 141.822 18.072C142.182 18.072 142.458 18.174 142.65 18.378C142.842 18.57 142.938 18.852 142.938 19.224V21.618H144.216L146.466 18.594C146.634 18.366 146.826 18.222 147.042 18.162C147.258 18.09 147.462 18.084 147.654 18.144C147.858 18.204 148.02 18.312 148.14 18.468C148.272 18.624 148.338 18.81 148.338 19.026C148.35 19.23 148.272 19.446 148.104 19.674L145.962 22.608L145.476 21.888C145.8 21.924 146.088 22.014 146.34 22.158C146.604 22.302 146.844 22.506 147.06 22.77C147.288 23.022 147.51 23.34 147.726 23.724L148.788 25.614C148.932 25.866 148.98 26.1 148.932 26.316C148.896 26.52 148.794 26.694 148.626 26.838C148.47 26.982 148.284 27.072 148.068 27.108C147.852 27.144 147.636 27.114 147.42 27.018C147.216 26.934 147.042 26.766 146.898 26.514L145.692 24.408C145.536 24.132 145.38 23.922 145.224 23.778C145.08 23.622 144.912 23.514 144.72 23.454C144.54 23.394 144.318 23.364 144.054 23.364H142.938V25.992C142.938 26.364 142.842 26.652 142.65 26.856C142.458 27.048 142.182 27.144 141.822 27.144ZM153.659 27.18C153.023 27.18 152.453 27.06 151.949 26.82C151.457 26.568 151.067 26.232 150.779 25.812C150.503 25.392 150.365 24.918 150.365 24.39C150.365 23.742 150.533 23.232 150.869 22.86C151.205 22.476 151.751 22.2 152.507 22.032C153.263 21.864 154.277 21.78 155.549 21.78H156.449V23.076H155.567C154.823 23.076 154.229 23.112 153.785 23.184C153.341 23.256 153.023 23.382 152.831 23.562C152.651 23.73 152.561 23.97 152.561 24.282C152.561 24.678 152.699 25.002 152.975 25.254C153.251 25.506 153.635 25.632 154.127 25.632C154.523 25.632 154.871 25.542 155.171 25.362C155.483 25.17 155.729 24.912 155.909 24.588C156.089 24.264 156.179 23.892 156.179 23.472V21.402C156.179 20.802 156.047 20.37 155.783 20.106C155.519 19.842 155.075 19.71 154.451 19.71C154.103 19.71 153.725 19.752 153.317 19.836C152.921 19.92 152.501 20.064 152.057 20.268C151.829 20.376 151.625 20.406 151.445 20.358C151.277 20.31 151.145 20.214 151.049 20.07C150.953 19.914 150.905 19.746 150.905 19.566C150.905 19.386 150.953 19.212 151.049 19.044C151.145 18.864 151.307 18.732 151.535 18.648C152.087 18.42 152.615 18.258 153.119 18.162C153.635 18.066 154.103 18.018 154.523 18.018C155.387 18.018 156.095 18.15 156.647 18.414C157.211 18.678 157.631 19.08 157.907 19.62C158.183 20.148 158.321 20.832 158.321 21.672V25.992C158.321 26.364 158.231 26.652 158.051 26.856C157.871 27.048 157.613 27.144 157.277 27.144C156.941 27.144 156.677 27.048 156.485 26.856C156.305 26.652 156.215 26.364 156.215 25.992V25.128H156.359C156.275 25.548 156.107 25.914 155.855 26.226C155.615 26.526 155.309 26.76 154.937 26.928C154.565 27.096 154.139 27.18 153.659 27.18ZM160.995 29.484C160.695 29.484 160.455 29.394 160.275 29.214C160.107 29.046 160.023 28.8 160.023 28.476V26.28C160.023 25.584 160.371 25.236 161.067 25.236H162.075L160.743 25.704C161.055 25.284 161.301 24.846 161.481 24.39C161.661 23.934 161.793 23.412 161.877 22.824C161.961 22.224 162.003 21.516 162.003 20.7V19.458C162.003 19.05 162.111 18.738 162.327 18.522C162.543 18.306 162.855 18.198 163.263 18.198H167.601C168.009 18.198 168.321 18.306 168.537 18.522C168.753 18.738 168.861 19.05 168.861 19.458V26.28L167.817 25.236H169.257C169.593 25.236 169.851 25.326 170.031 25.506C170.211 25.674 170.301 25.932 170.301 26.28V28.476C170.301 29.148 169.983 29.484 169.347 29.484C169.035 29.484 168.795 29.394 168.627 29.214C168.471 29.046 168.393 28.8 168.393 28.476V27H161.931V28.476C161.931 29.148 161.619 29.484 160.995 29.484ZM163.065 25.236H166.755V19.926H163.929V21.222C163.929 21.978 163.851 22.71 163.695 23.418C163.551 24.126 163.341 24.732 163.065 25.236ZM173.094 27.126C172.734 27.126 172.458 27.018 172.266 26.802C172.074 26.586 171.978 26.286 171.978 25.902V19.296C171.978 18.9 172.074 18.6 172.266 18.396C172.458 18.18 172.734 18.072 173.094 18.072C173.454 18.072 173.73 18.18 173.922 18.396C174.126 18.6 174.228 18.9 174.228 19.296V25.902C174.228 26.286 174.132 26.586 173.94 26.802C173.748 27.018 173.466 27.126 173.094 27.126ZM173.094 16.398C172.674 16.398 172.344 16.296 172.104 16.092C171.876 15.876 171.762 15.582 171.762 15.21C171.762 14.826 171.876 14.532 172.104 14.328C172.344 14.124 172.674 14.022 173.094 14.022C173.526 14.022 173.856 14.124 174.084 14.328C174.312 14.532 174.426 14.826 174.426 15.21C174.426 15.582 174.312 15.876 174.084 16.092C173.856 16.296 173.526 16.398 173.094 16.398ZM177.928 27.126C177.568 27.126 177.292 27.018 177.1 26.802C176.908 26.586 176.812 26.286 176.812 25.902V19.296C176.812 18.9 176.908 18.6 177.1 18.396C177.292 18.18 177.568 18.072 177.928 18.072C178.288 18.072 178.564 18.18 178.756 18.396C178.96 18.6 179.062 18.9 179.062 19.296V25.902C179.062 26.286 178.966 26.586 178.774 26.802C178.582 27.018 178.3 27.126 177.928 27.126ZM179.638 16.326C179.278 16.326 179.002 16.23 178.81 16.038C178.618 15.846 178.522 15.57 178.522 15.21C178.522 14.862 178.618 14.592 178.81 14.4C179.002 14.208 179.278 14.112 179.638 14.112C179.986 14.112 180.256 14.208 180.448 14.4C180.64 14.592 180.736 14.862 180.736 15.21C180.736 15.57 180.64 15.846 180.448 16.038C180.268 16.23 179.998 16.326 179.638 16.326ZM176.236 16.326C175.888 16.326 175.618 16.23 175.426 16.038C175.222 15.846 175.12 15.57 175.12 15.21C175.12 14.862 175.222 14.592 175.426 14.4C175.618 14.208 175.888 14.112 176.236 14.112C176.596 14.112 176.872 14.208 177.064 14.4C177.256 14.592 177.352 14.862 177.352 15.21C177.352 15.57 177.256 15.846 177.064 16.038C176.872 16.23 176.596 16.326 176.236 16.326ZM182.744 27C182.384 27 182.108 26.904 181.916 26.712C181.724 26.52 181.628 26.244 181.628 25.884V19.314C181.628 18.954 181.724 18.678 181.916 18.486C182.108 18.294 182.384 18.198 182.744 18.198H186.38C187.136 18.198 187.748 18.288 188.216 18.468C188.696 18.648 189.044 18.912 189.26 19.26C189.476 19.596 189.584 20.01 189.584 20.502C189.584 21.054 189.392 21.522 189.008 21.906C188.636 22.278 188.138 22.506 187.514 22.59V22.338C188.294 22.386 188.882 22.608 189.278 23.004C189.686 23.4 189.89 23.91 189.89 24.534C189.89 25.29 189.602 25.89 189.026 26.334C188.45 26.778 187.616 27 186.524 27H182.744ZM183.716 25.614H186.326C186.818 25.614 187.19 25.512 187.442 25.308C187.706 25.104 187.838 24.804 187.838 24.408C187.838 24.012 187.706 23.712 187.442 23.508C187.19 23.304 186.818 23.202 186.326 23.202H183.716V25.614ZM183.716 21.816H186.164C186.596 21.816 186.932 21.72 187.172 21.528C187.412 21.324 187.532 21.042 187.532 20.682C187.532 20.322 187.412 20.052 187.172 19.872C186.932 19.68 186.596 19.584 186.164 19.584H183.716V21.816ZM192.992 27.144C192.632 27.144 192.35 27.048 192.146 26.856C191.954 26.652 191.858 26.364 191.858 25.992V19.188C191.858 18.804 191.954 18.522 192.146 18.342C192.35 18.15 192.632 18.054 192.992 18.054C193.352 18.054 193.628 18.15 193.82 18.342C194.012 18.522 194.108 18.804 194.108 19.188V21.6H197.996V19.188C197.996 18.804 198.092 18.522 198.284 18.342C198.476 18.15 198.752 18.054 199.112 18.054C199.472 18.054 199.748 18.15 199.94 18.342C200.144 18.522 200.246 18.804 200.246 19.188V25.992C200.246 26.364 200.144 26.652 199.94 26.856C199.748 27.048 199.472 27.144 199.112 27.144C198.752 27.144 198.476 27.048 198.284 26.856C198.092 26.652 197.996 26.364 197.996 25.992V23.364H194.108V25.992C194.108 26.364 194.012 26.652 193.82 26.856C193.64 27.048 193.364 27.144 192.992 27.144ZM205.725 27.18C205.089 27.18 204.519 27.06 204.015 26.82C203.523 26.568 203.133 26.232 202.845 25.812C202.569 25.392 202.431 24.918 202.431 24.39C202.431 23.742 202.599 23.232 202.935 22.86C203.271 22.476 203.817 22.2 204.573 22.032C205.329 21.864 206.343 21.78 207.615 21.78H208.515V23.076H207.633C206.889 23.076 206.295 23.112 205.851 23.184C205.407 23.256 205.089 23.382 204.897 23.562C204.717 23.73 204.627 23.97 204.627 24.282C204.627 24.678 204.765 25.002 205.041 25.254C205.317 25.506 205.701 25.632 206.193 25.632C206.589 25.632 206.937 25.542 207.237 25.362C207.549 25.17 207.795 24.912 207.975 24.588C208.155 24.264 208.245 23.892 208.245 23.472V21.402C208.245 20.802 208.113 20.37 207.849 20.106C207.585 19.842 207.141 19.71 206.517 19.71C206.169 19.71 205.791 19.752 205.383 19.836C204.987 19.92 204.567 20.064 204.123 20.268C203.895 20.376 203.691 20.406 203.511 20.358C203.343 20.31 203.211 20.214 203.115 20.07C203.019 19.914 202.971 19.746 202.971 19.566C202.971 19.386 203.019 19.212 203.115 19.044C203.211 18.864 203.373 18.732 203.601 18.648C204.153 18.42 204.681 18.258 205.185 18.162C205.701 18.066 206.169 18.018 206.589 18.018C207.453 18.018 208.161 18.15 208.713 18.414C209.277 18.678 209.697 19.08 209.973 19.62C210.249 20.148 210.387 20.832 210.387 21.672V25.992C210.387 26.364 210.297 26.652 210.117 26.856C209.937 27.048 209.679 27.144 209.343 27.144C209.007 27.144 208.743 27.048 208.551 26.856C208.371 26.652 208.281 26.364 208.281 25.992V25.128H208.425C208.341 25.548 208.173 25.914 207.921 26.226C207.681 26.526 207.375 26.76 207.003 26.928C206.631 27.096 206.205 27.18 205.725 27.18Z" fill="#0F1217"/>
</svg>
