<svg width="320" height="305" viewBox="0 0 320 305" fill="none" xmlns="http://www.w3.org/2000/svg">
<path d="M302.931 207.555C300.271 215.923 296.98 223.649 293.137 230.741C292.371 232.159 291.578 233.554 290.765 234.925C289.484 237.089 288.146 239.196 286.753 241.236C269.171 267.086 243.402 283.012 214.511 290.201C214.465 290.212 214.428 290.227 214.387 290.233C198.977 294.052 182.676 295.393 166.263 294.431C138.334 292.801 110.063 284.501 85.2559 270.441C71.6776 262.747 59.2711 252.811 48.6537 241.239C46.7669 239.187 44.9461 237.081 43.1799 234.928C42.0484 233.551 40.9427 232.159 39.8629 230.744C25.0669 211.38 14.9895 188.495 11.9194 164.281C6.24459 119.544 27.2524 69.073 63.5043 42.1441C81.465 28.8103 101.844 24.2298 123.423 31.2268C146.174 38.6026 167.036 49.4338 190.502 54.8609C202.4 57.6161 214.904 58.7526 227.156 60.598C244.835 63.2613 261.977 67.4027 276.021 79.9875C306.362 107.175 314.697 170.526 302.928 207.552L302.931 207.555Z" fill="white"/>
<path d="M189.108 100.271C188.921 100.271 188.764 100.128 188.755 99.9423C188.74 99.7476 188.89 99.5802 189.087 99.5681C189.301 99.5528 210.663 98.0102 210.467 84.9057C210.415 81.352 209.249 78.5284 207.006 76.5142C202.419 72.3946 194.794 72.9818 194.72 72.9879C194.505 73.0152 194.352 72.8601 194.337 72.6684C194.321 72.4737 194.465 72.3033 194.659 72.2881C194.99 72.2607 202.67 71.6735 207.481 75.994C209.878 78.1451 211.117 81.139 211.172 84.8966C211.378 98.6705 189.35 100.259 189.13 100.271C189.12 100.271 189.114 100.271 189.105 100.271H189.108Z" fill="#5C8FCC"/>
<path d="M229.488 199.268L139.061 199.825L162.307 111.58H239.481C247.551 111.58 253.445 119.144 251.405 126.891L229.488 199.271V199.268Z" fill="#0F1217"/>
<path d="M139.061 200.179C138.95 200.179 138.846 200.13 138.781 200.042C138.714 199.957 138.689 199.841 138.717 199.738L161.963 111.493C162.006 111.338 162.147 111.231 162.306 111.231H239.481C243.439 111.231 247.097 113.014 249.515 116.118C251.935 119.224 252.749 123.183 251.748 126.98L229.825 199.373C229.782 199.519 229.644 199.622 229.487 199.622L139.061 200.179ZM162.582 111.934L139.521 199.473L229.224 198.919L251.067 126.788C252.009 123.216 251.239 119.48 248.956 116.547C246.673 113.614 243.221 111.931 239.484 111.931H162.586L162.582 111.934Z" fill="#0F1217"/>
<path d="M223.949 199.268L133.522 199.825L156.768 111.58H233.942C242.012 111.58 247.906 119.144 245.866 126.891L223.949 199.271V199.268Z" fill="white"/>
<path d="M133.523 200.179C133.413 200.179 133.308 200.13 133.244 200.042C133.176 199.957 133.152 199.841 133.179 199.738L156.428 111.493C156.471 111.338 156.612 111.231 156.772 111.231H233.943C237.902 111.231 241.559 113.014 243.977 116.118C246.398 119.224 247.208 123.183 246.211 126.98L224.291 199.373C224.248 199.519 224.109 199.622 223.953 199.622L133.523 200.179ZM157.045 111.934L133.983 199.473L223.686 198.919L245.526 126.788C246.468 123.216 245.698 119.48 243.415 116.547C241.133 113.614 237.681 111.931 233.943 111.931H157.045V111.934Z" fill="#0F1217"/>
<path d="M158.532 30.0542C158.532 30.0542 140.377 29.1414 143.955 47.0167C143.955 47.0167 125.928 58.6151 138.864 72.2582C138.864 72.2582 132.258 75.9428 131.571 85.2197C130.883 94.4966 144.04 103.159 157.55 99.4408C171.06 95.7258 181.235 99.4408 181.235 99.4408C181.235 99.4408 207.727 104.056 208.488 85.0827C208.877 75.3951 200.783 73.3474 200.783 73.3474C200.783 73.3474 211.617 55.0066 197.445 46.0005C197.445 46.0005 196.77 32.5735 185.193 27.0725C179.289 24.2702 169.741 23.0775 158.532 30.0512V30.0542Z" fill="#0F1217"/>
<path d="M181.235 91.898C181.235 91.898 216.797 100.347 221.185 106.265C223.649 109.588 194.733 122.665 169.097 123.833C149.051 124.746 131.01 114.505 131.544 112.183C132.759 106.895 157.551 91.898 157.551 91.898V61.5115H181.235V91.898Z" fill="white"/>
<path d="M166.537 124.242C149.585 124.242 134.59 116.806 131.697 113.377C131.279 112.881 131.117 112.464 131.196 112.105C132.39 106.905 154.816 93.1434 157.194 91.7012V61.5125C157.194 61.3178 157.354 61.1595 157.55 61.1595H181.232C181.428 61.1595 181.588 61.3178 181.588 61.5125V91.6191C185.141 92.474 217.208 100.312 221.47 106.056C221.66 106.312 221.82 106.747 221.519 107.377C219.304 111.983 192.517 123.119 169.115 124.184C168.253 124.224 167.39 124.242 166.537 124.242ZM157.906 61.8624V91.8959C157.906 92.0176 157.842 92.1332 157.734 92.1971C157.489 92.3462 133.056 107.173 131.89 112.26C131.884 112.278 131.856 112.467 132.24 112.926C135.124 116.343 151.601 124.3 169.078 123.481C192.621 122.41 218.938 111.095 220.875 107.072C221.059 106.692 220.939 106.534 220.896 106.473C216.631 100.726 181.502 92.3219 181.146 92.2397C180.986 92.2002 180.873 92.0602 180.873 91.899V61.8654H157.9L157.906 61.8624Z" fill="#0F1217"/>
<path d="M227.879 178.807C227.879 178.807 220.614 177.566 216.465 173.449C212.314 169.333 223.292 159.143 223.292 159.143C223.292 159.143 227.833 173.973 227.879 178.807Z" fill="#0F1217"/>
<path d="M227.879 179.159C227.861 179.159 227.839 179.159 227.821 179.153C227.52 179.101 220.399 177.845 216.213 173.698C215.505 172.995 215.155 172.091 215.173 171.011C215.253 166.176 222.731 159.178 223.05 158.883C223.139 158.801 223.264 158.768 223.384 158.801C223.504 158.832 223.596 158.923 223.633 159.039C223.82 159.647 228.186 173.972 228.235 178.8C228.235 178.904 228.192 179.004 228.109 179.071C228.045 179.126 227.962 179.156 227.879 179.156V179.159ZM223.12 159.799C221.534 161.354 215.95 167.111 215.882 171.023C215.867 171.918 216.14 172.63 216.717 173.199C220.165 176.619 225.903 178.033 227.511 178.374C227.256 173.829 223.912 162.443 223.12 159.796V159.799Z" fill="#0F1217"/>
<path d="M116.816 167.603L98.219 160.073C98.219 160.073 101.579 183.477 124.714 191.22C124.714 191.22 119.838 174.985 116.816 167.606V167.603Z" fill="#0F1217"/>
<path d="M124.716 191.571C124.68 191.571 124.64 191.565 124.603 191.553C101.526 183.828 97.9023 160.357 97.8686 160.123C97.8501 159.998 97.8992 159.873 98.0005 159.794C98.1017 159.715 98.2337 159.697 98.3533 159.746L116.951 167.276C117.04 167.313 117.107 167.383 117.144 167.471C120.139 174.782 125.005 190.957 125.054 191.118C125.094 191.246 125.054 191.38 124.962 191.471C124.894 191.535 124.805 191.571 124.716 191.571ZM98.6847 160.64C99.4211 164.337 104.168 183.584 124.18 190.662C123.238 187.567 119.187 174.365 116.549 167.872L98.6878 160.64H98.6847Z" fill="#0F1217"/>
<path d="M109.356 152.486L99.0589 168.548C96.3189 172.82 92.7136 176.48 88.4701 179.291L49.7109 204.98C49.7109 204.98 42.0554 199.832 39.972 199.446C37.8886 199.059 26.4805 200.012 23.4766 204.411C20.4727 208.808 23.9123 212.666 23.9123 212.666C22.5899 215.599 24.6917 217.835 24.6917 217.835C24.1486 221.617 26.6186 222.375 26.6186 222.375C25.8515 227.882 37.1522 227.976 40.5979 227.501C44.0467 227.027 53.6261 221.197 53.6261 221.197C53.6261 221.197 110.758 199.805 113.06 196.799C115.364 193.795 139.454 161.084 139.454 161.084L109.356 152.483V152.486Z" fill="white"/>
<path d="M37.3851 228.045C33.9087 228.045 29.3675 227.476 27.3179 225.449C26.514 224.652 26.1519 223.694 26.2348 222.592C25.5628 222.252 23.9212 221.08 24.314 217.946C23.8783 217.417 22.4239 215.36 23.5009 212.722C22.8596 211.889 20.4233 208.244 23.1787 204.215C26.2378 199.74 37.6612 198.672 40.0331 199.101C41.9999 199.466 48.4618 203.728 49.7075 204.559L88.2704 179.001C92.4985 176.199 96.0271 172.621 98.7579 168.361L109.055 152.299C109.141 152.165 109.298 152.101 109.454 152.15L139.551 160.755C139.662 160.785 139.751 160.87 139.788 160.98C139.825 161.089 139.806 161.208 139.739 161.302C139.496 161.631 115.618 194.047 113.342 197.019C111.004 200.068 56.0835 220.657 53.7485 221.534C53.4171 221.747 44.1232 227.379 40.6437 227.859C39.8306 227.972 38.6799 228.051 37.382 228.051L37.3851 228.045ZM38.64 199.712C34.9672 199.712 26.2409 200.987 23.7678 204.611C20.9511 208.733 24.1452 212.4 24.179 212.433C24.271 212.537 24.2956 212.686 24.2373 212.811C23.0284 215.485 24.8724 217.511 24.9522 217.597C25.0258 217.676 25.0565 217.782 25.0412 217.886C24.5502 221.302 26.6367 222.011 26.7226 222.042C26.8853 222.094 26.9926 222.255 26.9681 222.425C26.83 223.42 27.1092 224.245 27.8211 224.951C30.4967 227.601 38.0908 227.5 40.5485 227.156C43.8838 226.697 53.3435 220.959 53.4386 220.901C69.3633 214.931 110.939 198.988 112.777 196.59C114.913 193.803 136.084 165.066 138.864 161.29L109.509 152.899L99.3532 168.738C96.5702 173.08 92.9741 176.731 88.6631 179.585L49.9039 205.274C49.7842 205.353 49.6308 205.353 49.5081 205.274C46.8816 203.509 41.4936 200.089 39.9042 199.794C39.6188 199.74 39.1862 199.712 38.64 199.712Z" fill="#0F1217"/>
<path d="M130.32 108.912C130.32 108.912 164.087 135.684 221.336 104.211C221.336 104.211 247.048 122.807 227.883 178.806C227.883 178.806 225.119 166.946 206.141 155.53V199.271H127.503C127.503 199.271 130.485 190.049 130.31 180.653L124.717 191.22C124.717 191.22 114.189 169.469 98.2217 160.073C98.2217 160.073 124.839 129.884 130.323 108.912H130.32Z" fill="#0F1217"/>
<path d="M206.138 199.622H127.502C127.389 199.622 127.282 199.567 127.217 199.479C127.15 199.387 127.131 199.272 127.165 199.165C127.193 199.08 129.837 190.804 129.96 182.078L125.032 191.388C124.968 191.507 124.839 191.559 124.71 191.577C124.578 191.577 124.456 191.498 124.397 191.379C124.293 191.163 113.732 169.615 98.0403 160.381C97.9513 160.326 97.8869 160.238 97.8715 160.135C97.8562 160.031 97.8838 159.928 97.9544 159.849C98.2213 159.547 124.578 129.48 129.979 108.83C130.009 108.715 130.095 108.623 130.209 108.584C130.325 108.547 130.451 108.569 130.543 108.642C130.626 108.709 139.122 115.326 154.467 118.031C168.633 120.529 191.704 120.106 221.163 103.91C221.286 103.846 221.433 103.853 221.544 103.935C221.811 104.126 228.11 108.782 232.133 120.401C238.831 139.752 233.701 162.91 228.217 178.926C228.168 179.075 228.064 179.175 227.865 179.166C227.705 179.157 227.573 179.047 227.536 178.895C227.509 178.78 224.621 167.26 206.494 156.167V199.278C206.494 199.473 206.334 199.631 206.138 199.631V199.622ZM127.978 198.919H205.782V155.531C205.782 155.403 205.852 155.288 205.963 155.224C206.076 155.16 206.211 155.163 206.322 155.23C221.976 164.65 226.708 174.517 227.886 177.684C245.284 125.781 223.501 106.421 221.298 104.635C191.735 120.83 168.551 121.235 154.298 118.713C140.733 116.312 132.449 110.875 130.528 109.506C125.115 129.137 101.593 156.721 98.7644 159.989C112.937 168.538 122.869 186.855 124.723 190.451L129.994 180.49C130.071 180.347 130.236 180.274 130.39 180.31C130.549 180.347 130.66 180.484 130.663 180.645C130.813 188.808 128.57 196.929 127.978 198.919Z" fill="#0F1217"/>
<path d="M140.38 113.985C140.38 113.985 147.366 137.833 159.511 134.291C171.655 130.749 171.122 126.788 178.553 126.499C185.985 126.21 204.987 123.133 204.517 116.583C204.048 110.033 151.687 118.774 140.383 113.985H140.38Z" fill="#5C8FCC"/>
<path d="M198.018 122.88C198.018 122.88 191.836 140.821 185.281 136.785C178.725 132.748 179.322 128.82 175.17 128.223C171.018 127.626 157.61 120.498 161.33 117.257C165.051 114.015 199.286 111.647 197.711 114.209L198.018 122.88Z" fill="#5C8FCC"/>
<path d="M305.797 200.23H61.3454C61.1491 200.23 60.9895 200.072 60.9895 199.877C60.9895 199.683 61.1491 199.524 61.3454 199.524H305.797C305.993 199.524 306.152 199.683 306.152 199.877C306.152 200.072 305.993 200.23 305.797 200.23Z" fill="#0F1217"/>
<path d="M147.385 255.007L71.7722 252.494L119.746 234.311L195.359 230.763V234.311L147.385 255.007Z" fill="#0F1217"/>
<path d="M147.385 251.459L71.7722 248.943L119.746 230.763H195.359L147.385 251.459Z" fill="#5C8FCC"/>
<path d="M157.551 78.4619V83.6404C157.551 83.6404 165.522 82.9954 169.097 78.1607C169.097 78.1607 161.472 77.6647 157.551 78.4588V78.4619Z" fill="#0F1217"/>
<path d="M167.664 31.6017C162.884 30.8897 152.095 32.5784 149.315 43.8177C146.256 56.192 143.283 73.69 154.501 77.6119C165.722 81.5338 179.99 77.3198 182.558 63.6555C185.126 49.9912 191.042 35.0794 167.661 31.6017H167.664Z" fill="white"/>
<path d="M154.411 81.1746C154.378 81.1746 154.341 81.1685 154.307 81.1594C154.255 81.1442 148.934 79.5225 143.62 76.416C136.523 72.2689 132.651 67.3642 132.421 62.2313C132.175 56.8277 134.639 52.2181 139.539 48.9078C143.215 46.425 146.906 45.5548 147.06 45.5183C147.25 45.4696 147.443 45.5913 147.486 45.78C147.529 45.9686 147.412 46.1573 147.222 46.2029C147.185 46.212 143.491 47.0853 139.923 49.5011C135.182 52.711 132.896 56.9859 133.132 62.2009C133.666 74.0549 154.307 80.4231 154.519 80.487C154.706 80.5448 154.81 80.7395 154.755 80.9281C154.709 81.0803 154.568 81.1776 154.414 81.1776L154.411 81.1746Z" fill="#0F1217"/>
<path d="M156.234 65.0869C156.105 65.0869 155.976 65.0169 155.914 64.8891C155.15 63.3526 155.055 62.2025 155.632 61.4662C156.362 60.5351 157.924 60.6234 158.615 60.7147L159.894 55.813C159.943 55.6244 160.136 55.5149 160.327 55.5605C160.517 55.6092 160.63 55.8009 160.581 55.9895L159.219 61.2015C159.173 61.384 158.983 61.4997 158.802 61.4571C158.259 61.3445 156.737 61.2045 156.191 61.8982C155.801 62.3972 155.924 63.3222 156.55 64.5757C156.635 64.7492 156.565 64.9591 156.387 65.0473C156.338 65.0717 156.283 65.0838 156.23 65.0838L156.234 65.0869Z" fill="#0F1217"/>
<path d="M165.942 51.819C165.653 52.3484 166.273 52.7257 166.724 52.8839C167.642 53.2125 168.676 53.3616 169.679 53.3068C170.339 53.2703 172.1 53.1699 172.355 52.4366C172.784 51.2074 169.559 50.7358 168.798 50.7419C167.918 50.751 166.396 50.9883 165.942 51.819Z" fill="#0F1217"/>
<path d="M148.493 50.5011C148.223 51.0305 148.809 51.4078 149.232 51.569C150.094 51.9007 151.064 52.0528 152.006 52.0041C152.626 51.9707 154.276 51.8763 154.516 51.1461C154.915 49.9199 151.883 49.4331 151.168 49.4362C150.34 49.4392 148.913 49.6705 148.493 50.498V50.5011Z" fill="#0F1217"/>
<path d="M169.007 61.231C165.807 61.231 163.14 58.4409 163.024 58.3192C162.91 58.1975 162.895 58.0119 162.993 57.875C163.094 57.732 165.528 54.376 168.887 54.1478C172.247 53.9227 175.116 56.9196 175.236 57.0474C175.349 57.1691 175.365 57.3547 175.267 57.4916C175.165 57.6346 172.732 60.9906 169.372 61.2188C169.25 61.2279 169.127 61.231 169.007 61.231ZM163.754 58.0484C164.457 58.7056 166.752 60.6955 169.326 60.519C171.867 60.3486 173.901 58.0697 174.506 57.3212C173.834 56.6914 171.661 54.8415 169.246 54.8415C169.145 54.8415 169.041 54.8415 168.934 54.8507C166.393 55.021 164.359 57.2999 163.754 58.0484Z" fill="#0F1217"/>
<path d="M151.245 60.0783C151.055 60.0783 150.861 60.0692 150.668 60.0479C147.321 59.6919 145.022 56.2416 144.924 56.0956C144.832 55.9556 144.854 55.77 144.973 55.6544C145.099 55.5327 148.085 52.6514 151.432 53.0012C154.78 53.3572 157.078 56.8075 157.176 56.9536C157.268 57.0936 157.247 57.2791 157.127 57.3948C157.01 57.5104 154.353 60.0783 151.248 60.0783H151.245ZM145.691 55.9526C146.265 56.7224 148.217 59.0773 150.742 59.3451C153.27 59.625 155.679 57.7234 156.403 57.0935C155.829 56.3238 153.878 53.9688 151.352 53.701C148.809 53.4333 146.415 55.3228 145.688 55.9526H145.691Z" fill="#0F1217"/>
<path d="M155.9 67.9219C155.746 68.3265 157.842 71.7769 160.655 70.9645C163.469 70.1521 163.058 66.2971 162.702 66.145C162.343 65.9929 161.119 67.3681 159.014 67.7454C157.102 68.0892 156.111 67.356 155.9 67.9188V67.9219Z" fill="#0F1217"/>
<path d="M158.713 70.8938C158.713 70.8938 159.646 68.2194 162.365 69.6707C162.365 69.6707 161.647 72.0105 158.713 70.8938Z" fill="white"/>
<path d="M159.79 71.4433C158.354 71.4433 157.246 70.5184 156.657 69.8916C156.139 69.3379 155.384 68.2821 155.565 67.8013C155.767 67.2567 156.32 67.3328 156.857 67.4058C157.357 67.4758 158.047 67.5701 158.949 67.4058C160.173 67.1837 161.094 66.6026 161.705 66.2161C162.217 65.8906 162.527 65.6928 162.84 65.8267C163.386 66.0579 163.312 67.5336 163.3 67.7009C163.248 68.5802 162.892 70.6918 160.756 71.3064C160.422 71.4038 160.097 71.4464 159.793 71.4464L159.79 71.4433ZM156.264 68.0539C156.381 68.4159 157.013 69.4504 158.004 70.1289C158.848 70.707 159.704 70.8713 160.557 70.6279C161.392 70.3875 161.984 69.8247 162.321 68.9545C162.689 67.9991 162.628 66.9555 162.521 66.5447C162.401 66.6086 162.235 66.7151 162.091 66.8064C161.435 67.2202 160.44 67.85 159.081 68.0965C158.062 68.2821 157.283 68.1725 156.764 68.1026C156.59 68.0782 156.375 68.0387 156.267 68.0569L156.264 68.0539Z" fill="#0F1217"/>
<path d="M168.961 54.4973C168.059 56.545 167.758 59.1464 168.976 60.8685C169.102 60.8685 169.225 60.8746 169.351 60.8685C172.579 60.6495 174.978 57.2874 174.978 57.2874C174.978 57.2874 172.171 54.3148 168.961 54.4973Z" fill="#0F1217"/>
<path d="M151.005 54.4837C150.741 55.3417 150.585 56.2393 150.502 57.1307C150.422 58.0161 150.484 58.935 150.947 59.7078C154.068 59.8843 156.872 57.1429 156.872 57.1429C156.872 57.1429 154.635 53.7382 151.447 53.3579C151.239 53.7413 151.091 54.1977 151.002 54.4806L151.005 54.4837Z" fill="#0F1217"/>
<path d="M162.78 79.3716C159.978 79.3716 157.125 78.903 154.388 77.9446C142.943 73.9436 145.818 56.5034 148.975 43.7336C151.629 33.0053 161.896 30.3887 167.72 31.2558C175.375 32.3938 180.407 34.8126 183.101 38.6524C187.004 44.2143 185.363 51.979 183.776 59.4882C183.479 60.903 183.178 62.3178 182.914 63.7204C182.877 63.9091 182.699 64.0399 182.5 64.0034C182.307 63.9669 182.181 63.7843 182.214 63.5926C182.478 62.1839 182.779 60.7661 183.08 59.3452C184.635 51.9821 186.243 44.3664 182.518 39.054C179.944 35.3816 175.068 33.0601 167.615 31.9526C163.863 31.3928 152.513 32.3907 149.666 43.9039C146.573 56.4091 143.722 73.472 154.624 77.2844C161.623 79.7276 169.389 78.903 174.89 75.1241C175.056 75.0146 175.274 75.0511 175.384 75.2124C175.498 75.3706 175.455 75.5927 175.295 75.7022C171.77 78.1241 167.351 79.3746 162.783 79.3746L162.78 79.3716Z" fill="#0F1217"/>
<path d="M144.636 50.0101C144.636 50.0101 154.642 48.3854 159.815 38.2079C159.815 38.2079 165.872 50.4574 184.276 55.2373L188.621 46.7241L181.634 34.8732L170.023 30.8539H162.92L151.362 34.788C151.362 34.788 143.007 47.8468 144.636 50.0101Z" fill="#0F1217"/>
<path d="M179.591 58.9254C179.591 58.9254 184.402 51.7601 189.394 54.6658C194.389 57.5714 191.18 68.8869 180.738 68.2023C174.479 67.7915 179.591 58.9254 179.591 58.9254Z" fill="white"/>
<path d="M182.861 61.8647C182.84 61.8647 182.815 61.8647 182.794 61.8586C182.6 61.8221 182.478 61.6365 182.514 61.4448C182.53 61.3596 182.935 59.3971 184.484 58.5239C185.368 58.0249 186.433 57.9854 187.642 58.4113C187.826 58.4752 187.924 58.676 187.856 58.8616C187.792 59.0442 187.592 59.1385 187.402 59.0746C186.396 58.7217 185.531 58.7399 184.834 59.1355C183.564 59.8505 183.211 61.5635 183.208 61.5817C183.174 61.7491 183.027 61.8677 182.861 61.8677V61.8647Z" fill="#0F1217"/>
<path d="M181.389 68.5665C181.171 68.5665 180.95 68.5604 180.726 68.5512C180.529 68.5421 180.379 68.3778 180.385 68.1831C180.394 67.9944 180.551 67.8454 180.741 67.8454H180.756C186.819 68.1161 190.078 64.4802 191.029 61.2825C191.83 58.6019 191.1 56.0613 189.216 54.966C184.58 52.2611 179.934 59.0492 179.888 59.1161C179.781 59.2774 179.56 59.32 179.397 59.2135C179.235 59.107 179.192 58.8879 179.299 58.7267C179.348 58.6536 184.353 51.321 189.578 54.3575C191.747 55.6202 192.606 58.4833 191.71 61.4802C190.719 64.7997 187.433 68.5604 181.392 68.5604L181.389 68.5665Z" fill="#0F1217"/>
<path d="M186.503 62.5689C186.408 62.5689 186.313 62.5293 186.242 62.4563C184.76 60.8681 184.831 58.6744 184.834 58.5831C184.843 58.3944 185 58.2454 185.19 58.2454H185.202C185.399 58.2545 185.549 58.4157 185.543 58.6105C185.543 58.6287 185.485 60.6095 186.764 61.9786C186.896 62.1216 186.89 62.3437 186.746 62.4776C186.678 62.5385 186.589 62.5719 186.503 62.5719V62.5689Z" fill="#0F1217"/>
<path d="M195.048 52.3903C194.981 52.3903 194.916 52.372 194.858 52.3355C194.692 52.2321 194.643 52.013 194.751 51.8517C194.818 51.7483 201.375 41.376 194.094 31.6762C186.156 21.0971 167.863 26.2421 167.682 26.2969C167.495 26.3486 167.295 26.2452 167.24 26.0565C167.185 25.8709 167.295 25.6732 167.482 25.6184C167.529 25.6032 172.202 24.2736 177.823 24.2736H177.915C185.457 24.2918 191.25 26.7076 194.662 31.2533C202.241 41.3517 195.417 52.1225 195.346 52.229C195.279 52.3355 195.165 52.3903 195.048 52.3903Z" fill="#0F1217"/>
<path d="M130.31 181.003C130.31 181.003 130.291 181.003 130.282 181.003C130.086 180.987 129.941 180.817 129.957 180.625C129.978 180.348 132.095 152.74 131.181 145.739C131.156 145.547 131.294 145.368 131.488 145.343C131.675 145.328 131.859 145.456 131.887 145.648C132.81 152.719 130.751 179.539 130.665 180.68C130.653 180.866 130.497 181.006 130.313 181.006L130.31 181.003Z" fill="white"/>
<path d="M208.5 54.4103C204.754 54.4225 206.257 66.7663 206.257 66.7663L211.66 74.5797C211.66 74.5797 211.166 54.4012 208.5 54.4103Z" fill="white"/>
<path d="M211.66 74.9285C211.543 74.9285 211.436 74.8738 211.369 74.7764L205.965 66.963C205.934 66.9174 205.913 66.8626 205.907 66.8078C205.861 66.4184 204.775 57.2784 207.027 54.75C207.435 54.2906 207.932 54.0563 208.503 54.0563C211.295 54.0563 211.896 69.7561 212.016 74.5695C212.019 74.7247 211.921 74.8646 211.77 74.9133C211.734 74.9255 211.697 74.9285 211.66 74.9285ZM206.6 66.6374L211.273 73.392C210.979 64.2094 209.874 54.7591 208.503 54.7591C208.141 54.7591 207.831 54.9082 207.558 55.2155C205.622 57.3879 206.493 65.7034 206.6 66.6374Z" fill="#0F1217"/>
<path d="M200.566 81.5931L184.337 77.802C183.309 77.5616 182.671 76.5393 182.913 75.52L189.271 48.7603C189.513 47.7411 190.544 47.1082 191.572 47.3486L207.801 51.1397C208.829 51.38 209.467 52.4023 209.224 53.4216L202.867 80.1813C202.624 81.2006 201.593 81.8334 200.566 81.5931Z" fill="#0F1217"/>
<path d="M201.008 81.9933C200.833 81.9933 200.658 81.9751 200.483 81.9325L184.254 78.1414C183.036 77.8554 182.282 76.6444 182.567 75.4365L188.921 48.6768C189.059 48.0926 189.422 47.5937 189.937 47.2803C190.452 46.9638 191.063 46.8634 191.652 47.0034L207.881 50.7945C209.099 51.0805 209.854 52.2914 209.568 53.4993L203.211 80.259C203.073 80.8432 202.714 81.3392 202.198 81.6556C201.836 81.8777 201.425 81.9933 201.008 81.9933ZM191.128 47.6454C190.842 47.6454 190.56 47.7245 190.311 47.8766C189.955 48.0957 189.707 48.4365 189.612 48.8381L183.257 75.5978C183.061 76.4254 183.579 77.259 184.417 77.4568L200.646 81.2479C201.047 81.3422 201.465 81.2753 201.824 81.0562C202.177 80.8402 202.425 80.4994 202.52 80.0978L208.878 53.335C209.074 52.5075 208.556 51.6738 207.718 51.476L191.49 47.6849C191.37 47.6575 191.25 47.6423 191.131 47.6423L191.128 47.6454Z" fill="#0F1217"/>
<path d="M31.3037 214.247C28.0942 214.247 24.8449 213.903 23.682 212.935C23.5316 212.811 23.5132 212.589 23.639 212.439C23.7679 212.293 23.9888 212.272 24.1392 212.397C25.9372 213.897 34.6605 213.726 37.8546 213.011C38.5818 212.85 39.0911 212.506 39.3612 211.995C39.9472 210.891 39.3274 209.318 39.3213 209.303C39.2507 209.123 39.3366 208.919 39.5207 208.846C39.7017 208.776 39.9073 208.861 39.981 209.044C40.0116 209.12 40.7296 210.93 39.9902 212.324C39.6158 213.027 38.95 213.492 38.008 213.702C36.615 214.016 33.9732 214.253 31.3006 214.253L31.3037 214.247Z" fill="#0F1217"/>
<path d="M32.1111 219.191C28.4782 219.191 24.8453 218.242 24.5967 218.175C24.4065 218.126 24.296 217.931 24.3451 217.746C24.3942 217.557 24.5937 217.448 24.7778 217.496C24.876 217.521 34.4584 220.028 37.7998 216.955C38.8031 216.03 39.1376 214.654 38.7939 212.859C38.7571 212.668 38.8829 212.485 39.0762 212.446C39.2664 212.409 39.4536 212.537 39.4935 212.725C39.8832 214.773 39.4782 216.371 38.2815 217.469C36.8486 218.786 34.4768 219.191 32.105 219.191H32.1111Z" fill="#0F1217"/>
<path d="M30.8922 223.035C28.6155 223.035 26.7285 222.749 26.5597 222.724C26.3664 222.694 26.2345 222.514 26.2652 222.323C26.2959 222.131 26.4708 222.003 26.6702 222.031C26.7561 222.046 35.4334 223.354 37.9617 220.357C38.7257 219.453 38.8392 218.2 38.293 216.633C38.2286 216.45 38.3268 216.25 38.514 216.186C38.6919 216.119 38.9006 216.219 38.965 216.405C39.5971 218.218 39.4406 219.7 38.5048 220.807C36.9767 222.615 33.6476 223.035 30.8892 223.035H30.8922Z" fill="#0F1217"/>
<path d="M32.4078 226.298C32.1623 226.298 32.0058 226.292 31.969 226.289C31.7726 226.28 31.6223 226.115 31.6315 225.921C31.6438 225.726 31.8125 225.601 32.0028 225.586C32.0457 225.592 36.7556 225.778 38.0505 223.794C38.5414 223.045 38.4708 222.041 37.8449 220.803C37.759 220.629 37.8295 220.416 38.0014 220.331C38.1763 220.249 38.391 220.316 38.477 220.49C39.2226 221.965 39.2778 223.207 38.6426 224.18C37.3693 226.124 33.6842 226.301 32.4047 226.301L32.4078 226.298Z" fill="#0F1217"/>
<path d="M36.8209 204.304L29.2605 206.592L22.4181 184.342C21.7799 182.273 22.9581 180.082 25.0446 179.449C27.1311 178.816 29.3403 179.985 29.9785 182.054L36.8209 204.304Z" fill="#0F1217"/>
<path d="M49.71 204.983C49.71 204.983 41.8642 198.97 38.3571 199.932C34.85 200.89 23.9114 206.102 28.0536 210.225C30.5145 212.674 37.9368 207.115 37.9368 207.115C37.9368 207.115 39.0659 213.359 47.2062 213.359L49.713 204.986L49.71 204.983Z" fill="white"/>
<path d="M22.4181 184.342C21.7799 182.273 22.9581 180.082 25.0446 179.449C27.131 178.816 29.3402 179.985 29.9785 182.054L22.4181 184.342Z" fill="#FF5C5C"/>
<path d="M219.884 89.4193L229.672 48.3715C230.027 46.8806 231.368 45.8309 232.912 45.8309H298.144C300.268 45.8309 301.848 47.7752 301.397 49.832L295.794 75.4111C295.463 76.9294 294.107 78.0126 292.542 78.0126H232.053L219.884 89.4193Z" fill="white"/>
<path d="M219.883 89.7679C219.822 89.7679 219.76 89.7527 219.705 89.7222C219.57 89.6431 219.503 89.488 219.536 89.3358L229.324 48.2881C229.72 46.6329 231.193 45.4767 232.908 45.4767H298.144C299.264 45.4767 300.31 45.9726 301.013 46.8367C301.716 47.7008 301.983 48.8205 301.746 49.9037L296.144 75.4829C295.778 77.1502 294.263 78.3612 292.544 78.3612H232.196L220.129 89.6705C220.061 89.7344 219.972 89.7679 219.883 89.7679ZM232.911 46.1765C231.527 46.1765 230.337 47.1106 230.018 48.4463L220.503 88.35L231.81 77.7526C231.877 77.6918 231.963 77.6553 232.055 77.6553H292.544C293.934 77.6553 295.156 76.6786 295.45 75.3338L301.053 49.7546C301.243 48.8783 301.028 47.9747 300.461 47.2749C299.893 46.5751 299.049 46.1765 298.147 46.1765H232.911Z" fill="#0F1217"/>
<path d="M148.606 251.458L74.3835 252.493L51.6655 196.886H127.275L148.606 251.458Z" fill="#0F1217"/>
<path d="M147.385 255.006L71.7724 252.493L49.0544 196.886H124.664L147.385 255.006Z" fill="#5C8FCC"/>
<path d="M260.868 233.085L220.725 226.796L252.808 203.252L292.954 209.538L260.868 233.085Z" fill="#0F1217"/>
<path d="M260.871 233.437C260.852 233.437 260.834 233.437 260.815 233.434L220.672 227.148C220.531 227.126 220.418 227.02 220.384 226.883C220.35 226.746 220.402 226.6 220.519 226.515L252.601 202.968C252.678 202.91 252.776 202.889 252.868 202.904L293.011 209.193C293.153 209.215 293.266 209.321 293.3 209.458C293.334 209.595 293.281 209.741 293.165 209.826L261.082 233.373C261.021 233.419 260.947 233.443 260.871 233.443V233.437ZM221.617 226.582L260.779 232.716L292.06 209.759L252.899 203.625L221.617 226.585V226.582Z" fill="#0F1217"/>
<path d="M259.582 228.318L232.258 224.04L254.096 208.015L281.419 212.293L259.582 228.318Z" fill="#FF5C5C"/>
<path d="M220.724 242.883C220.724 244.639 214.364 246.06 206.515 246.06C198.666 246.06 192.305 244.639 192.305 242.883C192.305 241.128 198.666 239.707 206.515 239.707C214.364 239.707 220.724 241.128 220.724 242.883Z" fill="#5C8FCC"/>
<path d="M192.308 242.883L195.355 258.181C195.355 259.559 200.351 260.676 206.515 260.676C212.679 260.676 217.674 259.559 217.674 258.181L220.721 242.883H192.305H192.308Z" fill="#5C8FCC"/>
<path d="M225.563 246.394C223.563 244.468 219.687 244.769 219.255 244.805C218.558 244.869 218.046 245.484 218.11 246.175C218.175 246.865 218.81 247.373 219.491 247.309C220.501 247.212 222.879 247.309 223.796 248.195C223.995 248.387 224.219 248.688 224.179 249.324C224.041 251.49 219.175 254.447 215.766 255.853C215.119 256.121 214.815 256.857 215.082 257.496C215.284 257.98 215.757 258.272 216.251 258.272C216.414 258.272 216.579 258.242 216.739 258.175C218.353 257.508 226.422 253.967 226.711 249.482C226.788 248.259 226.392 247.188 225.563 246.391V246.394Z" fill="#5C8FCC"/>
<path d="M206.518 246.061C211.298 246.061 215.514 245.532 218.091 244.722C217.981 243.314 212.848 242.179 206.518 242.179C200.188 242.179 195.054 243.314 194.944 244.722C197.518 245.532 201.737 246.061 206.518 246.061Z" fill="#0F1217"/>
<path d="M160.791 34.4027C160.622 34.3844 160.456 34.497 160.432 34.6704C159.527 41.0934 157.314 45.3987 153.853 47.4707C149.889 49.8439 145.615 48.3622 145.575 48.3469C145.412 48.2891 145.228 48.3743 145.17 48.5356C145.112 48.6999 145.195 48.8794 145.36 48.9372C145.461 48.9737 146.854 49.4605 148.794 49.4605C150.362 49.4605 152.285 49.1441 154.179 48.0123C157.815 45.8398 160.131 41.3794 161.064 34.7556C161.088 34.5822 160.969 34.424 160.794 34.3997L160.791 34.4027Z" fill="#0F1217"/>
<path d="M198.624 51.0908L194.607 55.8829H201.499L198.624 51.0908Z" fill="white"/>
<path d="M201.499 56.2334H194.604C194.466 56.2334 194.34 56.1543 194.282 56.0326C194.224 55.9079 194.242 55.7618 194.331 55.6584L198.347 50.8663C198.421 50.7811 198.535 50.7233 198.648 50.7415C198.762 50.7507 198.866 50.8146 198.924 50.9119L201.799 55.704C201.864 55.8136 201.867 55.9474 201.802 56.06C201.738 56.1695 201.621 56.2365 201.492 56.2365L201.499 56.2334ZM195.362 55.5306H200.876L198.574 51.6969L195.362 55.5306Z" fill="#0F1217"/>
<path d="M88.2432 203.252L87.0005 212.794L96.9266 211.531L88.2432 203.252Z" fill="white"/>
<path d="M293.248 209.428C293.214 209.337 293.137 209.267 293.042 209.236C292.95 209.209 292.843 209.227 292.766 209.285L260.684 232.829C260.616 232.877 260.573 232.95 260.561 233.029C260.536 233.172 259.972 236.595 260.561 240.067C260.579 240.173 260.653 240.265 260.754 240.307C260.791 240.323 260.834 240.332 260.874 240.332C260.941 240.332 261.009 240.31 261.061 240.271L293.143 216.727C293.205 216.681 293.248 216.618 293.266 216.542C293.306 216.362 294.263 212.081 293.254 209.428H293.248Z" fill="#5C8FCC"/>
<path d="M220.725 226.793C220.725 226.793 224.131 230.889 220.725 233.727L260.868 240.016C260.868 240.016 261.966 236.852 260.288 232.894L220.725 226.796V226.793Z" fill="white"/>
<path d="M260.871 240.368C260.852 240.368 260.834 240.368 260.815 240.365L220.672 234.079C220.534 234.057 220.424 233.957 220.384 233.826C220.347 233.692 220.393 233.552 220.497 233.461C223.59 230.884 220.583 227.178 220.451 227.023C220.359 226.91 220.344 226.752 220.418 226.624C220.491 226.496 220.632 226.426 220.78 226.451L260.343 232.548C260.466 232.566 260.57 232.649 260.616 232.761C262.325 236.799 261.251 240 261.205 240.133C261.156 240.276 261.018 240.371 260.871 240.371V240.368ZM221.489 233.491L260.616 239.619C260.818 238.792 261.266 236.245 260.042 233.208L221.489 227.266C222.268 228.526 223.523 231.261 221.489 233.488V233.491Z" fill="#0F1217"/>
<path d="M243.44 233.406L249.165 234.377C249.165 234.377 246.339 237.428 246.514 240.018L241.304 239.193C241.304 239.193 241.252 236.546 243.44 233.406Z" fill="#5C8FCC"/>
<path d="M47.2034 213.704C40.2782 213.704 38.2286 209.244 37.7253 207.695C36.0746 208.861 30.1251 212.779 27.7993 210.47C26.8941 209.57 26.5842 208.559 26.8788 207.464C27.8422 203.855 35.4118 200.369 38.2592 199.59C41.9014 198.607 49.5967 204.452 49.925 204.701C50.0785 204.82 50.1091 205.042 49.9895 205.197C49.8667 205.349 49.6458 205.377 49.4893 205.261C49.4126 205.203 41.7449 199.368 38.4495 200.271C35.8015 200.995 28.4436 204.361 27.5661 207.647C27.339 208.495 27.5814 209.256 28.3025 209.974C30.1404 211.809 35.7217 208.325 37.7192 206.834C37.8174 206.761 37.9463 206.743 38.0629 206.789C38.1764 206.831 38.2623 206.932 38.2838 207.053C38.3267 207.297 39.4743 213.008 47.2065 213.008C47.4029 213.008 47.5624 213.166 47.5624 213.361C47.5624 213.555 47.4029 213.714 47.2065 213.714L47.2034 213.704Z" fill="#0F1217"/>
<path d="M194.628 95.2812C192.671 90.2365 197.107 80.8258 197.107 80.8258C197.107 80.8258 190.774 71.7101 194.634 69.5681C195.874 68.8805 197.902 70.4231 197.902 70.4231C197.902 70.4231 192.836 64.7395 195.693 62.5975C197.138 61.5113 198.626 63.346 198.626 63.346C198.626 63.346 196.687 59.6279 198.626 57.8115C200.565 55.9951 209.62 67.2162 211.344 73.0945C213.069 78.9728 210.823 96.6077 210.823 96.6077L206.141 155.528C206.141 155.528 220.108 163.314 223.293 171.644C223.293 171.644 211.74 194.415 191.704 188.783C161.134 180.191 194.631 95.2781 194.631 95.2781L194.628 95.2812Z" fill="white"/>
<path d="M197.951 190.02C195.856 190.02 193.735 189.721 191.606 189.122C187.243 187.896 183.92 185.06 181.732 180.688C170.278 157.811 193.027 98.4251 194.248 95.276C192.499 90.4626 196.08 82.2262 196.699 80.8571C195.991 79.8043 192.385 74.2364 193.134 71.0477C193.321 70.2445 193.769 69.642 194.46 69.2587C195.095 68.9027 195.874 69.0305 196.549 69.28C195.57 67.9169 194.306 65.7992 194.478 64.0954C194.552 63.353 194.889 62.7536 195.475 62.3124C196.27 61.7191 197.101 61.8438 197.776 62.1968C197.347 60.8672 197.015 58.8256 198.378 57.5507C198.589 57.3499 198.979 57.1521 199.63 57.3256C202.805 58.1836 210.13 67.7009 211.682 72.9919C213.406 78.8733 211.262 95.9271 211.17 96.6482L206.506 155.331C208.292 156.35 220.596 163.607 223.618 171.517C223.655 171.609 223.649 171.712 223.606 171.8C223.578 171.858 220.626 177.609 215.251 182.583C209.93 187.506 204.042 190.02 197.948 190.02H197.951ZM195.377 69.7424C195.171 69.7424 194.975 69.782 194.809 69.8733C194.294 70.1593 193.972 70.5974 193.827 71.209C193.085 74.3672 197.359 80.5619 197.402 80.6258C197.473 80.7293 197.485 80.8601 197.43 80.9727C197.387 81.067 193.079 90.3074 194.96 95.1543C194.99 95.2364 194.99 95.3277 194.96 95.4098C194.717 96.0244 170.796 157.269 182.37 180.381C184.466 184.564 187.639 187.281 191.802 188.45C210.513 193.707 221.897 173.498 222.903 171.627C219.693 163.567 206.104 155.915 205.966 155.839C205.846 155.772 205.776 155.641 205.785 155.504L210.467 96.5843C210.492 96.3926 212.685 78.9372 211.001 73.1958C209.418 67.7952 202.167 58.7465 199.446 58.0102C199.037 57.8976 198.909 58.0284 198.866 58.068C197.141 59.6806 198.918 63.1491 198.936 63.1826C199.022 63.3438 198.967 63.5386 198.817 63.639C198.663 63.7394 198.461 63.7059 198.347 63.566C198.295 63.5021 197.052 62.0112 195.905 62.8783C195.475 63.2008 195.242 63.6238 195.187 64.1714C194.947 66.5447 198.135 70.1532 198.169 70.1927C198.289 70.3266 198.286 70.5335 198.163 70.6643C198.037 70.7982 197.835 70.8165 197.687 70.7039C197.276 70.3905 196.218 69.7455 195.377 69.7455V69.7424Z" fill="#0F1217"/>
<path d="M201.499 77.1697C201.352 77.1697 201.21 77.0753 201.161 76.9293C201.143 76.8745 199.311 71.5013 196.952 70.2416C196.78 70.1504 196.715 69.9374 196.807 69.767C196.899 69.5966 197.117 69.5327 197.286 69.624C199.891 71.0145 201.753 76.4759 201.833 76.7072C201.895 76.8928 201.793 77.0905 201.609 77.1514C201.572 77.1636 201.536 77.1697 201.496 77.1697H201.499Z" fill="#0F1217"/>
<path d="M204.762 72.5401C204.637 72.5401 204.517 72.4731 204.452 72.3575C203.259 70.2216 199.85 64.4894 198.439 63.6435C198.27 63.5431 198.218 63.3271 198.319 63.1597C198.42 62.9924 198.641 62.9437 198.807 63.0411C200.669 64.1577 204.897 71.6973 205.075 72.0168C205.17 72.1871 205.109 72.4001 204.937 72.4944C204.882 72.5249 204.824 72.537 204.765 72.537L204.762 72.5401Z" fill="#0F1217"/>
<path d="M181.807 220.286H161.672L175.866 210.303H196.001L181.807 220.286Z" fill="white"/>
<path d="M181.806 220.636H161.671C161.518 220.636 161.38 220.536 161.334 220.393C161.288 220.247 161.34 220.089 161.466 219.997L175.66 210.015C175.718 209.972 175.792 209.951 175.866 209.951H196C196.153 209.951 196.291 210.051 196.337 210.194C196.383 210.34 196.331 210.498 196.206 210.59L182.011 220.572C181.953 220.615 181.879 220.636 181.806 220.636ZM162.785 219.933H181.692L194.886 210.654H175.982L162.785 219.933Z" fill="#0F1217"/>
<path d="M187.595 213.76H174.999C174.803 213.76 174.644 213.602 174.644 213.407C174.644 213.212 174.803 213.054 174.999 213.054H187.595C187.791 213.054 187.951 213.212 187.951 213.407C187.951 213.602 187.791 213.76 187.595 213.76Z" fill="#0F1217"/>
<path d="M183.57 216.817H170.974C170.778 216.817 170.618 216.659 170.618 216.464C170.618 216.269 170.778 216.111 170.974 216.111H183.57C183.766 216.111 183.926 216.269 183.926 216.464C183.926 216.659 183.766 216.817 183.57 216.817Z" fill="#0F1217"/>
<path d="M205.567 159.492C205.549 159.492 205.53 159.492 205.512 159.489C205.318 159.458 205.186 159.279 205.217 159.087L205.791 155.475C205.822 155.284 205.997 155.153 206.197 155.183C206.39 155.214 206.522 155.393 206.491 155.585L205.917 159.196C205.89 159.37 205.739 159.495 205.567 159.495V159.492Z" fill="#0F1217"/>
<path d="M242.887 53.9718C242.887 55.5661 241.583 56.8592 239.975 56.8592C238.367 56.8592 237.063 55.5661 237.063 53.9718C237.063 52.3775 238.367 51.0844 239.975 51.0844C241.583 51.0844 242.887 52.3775 242.887 53.9718Z" fill="#5C8FCC"/>
<path d="M239.12 67.149C240.257 66.0214 240.257 64.1932 239.12 63.0656C237.983 61.938 236.139 61.938 235.002 63.0656C233.865 64.1932 233.865 66.0214 235.002 67.149C236.139 68.2766 237.983 68.2766 239.12 67.149Z" fill="#0F1217"/>
<path d="M291.152 52.4493H247.861C247.664 52.4493 247.505 52.2911 247.505 52.0964C247.505 51.9016 247.664 51.7434 247.861 51.7434H291.152C291.348 51.7434 291.508 51.9016 291.508 52.0964C291.508 52.2911 291.348 52.4493 291.152 52.4493Z" fill="#0F1217"/>
<path d="M291.152 55.429H247.861C247.664 55.429 247.505 55.2708 247.505 55.0761C247.505 54.8814 247.664 54.7231 247.861 54.7231H291.152C291.348 54.7231 291.508 54.8814 291.508 55.0761C291.508 55.2708 291.348 55.429 291.152 55.429Z" fill="#0F1217"/>
<path d="M291.152 63.6953H247.861C247.664 63.6953 247.505 63.537 247.505 63.3423C247.505 63.1476 247.664 62.9894 247.861 62.9894H291.152C291.348 62.9894 291.508 63.1476 291.508 63.3423C291.508 63.537 291.348 63.6953 291.152 63.6953Z" fill="#0F1217"/>
<path d="M291.152 67.9746H247.861C247.664 67.9746 247.505 67.8163 247.505 67.6216C247.505 67.4269 247.664 67.2687 247.861 67.2687H291.152C291.348 67.2687 291.508 67.4269 291.508 67.6216C291.508 67.8163 291.348 67.9746 291.152 67.9746Z" fill="#0F1217"/>
<path d="M124.311 31.4611L121.905 11.4408C121.832 10.8201 121.298 10.3516 120.666 10.3516H93.6151C92.845 10.3516 92.2589 11.0361 92.3847 11.7907L94.5049 24.4479C94.6062 25.0443 95.1248 25.4824 95.7353 25.4824H117.573L124.308 31.4611H124.311Z" fill="white"/>
<path d="M124.31 31.8124C124.224 31.8124 124.138 31.782 124.074 31.7242L117.44 25.8337H95.7378C94.9523 25.8337 94.2865 25.2769 94.1576 24.5041L92.0343 11.8469C91.9576 11.3844 92.0896 10.9158 92.3933 10.5598C92.6971 10.2039 93.142 10 93.6145 10H120.665C121.475 10 122.159 10.6024 122.257 11.3996L124.663 31.4199C124.681 31.5629 124.608 31.7059 124.476 31.7729C124.424 31.8003 124.368 31.8124 124.313 31.8124H124.31ZM93.6176 10.7028C93.3568 10.7028 93.1082 10.8185 92.9395 11.0162C92.7677 11.217 92.6971 11.4757 92.74 11.7343L94.8603 24.3915C94.9308 24.8205 95.3021 25.1309 95.7409 25.1309H117.578C117.664 25.1309 117.75 25.1613 117.814 25.2191L123.85 30.5771L121.555 11.4817C121.5 11.0375 121.119 10.7028 120.668 10.7028H93.6176Z" fill="#0F1217"/>
<path d="M96.0903 13.4448L96.6028 15.173H118.452L118.041 13.4448H96.0903Z" fill="#0F1217"/>
<path d="M118.452 15.5251H96.6025C96.4461 15.5251 96.3049 15.4217 96.2619 15.2726L95.7495 13.5444C95.7189 13.4379 95.7403 13.3223 95.8078 13.2341C95.8753 13.1458 95.9797 13.0911 96.0932 13.0911H118.044C118.21 13.0911 118.351 13.2036 118.391 13.3619L118.802 15.0901C118.826 15.1935 118.802 15.3061 118.734 15.3882C118.667 15.4734 118.563 15.5221 118.455 15.5221L118.452 15.5251ZM96.8695 14.8223H118.004L117.762 13.7969H96.5657L96.8695 14.8223Z" fill="white"/>
<path d="M96.5649 17.4465L97.0774 19.1747H118.927L118.516 17.4465H96.5649Z" fill="#5C8FCC"/>
<path d="M118.927 19.5284H97.0772C96.9207 19.5284 96.7795 19.425 96.7366 19.2759L96.2241 17.5477C96.1935 17.4412 96.2149 17.3256 96.2824 17.2374C96.3499 17.1491 96.4543 17.0944 96.5678 17.0944H118.519C118.684 17.0944 118.826 17.2069 118.865 17.3652L119.277 19.0934C119.301 19.1968 119.277 19.3094 119.209 19.3915C119.142 19.4767 119.037 19.5254 118.93 19.5254L118.927 19.5284ZM97.3441 18.8256H118.479L118.236 17.8002H97.0403L97.3441 18.8256Z" fill="white"/>
</svg>
