<svg width="156" height="156" viewBox="0 0 156 156" fill="none" xmlns="http://www.w3.org/2000/svg">
<path d="M73.9561 116.04C73.9128 116.04 73.8694 116.026 73.8327 115.996C73.8327 115.996 73.5224 115.747 73.0331 115.306C72.953 115.233 72.9473 115.11 73.019 115.031C73.0916 114.952 73.2142 114.945 73.2952 115.016C73.7733 115.447 74.0769 115.692 74.0787 115.694C74.1626 115.762 74.1758 115.885 74.107 115.968C74.0693 116.015 74.0127 116.041 73.9552 116.041L73.9561 116.04ZM72.4015 114.644C72.3524 114.644 72.3034 114.626 72.2657 114.589C72.0328 114.364 71.783 114.117 71.5228 113.849C71.4483 113.772 71.4502 113.649 71.5275 113.574C71.6057 113.5 71.7292 113.502 71.8037 113.578C72.0611 113.843 72.3081 114.087 72.5381 114.31C72.6164 114.385 72.6174 114.508 72.5429 114.585C72.5042 114.624 72.4533 114.644 72.4024 114.644H72.4015ZM70.9486 113.149C70.8948 113.149 70.842 113.127 70.8034 113.084C70.5752 112.832 70.3433 112.568 70.1132 112.293C70.0444 112.211 70.0548 112.088 70.1377 112.019C70.2207 111.95 70.3442 111.961 70.4131 112.044C70.6393 112.314 70.8675 112.574 71.0928 112.823C71.1654 112.903 71.1588 113.026 71.0787 113.098C71.0419 113.132 70.9948 113.148 70.9476 113.148L70.9486 113.149ZM69.6117 111.552C69.5532 111.552 69.4947 111.526 69.4561 111.475C69.2439 111.199 69.0375 110.915 68.8376 110.626C68.7763 110.537 68.7999 110.416 68.8885 110.355C68.9762 110.295 69.0988 110.317 69.1601 110.406C69.3552 110.689 69.5588 110.968 69.7663 111.239C69.8323 111.325 69.8153 111.447 69.7295 111.513C69.6937 111.54 69.6522 111.553 69.6107 111.553L69.6117 111.552ZM68.435 109.835C68.369 109.835 68.304 109.801 68.2672 109.74C68.0815 109.432 67.9099 109.121 67.7581 108.818C67.71 108.721 67.7486 108.605 67.8448 108.557C67.941 108.509 68.0588 108.547 68.1069 108.643C68.2549 108.938 68.4218 109.24 68.6028 109.54C68.6575 109.632 68.6273 109.753 68.5349 109.808C68.5038 109.827 68.469 109.835 68.435 109.835ZM67.5092 107.975C67.4309 107.975 67.3574 107.928 67.3272 107.85C67.1933 107.506 67.084 107.165 67.0019 106.839C66.9755 106.735 67.0387 106.629 67.1443 106.603C67.2489 106.579 67.3555 106.639 67.3819 106.744C67.4601 107.055 67.5638 107.38 67.6921 107.71C67.7317 107.811 67.6808 107.923 67.5799 107.962C67.5572 107.971 67.5327 107.975 67.5092 107.975ZM67.0142 105.965C66.9142 105.965 66.8284 105.889 66.82 105.789C66.8039 105.615 66.7964 105.441 66.7964 105.27C66.7964 105.083 66.8058 104.898 66.8256 104.715C66.8369 104.608 66.936 104.532 67.0406 104.541C67.1481 104.553 67.2263 104.648 67.215 104.755C67.1971 104.925 67.1876 105.098 67.1876 105.27C67.1876 105.43 67.1952 105.592 67.2094 105.753C67.2197 105.86 67.1405 105.955 67.0331 105.964C67.0274 105.965 67.0208 105.965 67.0151 105.965H67.0142ZM67.2423 103.918C67.2216 103.918 67.1999 103.914 67.1792 103.908C67.0764 103.873 67.0227 103.762 67.0575 103.661C67.1735 103.325 67.3291 102.996 67.5224 102.686C67.5799 102.595 67.7006 102.567 67.792 102.622C67.8835 102.679 67.9118 102.798 67.8561 102.89C67.6779 103.177 67.5346 103.478 67.4281 103.786C67.4008 103.866 67.3244 103.917 67.2433 103.917L67.2423 103.918ZM68.3238 102.161C68.2757 102.161 68.2276 102.144 68.1899 102.108C68.1107 102.035 68.1069 101.911 68.1805 101.833C68.4143 101.584 68.6811 101.342 68.9743 101.115C69.0592 101.049 69.1817 101.064 69.2487 101.149C69.3147 101.234 69.2996 101.357 69.2147 101.422C68.9385 101.636 68.6868 101.864 68.4671 102.098C68.4284 102.139 68.3766 102.16 68.3238 102.16V102.161ZM69.9407 100.86C69.8785 100.86 69.8172 100.83 69.7795 100.776C69.7182 100.686 69.7408 100.565 69.8304 100.505C70.133 100.299 70.4263 100.109 70.71 99.9345C70.8015 99.8782 70.9222 99.9063 70.9797 99.9983C71.0363 100.089 71.008 100.21 70.9165 100.267C70.6374 100.439 70.3499 100.625 70.052 100.827C70.018 100.85 69.9794 100.861 69.9417 100.861L69.9407 100.86ZM71.7113 99.7712C71.6425 99.7712 71.5756 99.7346 71.5407 99.6707C71.4879 99.5769 71.5227 99.4586 71.618 99.407C71.9432 99.2286 72.2553 99.0709 72.5542 98.9292C72.6513 98.8842 72.7682 98.9245 72.8154 99.0212C72.8616 99.1179 72.8201 99.2343 72.723 99.2812C72.4298 99.4201 72.1243 99.5741 71.8065 99.7477C71.7764 99.7646 71.7443 99.7721 71.7123 99.7721L71.7113 99.7712ZM73.5903 98.8823C73.513 98.8823 73.4395 98.8363 73.4093 98.7603C73.3688 98.6608 73.4178 98.5472 73.5177 98.5078C73.8638 98.3688 74.1928 98.2506 74.5049 98.1455C74.6058 98.1117 74.718 98.1652 74.7528 98.2675C74.7877 98.3698 74.7321 98.4796 74.6303 98.5143C74.3239 98.6166 74.0033 98.733 73.6639 98.8691C73.6403 98.8785 73.6158 98.8832 73.5913 98.8832L73.5903 98.8823ZM75.5589 98.213C75.475 98.213 75.3968 98.1586 75.3713 98.0741C75.3402 97.9709 75.3996 97.8629 75.5024 97.8319L75.7456 97.7597C76.0077 97.6818 76.2566 97.6085 76.4952 97.5325C76.597 97.4997 76.7073 97.556 76.7412 97.6583C76.7742 97.7606 76.7177 97.8704 76.6149 97.9033C76.3745 97.9802 76.1228 98.0544 75.8578 98.1332L75.6146 98.2055C75.5957 98.2112 75.5768 98.214 75.5589 98.214V98.213ZM77.5257 97.5438C77.4521 97.5438 77.3814 97.5025 77.3484 97.4312C77.3022 97.3335 77.3446 97.2181 77.4427 97.1721C77.7614 97.0238 78.0376 96.8567 78.2903 96.6596C78.3752 96.5929 78.4977 96.608 78.5647 96.6924C78.6316 96.7769 78.6165 96.8989 78.5317 96.9656C78.2564 97.1815 77.9547 97.3636 77.6086 97.525C77.5813 97.5372 77.554 97.5428 77.5257 97.5428V97.5438ZM108.686 96.8886C108.631 96.8886 108.576 96.8661 108.538 96.821C108.294 96.5404 108.074 96.2597 107.884 95.9847C107.823 95.8965 107.846 95.7754 107.934 95.7144C108.024 95.6534 108.146 95.6759 108.206 95.7641C108.388 96.027 108.598 96.2963 108.833 96.5657C108.904 96.6474 108.895 96.7703 108.813 96.8398C108.776 96.8717 108.73 96.8877 108.685 96.8877L108.686 96.8886ZM79.1426 96.2785C79.0992 96.2785 79.0558 96.2644 79.02 96.2353C78.9352 96.1677 78.922 96.0457 78.9899 95.9612C79.1841 95.72 79.3679 95.4478 79.5518 95.1287C79.6055 95.0348 79.7262 95.0029 79.8186 95.0564C79.9119 95.1099 79.9449 95.2291 79.8912 95.322C79.697 95.6581 79.5018 95.9472 79.2944 96.2044C79.2557 96.2522 79.1992 96.2766 79.1426 96.2766V96.2785ZM107.522 95.1737C107.45 95.1737 107.379 95.1334 107.346 95.063C107.184 94.7241 107.062 94.3825 106.985 94.0464C106.96 93.9413 107.026 93.8371 107.131 93.8127C107.242 93.7864 107.341 93.854 107.366 93.9582C107.438 94.2661 107.55 94.5815 107.7 94.895C107.746 94.9916 107.704 95.108 107.607 95.154C107.58 95.1672 107.552 95.1728 107.523 95.1728L107.522 95.1737ZM80.192 94.4988C80.1646 94.4988 80.1373 94.4932 80.1109 94.481C80.0128 94.4369 79.9694 94.3214 80.0137 94.2238C80.1448 93.9366 80.2759 93.6222 80.4069 93.2786C80.4456 93.1782 80.5578 93.1275 80.6596 93.166C80.7605 93.2045 80.8105 93.3171 80.7727 93.4175C80.6408 93.7639 80.505 94.0896 80.3702 94.3853C80.3372 94.4576 80.2664 94.4998 80.192 94.4998V94.4988ZM107.071 93.1679H107.065C106.958 93.1651 106.872 93.0749 106.876 92.9679C106.885 92.6178 106.938 92.2687 107.036 91.9007C107.063 91.7965 107.169 91.7336 107.274 91.7627C107.379 91.79 107.441 91.897 107.413 92.0002C107.323 92.3391 107.275 92.6591 107.266 92.9792C107.263 93.0853 107.175 93.1688 107.071 93.1688V93.1679ZM80.9443 92.5671C80.9208 92.5671 80.8963 92.5624 80.8727 92.554C80.7728 92.5146 80.7228 92.4019 80.7614 92.3015C80.883 91.9908 81.0452 91.6698 81.2432 91.346C81.2998 91.254 81.4204 91.2249 81.5119 91.2812C81.6043 91.3375 81.6335 91.4567 81.5769 91.5487C81.3903 91.8528 81.2385 92.1532 81.1253 92.4423C81.0952 92.5193 81.0217 92.5662 80.9434 92.5662L80.9443 92.5671ZM107.575 91.1695C107.549 91.1695 107.521 91.1639 107.496 91.1526C107.397 91.1094 107.353 90.994 107.397 90.8954C107.525 90.6082 107.676 90.3088 107.871 89.953C107.924 89.8582 108.042 89.8244 108.137 89.8761C108.231 89.9277 108.266 90.046 108.214 90.1408C108.024 90.4871 107.878 90.7772 107.754 91.0541C107.721 91.1273 107.651 91.1695 107.575 91.1695ZM82.0116 90.795C81.9692 90.795 81.9258 90.7809 81.89 90.7528C81.8051 90.6861 81.791 90.5632 81.8589 90.4796C82.0663 90.2196 82.301 89.9521 82.5566 89.6846C82.6301 89.6067 82.7546 89.6039 82.8328 89.678C82.9111 89.7522 82.9139 89.8751 82.8394 89.953C82.5924 90.2112 82.3651 90.4702 82.1643 90.7218C82.1257 90.7706 82.0682 90.795 82.0107 90.795H82.0116ZM108.559 89.3392C108.526 89.3392 108.493 89.3307 108.461 89.3129C108.368 89.2585 108.336 89.1402 108.391 89.0463C108.563 88.7516 108.736 88.4522 108.903 88.148C108.954 88.0532 109.073 88.0185 109.168 88.0701C109.263 88.1218 109.298 88.24 109.246 88.3339C109.078 88.6418 108.903 88.9431 108.729 89.2425C108.693 89.3044 108.627 89.3392 108.56 89.3392H108.559ZM83.4447 89.2866C83.3919 89.2866 83.3391 89.265 83.3004 89.2237C83.2278 89.1439 83.2326 89.021 83.3127 88.9487C83.5644 88.7187 83.8303 88.4897 84.1103 88.2616C84.1933 88.1931 84.3168 88.2053 84.3856 88.2888C84.4535 88.3724 84.4412 88.4944 84.3583 88.5629C84.0848 88.7863 83.8237 89.0107 83.5767 89.2359C83.5399 89.2697 83.4918 89.2876 83.4447 89.2876V89.2866ZM85.055 87.966C84.9956 87.966 84.9372 87.9387 84.8985 87.888C84.8334 87.8017 84.8513 87.6797 84.9381 87.6158C85.2134 87.4112 85.4981 87.2066 85.7914 87.0048C85.88 86.9438 86.0016 86.9654 86.0639 87.0536C86.1251 87.1418 86.1034 87.2629 86.0148 87.3239C85.7263 87.5229 85.4444 87.7238 85.1729 87.9265C85.138 87.9528 85.0965 87.965 85.0559 87.965L85.055 87.966ZM109.54 87.507C109.513 87.507 109.485 87.5013 109.46 87.4901C109.362 87.446 109.318 87.3305 109.362 87.2319C109.511 86.9034 109.631 86.5937 109.729 86.2858C109.761 86.1835 109.871 86.1262 109.974 86.1581C110.076 86.1901 110.134 86.2999 110.102 86.4022C110 86.7251 109.875 87.0489 109.719 87.3924C109.686 87.4638 109.615 87.507 109.541 87.507H109.54ZM86.7719 86.7833C86.7078 86.7833 86.6446 86.7514 86.6079 86.6941C86.5494 86.604 86.5758 86.4829 86.6672 86.4247C86.9576 86.2389 87.2555 86.0549 87.5582 85.8728C87.6506 85.8174 87.7713 85.8465 87.8269 85.9394C87.8825 86.0314 87.8533 86.1516 87.76 86.207C87.4601 86.3862 87.166 86.5683 86.8784 86.7523C86.8454 86.773 86.8096 86.7833 86.7729 86.7833H86.7719ZM88.5604 85.7114C88.4925 85.7114 88.4256 85.6757 88.3907 85.6128C88.337 85.5189 88.37 85.4007 88.4643 85.3472C88.766 85.1773 89.0733 85.0102 89.3835 84.845C89.4797 84.7943 89.5975 84.8309 89.6484 84.9257C89.6994 85.0205 89.6635 85.1388 89.5683 85.1895C89.26 85.3528 88.9555 85.5189 88.6566 85.6869C88.6264 85.7038 88.5925 85.7123 88.5604 85.7123V85.7114ZM110.151 85.5302C110.142 85.5302 110.132 85.5302 110.122 85.5283C110.015 85.5124 109.942 85.4129 109.958 85.3068C109.999 85.0271 110.021 84.7436 110.021 84.463L110.018 84.3072C110.015 84.2002 110.1 84.11 110.208 84.1072H110.213C110.319 84.1072 110.406 84.1908 110.408 84.2959L110.411 84.4602C110.411 84.7624 110.389 85.0656 110.344 85.3641C110.329 85.4607 110.246 85.5302 110.151 85.5302ZM90.4027 84.7342C90.331 84.7342 90.2622 84.6948 90.2283 84.6272C90.1802 84.5315 90.2188 84.4142 90.315 84.3663C90.6261 84.2105 90.9401 84.0575 91.2578 83.9073C91.3578 83.8622 91.4718 83.9026 91.519 84.0002C91.5652 84.0969 91.5237 84.2133 91.4266 84.2593C91.1117 84.4076 90.8005 84.5596 90.4922 84.7136C90.464 84.7277 90.4338 84.7342 90.4045 84.7342H90.4027ZM92.2874 83.8425C92.2129 83.8425 92.1422 83.7994 92.1092 83.7271C92.0649 83.6285 92.1092 83.514 92.2072 83.4699C92.5259 83.3282 92.8464 83.1883 93.1679 83.0531C93.2679 83.0109 93.382 83.0578 93.4244 83.1564C93.4659 83.2549 93.4197 83.3695 93.3207 83.4117C93.0011 83.5459 92.6833 83.6848 92.3666 83.8256C92.3402 83.8369 92.3138 83.8425 92.2865 83.8425H92.2874ZM110.097 83.4661C110.006 83.4661 109.924 83.4023 109.905 83.3094C109.85 83.0334 109.775 82.7518 109.68 82.4731C109.665 82.4299 109.65 82.3867 109.633 82.3454C109.593 82.2459 109.642 82.1323 109.742 82.092C109.842 82.0535 109.956 82.1004 109.995 82.1999C110.015 82.2487 110.033 82.2985 110.05 82.3501C110.149 82.6439 110.229 82.9414 110.288 83.2334C110.308 83.3385 110.24 83.4417 110.134 83.4624C110.122 83.4652 110.108 83.4661 110.096 83.4661H110.097ZM94.2126 83.0306C94.1343 83.0306 94.0618 82.9846 94.0307 82.9076C93.9911 82.8082 94.0401 82.6946 94.14 82.6542C94.4662 82.5256 94.7915 82.3998 95.1186 82.2788C95.2176 82.2412 95.3318 82.2919 95.3704 82.3923C95.4081 82.4928 95.3562 82.6054 95.2554 82.643C94.932 82.764 94.6086 82.8879 94.2852 83.0156C94.2616 83.025 94.2371 83.0297 94.2126 83.0297V83.0306ZM96.1689 82.3041C96.0879 82.3041 96.0124 82.2534 95.9842 82.1736C95.9493 82.0723 96.003 81.9615 96.1049 81.9258C96.4377 81.8104 96.7686 81.6996 97.0995 81.5936C97.2023 81.5607 97.3126 81.617 97.3456 81.7193C97.3795 81.8217 97.3229 81.9315 97.2202 81.9643C96.8921 82.0695 96.563 82.1793 96.234 82.2938C96.2123 82.3013 96.1916 82.305 96.1699 82.305L96.1689 82.3041ZM98.1555 81.6668C98.0706 81.6668 97.9933 81.6123 97.9679 81.5279C97.9377 81.4246 97.9961 81.3167 98.0998 81.2857C98.4393 81.1862 98.7759 81.0923 99.1106 81.0032C99.2143 80.975 99.3218 81.037 99.35 81.1411C99.3783 81.2453 99.3161 81.3514 99.2114 81.3796C98.8796 81.4678 98.5467 81.5607 98.2111 81.6593C98.1922 81.6649 98.1744 81.6668 98.1555 81.6668ZM109.242 81.6114C109.193 81.6114 109.143 81.5926 109.105 81.5551C108.889 81.3429 108.619 81.159 108.302 81.0069C108.205 80.96 108.164 80.8436 108.211 80.7469C108.258 80.6502 108.374 80.6089 108.472 80.6559C108.827 80.8267 109.132 81.036 109.379 81.2772C109.456 81.3523 109.457 81.4762 109.382 81.5523C109.343 81.5907 109.292 81.6105 109.242 81.6105V81.6114ZM100.173 81.1318C100.084 81.1318 100.004 81.0717 99.9827 80.9816C99.9582 80.8774 100.023 80.7723 100.128 80.7479C100.474 80.6662 100.816 80.592 101.154 80.5245C101.261 80.5038 101.363 80.5714 101.384 80.6765C101.405 80.7816 101.337 80.8849 101.231 80.9055C100.898 80.9722 100.56 81.0463 100.217 81.1261C100.202 81.1299 100.187 81.1318 100.172 81.1318H100.173ZM102.22 80.7235C102.126 80.7235 102.043 80.6559 102.027 80.5601C102.01 80.4541 102.081 80.3536 102.189 80.3367C102.543 80.2795 102.891 80.2307 103.232 80.1912C103.352 80.1819 103.436 80.256 103.448 80.3621C103.461 80.4691 103.384 80.5658 103.278 80.578C102.943 80.6174 102.601 80.6643 102.252 80.7206C102.242 80.7225 102.231 80.7235 102.221 80.7235H102.22ZM107.405 80.684C107.389 80.684 107.374 80.6821 107.358 80.6784C107.052 80.6042 106.714 80.5479 106.357 80.5113C106.25 80.5001 106.171 80.4043 106.183 80.2973C106.193 80.1903 106.292 80.1115 106.397 80.1237C106.772 80.1621 107.126 80.2213 107.451 80.3001C107.555 80.3255 107.619 80.4306 107.594 80.5357C107.572 80.6249 107.492 80.684 107.405 80.684ZM104.293 80.486C104.19 80.486 104.105 80.4062 104.098 80.3029C104.091 80.1959 104.173 80.103 104.281 80.0964C104.604 80.0767 104.917 80.0664 105.222 80.0664H105.338C105.446 80.0673 105.532 80.1556 105.532 80.2626C105.532 80.3696 105.444 80.4559 105.337 80.4559H105.223C104.927 80.4559 104.621 80.4653 104.306 80.4841C104.303 80.4841 104.298 80.4841 104.294 80.4841L104.293 80.486Z" fill="#FF5C5C"/>
<path d="M58.3389 147.011C58.2559 147.011 58.1786 146.957 58.1522 146.875C58.1522 146.875 58.0353 146.505 57.8703 145.862C57.843 145.758 57.9061 145.652 58.0117 145.625C58.1183 145.598 58.2239 145.662 58.2493 145.766C58.4105 146.394 58.5246 146.756 58.5255 146.758C58.5585 146.861 58.501 146.97 58.3973 147.002C58.3775 147.008 58.3577 147.012 58.3389 147.012V147.011ZM121.702 146.208C121.669 146.208 121.636 146.2 121.606 146.183C121.511 146.13 121.478 146.012 121.532 145.918C121.71 145.604 121.874 145.303 122.025 145.012C122.074 144.917 122.194 144.88 122.288 144.929C122.385 144.978 122.422 145.096 122.372 145.191C122.219 145.485 122.053 145.792 121.872 146.11C121.836 146.174 121.77 146.208 121.702 146.208ZM57.8184 144.997C57.7288 144.997 57.6478 144.936 57.627 144.844C57.5573 144.532 57.4856 144.189 57.4139 143.822C57.3932 143.716 57.463 143.615 57.5686 143.594C57.6779 143.574 57.7779 143.643 57.7977 143.748C57.8684 144.112 57.94 144.451 58.0089 144.76C58.0324 144.865 57.9655 144.968 57.8599 144.992C57.8458 144.995 57.8316 144.997 57.8175 144.997L57.8184 144.997ZM122.655 144.362C122.628 144.362 122.6 144.356 122.574 144.344C122.476 144.3 122.433 144.185 122.477 144.087C122.625 143.762 122.758 143.445 122.87 143.141C122.907 143.041 123.017 142.99 123.122 143.026C123.223 143.064 123.275 143.176 123.237 143.277C123.121 143.589 122.984 143.916 122.832 144.248C122.799 144.321 122.729 144.363 122.655 144.363V144.362ZM57.4253 142.956C57.331 142.956 57.248 142.888 57.232 142.793C57.1783 142.461 57.1264 142.117 57.0793 141.759C57.0651 141.653 57.1405 141.555 57.248 141.54C57.3555 141.529 57.4536 141.601 57.4677 141.708C57.5139 142.061 57.5657 142.402 57.6185 142.731C57.6355 142.837 57.5639 142.936 57.4564 142.954C57.446 142.956 57.4356 142.957 57.4253 142.957V142.956ZM123.37 142.413C123.354 142.413 123.337 142.412 123.321 142.408C123.216 142.381 123.153 142.274 123.18 142.17C123.271 141.822 123.331 141.49 123.359 141.181C123.369 141.075 123.458 140.997 123.572 141.005C123.679 141.015 123.758 141.11 123.748 141.217C123.718 141.546 123.654 141.899 123.558 142.268C123.536 142.355 123.456 142.414 123.369 142.414L123.37 142.413ZM57.1528 140.898C57.0538 140.898 56.9689 140.822 56.9586 140.722C56.9237 140.382 56.8954 140.034 56.8718 139.68C56.8643 139.573 56.9463 139.48 57.0538 139.474C57.1603 139.461 57.2546 139.548 57.2612 139.655C57.2848 140.004 57.314 140.347 57.347 140.683C57.3574 140.79 57.2791 140.885 57.1717 140.897C57.1651 140.897 57.1585 140.898 57.1519 140.898H57.1528ZM123.529 140.362C123.435 140.362 123.352 140.294 123.336 140.198C123.282 139.867 123.181 139.568 123.028 139.286C122.977 139.192 123.012 139.074 123.108 139.022C123.202 138.972 123.322 139.006 123.373 139.101C123.544 139.418 123.662 139.766 123.721 140.136C123.738 140.242 123.667 140.342 123.559 140.36C123.549 140.362 123.539 140.362 123.528 140.362L123.529 140.362ZM57.017 138.825C56.9114 138.825 56.8247 138.741 56.8219 138.636C56.8143 138.383 56.8105 138.129 56.8105 137.872L56.8124 137.591C56.8134 137.484 56.9096 137.391 57.0104 137.398C57.1179 137.399 57.2046 137.487 57.2037 137.595L57.2018 137.873C57.2018 138.126 57.2056 138.377 57.2131 138.627C57.216 138.734 57.1311 138.824 57.0236 138.827H57.018L57.017 138.825ZM122.57 138.569C122.521 138.569 122.471 138.55 122.434 138.513C122.22 138.306 121.964 138.1 121.649 137.886C121.56 137.826 121.537 137.705 121.597 137.616C121.659 137.527 121.78 137.504 121.869 137.564C122.203 137.791 122.477 138.01 122.707 138.235C122.784 138.31 122.785 138.434 122.71 138.51C122.671 138.549 122.62 138.568 122.57 138.568V138.569ZM120.871 137.375C120.838 137.375 120.804 137.366 120.773 137.349L119.867 136.833C119.774 136.78 119.742 136.661 119.796 136.568C119.849 136.474 119.97 136.443 120.062 136.496L120.968 137.011C121.062 137.064 121.094 137.183 121.04 137.277C121.004 137.339 120.937 137.375 120.87 137.375H120.871ZM57.0416 136.75C57.0416 136.75 57.034 136.75 57.0312 136.75C56.9227 136.744 56.8407 136.652 56.8473 136.545C56.8671 136.197 56.8945 135.849 56.9313 135.5C56.9426 135.392 57.0397 135.315 57.1462 135.327C57.2537 135.338 57.3319 135.434 57.3206 135.541C57.2848 135.882 57.2565 136.225 57.2377 136.566C57.232 136.67 57.1462 136.75 57.0425 136.75H57.0416ZM119.077 136.316C119.039 136.316 119.002 136.306 118.969 136.283C118.646 136.069 118.367 135.861 118.115 135.646C118.033 135.576 118.024 135.453 118.095 135.372C118.165 135.289 118.289 135.28 118.37 135.351C118.609 135.556 118.876 135.755 119.186 135.96C119.276 136.019 119.3 136.14 119.239 136.23C119.202 136.286 119.14 136.316 119.077 136.316ZM117.512 134.954C117.455 134.954 117.4 134.93 117.361 134.883C117.131 134.604 116.93 134.304 116.763 133.989C116.713 133.893 116.749 133.776 116.845 133.726C116.941 133.678 117.059 133.712 117.109 133.808C117.263 134.098 117.45 134.377 117.663 134.635C117.731 134.718 117.719 134.84 117.636 134.909C117.599 134.938 117.555 134.953 117.511 134.953L117.512 134.954ZM57.2631 134.685C57.2528 134.685 57.2424 134.684 57.231 134.682C57.1245 134.665 57.0519 134.565 57.0698 134.458C57.1264 134.112 57.1933 133.769 57.2716 133.427C57.2952 133.322 57.3979 133.254 57.5054 133.28C57.611 133.304 57.677 133.408 57.6525 133.513C57.5761 133.846 57.5111 134.183 57.4564 134.521C57.4404 134.617 57.3574 134.685 57.2631 134.685ZM116.547 133.137C116.462 133.137 116.384 133.082 116.359 132.997C116.261 132.667 116.188 132.316 116.143 131.954C116.13 131.847 116.205 131.75 116.313 131.736C116.426 131.721 116.518 131.799 116.531 131.905C116.574 132.247 116.643 132.577 116.734 132.887C116.764 132.99 116.706 133.098 116.602 133.128C116.584 133.134 116.565 133.137 116.548 133.137H116.547ZM57.7289 132.661C57.71 132.661 57.6911 132.658 57.6713 132.653C57.5676 132.622 57.5101 132.513 57.5412 132.409C57.6459 132.066 57.7628 131.731 57.8882 131.414C57.9278 131.315 58.0419 131.266 58.1418 131.305C58.2418 131.344 58.2917 131.458 58.2521 131.557C58.1305 131.864 58.0174 132.189 57.9156 132.523C57.8901 132.607 57.8128 132.661 57.7289 132.661ZM116.278 131.092H116.277C116.169 131.092 116.082 131.003 116.083 130.896C116.084 130.665 116.093 130.422 116.112 130.171C116.119 130.074 116.122 129.976 116.122 129.878C116.122 129.771 116.21 129.674 116.317 129.674C116.425 129.674 116.513 129.752 116.513 129.859V129.878C116.513 129.986 116.509 130.093 116.501 130.199C116.483 130.441 116.474 130.673 116.473 130.897C116.473 131.004 116.385 131.091 116.278 131.091V131.092ZM58.4944 130.732C58.4652 130.732 58.435 130.726 58.4068 130.711C58.3096 130.664 58.271 130.546 58.32 130.45C58.4812 130.13 58.6566 129.821 58.8414 129.531C58.8998 129.439 59.0224 129.413 59.111 129.47C59.2025 129.528 59.2298 129.648 59.1723 129.738C58.9941 130.019 58.8254 130.316 58.6698 130.625C58.6359 130.693 58.5661 130.733 58.4954 130.733L58.4944 130.732ZM116.199 129.028C116.108 129.028 116.028 128.966 116.007 128.875C115.939 128.567 115.84 128.244 115.711 127.915C115.672 127.816 115.722 127.702 115.822 127.664C115.922 127.624 116.036 127.674 116.075 127.774C116.211 128.123 116.317 128.464 116.388 128.792C116.411 128.897 116.345 129 116.239 129.024C116.225 129.027 116.211 129.028 116.198 129.028L116.199 129.028ZM59.6088 128.982C59.5664 128.982 59.523 128.968 59.4872 128.94C59.4024 128.874 59.3882 128.751 59.4561 128.666C59.6758 128.391 59.9143 128.125 60.1632 127.875C60.2396 127.8 60.3631 127.798 60.4395 127.875C60.5158 127.951 60.5168 128.074 60.4395 128.15C60.2009 128.388 59.9728 128.645 59.7616 128.908C59.7229 128.956 59.6654 128.982 59.6079 128.982L59.6088 128.982ZM61.0768 127.515C61.0193 127.515 60.9618 127.49 60.9241 127.442C60.8562 127.358 60.8703 127.236 60.9552 127.169C61.2305 126.95 61.5227 126.745 61.8235 126.557C61.9131 126.499 62.0347 126.527 62.0932 126.618C62.1507 126.709 62.1233 126.829 62.0319 126.886C61.7434 127.067 61.4634 127.264 61.1994 127.473C61.1636 127.502 61.1202 127.515 61.0778 127.515H61.0768ZM115.458 127.097C115.388 127.097 115.32 127.059 115.285 126.994C115.133 126.707 114.957 126.412 114.764 126.115C114.704 126.025 114.731 125.905 114.821 125.846C114.911 125.787 115.032 125.813 115.092 125.903C115.292 126.209 115.474 126.515 115.63 126.81C115.681 126.906 115.644 127.024 115.549 127.073C115.52 127.089 115.489 127.096 115.458 127.096V127.097ZM62.9596 126.376L62.837 126.219L62.7871 126.027C63.0973 125.877 63.4094 125.74 63.7177 125.617C63.8176 125.579 63.9316 125.626 63.9722 125.726C64.0118 125.826 63.9637 125.939 63.8629 125.98C63.563 126.099 63.2585 126.232 62.9596 126.376ZM73.7964 126.101C73.5399 126.101 73.2656 126.077 72.9573 126.032C72.8507 126.016 72.7772 125.917 72.7932 125.811C72.8092 125.706 72.9063 125.632 73.0157 125.647C73.3928 125.704 73.7068 125.724 74.0142 125.707C74.1349 125.689 74.215 125.782 74.2206 125.889C74.2272 125.996 74.1452 126.088 74.0377 126.094C73.9585 126.099 73.8784 126.102 73.7973 126.102L73.7964 126.101ZM75.0334 125.862C74.9579 125.862 74.8862 125.818 74.8542 125.744C74.8108 125.646 74.8561 125.531 74.956 125.488C75.2417 125.364 75.5067 125.189 75.7659 124.954C75.8461 124.882 75.9696 124.887 76.0422 124.967C76.1147 125.047 76.1091 125.17 76.0289 125.242C75.7367 125.507 75.4369 125.705 75.1107 125.846C75.0852 125.857 75.0588 125.862 75.0324 125.862H75.0334ZM71.9635 125.831C71.9485 125.831 71.9343 125.83 71.9192 125.827L71.511 125.73C71.3139 125.683 71.1122 125.635 70.9048 125.587C70.7992 125.564 70.7341 125.459 70.7577 125.355C70.7812 125.25 70.884 125.181 70.9915 125.208C71.1999 125.256 71.4025 125.304 71.6015 125.351L72.0069 125.447C72.1125 125.471 72.1775 125.576 72.153 125.68C72.1313 125.77 72.0521 125.831 71.9626 125.831L71.9635 125.831ZM64.7727 125.65C64.6888 125.65 64.6114 125.596 64.586 125.512C64.5539 125.409 64.6124 125.3 64.7161 125.269C65.0602 125.165 65.4062 125.077 65.7437 125.008C65.8503 124.982 65.9531 125.054 65.9748 125.159C65.9964 125.265 65.9285 125.368 65.822 125.389C65.4958 125.456 65.163 125.54 64.8302 125.641C64.8104 125.647 64.7924 125.649 64.7736 125.649L64.7727 125.65ZM69.927 125.382C69.9157 125.382 69.9044 125.381 69.8931 125.379C69.5358 125.315 69.2029 125.269 68.8748 125.237C68.7674 125.227 68.6891 125.132 68.6995 125.024C68.7099 124.918 68.7985 124.841 68.9135 124.85C69.251 124.883 69.5942 124.93 69.961 124.996C70.0675 125.015 70.1382 125.116 70.1194 125.221C70.1024 125.315 70.0204 125.382 69.927 125.382ZM114.327 125.355C114.268 125.355 114.209 125.327 114.171 125.277C113.969 125.01 113.753 124.743 113.525 124.475C113.455 124.393 113.465 124.271 113.547 124.201C113.63 124.132 113.753 124.141 113.823 124.224C114.056 124.497 114.276 124.77 114.483 125.043C114.548 125.128 114.53 125.25 114.444 125.316C114.409 125.342 114.368 125.356 114.326 125.356L114.327 125.355ZM66.8129 125.236C66.7139 125.236 66.6281 125.161 66.6187 125.062C66.6083 124.955 66.6856 124.859 66.7931 124.849C67.1382 124.814 67.4898 124.796 67.8377 124.796C67.9452 124.796 68.0414 124.883 68.0414 124.99C68.0414 125.097 67.9622 125.185 67.8547 125.185C67.5031 125.185 67.1646 125.202 66.8337 125.235C66.8261 125.235 66.8195 125.235 66.8139 125.235L66.8129 125.236ZM76.5815 124.515C76.5419 124.515 76.5013 124.502 76.4674 124.478C76.3797 124.415 76.3599 124.293 76.424 124.207C76.6041 123.957 76.7861 123.669 76.9643 123.348C77.0171 123.254 77.1349 123.219 77.2301 123.272C77.3244 123.323 77.3593 123.443 77.3065 123.537C77.1217 123.871 76.9312 124.173 76.7408 124.435C76.7031 124.487 76.6427 124.516 76.5824 124.516L76.5815 124.515ZM112.98 123.769C112.928 123.769 112.875 123.749 112.838 123.707C112.606 123.461 112.365 123.215 112.114 122.969C112.037 122.894 112.037 122.77 112.112 122.694C112.188 122.618 112.312 122.617 112.389 122.692C112.642 122.941 112.887 123.192 113.122 123.442C113.196 123.52 113.192 123.643 113.114 123.717C113.076 123.752 113.028 123.769 112.98 123.769ZM77.5988 122.709C77.5714 122.709 77.5441 122.703 77.5177 122.691C77.4196 122.647 77.3762 122.531 77.4206 122.434C77.5544 122.142 77.6874 121.827 77.8231 121.487C77.8627 121.388 77.9768 121.339 78.0768 121.378C78.1776 121.417 78.2267 121.531 78.1871 121.63C78.0494 121.976 77.9127 122.298 77.7769 122.594C77.7439 122.666 77.6732 122.709 77.5997 122.709H77.5988ZM111.494 122.311C111.447 122.311 111.4 122.294 111.362 122.259C111.111 122.029 110.852 121.801 110.585 121.574C110.503 121.503 110.494 121.38 110.563 121.299C110.634 121.217 110.758 121.208 110.84 121.277C111.109 121.507 111.371 121.738 111.626 121.971C111.705 122.043 111.711 122.167 111.637 122.246C111.599 122.287 111.546 122.309 111.493 122.309L111.494 122.311ZM109.91 120.956C109.867 120.956 109.823 120.942 109.787 120.913C109.521 120.699 109.248 120.486 108.97 120.275C108.884 120.21 108.867 120.088 108.933 120.002C108.999 119.916 109.122 119.9 109.208 119.965C109.489 120.178 109.764 120.393 110.033 120.611C110.117 120.678 110.13 120.801 110.061 120.885C110.023 120.932 109.967 120.957 109.909 120.957L109.91 120.956ZM78.3672 120.781C78.3455 120.781 78.3238 120.777 78.3021 120.769C78.2003 120.734 78.1465 120.622 78.1833 120.521C78.2927 120.212 78.402 119.886 78.5124 119.543C78.5454 119.44 78.6547 119.385 78.7584 119.417C78.8612 119.45 78.9177 119.56 78.8847 119.662C78.7735 120.009 78.6613 120.339 78.551 120.651C78.5227 120.731 78.4473 120.781 78.3672 120.781ZM108.252 119.695C108.212 119.695 108.172 119.682 108.137 119.658C107.859 119.458 107.575 119.259 107.287 119.062C107.199 119.001 107.176 118.88 107.237 118.792C107.298 118.703 107.419 118.681 107.509 118.742C107.798 118.94 108.085 119.141 108.365 119.344C108.452 119.407 108.471 119.529 108.408 119.616C108.37 119.668 108.31 119.697 108.25 119.697L108.252 119.695ZM79.0073 118.806C78.9894 118.806 78.9705 118.803 78.9517 118.797C78.848 118.767 78.7886 118.658 78.8197 118.555C78.914 118.237 79.0111 117.906 79.1073 117.561C79.1365 117.458 79.2459 117.398 79.3486 117.426C79.4533 117.455 79.5136 117.562 79.4844 117.665C79.3864 118.013 79.2902 118.346 79.1949 118.666C79.1704 118.75 79.0922 118.805 79.0073 118.805V118.806ZM106.533 118.518C106.496 118.518 106.459 118.507 106.426 118.486C106.138 118.298 105.846 118.113 105.55 117.929C105.459 117.873 105.431 117.752 105.488 117.661C105.546 117.57 105.667 117.542 105.758 117.599C106.056 117.784 106.35 117.97 106.641 118.159C106.732 118.218 106.757 118.338 106.698 118.428C106.66 118.486 106.598 118.517 106.534 118.517L106.533 118.518ZM104.759 117.419C104.725 117.419 104.692 117.411 104.66 117.392C104.363 117.218 104.062 117.045 103.76 116.875C103.666 116.822 103.632 116.703 103.686 116.61C103.739 116.516 103.86 116.485 103.951 116.536C104.257 116.708 104.56 116.882 104.859 117.058C104.952 117.112 104.983 117.232 104.927 117.325C104.891 117.386 104.826 117.42 104.759 117.42V117.419ZM79.6286 116.826C79.6041 116.826 79.5796 116.822 79.556 116.812C79.4561 116.772 79.4071 116.659 79.4476 116.56C79.5824 116.225 79.7371 115.904 79.9068 115.601C79.9596 115.508 80.0793 115.476 80.1726 115.527C80.2669 115.58 80.3009 115.698 80.2471 115.792C80.0859 116.079 79.9388 116.387 79.8096 116.705C79.7795 116.781 79.7059 116.827 79.6286 116.827V116.826ZM102.941 116.4C102.909 116.4 102.878 116.393 102.848 116.378C102.542 116.214 102.235 116.055 101.924 115.898C101.828 115.849 101.79 115.732 101.839 115.636C101.887 115.539 102.005 115.501 102.102 115.551C102.414 115.708 102.724 115.869 103.032 116.034C103.127 116.085 103.163 116.202 103.112 116.297C103.077 116.363 103.01 116.4 102.94 116.4H102.941ZM101.077 115.46C101.049 115.46 101.019 115.454 100.992 115.44C100.679 115.291 100.366 115.145 100.051 115.003C99.952 114.958 99.9086 114.844 99.9529 114.746C99.9973 114.649 100.114 114.604 100.211 114.649C100.529 114.791 100.846 114.939 101.161 115.089C101.258 115.136 101.299 115.251 101.252 115.349C101.218 115.419 101.148 115.46 101.076 115.46H101.077ZM80.6478 115.023C80.6063 115.023 80.5648 115.01 80.529 114.983C80.4432 114.917 80.4263 114.796 80.4923 114.71C80.7091 114.427 80.9476 114.16 81.2041 113.914C81.2823 113.839 81.4059 113.841 81.4803 113.918C81.5558 113.996 81.5529 114.119 81.4756 114.193C81.2333 114.426 81.0071 114.679 80.8025 114.945C80.7647 114.995 80.7053 115.022 80.6469 115.022L80.6478 115.023ZM99.1789 114.604C99.1534 114.604 99.1271 114.6 99.1035 114.589C98.7829 114.454 98.4624 114.323 98.1409 114.196C98.0409 114.157 97.9919 114.043 98.0315 113.944C98.072 113.844 98.1833 113.795 98.2851 113.835C98.6085 113.962 98.9319 114.095 99.2544 114.231C99.3543 114.273 99.4005 114.387 99.359 114.486C99.3279 114.56 99.2553 114.605 99.1789 114.605V114.604ZM97.2377 113.84C97.215 113.84 97.1924 113.837 97.1698 113.828C96.8435 113.709 96.5174 113.594 96.1902 113.485C96.0874 113.45 96.0327 113.34 96.0676 113.238C96.1025 113.135 96.2128 113.081 96.3156 113.116C96.6446 113.227 96.9746 113.342 97.3046 113.463C97.4064 113.5 97.4583 113.612 97.4206 113.713C97.3913 113.792 97.3168 113.84 97.2377 113.84ZM82.1412 113.587C82.08 113.587 82.0196 113.559 81.9819 113.505C81.9197 113.418 81.9404 113.296 82.0281 113.234C82.3129 113.032 82.6202 112.846 82.9407 112.68C83.0369 112.632 83.1548 112.668 83.2048 112.764C83.2547 112.86 83.217 112.977 83.1208 113.027C82.8163 113.183 82.525 113.361 82.2544 113.552C82.2205 113.577 82.1808 113.588 82.1412 113.588V113.587ZM95.2596 113.177C95.2408 113.177 95.2219 113.174 95.203 113.168C94.8702 113.068 94.5374 112.972 94.2065 112.882C94.1028 112.854 94.0406 112.747 94.0689 112.643C94.0971 112.539 94.2027 112.477 94.3093 112.506C94.644 112.597 94.9805 112.693 95.3171 112.796C95.4208 112.827 95.4784 112.936 95.4473 113.039C95.4218 113.122 95.3445 113.177 95.2605 113.177H95.2596ZM93.2458 112.632C93.2307 112.632 93.2156 112.631 93.2005 112.628C92.8602 112.548 92.5226 112.475 92.1879 112.409C92.0823 112.388 92.0125 112.286 92.0333 112.18C92.054 112.075 92.1531 112.003 92.2634 112.026C92.6037 112.093 92.9459 112.167 93.2901 112.248C93.3957 112.273 93.4607 112.378 93.4353 112.483C93.4136 112.573 93.3334 112.633 93.2448 112.633L93.2458 112.632ZM83.9845 112.631C83.9053 112.631 83.8299 112.583 83.8016 112.504C83.7639 112.402 83.8157 112.291 83.9175 112.254C84.2428 112.135 84.586 112.031 84.9348 111.945C85.0414 111.92 85.146 111.984 85.1715 112.088C85.1979 112.192 85.1328 112.298 85.0282 112.324C84.6925 112.405 84.3644 112.506 84.0523 112.619C84.0297 112.628 84.0071 112.631 83.9845 112.631ZM91.198 112.231C91.1885 112.231 91.1782 112.231 91.1678 112.228C90.8227 112.174 90.4805 112.129 90.142 112.093C90.0355 112.081 89.9572 111.985 89.9685 111.878C89.9798 111.772 90.06 111.697 90.1844 111.705C90.5286 111.743 90.8755 111.789 91.2272 111.843C91.3337 111.859 91.4073 111.959 91.3903 112.065C91.3752 112.162 91.2923 112.231 91.197 112.231H91.198ZM86.003 112.126C85.9078 112.126 85.8239 112.058 85.8098 111.96C85.7937 111.854 85.8672 111.755 85.9738 111.739C86.3141 111.687 86.6687 111.649 87.0251 111.624C87.1344 111.615 87.2259 111.698 87.2334 111.805C87.241 111.912 87.1599 112.004 87.0524 112.012C86.7055 112.035 86.3623 112.073 86.0313 112.123C86.0219 112.125 86.0115 112.125 86.0021 112.125L86.003 112.126ZM89.1247 112.006C89.1247 112.006 89.1172 112.006 89.1134 112.006C88.7749 111.988 88.4412 111.977 88.1121 111.977C88.0037 111.977 87.9009 111.89 87.9009 111.783C87.9009 111.676 87.9735 111.589 88.082 111.589H88.1121C88.4478 111.589 88.789 111.599 89.136 111.619C89.2435 111.625 89.3255 111.716 89.3199 111.824C89.3142 111.927 89.2275 112.008 89.1247 112.008V112.006Z" fill="#FF5C5C"/>
<circle cx="78" cy="78" r="78" fill="white"/>
<path d="M92.64 31.867C92.64 31.867 80.9858 29.8163 83.1779 38.8326C85.3709 47.8489 94.141 51.9812 94.141 51.9812C94.141 51.9812 95.1309 57.5759 99.8403 56.5716C104.55 55.5682 103.696 51.436 103.696 51.436C103.696 51.436 100.864 53.5821 100.523 50.3148C100.182 47.0475 103.228 40.5588 100.761 36.19C97.7586 30.8701 92.6391 31.866 92.6391 31.866L92.64 31.867Z" fill="#0F1217"/>
<path d="M98.7511 56.8867C97.9025 56.8867 97.1341 56.6595 96.4553 56.2059C94.6592 55.0062 94.0756 52.6301 93.9672 52.112C93.03 51.6389 85.0576 47.3897 82.9871 38.8784C82.4111 36.5097 82.726 34.6676 83.9234 33.4052C86.4746 30.7158 92.091 31.5789 92.6379 31.6706C92.8651 31.6322 94.0785 31.4592 95.6209 31.8464C97.1681 32.2354 99.346 33.2883 100.931 36.0964C102.565 38.9906 101.851 42.6861 101.222 45.945C100.902 47.6067 100.598 49.1758 100.716 50.2961C100.805 51.1433 101.07 51.6669 101.505 51.854C102.338 52.2112 103.564 51.292 103.576 51.2826C103.63 51.2424 103.7 51.2312 103.764 51.2555C103.826 51.2789 103.873 51.3331 103.887 51.3986C103.896 51.4416 104.723 55.7309 99.8806 56.7623C99.4893 56.8456 99.1131 56.8867 98.7501 56.8867H98.7511ZM90.0111 31.8641C88.1066 31.8641 85.6148 32.1877 84.209 33.6708C83.1078 34.8322 82.825 36.5537 83.368 38.7867C85.513 47.6058 94.1388 51.7642 94.2256 51.8053C94.2821 51.8324 94.3236 51.8848 94.334 51.9465C94.3387 51.9736 94.8346 54.6555 96.6759 55.8843C97.5527 56.4687 98.604 56.6352 99.7995 56.3817C103.589 55.5747 103.638 52.7124 103.546 51.7717C103.087 52.0559 102.128 52.5413 101.352 52.2093C100.777 51.9624 100.433 51.3322 100.328 50.3353C100.206 49.159 100.499 47.6357 100.84 45.8721C101.457 42.6777 102.157 39.057 100.591 36.2853C97.6914 31.1478 92.7293 32.0483 92.6775 32.0568C92.6548 32.0614 92.6293 32.0614 92.6058 32.0568C92.5803 32.0521 91.4669 31.8632 90.0111 31.8632V31.8641Z" fill="#0F1217"/>
<path d="M92.7677 126.322L91.0904 114.793L81.3605 113.882C81.3605 113.882 77.8231 119.851 74.7637 126.321H92.7677V126.322Z" fill="white"/>
<path d="M92.768 126.516H74.7639C74.697 126.516 74.6348 126.483 74.5989 126.426C74.5631 126.37 74.5584 126.3 74.5867 126.24C77.615 119.836 81.1562 113.845 81.192 113.786C81.2307 113.721 81.3033 113.687 81.3787 113.691L91.1086 114.602C91.1991 114.61 91.2708 114.679 91.284 114.768L92.9613 126.296C92.9697 126.351 92.9528 126.408 92.9151 126.45C92.8783 126.493 92.8236 126.517 92.767 126.517L92.768 126.516ZM75.0722 126.128H92.5426L90.9191 114.972L81.4664 114.088C80.9856 114.907 77.8404 120.314 75.0722 126.128Z" fill="#0F1217"/>
<path d="M85.6518 126.321L86.7851 114.57L71.3115 104.734L70.0566 126.321H85.6518Z" fill="white"/>
<path d="M83.0943 126.321L84.1682 116.882L83.0001 116.235L81.8545 126.321H83.0943Z" fill="#5C8FCC"/>
<path d="M83.0943 126.516H81.8544C81.7988 126.516 81.746 126.492 81.7092 126.451C81.6725 126.41 81.6545 126.355 81.6602 126.301L82.8067 116.215C82.8142 116.15 82.8538 116.093 82.9113 116.064C82.9707 116.035 83.0396 116.035 83.0962 116.068L84.2634 116.714C84.3322 116.751 84.3708 116.827 84.3623 116.905L83.2885 126.345C83.2771 126.443 83.1933 126.517 83.0943 126.517V126.516ZM82.0732 126.128H82.9198L83.9598 116.988L83.1621 116.547L82.0732 126.128V126.128Z" fill="#5C8FCC"/>
<path d="M85.6519 126.516H70.0568C70.003 126.516 69.9512 126.494 69.9144 126.455C69.8776 126.416 69.8588 126.364 69.8616 126.311L71.1155 104.723C71.1193 104.655 71.1598 104.593 71.2221 104.562C71.2824 104.53 71.3569 104.533 71.4163 104.571L86.8898 114.406C86.9511 114.446 86.986 114.516 86.9794 114.588L85.8461 126.34C85.8367 126.439 85.7528 126.515 85.6519 126.515V126.516ZM70.2642 126.128H85.4747L86.5787 114.669L71.487 105.077L70.2642 126.128V126.128Z" fill="#0F1217"/>
<path d="M88.9818 119.546L89.6352 126.321H104.514L103.071 105.504L69.2788 104.734L79.301 114.189L88.9818 119.546Z" fill="white"/>
<path d="M104.365 124.365C104.263 124.365 104.177 124.286 104.169 124.185L102.875 105.517C102.867 105.41 102.949 105.318 103.057 105.31C103.176 105.301 103.258 105.384 103.265 105.491L104.56 124.158C104.567 124.265 104.486 124.358 104.378 124.365C104.373 124.365 104.368 124.365 104.365 124.365V124.365Z" fill="#0F1217"/>
<path d="M89.4219 124.301C89.4124 124.301 89.4011 124.301 89.3917 124.298C89.2852 124.281 89.2125 124.182 89.2295 124.076C89.9913 119.294 86.7414 117.91 83.2992 116.444C81.8869 115.842 80.4255 115.22 79.1876 114.347C79.0999 114.286 79.0791 114.164 79.1414 114.076C79.2036 113.989 79.3262 113.969 79.4148 114.03C80.6188 114.879 82.0594 115.494 83.4529 116.087C87.0384 117.615 90.425 119.056 89.6152 124.137C89.6001 124.232 89.5171 124.301 89.4219 124.301Z" fill="#0F1217"/>
<path d="M94.131 58.0927C94.131 58.0927 89.2906 67.9479 87.1428 66.8828C84.9951 65.8177 85.4618 58.0927 85.4618 58.0927V43.8501H94.131V58.0927Z" fill="white"/>
<path d="M87.4932 67.1577C87.3376 67.1577 87.1915 67.124 87.0558 67.0567C84.8184 65.9467 85.2484 58.4023 85.2672 58.0815V43.851C85.2672 43.7444 85.3539 43.6575 85.4624 43.6575H94.1306C94.2381 43.6575 94.3258 43.7444 94.3258 43.851V58.0937C94.3258 58.1236 94.3192 58.1526 94.306 58.1788C94.1439 58.5089 90.3047 66.2796 87.9071 67.0857C87.7628 67.1343 87.6243 67.1586 87.4923 67.1586L87.4932 67.1577ZM85.6585 44.0446V58.0928C85.5302 60.2173 85.5651 65.8831 87.2311 66.7098C87.3876 66.7874 87.5677 66.7902 87.7817 66.7173C89.9436 65.9907 93.6309 58.6585 93.9355 58.0469V44.0437H85.6575L85.6585 44.0446Z" fill="#0F1217"/>
<path d="M85.4619 51.2947V53.6017C85.4619 53.6017 89.2662 53.2566 91.2065 49.8809L85.4619 51.2938V51.2947Z" fill="#0F1217"/>
<path d="M63.629 47.6832L60.9043 42.657C60.9043 42.657 65.0451 41.1057 70.7002 44.805C70.7002 44.805 68.6561 48.0114 63.629 47.6832Z" fill="#0F1217"/>
<path d="M64.3325 47.9002C64.1006 47.9002 63.8611 47.8928 63.616 47.8769C63.549 47.8722 63.4877 47.8338 63.4566 47.7749L60.7319 42.7487C60.7045 42.6992 60.7017 42.6412 60.7206 42.5888C60.7404 42.5365 60.7818 42.4953 60.8346 42.4757C61.0081 42.4102 65.1339 40.9318 70.8068 44.6433C70.8964 44.7012 70.9219 44.8191 70.8653 44.9088C70.8446 44.9406 68.9014 47.9012 64.3325 47.9012V47.9002ZM63.7498 47.4963C67.8813 47.7235 69.9376 45.4755 70.4212 44.8565C65.7251 41.8585 62.0914 42.5336 61.1892 42.774L63.7498 47.4963Z" fill="#0F1217"/>
<path d="M82.5094 57.4635L63.3749 60.6027L70.7006 44.8049C70.7006 44.8049 65.1654 46.0926 60.9048 42.657C60.9048 42.657 47.9919 64.1785 50.7072 70.556C53.2613 76.5537 80.2363 70.4278 80.2363 70.4278L82.5094 57.4635V57.4635Z" fill="white"/>
<path d="M59.3941 73.3858C54.9949 73.3858 51.4075 72.6966 50.5279 70.6319C49.3795 67.9351 50.7532 62.3843 54.6103 54.1338C57.4708 48.0182 60.7046 42.6123 60.7367 42.5581C60.7659 42.5095 60.8149 42.4758 60.8706 42.4664C60.9252 42.4552 60.9837 42.4711 61.028 42.5067C65.1614 45.8394 70.6023 44.6284 70.6561 44.6163C70.7306 44.5994 70.805 44.6247 70.8522 44.6826C70.8993 44.7406 70.9097 44.8192 70.8786 44.8865L63.7075 60.3523L82.4781 57.273C82.5413 57.2627 82.6044 57.2832 82.6487 57.3281C82.6931 57.373 82.7138 57.4357 82.7025 57.4983L80.4293 70.4627C80.4161 70.5394 80.3567 70.6011 80.2804 70.6188C79.5487 70.7843 67.9417 73.3877 59.3941 73.3877V73.3858ZM60.9592 42.948C59.6921 45.0978 48.3754 64.5827 50.888 70.4814C51.8949 72.8463 57.2606 73.5616 66.4059 72.5498C72.851 71.8363 79.1066 70.4804 80.0663 70.2682L82.2697 57.7003L63.4077 60.7946C63.3351 60.8058 63.2644 60.7777 63.2201 60.7207C63.1767 60.6637 63.1673 60.587 63.1975 60.5225L70.3657 45.0642C69.0495 45.2755 64.5702 45.7281 60.9592 42.948V42.948Z" fill="#0F1217"/>
<path d="M94.1318 57.0676L100.695 60.8623L104.808 108.565C104.808 108.565 78.9137 110.509 70.1455 106.519L78.431 60.0852L85.4635 57.2004C85.4635 57.2004 85.949 65.06 87.4773 65.06C89.0056 65.06 94.1327 57.0686 94.1327 57.0686L94.1318 57.0676Z" fill="#5C8FCC"/>
<path d="M91.1384 109.222C83.4479 109.222 74.5222 108.724 70.0636 106.695C69.9825 106.658 69.9363 106.571 69.9524 106.484L78.2379 60.0505C78.2492 59.985 78.2935 59.9308 78.3557 59.9046L85.3882 57.0198C85.4466 56.9955 85.5136 57.0011 85.5673 57.0348C85.6211 57.0675 85.655 57.1245 85.6588 57.1872C85.8558 60.375 86.5507 64.8644 87.4775 64.8644C88.5117 64.8644 92.0077 60.0178 93.9678 56.9628C94.0244 56.8739 94.1413 56.8477 94.2309 56.8992L100.794 60.6939C100.849 60.7256 100.885 60.7818 100.891 60.8453L105.004 108.548C105.008 108.599 104.992 108.651 104.958 108.69C104.924 108.729 104.876 108.754 104.824 108.758C104.698 108.767 98.482 109.221 91.1394 109.221L91.1384 109.222ZM70.3644 106.404C78.7093 110.067 102.197 108.551 104.596 108.385L100.508 60.9791L94.1951 57.3293C93.3324 58.6637 88.9907 65.2534 87.4766 65.2534C85.9624 65.2534 85.409 59.2772 85.2864 57.4827L78.6046 60.2235L70.3644 106.404V106.404Z" fill="#5C8FCC"/>
<path d="M72.7796 126.321C75.2535 96.0977 82.5095 57.4636 82.5095 57.4636L76.5414 60.5504C73.6197 71.2518 69.9653 106.008 67.9985 126.321H72.7786H72.7796Z" fill="white"/>
<path d="M109.027 126.322L102.168 62.0912C102.168 62.0912 97.5795 58.1796 96.4358 57.7485C96.4358 57.7485 93.3839 97.3523 94.1344 126.322H109.028H109.027Z" fill="white"/>
<path d="M109.027 126.516H94.1335C94.0279 126.516 93.9402 126.432 93.9383 126.327C93.1963 97.6783 96.2095 58.1298 96.2397 57.7333C96.2444 57.6725 96.2784 57.6173 96.3302 57.5846C96.3821 57.5519 96.4471 57.5444 96.5046 57.5668C97.6681 58.0045 102.107 61.7832 102.295 61.9441C102.334 61.9759 102.358 62.0217 102.362 62.0703L109.222 126.302C109.228 126.356 109.21 126.411 109.173 126.452C109.137 126.493 109.084 126.516 109.028 126.516H109.027ZM94.3239 126.128H108.809L101.981 62.1881C101.479 61.7627 97.917 58.7572 96.6084 58.0447C96.3387 61.6561 93.6328 98.7939 94.3239 126.128V126.128Z" fill="#0F1217"/>
<path d="M105.925 120.669C105.905 120.669 105.886 120.666 105.867 120.659C99.661 118.728 96.7308 113.434 96.7025 113.38C96.6506 113.286 96.6865 113.168 96.7817 113.118C96.876 113.068 96.9948 113.102 97.0466 113.196C97.0749 113.249 99.9345 118.407 105.984 120.289C106.086 120.321 106.144 120.43 106.112 120.532C106.085 120.615 106.008 120.668 105.925 120.668V120.669Z" fill="#0F1217"/>
<path d="M70.7801 46.4039L73.1993 28.822L69.3253 28.3647L66.906 45.9467C64.5726 46.4722 62.7143 48.4023 62.4154 50.8943C62.0354 54.0597 64.3152 56.9314 67.5066 57.3082C70.6981 57.6851 73.5934 55.424 73.9734 52.2587C74.2723 49.7666 72.9231 47.4578 70.7791 46.4039H70.7801Z" fill="white"/>
<path d="M68.1983 57.5432C67.9617 57.5432 67.7241 57.5292 67.4837 57.5011C64.1904 57.1121 61.8296 54.1375 62.2218 50.8712C62.5159 48.4147 64.3205 46.3892 66.7304 45.7889L69.1308 28.3388C69.1449 28.2341 69.242 28.1621 69.3476 28.1724L73.2216 28.6296C73.2744 28.6362 73.3216 28.6624 73.3537 28.7035C73.3857 28.7446 73.3998 28.797 73.3923 28.8484L70.9929 46.2938C73.1915 47.4393 74.4633 49.8276 74.1682 52.2813C73.8052 55.3092 71.2012 57.5432 68.1993 57.5432H68.1983ZM69.4919 28.5801L67.099 45.9731C67.0886 46.0535 67.0283 46.118 66.9491 46.1358C64.6335 46.6567 62.8903 48.5783 62.6093 50.917C62.2435 53.9711 64.4497 56.7521 67.5289 57.1159C70.6119 57.4796 73.4121 55.2905 73.7789 52.2355C74.0598 49.8978 72.82 47.6236 70.6921 46.5781C70.6176 46.5416 70.5742 46.4603 70.5855 46.378L72.9775 28.9915L69.4919 28.5801V28.5801Z" fill="#0F1217"/>
<path d="M62.4038 51.0186C62.0974 54.1353 64.3564 56.9369 67.5063 57.309C70.6563 57.6812 73.5158 55.4828 73.9552 52.3829L62.4028 51.0186H62.4038Z" fill="#8EA4D7"/>
<path d="M73.9742 52.2591C73.911 52.7883 71.2721 52.9118 68.0797 52.5349C64.8882 52.1581 62.352 51.424 62.4152 50.8947C62.4784 50.3655 65.1173 50.242 68.3097 50.6189C71.5012 50.9957 74.0373 51.7298 73.9742 52.2591Z" fill="#5C8FCC"/>
<path d="M71.5321 52.9454C69.9387 52.9454 68.1889 52.7425 68.0569 52.7275C66.5022 52.5442 65.0512 52.2703 63.9716 51.9579C62.3424 51.4857 62.1916 51.1117 62.2208 50.8713C62.3585 49.7333 68.088 50.3972 68.3322 50.4262C69.8869 50.6095 71.3379 50.8835 72.4165 51.1958C74.0457 51.668 74.1965 52.0421 74.1673 52.2824C74.1051 52.8023 72.8737 52.9463 71.5321 52.9463V52.9454ZM64.9578 50.5927C63.5021 50.5927 62.6913 50.7582 62.6083 50.9228C62.6762 51.1986 64.5685 51.9233 68.1031 52.3413C71.6085 52.7546 73.6157 52.4984 73.7779 52.2347C73.6827 51.9411 71.7923 51.2239 68.2869 50.8096C66.9547 50.6516 65.8384 50.5917 64.9578 50.5917V50.5927Z" fill="#7B95D0"/>
<path d="M68.1983 57.5432C67.9617 57.5432 67.7241 57.5292 67.4837 57.5011C64.1904 57.1121 61.8296 54.1375 62.2218 50.8712C62.5159 48.4147 64.3205 46.3892 66.7304 45.7889L69.1308 28.3388C69.1449 28.2341 69.242 28.1621 69.3476 28.1724L73.2216 28.6296C73.2744 28.6362 73.3216 28.6624 73.3537 28.7035C73.3857 28.7446 73.3998 28.797 73.3923 28.8484L70.9929 46.2938C73.1915 47.4393 74.4633 49.8276 74.1682 52.2813C73.8052 55.3092 71.2012 57.5432 68.1993 57.5432H68.1983ZM69.4919 28.5801L67.099 45.9731C67.0886 46.0535 67.0283 46.118 66.9491 46.1358C64.6335 46.6567 62.8903 48.5783 62.6093 50.917C62.2435 53.9711 64.4497 56.7521 67.5289 57.1159C70.6119 57.4796 73.4121 55.2905 73.7789 52.2355C74.0598 49.8978 72.82 47.6236 70.6921 46.5781C70.6176 46.5416 70.5742 46.4603 70.5855 46.378L72.9775 28.9915L69.4919 28.5801V28.5801Z" fill="#0F1217"/>
<path d="M73.1996 28.8227C73.1779 29.0004 72.2935 29.0415 71.2244 28.9153C70.1543 28.789 69.3048 28.5431 69.3256 28.3654C69.3473 28.1878 70.2316 28.1466 71.3007 28.2729C72.3708 28.3991 73.2203 28.645 73.1996 28.8227Z" fill="white"/>
<path d="M72.3546 29.187C71.9916 29.187 71.5814 29.1524 71.2005 29.1075C70.6725 29.0449 70.1785 28.9514 69.8108 28.8448C69.4394 28.7372 69.0999 28.6016 69.132 28.3417C69.1838 27.9171 70.353 27.9648 71.325 28.0798C71.853 28.1425 72.3461 28.2351 72.7147 28.3426C73.0862 28.4501 73.4256 28.5857 73.3935 28.8457C73.3624 29.1038 72.9174 29.187 72.3555 29.187H72.3546ZM69.7317 28.4127C70.0079 28.51 70.517 28.6353 71.2458 28.7223C71.9755 28.8092 72.5007 28.8055 72.792 28.7746C72.5158 28.6764 72.0067 28.5511 71.2779 28.4651C70.5491 28.3791 70.0248 28.3819 69.7326 28.4127H69.7317Z" fill="#0F1217"/>
<path d="M61.7919 43.0275L62.3614 41.8783C62.3614 41.8783 62.4529 37.3925 63.275 36.1236C64.0971 34.8547 69.2072 31.0946 69.804 31.91C70.4018 32.7254 68.9178 33.8158 68.9178 33.8158C68.9178 33.8158 70.2547 33.1855 70.6224 33.6166C70.9901 34.0477 69.0846 35.5064 69.0846 35.5064C69.0846 35.5064 70.6997 34.6199 70.9901 35.1417C71.3945 35.8664 69.2855 36.9652 69.2855 36.9652C69.2855 36.9652 70.4555 36.4013 70.7902 36.9652C71.1249 37.5291 68.1154 39.2534 68.1154 39.2534C68.1154 39.2534 68.7632 41.406 67.1472 42.8611L66.8926 44.9838C66.8926 44.9838 62.8423 44.3441 61.791 43.0275H61.7919Z" fill="white"/>
<path d="M66.8925 45.1774C66.8821 45.1774 66.8718 45.1774 66.8624 45.1745C66.6936 45.1484 62.7243 44.5069 61.6382 43.1472C61.591 43.0883 61.5826 43.0079 61.6156 42.9415L62.1662 41.8306C62.1784 41.3359 62.3019 37.2654 63.1099 36.0189C63.8642 34.8556 68.1257 31.6398 69.4862 31.6014C69.7493 31.594 69.8935 31.7024 69.9614 31.7959C70.3442 32.3187 70.0547 32.9022 69.7002 33.3342C70.1075 33.2407 70.5459 33.2257 70.7713 33.4913C70.8212 33.5502 70.8778 33.6531 70.8618 33.8055C70.8307 34.1029 70.496 34.504 70.1321 34.8612C70.6666 34.7163 71.0117 34.7799 71.1616 35.0483C71.2436 35.196 71.2596 35.3662 71.2059 35.542C71.1012 35.887 70.7326 36.2377 70.3527 36.5229C70.5969 36.5426 70.8203 36.6361 70.958 36.867C70.9966 36.9316 71.0334 37.0391 70.9938 37.1859C70.8175 37.8508 68.963 38.9832 68.3407 39.3479C68.4595 39.8734 68.7272 41.6483 67.3328 42.9555L67.0858 45.0072C67.0802 45.0595 67.0519 45.1072 67.0094 45.139C66.9755 45.1643 66.934 45.1783 66.8916 45.1783L66.8925 45.1774ZM62.0238 42.9976C62.9827 44.0216 65.9261 44.6125 66.7228 44.7566L66.9538 42.8377C66.9594 42.791 66.9811 42.7489 67.016 42.7171C68.5236 41.3593 67.9343 39.3282 67.9287 39.3077C67.9023 39.2216 67.94 39.1291 68.0182 39.0842C69.4523 38.2613 70.6685 37.3159 70.6204 37.0597C70.4196 36.724 69.5843 37.0363 69.3712 37.1392C69.276 37.184 69.16 37.1466 69.111 37.0522C69.0629 36.9577 69.1006 36.8427 69.1949 36.7932C69.5993 36.5818 70.6826 35.9254 70.8325 35.4298C70.8627 35.3297 70.8401 35.2708 70.8203 35.2353C70.7694 35.1446 70.495 35.1333 69.9991 35.3091C69.5786 35.4578 69.1845 35.6729 69.1807 35.6757C69.0902 35.7243 68.979 35.6972 68.9224 35.6121C68.8668 35.527 68.8856 35.4139 68.9658 35.3522C69.8916 34.6433 70.5365 33.9037 70.4733 33.74C70.298 33.5343 69.506 33.7522 69.0016 33.9897C68.9111 34.0318 68.8027 34 68.7499 33.914C68.698 33.8289 68.7207 33.7176 68.8008 33.6587C68.814 33.6493 70.1141 32.6637 69.6446 32.0232C69.6276 31.9998 69.5673 31.9839 69.4966 31.9886C68.2926 32.0222 64.1244 35.1689 63.4381 36.2274C62.6555 37.4356 62.5565 41.8362 62.5555 41.8811C62.5555 41.9091 62.548 41.9372 62.5357 41.9624L62.0229 42.9967L62.0238 42.9976Z" fill="#0F1217"/>
<path d="M100.136 111.592C100.136 111.592 98.2898 113.18 97.5742 114.364C97.5742 114.364 100.96 119.09 104.618 120.001L106.263 115.071C106.263 115.071 101.639 110.497 100.135 111.592H100.136Z" fill="white"/>
<path d="M104.619 120.196C104.603 120.196 104.588 120.194 104.572 120.19C100.885 119.273 97.5556 114.673 97.4161 114.478C97.3708 114.415 97.368 114.332 97.4076 114.266C98.1307 113.07 99.9315 111.512 100.008 111.447C100.012 111.443 100.016 111.44 100.02 111.437C101.61 110.279 105.917 114.455 106.402 114.936C106.455 114.988 106.473 115.065 106.45 115.134L104.805 120.064C104.778 120.144 104.701 120.197 104.619 120.197V120.196ZM97.8111 114.356C98.3221 115.037 101.308 118.864 104.492 119.767L106.041 115.126C104.724 113.841 101.361 110.959 100.259 111.745C100.144 111.844 98.5229 113.26 97.8111 114.357V114.356Z" fill="#0F1217"/>
<path d="M96.4346 57.7483C96.4346 57.7483 101.547 59.8196 105.834 66.1998C109.169 71.1624 112.207 80.7557 113.924 86.5085C116.835 96.2682 107.027 116.062 107.027 116.062C107.027 116.062 101.76 114.263 99.3318 110.531L104.809 90.2966L98.9104 75.9689L96.4365 57.7483H96.4346Z" fill="white"/>
<path d="M107.026 116.255C107.004 116.255 106.983 116.251 106.962 116.245C106.744 116.171 101.602 114.382 99.1656 110.636C99.1364 110.59 99.127 110.533 99.1411 110.481L104.601 90.3096L98.7272 76.0426C98.6867 75.9435 98.7348 75.8303 98.8347 75.7901C98.9337 75.7499 99.0487 75.7976 99.0902 75.8967L104.988 90.2245C105.005 90.2637 105.007 90.3077 104.996 90.3479L99.5418 110.499C101.684 113.72 106.032 115.484 106.927 115.819C107.838 113.932 116.456 95.6827 113.735 86.5645C112.639 82.8923 109.305 71.7149 105.67 66.3081C102.002 60.849 97.6779 58.5495 96.6078 58.0408L96.4758 59.8428C96.4673 59.9494 96.3862 60.0289 96.2665 60.0223C96.159 60.0148 96.0779 59.9213 96.0854 59.8147L96.2382 57.735C96.2429 57.6733 96.2768 57.6172 96.3306 57.5845C96.3834 57.5518 96.4485 57.5471 96.5069 57.5695C96.5588 57.5901 101.723 59.7371 105.995 66.093C109.662 71.5485 113.009 82.7679 114.109 86.4541C115.328 90.5405 114.535 96.7824 111.75 105.007C109.682 111.117 107.225 116.098 107.2 116.148C107.166 116.216 107.098 116.256 107.025 116.256L107.026 116.255Z" fill="#0F1217"/>
<path d="M68.2248 124.193C68.2172 124.193 68.2097 124.193 68.2012 124.191C68.0947 124.178 68.0183 124.082 68.0306 123.975C68.7688 117.854 69.4627 111.617 70.134 105.584C71.535 92.9892 72.9832 79.965 74.9273 67.1905C74.9433 67.0848 75.0442 67.009 75.1498 67.0277C75.2563 67.0436 75.3299 67.1428 75.3139 67.2484C73.3698 80.0155 71.9225 93.0359 70.5215 105.627C69.8512 111.66 69.1572 117.899 68.4181 124.022C68.4068 124.12 68.3219 124.193 68.2238 124.193H68.2248Z" fill="#0F1217"/>
<path d="M72.9746 124.217C72.969 124.217 72.9633 124.217 72.9576 124.217C72.8502 124.208 72.7709 124.113 72.7794 124.007C73.3234 117.858 74.0579 111.23 75.0243 103.743C77.0231 88.2687 79.4593 72.7796 82.2661 57.7009L79.1604 58.2106C79.0473 58.2293 78.953 58.1563 78.9351 58.0507C78.9181 57.945 78.9898 57.8449 79.0963 57.8281L82.4773 57.2736C82.5405 57.2633 82.6036 57.2839 82.6489 57.3288C82.6941 57.3737 82.713 57.4382 82.7017 57.4999C79.8751 72.6571 77.4219 88.2323 75.4127 103.792C74.4464 111.274 73.7128 117.898 73.1698 124.04C73.1603 124.14 73.0755 124.217 72.9746 124.217V124.217Z" fill="#0F1217"/>
<path d="M69.2787 114.503C69.2193 114.503 69.1609 114.476 69.1222 114.426C69.0572 114.34 69.0751 114.218 69.1609 114.154C69.7888 113.686 71.4472 112.28 71.5802 111.4C71.5962 111.295 71.6942 111.221 71.8027 111.237C71.9092 111.253 71.9828 111.352 71.9667 111.458C71.7829 112.674 69.4928 114.391 69.3957 114.464C69.3598 114.49 69.3193 114.503 69.2778 114.503H69.2787Z" fill="#0F1217"/>
<path d="M108.043 114.076H108.035C105.079 113.97 99.8268 109.378 99.6043 109.183C99.5242 109.112 99.5167 108.989 99.5883 108.909C99.66 108.829 99.7835 108.822 99.8646 108.893C99.9183 108.94 105.234 113.588 108.049 113.688C108.158 113.692 108.242 113.782 108.238 113.889C108.234 113.994 108.147 114.076 108.043 114.076V114.076Z" fill="#0F1217"/>
<path d="M65.2639 46.7447C63.1416 46.7447 60.0332 44.434 59.9002 44.3349C59.8135 44.2704 59.7965 44.1488 59.8625 44.0628C59.9276 43.9767 60.0502 43.9608 60.136 44.0254C60.1671 44.0487 63.2727 46.3575 65.263 46.3575C65.2866 46.3575 65.3092 46.3575 65.3318 46.3566H65.3375C65.4431 46.3566 65.5298 46.4398 65.5326 46.5455C65.5354 46.653 65.4506 46.7419 65.3431 46.7447C65.3167 46.7447 65.2913 46.7456 65.2649 46.7456L65.2639 46.7447Z" fill="#0F1217"/>
<path d="M62.3747 63.5768C62.353 63.5768 62.3313 63.573 62.3087 63.5656C62.2069 63.53 62.1541 63.4188 62.1899 63.3178L63.1912 60.5386C63.227 60.4376 63.3392 60.3853 63.441 60.4208C63.5429 60.4563 63.5956 60.5676 63.5598 60.6686L62.5586 63.4477C62.5303 63.5272 62.4549 63.5768 62.3747 63.5768Z" fill="#0F1217"/>
<path d="M85.9314 78.5635C85.7843 78.5635 85.6476 78.5027 85.5222 78.3821C83.696 76.6166 83.9194 58.5157 83.9298 57.7461C83.9317 57.6395 84.0184 57.5544 84.125 57.5544H84.1278C84.2353 57.5563 84.322 57.6442 84.3211 57.7508C84.2504 62.9472 84.3795 76.7344 85.7956 78.1034C85.8729 78.1782 85.9229 78.1764 85.937 78.1754C87.3664 78.1212 92.0276 65.4065 94.6308 57.4048C94.6638 57.3029 94.7751 57.2477 94.8769 57.2795C94.9796 57.3122 95.0362 57.4216 95.0022 57.5236C94.3045 59.6678 88.1244 78.4803 85.9521 78.5626H85.9314V78.5635Z" fill="white"/>
<path d="M88.705 77.8021L83.2598 77.2458L82.5156 84.413L87.9608 84.9692L88.705 77.8021Z" fill="#0F1217"/>
<path d="M87.9585 85.171C87.9519 85.171 87.9453 85.171 87.9387 85.1701L82.493 84.6137C82.4411 84.609 82.394 84.5828 82.361 84.5426C82.328 84.5024 82.3129 84.4519 82.3185 84.4005L83.0634 77.2338C83.0737 77.1272 83.1727 77.0487 83.2774 77.0608L88.7231 77.6172C88.775 77.6228 88.8221 77.6481 88.8551 77.6873C88.8881 77.7275 88.9032 77.778 88.8975 77.8295L88.1527 84.9961C88.1423 85.0962 88.0575 85.1701 87.9585 85.1701V85.171ZM82.7268 84.2481L87.7841 84.7642L88.4883 77.9828L83.4311 77.4667L82.7268 84.2471V84.2481Z" fill="#0F1217"/>
<path d="M86.9611 78.4378L84.8359 78.2207L84.5455 81.0178L86.6707 81.2349L86.9611 78.4378Z" fill="#5C8FCC"/>
<path d="M86.6691 81.438C86.6625 81.438 86.6559 81.438 86.6493 81.4371L84.5242 81.2201C84.4167 81.2089 84.3384 81.1145 84.3497 81.0079L84.6401 78.21C84.6448 78.1586 84.6712 78.1118 84.7117 78.0791C84.7513 78.0464 84.8051 78.0323 84.8551 78.037L86.9802 78.254C87.0877 78.2652 87.1659 78.3596 87.1546 78.4662L86.8642 81.2641C86.8595 81.3155 86.8331 81.3623 86.7926 81.395C86.7577 81.423 86.7143 81.438 86.6691 81.438ZM84.758 80.8536L86.4946 81.0312L86.7454 78.6196L85.0087 78.4419L84.758 80.8536Z" fill="#5C8FCC"/>
<path d="M87.6512 82.4619C87.6446 82.4619 87.637 82.4619 87.6304 82.461L83.5273 82.0224C83.4198 82.0112 83.3415 81.9158 83.3538 81.8092C83.3651 81.7026 83.4537 81.6287 83.5687 81.6371L87.6719 82.0757C87.7794 82.0869 87.8577 82.1832 87.8454 82.2889C87.835 82.388 87.7492 82.4619 87.6512 82.4619V82.4619Z" fill="white"/>
<path d="M87.4139 83.8998C87.4073 83.8998 87.3997 83.8998 87.3931 83.8989L83.29 83.4603C83.1825 83.4491 83.1042 83.3537 83.1165 83.2471C83.1278 83.1405 83.2155 83.0638 83.3315 83.0751L87.4346 83.5136C87.5421 83.5249 87.6204 83.6202 87.6081 83.7268C87.5977 83.826 87.5119 83.8998 87.4139 83.8998V83.8998Z" fill="white"/>
<path d="M96.9624 40.3879C96.9624 40.3879 97.7846 36.25 92.9668 34.0946C88.149 31.9382 82.6259 36.5764 82.2149 43.4064C82.2149 43.4064 80.9044 43.9993 80.8761 44.3097C80.8478 44.6202 81.8434 45.6367 81.8434 45.6367C81.8434 45.6367 81.3597 51.4783 83.152 52.0431C84.9443 52.6079 93.2817 50.9425 95.7009 45.2981L96.9615 40.3888L96.9624 40.3879Z" fill="white"/>
<path d="M86.1949 43.208C84.7411 43.208 83.5729 41.9896 83.5229 41.9372C83.4551 41.8652 83.4522 41.754 83.5173 41.6782C83.5654 41.623 84.7062 40.3195 86.1864 40.2868C87.6563 40.2428 88.8668 41.5043 88.9168 41.5576C88.9847 41.6296 88.9875 41.7409 88.9225 41.8166C88.8744 41.8718 87.7336 43.1753 86.2524 43.208C86.2326 43.208 86.2128 43.208 86.194 43.208H86.1949ZM83.9406 41.7988C84.2744 42.1027 85.2162 42.8499 86.2439 42.82C87.2876 42.7966 88.1795 42.0148 88.4991 41.6969C88.1701 41.3986 87.2669 40.6748 86.243 40.6748C86.227 40.6748 86.21 40.6748 86.1949 40.6748C85.1512 40.6982 84.2602 41.4809 83.9406 41.7988Z" fill="#0F1217"/>
<path d="M84.5127 39.7199C84.5127 39.7199 87.5759 39.7947 87.8587 39.7199C88.1425 39.6451 86.2795 38.6885 85.7647 38.7259C85.25 38.7633 84.5316 39.4198 84.5127 39.7199Z" fill="#0F1217"/>
<path d="M86.4775 42.3935C86.6802 40.5999 86.2041 40.4802 86.1909 40.4802C84.7804 40.512 83.665 41.8043 83.665 41.8043C83.665 41.8043 84.8379 43.0452 86.2484 43.0134C86.2757 43.0134 86.4417 42.703 86.4766 42.3935H86.4775Z" fill="#0F1217"/>
<path d="M83.666 47.8258C83.5614 47.8258 83.4756 47.7445 83.4709 47.6397C83.4662 47.5331 83.5501 47.4424 83.6576 47.4377C83.6811 47.4368 84.2383 47.4069 84.3213 46.9945C84.343 46.8898 84.442 46.8196 84.5514 46.8421C84.657 46.8627 84.7258 46.9655 84.705 47.0702C84.5617 47.7837 83.7094 47.8239 83.6726 47.8249C83.6707 47.8249 83.6679 47.8249 83.6651 47.8249L83.666 47.8258Z" fill="#0F1217"/>
<path d="M84.1018 52.3438C83.6841 52.3438 83.3409 52.3036 83.0949 52.226C81.278 51.6537 81.5732 46.6275 81.6429 45.7064C81.2451 45.2941 80.653 44.6208 80.6822 44.2907C80.7124 43.9606 81.4072 43.566 82.0276 43.277C82.2906 39.4627 84.181 36.0645 86.9783 34.3879C88.9422 33.2106 91.0984 33.0423 93.0482 33.9157C97.9508 36.1094 97.1636 40.381 97.1551 40.424L95.8908 45.3436C95.8644 45.4465 95.7597 45.511 95.6532 45.4839C95.5486 45.4577 95.4854 45.352 95.5118 45.2482L96.7733 40.3389C96.8025 40.1865 97.4992 36.3338 92.8869 34.2701C91.0569 33.4518 89.0308 33.6117 87.1801 34.7208C84.4629 36.3497 82.6348 39.6815 82.4104 43.4173C82.4066 43.4893 82.3623 43.5529 82.2963 43.5819C81.6947 43.854 81.1216 44.2075 81.0688 44.3384C81.081 44.4637 81.4987 45.0032 81.9842 45.4998C82.0238 45.54 82.0436 45.5952 82.0389 45.6503C81.9078 47.2325 81.8636 51.4321 83.2118 51.8567C84.4761 52.255 89.4287 51.4602 92.8483 48.6614C92.9303 48.5931 93.0538 48.6043 93.1236 48.6876C93.1924 48.7699 93.1811 48.8924 93.0972 48.9606C90.2122 51.3218 86.2118 52.3438 84.1008 52.3438H84.1018Z" fill="#0F1217"/>
<path d="M97.7709 44.1274C97.177 45.4384 95.3536 46.2436 94.1373 45.7021C92.9211 45.1598 92.7721 43.4757 93.3661 42.1656C93.96 40.8545 95.4271 40.2318 96.6433 40.7732C97.8596 41.3155 98.3649 42.8173 97.7709 44.1274Z" fill="white"/>
<path d="M94.7881 43.7252C94.7626 43.7252 94.7362 43.7205 94.7117 43.7102C94.6127 43.6682 94.5665 43.555 94.608 43.4559C94.6278 43.4101 95.0992 42.3235 95.9232 42.0355C96.2674 41.9158 96.619 41.9485 96.9679 42.1355C97.0631 42.186 97.0989 42.3038 97.0471 42.3983C96.9962 42.4937 96.8755 42.5283 96.7821 42.4768C96.5304 42.3431 96.2919 42.3179 96.0533 42.4002C95.3924 42.6302 94.9719 43.5962 94.9682 43.6065C94.9361 43.6803 94.8635 43.7243 94.7881 43.7243V43.7252Z" fill="#0F1217"/>
<path d="M94.9928 46.0668C94.6581 46.0668 94.3394 46.0042 94.0575 45.8789C93.768 45.7498 93.5229 45.5581 93.3277 45.3085C93.2617 45.2243 93.2778 45.1018 93.3626 45.0363C93.4475 44.9709 93.571 44.9858 93.637 45.0709C93.7916 45.2692 93.9877 45.4225 94.2168 45.5245C94.7448 45.7601 95.434 45.7255 96.1081 45.431C96.787 45.1355 97.3272 44.6305 97.5921 44.047C97.859 43.4579 97.8966 42.8098 97.6996 42.2226C97.5044 41.641 97.1 41.1893 96.5625 40.949C95.4462 40.4515 94.0924 41.0331 93.5436 42.2432C93.4984 42.3404 93.3824 42.3834 93.2853 42.3404C93.1863 42.2965 93.143 42.1815 93.1873 42.0842C93.8237 40.6787 95.4114 40.0101 96.7228 40.5946C97.3621 40.8788 97.8401 41.4137 98.0711 42.0992C98.3002 42.779 98.2568 43.5271 97.9485 44.206C97.6459 44.8755 97.0321 45.4515 96.2665 45.7863C95.8394 45.9724 95.4029 46.0659 94.9928 46.0659V46.0668Z" fill="#0F1217"/>
<path d="M85.7896 35.5136C85.7896 35.5136 90.861 42.5035 94.7878 41.1514L97.7596 41.5189L97.2476 37.0575C97.2476 37.0575 94.4154 32.8607 92.2648 32.9954C90.1152 33.131 86.0026 34.0361 85.7896 35.5127V35.5136Z" fill="#0F1217"/>
<path d="M97.7593 41.7122C97.7508 41.7122 97.7432 41.7122 97.7348 41.7104L94.8083 41.3485C90.7947 42.6689 85.8411 35.9155 85.6309 35.6266C85.6016 35.5854 85.5894 35.5358 85.596 35.4854C85.843 33.776 90.2714 32.9269 92.2533 32.8016C94.484 32.6566 97.2926 36.7739 97.4104 36.9488C97.4274 36.975 97.4388 37.004 97.4425 37.0348L97.9544 41.4962C97.961 41.5551 97.9403 41.6141 97.8979 41.6561C97.8611 41.6926 97.8111 41.7122 97.7602 41.7122H97.7593ZM94.7875 40.9567C94.796 40.9567 94.8035 40.9567 94.812 40.9585L97.5368 41.2952L97.0578 37.1265C96.7693 36.7103 94.1634 33.0765 92.2768 33.1887C90.1611 33.3224 86.321 34.193 85.9976 35.4667C86.5294 36.1736 91.1784 42.1901 94.7234 40.9679C94.7441 40.9604 94.7659 40.9576 94.7875 40.9576V40.9567Z" fill="#0F1217"/>
<path d="M51.8785 87.8669V79.9465H53.668V87.8781C53.668 88.7814 54.081 89.6698 54.8503 90.1532C56.1137 90.9472 56.883 92.4415 56.5898 94.091C56.323 95.5975 55.1228 96.8383 53.6133 97.1525C51.1045 97.6743 48.8945 95.7901 48.8945 93.3934C48.8945 92.03 49.612 90.8377 50.6915 90.157C51.4647 89.6698 51.8785 88.7758 51.8785 87.8669V87.8669Z" fill="white"/>
<path d="M52.7807 97.433C51.8445 97.433 50.9394 97.1216 50.2068 96.5316C49.2489 95.7601 48.6992 94.6156 48.6992 93.3924C48.6992 92.0085 49.4054 90.7377 50.5867 89.9924C51.2627 89.566 51.6833 88.7515 51.6833 87.8669V79.9465C51.6833 79.8399 51.7709 79.7529 51.8784 79.7529H53.6679C53.7763 79.7529 53.8631 79.8399 53.8631 79.9465V87.8781C53.8631 88.7571 54.2807 89.566 54.9539 89.9896C56.354 90.8686 57.0714 92.4919 56.7811 94.1246C56.4982 95.718 55.2405 97.0113 53.6528 97.3423C53.3615 97.4031 53.0692 97.433 52.7797 97.433H52.7807ZM52.0736 80.141V87.8678C52.0736 88.8843 51.5842 89.8241 50.796 90.3206C49.7278 90.9939 49.0896 92.1431 49.0896 93.3934C49.0896 94.4987 49.5864 95.5329 50.4529 96.2305C51.3193 96.929 52.4563 97.1955 53.5736 96.9627C55.0076 96.6644 56.1418 95.4974 56.3973 94.0573C56.6594 92.5808 56.0117 91.1126 54.7455 90.3169C53.9602 89.8241 53.4727 88.8889 53.4727 87.879V80.141H52.0736V80.141Z" fill="#0F1217"/>
<path d="M40.0354 102.955C40.7699 102.955 41.3657 102.364 41.3657 101.637V93.1367H38.7061V101.637C38.7061 102.365 39.3019 102.955 40.0354 102.955Z" fill="white"/>
<path d="M40.0352 103.15C39.1942 103.15 38.5098 102.471 38.5098 101.637V93.1369C38.5098 93.0294 38.5974 92.9434 38.7049 92.9434H41.3646C41.4721 92.9434 41.5598 93.0303 41.5598 93.1369V101.637C41.5598 102.471 40.8753 103.15 40.0343 103.15H40.0352ZM38.901 93.3305V101.637C38.901 102.258 39.4102 102.762 40.0352 102.762C40.6603 102.762 41.1695 102.257 41.1695 101.637V93.3305H38.9001H38.901Z" fill="#0F1217"/>
<path d="M35.2322 102.956C34.4987 102.956 33.9028 102.365 33.9028 101.637V93.1369H36.5625V101.637C36.5625 102.365 35.9666 102.956 35.2331 102.956H35.2322Z" fill="white"/>
<path d="M35.2325 103.15C34.3915 103.15 33.707 102.471 33.707 101.637V93.1369C33.707 93.0294 33.7947 92.9434 33.9022 92.9434H36.5619C36.6703 92.9434 36.7571 93.0303 36.7571 93.1369V101.637C36.7571 102.471 36.0726 103.15 35.2316 103.15H35.2325ZM34.0983 93.3305V101.637C34.0983 102.258 34.6074 102.762 35.2325 102.762C35.8576 102.762 36.3667 102.257 36.3667 101.637V93.3305H34.0974H34.0983Z" fill="#0F1217"/>
<path d="M43.075 127.163H44.7607L44.7607 78.8617H43.075L43.075 127.163Z" fill="#0F1217"/>
<path d="M43.075 84.0908H54.9932V83.1604H43.075V84.0908Z" fill="#0F1217"/>
<path d="M31.9998 97.3975H43.918V96.467H31.9998V97.3975Z" fill="#0F1217"/>
<path d="M43.9188 107.513H55.8369V106.582H43.9188V107.513Z" fill="#0F1217"/>
<path d="M44.5106 85.6283C45.4088 85.2594 45.8353 84.2381 45.4632 83.3473C45.0912 82.4565 44.0615 82.0335 43.1634 82.4024C42.2652 82.7714 41.8387 83.7927 42.2107 84.6835C42.5828 85.5743 43.6125 85.9973 44.5106 85.6283Z" fill="#0F1217"/>
<path d="M43.8379 98.6785C44.81 98.6785 45.5981 97.8968 45.5981 96.9326C45.5981 95.9684 44.81 95.1868 43.8379 95.1868C42.8657 95.1868 42.0776 95.9684 42.0776 96.9326C42.0776 97.8968 42.8657 98.6785 43.8379 98.6785Z" fill="#0F1217"/>
<path d="M42.1577 107.446C42.1577 108.41 42.9459 109.192 43.9179 109.192C44.89 109.192 45.6782 108.41 45.6782 107.446C45.6782 106.482 44.89 105.7 43.9179 105.7C42.9459 105.7 42.1577 106.482 42.1577 107.446Z" fill="#0F1217"/>
<path d="M56.4042 94.7112C55.8602 96.184 54.4469 97.2407 52.7744 97.2407C51.1018 97.2407 49.6885 96.184 49.1445 94.7112H56.4042Z" fill="#FF5C5C"/>
<path d="M52.7733 97.4339C51.079 97.4339 49.5469 96.367 48.9595 94.7782C48.9378 94.7184 48.9463 94.652 48.9831 94.6006C49.0199 94.5482 49.0802 94.5173 49.1434 94.5173H56.4031C56.4672 94.5173 56.5266 94.5482 56.5634 94.6006C56.6001 94.6529 56.6086 94.7184 56.5869 94.7782C55.9995 96.367 54.4666 97.4339 52.7733 97.4339ZM49.4347 94.9054C50.0287 96.1968 51.3364 97.0459 52.7733 97.0459C54.2101 97.0459 55.5168 96.1968 56.1117 94.9054H49.4347V94.9054Z" fill="#FF5C5C"/>
<path d="M41.3648 100.543V101.636C41.3648 102.365 40.7689 102.956 40.0345 102.956C39.3 102.956 38.7051 102.365 38.7051 101.636V100.543H41.3648Z" fill="#5C8FCC"/>
<path d="M40.0352 103.15C39.1942 103.15 38.5098 102.471 38.5098 101.637V100.544C38.5098 100.437 38.5974 100.35 38.7049 100.35H41.3646C41.4721 100.35 41.5598 100.437 41.5598 100.544V101.637C41.5598 102.471 40.8753 103.15 40.0343 103.15H40.0352ZM38.901 100.737V101.637C38.901 102.258 39.4102 102.762 40.0352 102.762C40.6603 102.762 41.1695 102.257 41.1695 101.637V100.737H38.9001H38.901Z" fill="#5C8FCC"/>
<path d="M36.563 99.0181V101.636C36.563 102.365 35.9672 102.956 35.2327 102.956C34.4982 102.956 33.9033 102.365 33.9033 101.636V99.0181H36.563Z" fill="#FF5C5C"/>
<path d="M35.2325 103.15C34.3915 103.15 33.707 102.471 33.707 101.637V99.0188C33.707 98.9122 33.7947 98.8252 33.9022 98.8252H36.5619C36.6703 98.8252 36.7571 98.9122 36.7571 99.0188V101.637C36.7571 102.471 36.0726 103.15 35.2316 103.15H35.2325ZM34.0983 99.2123V101.637C34.0983 102.258 34.6074 102.762 35.2325 102.762C35.8576 102.762 36.3667 102.257 36.3667 101.637V99.2123H34.0974H34.0983Z" fill="#FF5C5C"/>
<path d="M52.7807 97.433C51.8445 97.433 50.9394 97.1216 50.2068 96.5316C49.2489 95.7601 48.6992 94.6156 48.6992 93.3924C48.6992 92.0085 49.4054 90.7377 50.5867 89.9924C51.2627 89.566 51.6833 88.7515 51.6833 87.8669V79.9465C51.6833 79.8399 51.7709 79.7529 51.8784 79.7529H53.6679C53.7763 79.7529 53.8631 79.8399 53.8631 79.9465V87.8781C53.8631 88.7571 54.2807 89.566 54.9539 89.9896C56.354 90.8686 57.0714 92.4919 56.7811 94.1246C56.4982 95.718 55.2405 97.0113 53.6528 97.3423C53.3615 97.4031 53.0692 97.433 52.7797 97.433H52.7807ZM52.0736 80.141V87.8678C52.0736 88.8843 51.5842 89.8241 50.796 90.3206C49.7278 90.9939 49.0896 92.1431 49.0896 93.3934C49.0896 94.4987 49.5864 95.5329 50.4529 96.2305C51.3193 96.929 52.4563 97.1955 53.5736 96.9627C55.0076 96.6644 56.1418 95.4974 56.3973 94.0573C56.6594 92.5808 56.0117 91.1126 54.7455 90.3169C53.9602 89.8241 53.4727 88.8889 53.4727 87.879V80.141H52.0736V80.141Z" fill="#0F1217"/>
<path d="M40.0352 103.15C39.1942 103.15 38.5098 102.471 38.5098 101.637V93.1369C38.5098 93.0294 38.5974 92.9434 38.7049 92.9434H41.3646C41.4721 92.9434 41.5598 93.0303 41.5598 93.1369V101.637C41.5598 102.471 40.8753 103.15 40.0343 103.15H40.0352ZM38.901 93.3305V101.637C38.901 102.258 39.4102 102.762 40.0352 102.762C40.6603 102.762 41.1695 102.257 41.1695 101.637V93.3305H38.9001H38.901Z" fill="#0F1217"/>
<path d="M50.3323 113.948C51.0667 113.948 51.6616 113.357 51.6616 112.63V104.129H49.002V112.63C49.002 113.358 49.5978 113.948 50.3323 113.948Z" fill="white"/>
<path d="M50.3321 114.142C49.4911 114.142 48.8066 113.463 48.8066 112.629V104.128C48.8066 104.021 48.8943 103.935 49.0018 103.935H51.6615C51.7699 103.935 51.8566 104.022 51.8566 104.128V112.629C51.8566 113.463 51.1722 114.142 50.3312 114.142H50.3321ZM49.1979 104.323V112.629C49.1979 113.249 49.707 113.753 50.3321 113.753C50.9572 113.753 51.4663 113.249 51.4663 112.629V104.323H49.197H49.1979Z" fill="#0F1217"/>
<path d="M51.6626 109.473V111.501C51.6626 112.852 51.0668 113.948 50.3323 113.948C49.5979 113.948 49.0029 112.852 49.0029 111.501V109.473H51.6626Z" fill="#5C8FCC"/>
<path d="M50.3321 114.142C49.477 114.142 48.8066 112.981 48.8066 111.501V109.473C48.8066 109.365 48.8943 109.279 49.0018 109.279H51.6615C51.769 109.279 51.8566 109.366 51.8566 109.473V111.501C51.8566 112.982 51.1863 114.142 50.3312 114.142H50.3321ZM49.1979 109.666V111.501C49.1979 112.722 49.7174 113.754 50.3321 113.754C50.9468 113.754 51.4663 112.722 51.4663 111.501V109.666H49.1979V109.666Z" fill="#5C8FCC"/>
<path d="M50.3321 114.142C49.4911 114.142 48.8066 113.463 48.8066 112.629V104.128C48.8066 104.021 48.8943 103.935 49.0018 103.935H51.6615C51.7699 103.935 51.8566 104.022 51.8566 104.128V112.629C51.8566 113.463 51.1722 114.142 50.3312 114.142H50.3321ZM49.1979 104.323V112.629C49.1979 113.249 49.707 113.753 50.3321 113.753C50.9572 113.753 51.4663 113.249 51.4663 112.629V104.323H49.197H49.1979Z" fill="#0F1217"/>
<path d="M35.2325 103.15C34.3915 103.15 33.707 102.471 33.707 101.637V93.1369C33.707 93.0294 33.7947 92.9434 33.9022 92.9434H36.5619C36.6703 92.9434 36.7571 93.0303 36.7571 93.1369V101.637C36.7571 102.471 36.0726 103.15 35.2316 103.15H35.2325ZM34.0983 93.3305V101.637C34.0983 102.258 34.6074 102.762 35.2325 102.762C35.8576 102.762 36.3667 102.257 36.3667 101.637V93.3305H34.0974H34.0983Z" fill="#0F1217"/>
<path d="M123.776 124.276H35.3193V127.807H123.776V124.276Z" fill="white"/>
<path d="M123.777 128H35.3197C35.2113 128 35.1245 127.913 35.1245 127.806V124.275C35.1245 124.169 35.2122 124.082 35.3197 124.082H123.777C123.884 124.082 123.972 124.169 123.972 124.275V127.806C123.972 127.914 123.884 128 123.777 128ZM35.5149 127.612H123.581V124.469H35.5149V127.612Z" fill="#0F1217"/>
<path d="M63.8787 109.175C63.6892 109.185 63.479 109.158 63.2819 109.121C63.1763 109.102 63.1056 109.001 63.1264 108.895C63.1462 108.79 63.2452 108.717 63.3545 108.741C63.5271 108.772 63.6968 108.787 63.8787 108.788C64.0268 108.788 64.1757 108.776 64.3247 108.752C64.435 108.738 64.5321 108.807 64.5491 108.912C64.5661 109.017 64.4944 109.116 64.3879 109.134C64.2191 109.161 64.0484 109.175 63.8797 109.175H63.8787ZM65.3326 108.793C65.2647 108.793 65.1987 108.757 65.1628 108.695C65.1091 108.602 65.1421 108.483 65.2364 108.43C65.5202 108.27 65.7719 108.064 65.9822 107.817C66.0529 107.734 66.1755 107.725 66.2575 107.794C66.3404 107.863 66.3499 107.986 66.2801 108.067C66.0397 108.349 65.753 108.584 65.4297 108.768C65.3995 108.785 65.3656 108.793 65.3326 108.793V108.793ZM62.3476 108.758C62.3136 108.758 62.2788 108.749 62.2476 108.73C61.928 108.54 61.6471 108.299 61.4132 108.012C61.3454 107.929 61.3586 107.806 61.4416 107.739C61.5255 107.671 61.649 107.685 61.7169 107.767C61.9224 108.019 62.1685 108.231 62.4485 108.397C62.5409 108.452 62.5711 108.571 62.5154 108.663C62.4796 108.724 62.4145 108.757 62.3476 108.757V108.758ZM66.6534 107.247C66.6308 107.247 66.6082 107.243 66.5856 107.235C66.4847 107.199 66.4319 107.086 66.4696 106.986C66.5818 106.685 66.6384 106.366 66.6384 106.04C66.6384 105.933 66.726 105.846 66.8335 105.846C66.941 105.846 67.0287 105.933 67.0287 106.04C67.0287 106.411 66.9636 106.775 66.8354 107.12C66.8062 107.199 66.7317 107.247 66.6525 107.247H66.6534ZM61.0625 107.184C60.9815 107.184 60.9051 107.133 60.8778 107.053C60.7656 106.727 60.709 106.387 60.709 106.041V105.969C60.7118 105.862 60.8108 105.78 60.9098 105.779C61.0173 105.782 61.1031 105.871 61.1012 105.977V106.04C61.1012 106.344 61.1502 106.642 61.2483 106.926C61.2831 107.028 61.2285 107.138 61.1267 107.172C61.1059 107.18 61.0842 107.183 61.0635 107.183L61.0625 107.184ZM66.6978 105.348C66.6148 105.348 66.5375 105.295 66.5111 105.212C66.413 104.904 66.2612 104.618 66.0614 104.361C65.9954 104.275 66.0114 104.154 66.0963 104.088C66.1821 104.023 66.3046 104.039 66.3706 104.123C66.5997 104.416 66.7722 104.743 66.8835 105.095C66.9165 105.197 66.859 105.306 66.7562 105.338C66.7364 105.343 66.7166 105.347 66.6968 105.347L66.6978 105.348ZM61.1087 105.158C61.0851 105.158 61.0607 105.154 61.0371 105.144C60.9371 105.105 60.8872 104.993 60.9268 104.893C61.0625 104.549 61.2577 104.235 61.5057 103.958C61.5773 103.879 61.7008 103.871 61.7819 103.943C61.863 104.014 61.8696 104.136 61.7979 104.217C61.5811 104.459 61.4104 104.735 61.2907 105.035C61.2605 105.111 61.187 105.157 61.1087 105.157V105.158ZM65.4485 103.744C65.4127 103.744 65.3759 103.735 65.3439 103.714C65.0686 103.541 64.7669 103.42 64.4472 103.352C64.3417 103.33 64.2738 103.227 64.2964 103.122C64.319 103.018 64.4227 102.952 64.5283 102.973C64.8941 103.05 65.2383 103.189 65.5532 103.386C65.6446 103.444 65.672 103.564 65.6144 103.654C65.5767 103.713 65.5136 103.744 65.4485 103.744V103.744ZM62.4654 103.642C62.3966 103.642 62.3287 103.606 62.2929 103.54C62.241 103.446 62.2769 103.328 62.3721 103.278C62.7002 103.103 63.0538 102.987 63.4224 102.935C63.5365 102.918 63.6289 102.994 63.643 103.1C63.6581 103.206 63.5836 103.304 63.4771 103.319C63.1537 103.365 62.8445 103.466 62.5569 103.618C62.5277 103.634 62.4956 103.641 62.4645 103.641L62.4654 103.642Z" fill="#FF5C5C"/>
<path d="M120.951 110.531C120.689 110.531 120.43 110.499 120.181 110.435C120.077 110.408 120.014 110.302 120.041 110.198C120.068 110.095 120.177 110.034 120.279 110.059C120.592 110.14 120.923 110.163 121.243 110.127C121.357 110.122 121.447 110.194 121.458 110.299C121.469 110.405 121.392 110.501 121.285 110.513C121.174 110.524 121.063 110.53 120.951 110.53V110.531ZM122.257 110.218C122.186 110.218 122.118 110.18 122.082 110.113C122.033 110.018 122.071 109.901 122.167 109.851C122.456 109.705 122.713 109.507 122.931 109.266C123.003 109.187 123.128 109.18 123.207 109.251C123.287 109.322 123.295 109.445 123.222 109.525C122.972 109.802 122.677 110.028 122.346 110.197C122.317 110.212 122.287 110.219 122.257 110.219V110.218ZM119.29 110.005C119.251 110.005 119.211 109.994 119.176 109.968C118.874 109.753 118.614 109.488 118.407 109.179C118.348 109.089 118.372 108.97 118.462 108.91C118.552 108.851 118.674 108.875 118.733 108.964C118.914 109.233 119.14 109.465 119.405 109.653C119.492 109.715 119.513 109.837 119.45 109.924C119.411 109.977 119.352 110.005 119.29 110.005V110.005ZM123.617 108.712C123.593 108.712 123.57 108.708 123.547 108.699C123.446 108.661 123.396 108.549 123.434 108.449C123.55 108.149 123.609 107.832 123.609 107.506C123.609 107.469 123.619 107.434 123.638 107.404C123.617 107.376 123.604 107.343 123.601 107.305C123.577 106.982 123.494 106.67 123.355 106.379C123.309 106.282 123.35 106.167 123.448 106.121C123.545 106.076 123.663 106.117 123.709 106.214C123.868 106.549 123.963 106.906 123.991 107.276C123.994 107.318 123.984 107.359 123.963 107.393C123.987 107.425 124 107.464 124 107.507C124 107.88 123.933 108.243 123.8 108.588C123.77 108.666 123.695 108.713 123.617 108.713V108.712ZM118.163 108.32C118.073 108.32 117.992 108.258 117.971 108.167C117.923 107.95 117.898 107.728 117.898 107.505C117.898 107.358 117.908 107.213 117.929 107.07C117.944 106.964 118.038 106.886 118.151 106.905C118.257 106.92 118.332 107.019 118.317 107.125C118.299 107.249 118.289 107.375 118.289 107.504C118.289 107.699 118.311 107.893 118.353 108.082C118.377 108.187 118.311 108.291 118.205 108.314C118.19 108.317 118.176 108.319 118.163 108.319V108.32ZM118.457 106.318C118.424 106.318 118.392 106.309 118.362 106.293C118.268 106.241 118.234 106.123 118.286 106.03C118.468 105.706 118.707 105.422 118.994 105.184C119.076 105.115 119.2 105.126 119.269 105.209C119.338 105.291 119.327 105.413 119.244 105.482C118.994 105.688 118.786 105.936 118.628 106.218C118.592 106.281 118.525 106.317 118.457 106.317V106.318ZM122.926 105.656C122.877 105.656 122.829 105.638 122.79 105.601C122.554 105.377 122.283 105.199 121.984 105.074C121.884 105.032 121.838 104.919 121.879 104.82C121.922 104.721 122.038 104.676 122.136 104.716C122.479 104.86 122.79 105.064 123.062 105.321C123.14 105.395 123.142 105.518 123.067 105.595C123.029 105.634 122.978 105.655 122.926 105.655V105.656ZM120.021 105.021C119.94 105.021 119.864 104.97 119.836 104.89C119.802 104.789 119.856 104.678 119.958 104.644C120.277 104.535 120.61 104.48 120.949 104.48L121.053 104.482C121.16 104.486 121.246 104.575 121.242 104.682C121.238 104.79 121.156 104.874 121.04 104.87L120.949 104.868C120.654 104.868 120.362 104.916 120.083 105.01C120.063 105.018 120.041 105.021 120.02 105.021H120.021Z" fill="#FF5C5C"/>
<path d="M115.337 86.2694C115.271 86.2694 115.209 86.2367 115.173 86.1806L113.152 83.0807C113.113 83.0227 113.11 82.9489 113.141 82.8872L114.837 79.6002C114.87 79.5385 114.932 79.4983 115.002 79.4946L118.72 79.3085C118.786 79.2982 118.856 79.3384 118.893 79.3973L120.915 82.4981C120.954 82.5561 120.956 82.63 120.925 82.6917L119.228 85.9786C119.196 86.0403 119.134 86.0806 119.064 86.0843L115.347 86.2704C115.347 86.2704 115.34 86.2704 115.337 86.2704V86.2694ZM113.541 82.9638L115.44 85.8758L118.932 85.7009L120.526 82.6141L118.627 79.7012L115.134 79.8761L113.541 82.9629V82.9638Z" fill="#0F1217"/>
<path d="M114.119 83.1149C114.087 83.1149 114.054 83.1074 114.025 83.0905C113.931 83.0391 113.896 82.9213 113.948 82.8268L115.302 80.3909C115.354 80.2974 115.474 80.2637 115.567 80.3142C115.661 80.3656 115.696 80.4835 115.644 80.5779L114.29 83.0139C114.254 83.0784 114.187 83.1139 114.119 83.1139V83.1149Z" fill="#0F1217"/>
<path d="M119.884 82.771C119.823 82.771 119.762 82.742 119.724 82.6887L118.21 80.5445C118.149 80.4566 118.169 80.336 118.258 80.2742C118.348 80.2125 118.468 80.234 118.53 80.3219L120.045 82.4661C120.106 82.554 120.085 82.6747 119.997 82.7364C119.963 82.7598 119.923 82.7719 119.884 82.7719V82.771Z" fill="#0F1217"/>
<path d="M120.336 88.4949C120.265 88.4949 120.199 88.4575 120.163 88.3911L118.881 85.9795C118.831 85.885 118.867 85.7672 118.963 85.7176C119.059 85.6681 119.177 85.7036 119.227 85.799L120.509 88.2106C120.559 88.306 120.523 88.4229 120.427 88.4725C120.397 88.4874 120.366 88.4949 120.335 88.4949H120.336Z" fill="#0F1217"/>
<path d="M115.012 79.8827C114.943 79.8827 114.875 79.8462 114.84 79.7807L113.593 77.4981C113.541 77.4037 113.577 77.2859 113.672 77.2354C113.767 77.1849 113.885 77.2195 113.937 77.313L115.184 79.5956C115.236 79.69 115.2 79.8079 115.104 79.8583C115.075 79.8742 115.043 79.8817 115.011 79.8817L115.012 79.8827Z" fill="#0F1217"/>
<path d="M120.671 88.0168C120.228 87.97 119.83 88.2879 119.782 88.7274C119.735 89.167 120.055 89.5616 120.498 89.6093C120.942 89.656 121.339 89.3381 121.388 88.8986C121.435 88.4591 121.114 88.0645 120.671 88.0168Z" fill="#FF5C5C"/>
<path d="M113.696 76.134C113.252 76.0872 112.855 76.4051 112.807 76.8446C112.758 77.2841 113.08 77.6788 113.523 77.7264C113.966 77.7732 114.364 77.4553 114.412 77.0158C114.459 76.5763 114.139 76.1816 113.696 76.134Z" fill="#5C8FCC"/>
<path d="M45.8706 69.0358C45.8348 69.0358 45.7981 69.0255 45.7669 69.0058L42.616 67.0402C42.5566 67.0038 42.5217 66.9383 42.5246 66.8691L42.666 63.1792C42.6688 63.11 42.7084 63.0473 42.7707 63.0146L46.063 61.2912C46.1252 61.2584 46.1997 61.2622 46.2581 61.2987L49.409 63.2643C49.4684 63.3007 49.5033 63.3662 49.5005 63.4354L49.3591 67.1253C49.3562 67.1945 49.3166 67.2572 49.2544 67.289L45.9621 69.0124C45.9338 69.0273 45.9017 69.0348 45.8706 69.0348V69.0358ZM42.9196 66.7719L45.8791 68.6187L48.9716 66.9991L49.1036 63.5336L46.1431 61.6867L43.0507 63.3063L42.9187 66.7719H42.9196Z" fill="#0F1217"/>
<path d="M40.4159 70.126C40.3753 70.126 40.3339 70.1139 40.299 70.0877C40.2122 70.0232 40.1943 69.9025 40.2594 69.8165L42.5636 66.7606C42.6287 66.6745 42.7512 66.6577 42.838 66.7213C42.9247 66.7858 42.9426 66.9064 42.8776 66.9925L40.5733 70.0484C40.5347 70.0998 40.4762 70.126 40.4168 70.126H40.4159Z" fill="#0F1217"/>
<path d="M49.3033 63.6224C49.2176 63.6224 49.1393 63.5663 49.1148 63.4812C49.0856 63.3783 49.1459 63.2708 49.2505 63.2418L52.0903 62.4535C52.194 62.4245 52.3015 62.4853 52.3307 62.5882C52.36 62.691 52.2996 62.7986 52.195 62.8276L49.3552 63.6159C49.3382 63.6205 49.3203 63.6233 49.3024 63.6233L49.3033 63.6224Z" fill="#0F1217"/>
<path d="M46.1527 61.6568C46.1405 61.6568 46.1263 61.6559 46.1131 61.6531C46.0075 61.6316 45.9387 61.5287 45.9613 61.424L46.5826 58.4298C46.6043 58.325 46.7043 58.2558 46.8136 58.2792C46.9192 58.3007 46.9881 58.4036 46.9654 58.5083L46.3441 61.5025C46.3253 61.5942 46.2442 61.6578 46.1527 61.6578V61.6568Z" fill="#0F1217"/>
<path d="M48.4137 63.8954C48.3789 63.8954 48.3431 63.8861 48.311 63.8664L46.0247 62.4591C45.9323 62.4021 45.9049 62.2833 45.9615 62.1917C46.0171 62.1009 46.1387 62.0729 46.2302 62.129L48.5175 63.5363C48.6099 63.5934 48.6372 63.7121 48.5806 63.8038C48.5439 63.8627 48.4797 63.8954 48.4147 63.8954H48.4137Z" fill="#0F1217"/>
<path d="M45.8314 68.2838C45.7946 68.2838 45.7579 68.2736 45.7249 68.253L43.3094 66.6932C43.2189 66.6343 43.1934 66.5146 43.2528 66.4248C43.3122 66.3351 43.4329 66.3098 43.5234 66.3678L45.9389 67.9276C46.0294 67.9865 46.0549 68.1062 45.9955 68.1959C45.9577 68.253 45.8955 68.2838 45.8314 68.2838Z" fill="#0F1217"/>
<path d="M52.6753 62.0382C52.3397 61.7473 51.8296 61.781 51.5364 62.1139C51.2431 62.4468 51.2771 62.9527 51.6127 63.2444C51.9484 63.5353 52.4585 63.5016 52.7517 63.1687C53.0449 62.8358 53.0109 62.3299 52.6753 62.0391V62.0382Z" fill="#5C8FCC"/>
<path d="M47.289 57.5665C46.9534 57.2757 46.4434 57.3093 46.1501 57.6422C45.8569 57.9751 45.8908 58.481 46.2265 58.7718C46.5621 59.0626 47.0722 59.029 47.3654 58.6961C47.6586 58.3632 47.6247 57.8573 47.289 57.5665Z" fill="#FF5C5C"/>
<path d="M40.9926 69.6295C40.657 69.3386 40.1469 69.3723 39.8528 69.7052C39.5596 70.0381 39.5935 70.544 39.9291 70.8358C40.2648 71.1266 40.7748 71.0929 41.069 70.76C41.3622 70.4271 41.3283 69.9212 40.9926 69.6295Z" fill="#FF5C5C"/>
<path d="M111.763 61.1253H108.04C107.971 61.1253 107.906 61.0889 107.871 61.0281L106.01 57.83C105.975 57.7701 105.975 57.6963 106.01 57.6364L107.871 54.4393C107.906 54.3794 107.971 54.342 108.04 54.342H111.763C111.832 54.342 111.897 54.3785 111.932 54.4393L113.793 57.6364C113.828 57.6963 113.828 57.7701 113.793 57.83L111.932 61.0281C111.897 61.0879 111.832 61.1253 111.763 61.1253ZM108.153 60.7373H111.649L113.398 57.7337L111.649 54.7301H108.153L106.404 57.7337L108.153 60.7373Z" fill="#0F1217"/>
<path d="M112.824 57.9274C112.758 57.9274 112.694 57.8947 112.657 57.8339L111.097 55.2885C111.041 55.1969 111.069 55.0781 111.163 55.022C111.254 54.9659 111.375 54.9949 111.431 55.0865L112.992 57.6319C113.047 57.7235 113.019 57.8423 112.926 57.8984C112.895 57.918 112.859 57.9265 112.825 57.9265L112.824 57.9274Z" fill="#0F1217"/>
<path d="M111.455 60.4328H108.498C108.389 60.4328 108.303 60.3458 108.303 60.2392C108.303 60.1326 108.39 60.0457 108.498 60.0457H111.455C111.562 60.0457 111.65 60.1326 111.65 60.2392C111.65 60.3458 111.562 60.4328 111.455 60.4328Z" fill="#0F1217"/>
<path d="M108.04 54.7301C107.975 54.7301 107.912 54.6983 107.874 54.6394L106.58 52.6037C106.523 52.513 106.55 52.3933 106.642 52.3362C106.733 52.2792 106.854 52.3054 106.911 52.397L108.205 54.4327C108.262 54.5235 108.235 54.6431 108.144 54.7002C108.111 54.7208 108.075 54.7301 108.039 54.7301H108.04Z" fill="#0F1217"/>
<path d="M113.623 62.9031C113.574 62.9031 113.525 62.8853 113.488 62.8488L111.627 61.0712C111.548 60.9973 111.546 60.8739 111.621 60.7972C111.696 60.7205 111.82 60.7177 111.897 60.7925L113.758 62.5702C113.837 62.6441 113.838 62.7675 113.764 62.8442C113.725 62.8834 113.674 62.9031 113.622 62.9031H113.623Z" fill="#0F1217"/>
<path d="M113.038 62.9152C113.038 63.3575 113.399 63.7157 113.845 63.7157C114.291 63.7157 114.652 63.3575 114.652 62.9152C114.652 62.4729 114.291 62.1147 113.845 62.1147C113.399 62.1147 113.038 62.4729 113.038 62.9152Z" fill="#5C8FCC"/>
<path d="M105.778 52.2729C105.778 52.7152 106.139 53.0733 106.585 53.0733C107.031 53.0733 107.392 52.7152 107.392 52.2729C107.392 51.8306 107.031 51.4724 106.585 51.4724C106.139 51.4724 105.778 51.8306 105.778 52.2729Z" fill="#FF5C5C"/>
</svg>
