<svg width="52" height="52" viewBox="0 0 52 52" fill="none" xmlns="http://www.w3.org/2000/svg">
<path d="M26 0C11.6405 0 0 11.6405 0 26C0 40.3595 11.6405 52 26 52C40.3595 52 52 40.3595 52 26C52 11.6405 40.3595 0 26 0Z" fill="#5C8FCC"/>
<g clip-path="url(#clip0_41_1438)">
<path d="M37.389 15.4229C37.1431 15.2145 36.8453 15.0767 36.5272 15.024C36.2092 14.9713 35.8828 15.0058 35.5828 15.1237L15.1275 23.1574C14.7687 23.2941 14.4648 23.5449 14.2625 23.8713C14.0603 24.1977 13.971 24.5815 14.0083 24.9636C14.0416 25.3456 14.1978 25.7065 14.4535 25.9922C14.7092 26.2778 15.0507 26.4729 15.4266 26.5482L20.6236 27.5787V34.0721C20.6234 34.4234 20.7276 34.7668 20.9229 35.0588C21.1182 35.3508 21.3959 35.5782 21.7206 35.7121C21.9355 35.7986 22.1649 35.8437 22.3965 35.8451C22.6294 35.8459 22.8601 35.8002 23.0751 35.7108C23.2901 35.6214 23.4851 35.49 23.6487 35.3243L26.5297 32.4543L30.8845 36.2883C31.206 36.5718 31.6194 36.7293 32.048 36.7315C32.2365 36.7354 32.4242 36.7054 32.6021 36.6429C32.8945 36.5504 33.1577 36.3831 33.3656 36.1577C33.5736 35.9322 33.7191 35.6564 33.7877 35.3575L37.9541 17.1626C38.027 16.8487 38.0128 16.5208 37.9133 16.2143C37.8137 15.9077 37.6324 15.6342 37.389 15.4229ZM21.2995 25.9055L15.7812 24.8085L31.2502 18.725L21.2995 25.9055ZM22.3965 34.0721V28.8198L25.1889 31.2797L22.3965 34.0721ZM32.0591 34.9586L22.9284 26.9249L36.0815 17.4286L32.0591 34.9586Z" fill="white"/>
</g>
<defs>
<clipPath id="clip0_41_1438">
<rect width="24" height="24" fill="white" transform="translate(14 14)"/>
</clipPath>
</defs>
</svg>
