<svg width="52" height="52" viewBox="0 0 52 52" fill="none" xmlns="http://www.w3.org/2000/svg">
<path d="M26 0C11.6405 0 0 11.6405 0 26C0 40.3595 11.6405 52 26 52C40.3595 52 52 40.3595 52 26C52 11.6405 40.3595 0 26 0Z" fill="#5C8FCC"/>
<path d="M26.0003 14.5498C24.5488 14.5498 20.1318 14.5498 17.6898 16.7795C16.2356 18.2282 15.5503 20.3215 15.5503 23.3498V24.9998C15.5503 28.0281 16.2356 30.1214 17.7068 31.5866C18.4394 32.2549 19.4382 32.7889 20.6592 33.158L21.0503 33.2757V36.2061C21.0503 36.5498 21.1498 36.5498 21.1828 36.5498C21.2505 36.5498 21.3588 36.5284 21.5645 36.3458C21.614 36.2968 21.977 35.9041 23.7425 33.9263L23.9207 33.7267L24.1875 33.7437C24.7787 33.7806 25.3887 33.7998 26.0003 33.7998C27.4517 33.7998 31.8688 33.7998 34.3108 31.5696C35.7644 30.1209 36.4503 28.0276 36.4503 24.9998V23.3498C36.4503 20.3215 35.765 18.2282 34.2937 16.763C31.8688 14.5498 27.4517 14.5498 26.0003 14.5498Z" fill="#5C8FCC"/>
<path d="M31.1985 27.6693C30.5874 27.1545 30.3053 26.9989 29.4616 26.4923C29.1101 26.2817 28.5744 26.0996 28.2934 26.0996C28.1014 26.0996 27.8715 26.2465 27.7307 26.3873C27.3699 26.7481 27.2517 27.1996 26.6192 27.1996C26.0004 27.1996 24.9197 26.5699 24.1442 25.7559C23.3302 24.9804 22.7004 23.8996 22.7004 23.2809C22.7004 22.6484 23.1437 22.5219 23.5045 22.1605C23.6453 22.0203 23.8004 21.7904 23.8004 21.5984C23.8004 21.3174 23.6184 20.7899 23.4077 20.4385C22.9012 19.5942 22.7461 19.3121 22.2307 18.7016C22.0564 18.4948 21.8578 18.4002 21.6499 18.3996C21.2985 18.3991 20.837 18.5734 20.5246 18.8061C20.0549 19.1564 19.5638 19.6333 19.4323 20.2273C19.4147 20.3081 19.4043 20.3895 19.401 20.4709C19.3757 21.0897 19.6188 21.7178 19.8811 22.2496C20.4988 23.5031 21.3161 24.7164 22.2054 25.7999C22.4898 26.1464 22.7994 26.4687 23.1201 26.78C23.4314 27.1001 23.7537 27.4097 24.1002 27.6946C25.1837 28.584 26.397 29.4013 27.6504 30.0189C28.1773 30.2785 28.7977 30.5172 29.4104 30.4996C29.4979 30.4969 29.5853 30.487 29.6728 30.4677C30.2668 30.3368 30.7436 29.8451 31.094 29.3754C31.3266 29.063 31.501 28.6021 31.5004 28.2501C31.4999 28.0422 31.4053 27.8437 31.1985 27.6693ZM31.5004 24.9996C31.1968 24.9996 30.9504 24.7532 30.9504 24.4496V23.8996C30.9504 21.1705 28.7295 18.9496 26.0004 18.9496C25.6968 18.9496 25.4504 18.7032 25.4504 18.3996C25.4504 18.096 25.6968 17.8496 26.0004 17.8496C29.3362 17.8496 32.0504 20.5639 32.0504 23.8996V24.4496C32.0504 24.7532 31.804 24.9996 31.5004 24.9996ZM28.1223 23.8996C27.8781 23.8996 27.6548 23.7357 27.5905 23.4882C27.4398 22.9102 26.9888 22.4586 26.4129 22.3101C26.1187 22.2337 25.9421 21.9339 26.018 21.6397C26.0939 21.346 26.3931 21.1694 26.6885 21.2448C27.6499 21.4939 28.4034 22.2469 28.6547 23.2105C28.7312 23.5047 28.5552 23.8045 28.2615 23.8815C28.2147 23.8936 28.168 23.8996 28.1223 23.8996Z" fill="white"/>
<path d="M29.8502 24.4503C29.5466 24.4503 29.3002 24.2039 29.3002 23.9003C29.3002 22.1469 27.9285 20.7004 26.1773 20.608C25.8737 20.592 25.6411 20.333 25.657 20.0299C25.673 19.7263 25.9364 19.4931 26.2351 19.5096C28.5709 19.6328 30.4002 21.5617 30.4002 23.9003C30.4002 24.2039 30.1538 24.4503 29.8502 24.4503Z" fill="white"/>
<path d="M26.0003 14C23.5253 14 19.6687 14.2277 17.3191 16.3738C15.6581 18.0276 15.0003 20.3475 15.0003 23.35C15.0003 23.5986 14.9992 23.8758 15.0014 24.175C14.9992 24.4736 15.0003 24.7508 15.0003 24.9994C15.0003 28.0019 15.6581 30.3218 17.3191 31.9756C18.2134 32.7924 19.3288 33.3297 20.5003 33.6839V36.2062C20.5003 37.084 21.0772 37.1 21.1828 37.1H21.1878C21.4595 37.0989 21.6943 36.9658 21.9297 36.7568C22.0183 36.6781 23.0407 35.5385 24.1528 34.2922C24.815 34.3346 25.4442 34.35 25.9997 34.35C28.4747 34.35 32.3308 34.1217 34.6809 31.9756C36.3414 30.3223 36.9997 28.0019 36.9997 24.9994C36.9997 24.7508 37.0008 24.4736 36.9986 24.1744C37.0008 23.8752 36.9997 23.5986 36.9997 23.3494C36.9997 20.347 36.3419 18.0271 34.6809 16.3732C32.3313 14.2277 28.4753 14 26.0003 14ZM35.3503 24.808V24.9994C35.3503 27.6977 34.7755 29.5364 33.543 30.781C31.4079 32.7 27.3406 32.7 25.9997 32.7C25.5916 32.7 24.9294 32.6994 24.1479 32.645C23.9306 32.8892 21.6003 35.4956 21.6003 35.4956V32.271C20.4431 31.9932 19.2996 31.5378 18.4576 30.7816C17.225 29.5364 16.6503 27.6977 16.6503 24.9994V24.808C16.6503 24.615 16.6497 24.4065 16.6514 24.1629C16.6497 23.9429 16.6497 23.735 16.6503 23.5414V23.35C16.6503 20.6517 17.225 18.813 18.4576 17.5684C20.5921 15.6494 24.6599 15.6494 26.0003 15.6494C27.3406 15.6494 31.4079 15.6494 33.5424 17.5684C34.7755 18.813 35.3497 20.6517 35.3497 23.35V23.5414C35.3497 23.7344 35.3503 23.9429 35.3486 24.1865C35.3503 24.4071 35.3503 24.615 35.3503 24.808Z" fill="white"/>
</svg>
