<svg width="52" height="52" viewBox="0 0 52 52" fill="none" xmlns="http://www.w3.org/2000/svg">
<path d="M26 0C11.6405 0 0 11.6405 0 26C0 40.3595 11.6405 52 26 52C40.3595 52 52 40.3595 52 26C52 11.6405 40.3595 0 26 0Z" fill="#5C8FCC"/>
<path d="M34.5805 17.3102C32.2891 15.0133 29.2375 13.75 25.9945 13.75C19.3008 13.75 13.8539 19.1969 13.8539 25.8906C13.8539 28.0289 14.4117 30.118 15.4727 31.9609L13.75 38.25L20.1867 36.5602C21.9586 37.5281 23.9547 38.0367 25.9891 38.0367H25.9945C32.6828 38.0367 38.25 32.5898 38.25 25.8961C38.25 22.6531 36.8719 19.607 34.5805 17.3102V17.3102ZM25.9945 35.9914C24.1789 35.9914 22.4016 35.5047 20.8539 34.5859L20.4875 34.3672L16.6703 35.368L17.6875 31.6438L17.4469 31.2609C16.4352 29.6531 15.9047 27.7992 15.9047 25.8906C15.9047 20.3289 20.4328 15.8008 26 15.8008C28.6961 15.8008 31.2281 16.8508 33.1312 18.7594C35.0344 20.668 36.2047 23.2 36.1992 25.8961C36.1992 31.4633 31.5562 35.9914 25.9945 35.9914V35.9914ZM31.5289 28.4336C31.2281 28.2805 29.7352 27.5477 29.4563 27.4492C29.1773 27.3453 28.975 27.2961 28.7727 27.6023C28.5703 27.9086 27.9906 28.5867 27.8102 28.7945C27.6352 28.9969 27.4547 29.0242 27.1539 28.8711C25.3711 27.9797 24.2008 27.2797 23.025 25.2617C22.7133 24.7258 23.3367 24.7641 23.9164 23.6047C24.0148 23.4023 23.9656 23.2273 23.8891 23.0742C23.8125 22.9211 23.2055 21.4281 22.9539 20.8211C22.7078 20.2305 22.4563 20.3125 22.2703 20.3016C22.0953 20.2906 21.893 20.2906 21.6906 20.2906C21.4883 20.2906 21.1602 20.3672 20.8812 20.668C20.6023 20.9742 19.8203 21.707 19.8203 23.2C19.8203 24.693 20.9086 26.1367 21.0563 26.3391C21.2094 26.5414 23.1945 29.6039 26.2406 30.9219C28.1656 31.7531 28.9203 31.8242 29.8828 31.682C30.468 31.5945 31.6766 30.9492 31.9281 30.2383C32.1797 29.5273 32.1797 28.9203 32.1031 28.7945C32.032 28.6578 31.8297 28.5813 31.5289 28.4336Z" fill="white"/>
</svg>
